<svg xmlns="http://www.w3.org/2000/svg" width="900" height="1100" viewBox="0 0 900 1100" role="img" aria-label="GUARDIAN VESSEL placeholder">
  <defs>
    <linearGradient id="bg" x1="0" y1="0" x2="0.4" y2="1">
      <stop offset="0" stop-color="#e4e6e8"/>
      <stop offset="1" stop-color="#c7ccd1"/>
    </linearGradient>
    <radialGradient id="vig" cx="0.5" cy="0.42" r="0.75">
      <stop offset="0.55" stop-color="#000" stop-opacity="0"/>
      <stop offset="1" stop-color="#000" stop-opacity="0.10"/>
    </radialGradient>
  </defs>
  <rect width="900" height="1100" fill="url(#bg)"/>
  <circle cx="41.14691561253162%" cy="42.89119023198186%" r="0.9" fill="#000" opacity="0.020"/><circle cx="91.99248721996824%" cy="45.57637056979785%" r="0.9" fill="#000" opacity="0.036"/><circle cx="54.21958190694196%" cy="75.85442252258314%" r="0.9" fill="#000" opacity="0.007"/><circle cx="89.38898965101522%" cy="59.314009793173184%" r="0.9" fill="#000" opacity="0.043"/><circle cx="21.932153678497436%" cy="28.012460676242622%" r="0.9" fill="#000" opacity="0.004"/><circle cx="18.549007324648116%" cy="81.45510914708395%" r="0.9" fill="#000" opacity="0.039"/><circle cx="62.82169299834399%" cy="99.73866383408556%" r="0.9" fill="#000" opacity="0.002"/><circle cx="22.404300079227603%" cy="58.860408882628214%" r="0.9" fill="#000" opacity="0.015"/><circle cx="29.044681858868326%" cy="87.84570930084%" r="0.9" fill="#000" opacity="0.011"/><circle cx="65.18651137810771%" cy="69.03051003526319%" r="0.9" fill="#000" opacity="0.046"/><circle cx="48.75439392804637%" cy="11.237539178401768%" r="0.9" fill="#000" opacity="0.017"/><circle cx="84.94282232085746%" cy="71.95824751483696%" r="0.9" fill="#000" opacity="0.017"/><circle cx="71.72646154212808%" cy="63.08805437295315%" r="0.9" fill="#000" opacity="0.006"/><circle cx="40.454710604268016%" cy="90.22266235175246%" r="0.9" fill="#000" opacity="0.045"/><circle cx="85.79761245517975%" cy="57.8355333163462%" r="0.9" fill="#000" opacity="0.019"/><circle cx="86.22499956055316%" cy="46.375637894507385%" r="0.9" fill="#000" opacity="0.020"/><circle cx="13.805498618197543%" cy="24.637904399070344%" r="0.9" fill="#000" opacity="0.020"/><circle cx="75.2603932841328%" cy="6.3655739980028825%" r="0.9" fill="#000" opacity="0.007"/><circle cx="45.39741620739516%" cy="98.20310110899044%" r="0.9" fill="#000" opacity="0.048"/><circle cx="68.39263835385843%" cy="85.68632667256462%" r="0.9" fill="#000" opacity="0.034"/><circle cx="3.255745422584244%" cy="49.48667761196438%" r="0.9" fill="#000" opacity="0.024"/><circle cx="8.703008285811187%" cy="51.34594583346779%" r="0.9" fill="#000" opacity="0.034"/><circle cx="29.92845359223536%" cy="86.92912590131675%" r="0.9" fill="#000" opacity="0.023"/><circle cx="62.23408122913696%" cy="29.646434342057592%" r="0.9" fill="#000" opacity="0.032"/><circle cx="25.914110735356754%" cy="55.369937976766415%" r="0.9" fill="#000" opacity="0.013"/><circle cx="26.793427517548086%" cy="44.42600949212267%" r="0.9" fill="#000" opacity="0.041"/><circle cx="8.285304469317312%" cy="79.71871752964354%" r="0.9" fill="#000" opacity="0.017"/><circle cx="9.188025844954218%" cy="31.590076875186313%" r="0.9" fill="#000" opacity="0.028"/><circle cx="4.398833816252868%" cy="8.92129287186748%" r="0.9" fill="#000" opacity="0.004"/><circle cx="43.237038788432194%" cy="80.41862744698832%" r="0.9" fill="#000" opacity="0.044"/><circle cx="3.399493360277961%" cy="42.11647319521122%" r="0.9" fill="#000" opacity="0.008"/><circle cx="62.036642135702344%" cy="39.063613918733175%" r="0.9" fill="#000" opacity="0.031"/><circle cx="96.23418259352682%" cy="7.293453232294866%" r="0.9" fill="#000" opacity="0.009"/><circle cx="92.62111917416381%" cy="90.89625985527084%" r="0.9" fill="#000" opacity="0.040"/><circle cx="86.9088260322986%" cy="50.884695604228284%" r="0.9" fill="#000" opacity="0.044"/><circle cx="92.26036817744539%" cy="34.87176549575442%" r="0.9" fill="#000" opacity="0.035"/><circle cx="77.87535690549058%" cy="34.241547177538%" r="0.9" fill="#000" opacity="0.023"/><circle cx="82.88887860982173%" cy="44.69675575049167%" r="0.9" fill="#000" opacity="0.003"/><circle cx="93.528412799447%" cy="72.73100496395003%" r="0.9" fill="#000" opacity="0.047"/><circle cx="13.90790344465035%" cy="29.858584949637113%" r="0.9" fill="#000" opacity="0.046"/><circle cx="18.10847471847317%" cy="21.89984485620309%" r="0.9" fill="#000" opacity="0.039"/><circle cx="15.498650647409617%" cy="0.9356884882768646%" r="0.9" fill="#000" opacity="0.036"/><circle cx="14.209414449765612%" cy="5.432596228058262%" r="0.9" fill="#000" opacity="0.042"/><circle cx="72.08456579824161%" cy="11.268174562693522%" r="0.9" fill="#000" opacity="0.050"/><circle cx="92.81251876523265%" cy="8.108988015846064%" r="0.9" fill="#000" opacity="0.033"/><circle cx="44.77637809440235%" cy="49.56089773935426%" r="0.9" fill="#000" opacity="0.013"/><circle cx="47.51911075381061%" cy="91.25834190608468%" r="0.9" fill="#000" opacity="0.025"/><circle cx="52.83103908880544%" cy="37.022706716816145%" r="0.9" fill="#000" opacity="0.002"/><circle cx="13.235482578778901%" cy="26.610785990650843%" r="0.9" fill="#000" opacity="0.029"/><circle cx="35.258633582783425%" cy="60.09339485820557%" r="0.9" fill="#000" opacity="0.028"/><circle cx="85.56940287957576%" cy="48.77092890996406%" r="0.9" fill="#000" opacity="0.003"/><circle cx="53.81926696533744%" cy="58.608651329490456%" r="0.9" fill="#000" opacity="0.017"/><circle cx="83.536692632465%" cy="38.962188447756255%" r="0.9" fill="#000" opacity="0.010"/><circle cx="35.96907084311742%" cy="46.12570242320009%" r="0.9" fill="#000" opacity="0.005"/><circle cx="52.797970271707605%" cy="35.38523636081601%" r="0.9" fill="#000" opacity="0.036"/><circle cx="25.477340122763394%" cy="53.84954141758956%" r="0.9" fill="#000" opacity="0.046"/><circle cx="84.98016751394631%" cy="64.77128519399918%" r="0.9" fill="#000" opacity="0.040"/><circle cx="47.688361877758126%" cy="45.34955661061871%" r="0.9" fill="#000" opacity="0.033"/><circle cx="33.487149270684824%" cy="4.463252548189722%" r="0.9" fill="#000" opacity="0.030"/><circle cx="58.145671353581406%" cy="51.61707949694282%" r="0.9" fill="#000" opacity="0.043"/><circle cx="77.00235769581661%" cy="46.29457486733277%" r="0.9" fill="#000" opacity="0.003"/><circle cx="82.8572929951231%" cy="53.55570139827098%" r="0.9" fill="#000" opacity="0.037"/><circle cx="8.257593484339532%" cy="84.90918293728348%" r="0.9" fill="#000" opacity="0.006"/><circle cx="56.89265253864543%" cy="56.09614131838876%" r="0.9" fill="#000" opacity="0.012"/><circle cx="18.468007831035806%" cy="26.99628871135986%" r="0.9" fill="#000" opacity="0.038"/><circle cx="38.88216278934695%" cy="51.023954080872755%" r="0.9" fill="#000" opacity="0.014"/><circle cx="95.48425060429187%" cy="70.76662406509914%" r="0.9" fill="#000" opacity="0.049"/><circle cx="60.86550461166386%" cy="57.11887120353999%" r="0.9" fill="#000" opacity="0.033"/><circle cx="59.5418796706735%" cy="45.39358899154834%" r="0.9" fill="#000" opacity="0.016"/><circle cx="39.54891379617964%" cy="17.96689558517922%" r="0.9" fill="#000" opacity="0.026"/><circle cx="90.95036687817176%" cy="70.87336791920514%" r="0.9" fill="#000" opacity="0.044"/><circle cx="29.04395451599102%" cy="9.690570539054965%" r="0.9" fill="#000" opacity="0.039"/><circle cx="26.753193571760647%" cy="19.209649254219695%" r="0.9" fill="#000" opacity="0.022"/><circle cx="87.21593229903849%" cy="88.18202083732804%" r="0.9" fill="#000" opacity="0.014"/><circle cx="23.427635166661698%" cy="90.250170818158%" r="0.9" fill="#000" opacity="0.008"/><circle cx="18.436713709008323%" cy="17.978617073789827%" r="0.9" fill="#000" opacity="0.026"/><circle cx="54.01202809622186%" cy="11.430989148528125%" r="0.9" fill="#000" opacity="0.020"/><circle cx="9.224935220496189%" cy="37.62336627167494%" r="0.9" fill="#000" opacity="0.008"/><circle cx="32.186234590229525%" cy="13.292886661578397%" r="0.9" fill="#000" opacity="0.019"/><circle cx="99.46588921306049%" cy="28.41765040222596%" r="0.9" fill="#000" opacity="0.024"/><circle cx="51.13811596203155%" cy="62.145241479657045%" r="0.9" fill="#000" opacity="0.001"/><circle cx="94.64090655217102%" cy="81.85294013514353%" r="0.9" fill="#000" opacity="0.014"/><circle cx="84.14321759543179%" cy="24.616735059848025%" r="0.9" fill="#000" opacity="0.024"/><circle cx="33.502279980980035%" cy="38.060195252448246%" r="0.9" fill="#000" opacity="0.002"/><circle cx="12.339715958324494%" cy="50.28331559247482%" r="0.9" fill="#000" opacity="0.025"/><circle cx="46.37045363320925%" cy="71.68165440941998%" r="0.9" fill="#000" opacity="0.042"/><circle cx="5.035349329674233%" cy="16.682846584066567%" r="0.9" fill="#000" opacity="0.039"/><circle cx="0.6760097934815246%" cy="57.65474079948415%" r="0.9" fill="#000" opacity="0.031"/><circle cx="86.64945136754014%" cy="79.47274917329494%" r="0.9" fill="#000" opacity="0.035"/><circle cx="92.88519468454297%" cy="37.372517244515414%" r="0.9" fill="#000" opacity="0.015"/>
  
    <g transform="translate(450.0,506.0)" opacity="0.9">
      <path d="M -66.96 -256.68
               C -66.96 -306.90000000000003 66.96 -306.90000000000003 66.96 -256.68
               L 55.800000000000004 -223.20000000000002
               C 189.72000000000003 -167.4 223.20000000000002 27.900000000000002 189.72000000000003 156.24
               C 156.24 267.84 -156.24 267.84 -189.72000000000003 156.24
               C -223.20000000000002 27.900000000000002 -189.72000000000003 -167.4 -55.800000000000004 -223.20000000000002
               Z"
            fill="#c7ccd1" stroke="#7d858d" stroke-width="6.696"/>
      <rect x="-89.28" y="-323.64" width="178.56" height="55.800000000000004" rx="16.74"
            fill="#7d858d" opacity="0.55"/>
      <ellipse cx="0" cy="33.48" rx="89.28" ry="111.60000000000001" fill="#7d858d" opacity="0.18"/>
    </g>
  <rect width="900" height="1100" fill="url(#vig)"/>
  <text x="50%" y="1023" text-anchor="middle"
        font-family="Georgia, 'Times New Roman', serif" font-size="27"
        letter-spacing="3" fill="#7d858d" opacity="0.85">GUARDIAN VESSEL</text>
</svg>