<svg xmlns="http://www.w3.org/2000/svg" width="900" height="1100" viewBox="0 0 900 1100" role="img" aria-label="NOMADIC MEMORY placeholder">
  <defs>
    <linearGradient id="bg" x1="0" y1="0" x2="0.4" y2="1">
      <stop offset="0" stop-color="#e9e2d6"/>
      <stop offset="1" stop-color="#cdbfa9"/>
    </linearGradient>
    <radialGradient id="vig" cx="0.5" cy="0.42" r="0.75">
      <stop offset="0.55" stop-color="#000" stop-opacity="0"/>
      <stop offset="1" stop-color="#000" stop-opacity="0.10"/>
    </radialGradient>
  </defs>
  <rect width="900" height="1100" fill="url(#bg)"/>
  <circle cx="83.67723704572288%" cy="72.4172897086241%" r="0.9" fill="#000" opacity="0.040"/><circle cx="71.73417300064081%" cy="69.92754672610663%" r="0.9" fill="#000" opacity="0.034"/><circle cx="32.46356715316605%" cy="84.80974702668014%" r="0.9" fill="#000" opacity="0.035"/><circle cx="49.253132469741615%" cy="8.631101564438914%" r="0.9" fill="#000" opacity="0.031"/><circle cx="10.7352549408956%" cy="65.20194252820502%" r="0.9" fill="#000" opacity="0.047"/><circle cx="57.521272902138776%" cy="97.47106841862812%" r="0.9" fill="#000" opacity="0.034"/><circle cx="24.51515217384782%" cy="27.789315915673118%" r="0.9" fill="#000" opacity="0.029"/><circle cx="66.43210147277115%" cy="55.16327144333787%" r="0.9" fill="#000" opacity="0.031"/><circle cx="45.813597882051205%" cy="45.86566157468772%" r="0.9" fill="#000" opacity="0.029"/><circle cx="40.9598663540081%" cy="11.3307789912093%" r="0.9" fill="#000" opacity="0.024"/><circle cx="5.42529564917692%" cy="91.83726284551099%" r="0.9" fill="#000" opacity="0.002"/><circle cx="28.503383438253806%" cy="13.520560954214854%" r="0.9" fill="#000" opacity="0.031"/><circle cx="64.24786318886659%" cy="28.079361725156083%" r="0.9" fill="#000" opacity="0.004"/><circle cx="22.80389178608879%" cy="80.98404047191731%" r="0.9" fill="#000" opacity="0.021"/><circle cx="17.88514035346509%" cy="84.64918143237571%" r="0.9" fill="#000" opacity="0.004"/><circle cx="90.31873093328014%" cy="0.5452210816520364%" r="0.9" fill="#000" opacity="0.042"/><circle cx="8.328827630932345%" cy="13.02403766176441%" r="0.9" fill="#000" opacity="0.045"/><circle cx="54.87615596423381%" cy="42.994607754225946%" r="0.9" fill="#000" opacity="0.018"/><circle cx="31.587627164115784%" cy="1.3703223785346386%" r="0.9" fill="#000" opacity="0.042"/><circle cx="19.98993381891999%" cy="85.91799916298619%" r="0.9" fill="#000" opacity="0.021"/><circle cx="71.57963356824834%" cy="46.61189868487718%" r="0.9" fill="#000" opacity="0.012"/><circle cx="9.451152050534073%" cy="26.8364590089176%" r="0.9" fill="#000" opacity="0.046"/><circle cx="3.8209161684812365%" cy="69.42805844336749%" r="0.9" fill="#000" opacity="0.036"/><circle cx="34.46620084279034%" cy="35.86073408513052%" r="0.9" fill="#000" opacity="0.011"/><circle cx="83.02971072254522%" cy="64.04694868287078%" r="0.9" fill="#000" opacity="0.006"/><circle cx="39.47629926470707%" cy="70.54518205433736%" r="0.9" fill="#000" opacity="0.033"/><circle cx="11.018249237265831%" cy="36.493892490927635%" r="0.9" fill="#000" opacity="0.022"/><circle cx="44.714308693308816%" cy="96.43479525453897%" r="0.9" fill="#000" opacity="0.017"/><circle cx="0.48341382022056845%" cy="9.5161631368594%" r="0.9" fill="#000" opacity="0.016"/><circle cx="87.61610937025849%" cy="76.57048773379746%" r="0.9" fill="#000" opacity="0.016"/><circle cx="45.00034779064325%" cy="3.176589129007845%" r="0.9" fill="#000" opacity="0.023"/><circle cx="5.830599820814242%" cy="76.63333493775394%" r="0.9" fill="#000" opacity="0.024"/><circle cx="93.49978270448509%" cy="45.60901696711795%" r="0.9" fill="#000" opacity="0.008"/><circle cx="28.192331208475153%" cy="86.79638908971457%" r="0.9" fill="#000" opacity="0.016"/><circle cx="53.50686484856012%" cy="43.300038122315364%" r="0.9" fill="#000" opacity="0.025"/><circle cx="77.60965774499084%" cy="16.8227529739046%" r="0.9" fill="#000" opacity="0.004"/><circle cx="62.8606714833459%" cy="58.78132158178702%" r="0.9" fill="#000" opacity="0.036"/><circle cx="5.338510567649724%" cy="53.73304450877144%" r="0.9" fill="#000" opacity="0.044"/><circle cx="23.028780338822507%" cy="73.29523050186634%" r="0.9" fill="#000" opacity="0.048"/><circle cx="54.97209512682475%" cy="64.3894675412842%" r="0.9" fill="#000" opacity="0.048"/><circle cx="75.22554467574825%" cy="36.85855786708595%" r="0.9" fill="#000" opacity="0.045"/><circle cx="56.10044281336667%" cy="36.33850789684017%" r="0.9" fill="#000" opacity="0.022"/><circle cx="78.3582016866692%" cy="62.617918396466834%" r="0.9" fill="#000" opacity="0.018"/><circle cx="34.013826919366196%" cy="43.72568949928161%" r="0.9" fill="#000" opacity="0.001"/><circle cx="23.791258052398025%" cy="56.28984725896884%" r="0.9" fill="#000" opacity="0.016"/><circle cx="19.551389570057008%" cy="38.91155489440402%" r="0.9" fill="#000" opacity="0.000"/><circle cx="48.65351213116546%" cy="97.10991030812536%" r="0.9" fill="#000" opacity="0.024"/><circle cx="65.21947634904133%" cy="73.96743635308842%" r="0.9" fill="#000" opacity="0.043"/><circle cx="62.000198390237436%" cy="77.21891284747335%" r="0.9" fill="#000" opacity="0.048"/><circle cx="39.085985638325205%" cy="38.93490976429752%" r="0.9" fill="#000" opacity="0.033"/><circle cx="40.0787210375206%" cy="92.34455245782027%" r="0.9" fill="#000" opacity="0.023"/><circle cx="33.350391196289344%" cy="65.00786394929526%" r="0.9" fill="#000" opacity="0.014"/><circle cx="78.97072176072052%" cy="55.67036134117803%" r="0.9" fill="#000" opacity="0.035"/><circle cx="75.13206646692733%" cy="25.65854740965603%" r="0.9" fill="#000" opacity="0.014"/><circle cx="39.925344678070864%" cy="51.96320588160235%" r="0.9" fill="#000" opacity="0.041"/><circle cx="31.90893926122721%" cy="46.31903079326742%" r="0.9" fill="#000" opacity="0.004"/><circle cx="76.65793752850921%" cy="89.39855261690927%" r="0.9" fill="#000" opacity="0.030"/><circle cx="47.752059859139685%" cy="9.850326582530455%" r="0.9" fill="#000" opacity="0.017"/><circle cx="81.38104603875568%" cy="25.307876004266895%" r="0.9" fill="#000" opacity="0.023"/><circle cx="26.38914022656612%" cy="26.405404676603872%" r="0.9" fill="#000" opacity="0.041"/><circle cx="91.27917305446958%" cy="62.942472650559026%" r="0.9" fill="#000" opacity="0.041"/><circle cx="50.16369558555339%" cy="58.836245896540085%" r="0.9" fill="#000" opacity="0.027"/><circle cx="42.6125525650908%" cy="45.48492417000386%" r="0.9" fill="#000" opacity="0.007"/><circle cx="69.385737546368%" cy="9.382989503725437%" r="0.9" fill="#000" opacity="0.050"/><circle cx="31.567043334322655%" cy="36.002443629126724%" r="0.9" fill="#000" opacity="0.029"/><circle cx="6.19634134447894%" cy="54.49724161660332%" r="0.9" fill="#000" opacity="0.036"/><circle cx="0.19870531126878754%" cy="85.32567104540873%" r="0.9" fill="#000" opacity="0.004"/><circle cx="93.71396676367023%" cy="92.55121156305226%" r="0.9" fill="#000" opacity="0.013"/><circle cx="94.43059751438983%" cy="11.603528348753311%" r="0.9" fill="#000" opacity="0.005"/><circle cx="93.18080620398538%" cy="96.60492516479248%" r="0.9" fill="#000" opacity="0.029"/><circle cx="96.1613986391888%" cy="93.88541781152665%" r="0.9" fill="#000" opacity="0.032"/><circle cx="23.86329110325566%" cy="70.0489166699713%" r="0.9" fill="#000" opacity="0.045"/><circle cx="79.53001433140278%" cy="86.47789125071829%" r="0.9" fill="#000" opacity="0.048"/><circle cx="91.36448575200741%" cy="83.40798417164457%" r="0.9" fill="#000" opacity="0.045"/><circle cx="70.1489156588338%" cy="62.32935846869426%" r="0.9" fill="#000" opacity="0.016"/><circle cx="15.366782473277285%" cy="18.396388523998386%" r="0.9" fill="#000" opacity="0.041"/><circle cx="98.06527007514052%" cy="33.99325801605718%" r="0.9" fill="#000" opacity="0.012"/><circle cx="6.154067410098141%" cy="39.55163885559871%" r="0.9" fill="#000" opacity="0.006"/><circle cx="59.74097806873431%" cy="5.306136324133714%" r="0.9" fill="#000" opacity="0.022"/><circle cx="6.241678408563467%" cy="7.511816200106947%" r="0.9" fill="#000" opacity="0.039"/><circle cx="51.193584549465285%" cy="22.101981834067807%" r="0.9" fill="#000" opacity="0.043"/><circle cx="49.29934880815103%" cy="88.08449164190266%" r="0.9" fill="#000" opacity="0.013"/><circle cx="9.163554324026835%" cy="53.04840309945354%" r="0.9" fill="#000" opacity="0.006"/><circle cx="6.528725897001797%" cy="84.86231952562943%" r="0.9" fill="#000" opacity="0.023"/><circle cx="15.836726319784965%" cy="86.8431984490672%" r="0.9" fill="#000" opacity="0.025"/><circle cx="15.630645347588745%" cy="84.20617531278232%" r="0.9" fill="#000" opacity="0.029"/><circle cx="15.503818763150923%" cy="44.68731465168161%" r="0.9" fill="#000" opacity="0.039"/><circle cx="77.4847223990991%" cy="82.71315954615116%" r="0.9" fill="#000" opacity="0.045"/><circle cx="86.54001014616097%" cy="36.3190399767493%" r="0.9" fill="#000" opacity="0.036"/><circle cx="32.750588192037654%" cy="14.508857693800369%" r="0.9" fill="#000" opacity="0.022"/>
  
    <g transform="translate(450.0,506.0)" opacity="0.9">
      <path d="M -66.96 -256.68
               C -66.96 -306.90000000000003 66.96 -306.90000000000003 66.96 -256.68
               L 55.800000000000004 -223.20000000000002
               C 189.72000000000003 -167.4 223.20000000000002 27.900000000000002 189.72000000000003 156.24
               C 156.24 267.84 -156.24 267.84 -189.72000000000003 156.24
               C -223.20000000000002 27.900000000000002 -189.72000000000003 -167.4 -55.800000000000004 -223.20000000000002
               Z"
            fill="#cdbfa9" stroke="#7c6f59" stroke-width="6.696"/>
      <rect x="-89.28" y="-323.64" width="178.56" height="55.800000000000004" rx="16.74"
            fill="#7c6f59" opacity="0.55"/>
      <ellipse cx="0" cy="33.48" rx="89.28" ry="111.60000000000001" fill="#7c6f59" opacity="0.18"/>
    </g>
  <rect width="900" height="1100" fill="url(#vig)"/>
  <text x="50%" y="1023" text-anchor="middle"
        font-family="Georgia, 'Times New Roman', serif" font-size="27"
        letter-spacing="3" fill="#7c6f59" opacity="0.85">NOMADIC MEMORY</text>
</svg>