<svg xmlns="http://www.w3.org/2000/svg" width="900" height="1100" viewBox="0 0 900 1100" role="img" aria-label="SACRED LAKE placeholder">
  <defs>
    <linearGradient id="bg" x1="0" y1="0" x2="0.4" y2="1">
      <stop offset="0" stop-color="#dde6ea"/>
      <stop offset="1" stop-color="#b9ccd6"/>
    </linearGradient>
    <radialGradient id="vig" cx="0.5" cy="0.42" r="0.75">
      <stop offset="0.55" stop-color="#000" stop-opacity="0"/>
      <stop offset="1" stop-color="#000" stop-opacity="0.10"/>
    </radialGradient>
  </defs>
  <rect width="900" height="1100" fill="url(#bg)"/>
  <circle cx="63.773207746980496%" cy="30.061635945038844%" r="0.9" fill="#000" opacity="0.035"/><circle cx="52.04622036281865%" cy="42.62380695375112%" r="0.9" fill="#000" opacity="0.001"/><circle cx="38.77676795047561%" cy="62.616033781866406%" r="0.9" fill="#000" opacity="0.010"/><circle cx="34.55519385475%" cy="20.721956099132388%" r="0.9" fill="#000" opacity="0.038"/><circle cx="74.52291570426526%" cy="82.88345290542969%" r="0.9" fill="#000" opacity="0.046"/><circle cx="70.88715037487955%" cy="86.75258967244885%" r="0.9" fill="#000" opacity="0.002"/><circle cx="33.64552458441869%" cy="24.931821641731887%" r="0.9" fill="#000" opacity="0.012"/><circle cx="39.60632396121451%" cy="50.922976480834755%" r="0.9" fill="#000" opacity="0.042"/><circle cx="31.628880236646452%" cy="35.37176609576351%" r="0.9" fill="#000" opacity="0.044"/><circle cx="4.202443101335806%" cy="1.5648799035293925%" r="0.9" fill="#000" opacity="0.001"/><circle cx="78.29982657179482%" cy="76.04457448591289%" r="0.9" fill="#000" opacity="0.030"/><circle cx="21.464482455558386%" cy="73.68895039728378%" r="0.9" fill="#000" opacity="0.007"/><circle cx="79.0895349248712%" cy="99.9859654218962%" r="0.9" fill="#000" opacity="0.040"/><circle cx="15.089689559879837%" cy="29.05434515528619%" r="0.9" fill="#000" opacity="0.014"/><circle cx="91.57228230765573%" cy="74.06305983646622%" r="0.9" fill="#000" opacity="0.021"/><circle cx="28.767980872766564%" cy="7.42772003595773%" r="0.9" fill="#000" opacity="0.036"/><circle cx="25.465347672976957%" cy="64.09023820345297%" r="0.9" fill="#000" opacity="0.027"/><circle cx="55.41270607350097%" cy="96.92776471334402%" r="0.9" fill="#000" opacity="0.003"/><circle cx="16.59288573363976%" cy="60.90998523529765%" r="0.9" fill="#000" opacity="0.000"/><circle cx="90.35601490301819%" cy="9.986398472275337%" r="0.9" fill="#000" opacity="0.050"/><circle cx="74.53737555747959%" cy="82.41163846060925%" r="0.9" fill="#000" opacity="0.008"/><circle cx="9.286618285654225%" cy="99.69692112075067%" r="0.9" fill="#000" opacity="0.019"/><circle cx="93.86250621110139%" cy="5.899573937535463%" r="0.9" fill="#000" opacity="0.026"/><circle cx="60.957837224976544%" cy="74.9606887290718%" r="0.9" fill="#000" opacity="0.015"/><circle cx="35.61536887712061%" cy="90.94619964414011%" r="0.9" fill="#000" opacity="0.050"/><circle cx="19.358485305198325%" cy="40.01073394562492%" r="0.9" fill="#000" opacity="0.012"/><circle cx="20.828547060477266%" cy="39.644066721668224%" r="0.9" fill="#000" opacity="0.037"/><circle cx="63.96998486147768%" cy="29.482831919895645%" r="0.9" fill="#000" opacity="0.007"/><circle cx="76.56438828266539%" cy="57.65369431382707%" r="0.9" fill="#000" opacity="0.043"/><circle cx="76.9056956342938%" cy="72.37003240191451%" r="0.9" fill="#000" opacity="0.025"/><circle cx="9.159033164075236%" cy="64.20961033284198%" r="0.9" fill="#000" opacity="0.033"/><circle cx="38.330302634931066%" cy="30.56213143837909%" r="0.9" fill="#000" opacity="0.029"/><circle cx="87.6990972739158%" cy="34.887774782474445%" r="0.9" fill="#000" opacity="0.012"/><circle cx="97.51015775615309%" cy="59.481499270261025%" r="0.9" fill="#000" opacity="0.026"/><circle cx="86.24756249262849%" cy="7.157238066686311%" r="0.9" fill="#000" opacity="0.009"/><circle cx="58.02216444923714%" cy="28.154327923543974%" r="0.9" fill="#000" opacity="0.036"/><circle cx="54.091201978396676%" cy="88.21640261603486%" r="0.9" fill="#000" opacity="0.029"/><circle cx="66.17311102373135%" cy="56.54602727098792%" r="0.9" fill="#000" opacity="0.018"/><circle cx="27.16965439825759%" cy="95.08799282699233%" r="0.9" fill="#000" opacity="0.047"/><circle cx="27.853676145248762%" cy="0.888924443037975%" r="0.9" fill="#000" opacity="0.004"/><circle cx="95.28365858687047%" cy="46.905249514856386%" r="0.9" fill="#000" opacity="0.034"/><circle cx="70.23602522347626%" cy="34.27485320313549%" r="0.9" fill="#000" opacity="0.011"/><circle cx="68.33230046951964%" cy="89.00435359063438%" r="0.9" fill="#000" opacity="0.037"/><circle cx="80.50749568015152%" cy="77.44524580155722%" r="0.9" fill="#000" opacity="0.002"/><circle cx="58.57577991141887%" cy="74.71281757286079%" r="0.9" fill="#000" opacity="0.039"/><circle cx="5.486641693701976%" cy="53.880367903773795%" r="0.9" fill="#000" opacity="0.026"/><circle cx="51.34214119260625%" cy="34.421027977717124%" r="0.9" fill="#000" opacity="0.024"/><circle cx="5.779414997019372%" cy="80.20397940471327%" r="0.9" fill="#000" opacity="0.050"/><circle cx="41.89467613554877%" cy="77.72516522669753%" r="0.9" fill="#000" opacity="0.049"/><circle cx="61.28277861035099%" cy="83.96924728861129%" r="0.9" fill="#000" opacity="0.048"/><circle cx="86.21488398744714%" cy="54.8789075237998%" r="0.9" fill="#000" opacity="0.037"/><circle cx="71.17960119205797%" cy="39.215512790380544%" r="0.9" fill="#000" opacity="0.026"/><circle cx="22.791158112403863%" cy="20.506688508822634%" r="0.9" fill="#000" opacity="0.044"/><circle cx="95.99249268359678%" cy="44.412520059958524%" r="0.9" fill="#000" opacity="0.019"/><circle cx="30.099374789049605%" cy="75.79715531726323%" r="0.9" fill="#000" opacity="0.026"/><circle cx="44.848885549802006%" cy="77.9019983792056%" r="0.9" fill="#000" opacity="0.001"/><circle cx="46.28686791281243%" cy="81.41679471194469%" r="0.9" fill="#000" opacity="0.028"/><circle cx="86.35903858321241%" cy="32.35246710193893%" r="0.9" fill="#000" opacity="0.036"/><circle cx="92.80940957804614%" cy="34.53479970944433%" r="0.9" fill="#000" opacity="0.028"/><circle cx="0.6316762129101594%" cy="60.31783182970557%" r="0.9" fill="#000" opacity="0.014"/><circle cx="17.739543038776617%" cy="58.13029219491296%" r="0.9" fill="#000" opacity="0.028"/><circle cx="83.99487209952288%" cy="9.110424417895569%" r="0.9" fill="#000" opacity="0.027"/><circle cx="64.52341591995936%" cy="28.018562998161844%" r="0.9" fill="#000" opacity="0.038"/><circle cx="51.564223473294625%" cy="46.768994253486916%" r="0.9" fill="#000" opacity="0.006"/><circle cx="71.63586985799301%" cy="33.72610204232811%" r="0.9" fill="#000" opacity="0.042"/><circle cx="97.56166041963694%" cy="96.12868946752545%" r="0.9" fill="#000" opacity="0.038"/><circle cx="61.139423028053464%" cy="13.178576707624668%" r="0.9" fill="#000" opacity="0.047"/><circle cx="55.72653802049189%" cy="53.19487140712044%" r="0.9" fill="#000" opacity="0.007"/><circle cx="11.654881530618821%" cy="80.56950968280206%" r="0.9" fill="#000" opacity="0.029"/><circle cx="26.238920654281518%" cy="50.23734426594167%" r="0.9" fill="#000" opacity="0.021"/><circle cx="99.21980059568195%" cy="24.115116836317306%" r="0.9" fill="#000" opacity="0.035"/><circle cx="21.728717784157947%" cy="64.20201178343862%" r="0.9" fill="#000" opacity="0.040"/><circle cx="9.611093912226155%" cy="97.75867468698249%" r="0.9" fill="#000" opacity="0.021"/><circle cx="4.992327791193329%" cy="25.221711356829136%" r="0.9" fill="#000" opacity="0.042"/><circle cx="34.71505964014068%" cy="62.027946725106375%" r="0.9" fill="#000" opacity="0.021"/><circle cx="61.977629409403015%" cy="13.824836115770001%" r="0.9" fill="#000" opacity="0.008"/><circle cx="66.55892821016779%" cy="41.046211318873816%" r="0.9" fill="#000" opacity="0.007"/><circle cx="94.16510851731663%" cy="82.72647528783726%" r="0.9" fill="#000" opacity="0.014"/><circle cx="42.48189058815582%" cy="61.59336614459853%" r="0.9" fill="#000" opacity="0.012"/><circle cx="3.58045583876343%" cy="1.0894449482712232%" r="0.9" fill="#000" opacity="0.033"/><circle cx="30.250080492264242%" cy="24.040585456892405%" r="0.9" fill="#000" opacity="0.037"/><circle cx="69.54430403957257%" cy="12.206067459294411%" r="0.9" fill="#000" opacity="0.001"/><circle cx="25.839843172072186%" cy="93.75128189340425%" r="0.9" fill="#000" opacity="0.020"/><circle cx="45.14537880541369%" cy="9.788835418641062%" r="0.9" fill="#000" opacity="0.002"/><circle cx="11.644110458205315%" cy="76.05627627985284%" r="0.9" fill="#000" opacity="0.010"/><circle cx="48.447066501151404%" cy="75.09689748452502%" r="0.9" fill="#000" opacity="0.048"/><circle cx="3.508459180153145%" cy="57.28060027674883%" r="0.9" fill="#000" opacity="0.037"/><circle cx="3.2847711659638845%" cy="58.310282341725774%" r="0.9" fill="#000" opacity="0.044"/><circle cx="46.0612954030964%" cy="37.7008556605009%" r="0.9" fill="#000" opacity="0.013"/><circle cx="28.882858788882583%" cy="3.4149496184561645%" r="0.9" fill="#000" opacity="0.019"/>
  
    <g transform="translate(450.0,506.0)" opacity="0.9">
      <path d="M -66.96 -256.68
               C -66.96 -306.90000000000003 66.96 -306.90000000000003 66.96 -256.68
               L 55.800000000000004 -223.20000000000002
               C 189.72000000000003 -167.4 223.20000000000002 27.900000000000002 189.72000000000003 156.24
               C 156.24 267.84 -156.24 267.84 -189.72000000000003 156.24
               C -223.20000000000002 27.900000000000002 -189.72000000000003 -167.4 -55.800000000000004 -223.20000000000002
               Z"
            fill="#b9ccd6" stroke="#5b7c8c" stroke-width="6.696"/>
      <rect x="-89.28" y="-323.64" width="178.56" height="55.800000000000004" rx="16.74"
            fill="#5b7c8c" opacity="0.55"/>
      <ellipse cx="0" cy="33.48" rx="89.28" ry="111.60000000000001" fill="#5b7c8c" opacity="0.18"/>
    </g>
  <rect width="900" height="1100" fill="url(#vig)"/>
  <text x="50%" y="1023" text-anchor="middle"
        font-family="Georgia, 'Times New Roman', serif" font-size="27"
        letter-spacing="3" fill="#5b7c8c" opacity="0.85">SACRED LAKE</text>
</svg>