<svg xmlns="http://www.w3.org/2000/svg" width="900" height="1100" viewBox="0 0 900 1100" role="img" aria-label="TRAUMA SCENT placeholder">
  <defs>
    <linearGradient id="bg" x1="0" y1="0" x2="0.4" y2="1">
      <stop offset="0" stop-color="#efe6d8"/>
      <stop offset="1" stop-color="#dac9af"/>
    </linearGradient>
    <radialGradient id="vig" cx="0.5" cy="0.42" r="0.75">
      <stop offset="0.55" stop-color="#000" stop-opacity="0"/>
      <stop offset="1" stop-color="#000" stop-opacity="0.10"/>
    </radialGradient>
  </defs>
  <rect width="900" height="1100" fill="url(#bg)"/>
  <circle cx="75.91751927699764%" cy="78.70654877489683%" r="0.9" fill="#000" opacity="0.044"/><circle cx="51.33054368354814%" cy="14.498518982995778%" r="0.9" fill="#000" opacity="0.020"/><circle cx="63.94728101622873%" cy="47.924220604475224%" r="0.9" fill="#000" opacity="0.031"/><circle cx="90.02181667612871%" cy="40.572465570762816%" r="0.9" fill="#000" opacity="0.018"/><circle cx="36.8604481623387%" cy="72.55385598600736%" r="0.9" fill="#000" opacity="0.031"/><circle cx="83.06578345209797%" cy="2.3835382055486187%" r="0.9" fill="#000" opacity="0.026"/><circle cx="80.23481619467836%" cy="87.02428863396945%" r="0.9" fill="#000" opacity="0.015"/><circle cx="36.70260532630104%" cy="84.34104340717323%" r="0.9" fill="#000" opacity="0.001"/><circle cx="76.96917861142666%" cy="79.56493550978088%" r="0.9" fill="#000" opacity="0.034"/><circle cx="88.01637338369511%" cy="22.516047330169187%" r="0.9" fill="#000" opacity="0.032"/><circle cx="98.50417548681753%" cy="48.42621133731028%" r="0.9" fill="#000" opacity="0.012"/><circle cx="39.89200104826711%" cy="40.90798536365908%" r="0.9" fill="#000" opacity="0.024"/><circle cx="80.59863357387258%" cy="5.288919916171486%" r="0.9" fill="#000" opacity="0.004"/><circle cx="22.7727305142141%" cy="19.105230556457652%" r="0.9" fill="#000" opacity="0.015"/><circle cx="17.789607506006444%" cy="16.691561273814592%" r="0.9" fill="#000" opacity="0.033"/><circle cx="95.71802394090525%" cy="67.28294512371245%" r="0.9" fill="#000" opacity="0.034"/><circle cx="76.53812347038946%" cy="76.46641757895532%" r="0.9" fill="#000" opacity="0.029"/><circle cx="97.12669443052567%" cy="67.59005937392871%" r="0.9" fill="#000" opacity="0.008"/><circle cx="83.7932344821467%" cy="9.559831455779355%" r="0.9" fill="#000" opacity="0.033"/><circle cx="88.52700492600935%" cy="40.37996794586066%" r="0.9" fill="#000" opacity="0.023"/><circle cx="96.27706171928203%" cy="10.504683261049863%" r="0.9" fill="#000" opacity="0.022"/><circle cx="21.17666819193338%" cy="35.65828819182714%" r="0.9" fill="#000" opacity="0.012"/><circle cx="58.97455817384597%" cy="41.18522544359182%" r="0.9" fill="#000" opacity="0.030"/><circle cx="73.20413310899202%" cy="98.37957790381824%" r="0.9" fill="#000" opacity="0.020"/><circle cx="69.3725536406466%" cy="93.30295589936837%" r="0.9" fill="#000" opacity="0.031"/><circle cx="69.45943858559009%" cy="53.02297481354793%" r="0.9" fill="#000" opacity="0.016"/><circle cx="7.790650172462077%" cy="85.00356769444828%" r="0.9" fill="#000" opacity="0.049"/><circle cx="73.11075678093178%" cy="83.44128700389558%" r="0.9" fill="#000" opacity="0.048"/><circle cx="56.7120069288487%" cy="77.19455189201506%" r="0.9" fill="#000" opacity="0.046"/><circle cx="47.81516369781957%" cy="81.84602489558912%" r="0.9" fill="#000" opacity="0.001"/><circle cx="25.28816007835809%" cy="54.95835099993359%" r="0.9" fill="#000" opacity="0.033"/><circle cx="16.018301734172535%" cy="71.16776408711503%" r="0.9" fill="#000" opacity="0.018"/><circle cx="73.16307285405728%" cy="51.18258994318122%" r="0.9" fill="#000" opacity="0.000"/><circle cx="1.7456478275326148%" cy="72.3455973003045%" r="0.9" fill="#000" opacity="0.010"/><circle cx="22.481018643663653%" cy="92.21720017918966%" r="0.9" fill="#000" opacity="0.041"/><circle cx="9.370711096915885%" cy="59.72644660096108%" r="0.9" fill="#000" opacity="0.044"/><circle cx="47.242274955466016%" cy="23.135901818071147%" r="0.9" fill="#000" opacity="0.031"/><circle cx="35.51557156666093%" cy="98.6020108087038%" r="0.9" fill="#000" opacity="0.025"/><circle cx="44.90556708933885%" cy="23.684832805391476%" r="0.9" fill="#000" opacity="0.003"/><circle cx="2.8847378019850933%" cy="12.205806692965826%" r="0.9" fill="#000" opacity="0.014"/><circle cx="77.45504688031222%" cy="54.44137775802245%" r="0.9" fill="#000" opacity="0.048"/><circle cx="16.68850549957095%" cy="44.21988512093773%" r="0.9" fill="#000" opacity="0.029"/><circle cx="32.35242721744665%" cy="81.3947533469231%" r="0.9" fill="#000" opacity="0.029"/><circle cx="93.10861450734406%" cy="20.088941891766552%" r="0.9" fill="#000" opacity="0.013"/><circle cx="61.80125502194988%" cy="31.051885256364365%" r="0.9" fill="#000" opacity="0.048"/><circle cx="90.19306979544419%" cy="55.46787871403468%" r="0.9" fill="#000" opacity="0.003"/><circle cx="90.83992320516583%" cy="19.02697785725872%" r="0.9" fill="#000" opacity="0.024"/><circle cx="28.038334399849695%" cy="41.755158088123856%" r="0.9" fill="#000" opacity="0.048"/><circle cx="93.28351231126231%" cy="92.96783173274176%" r="0.9" fill="#000" opacity="0.038"/><circle cx="50.526297376840205%" cy="12.810137948983613%" r="0.9" fill="#000" opacity="0.003"/><circle cx="86.58218973783934%" cy="34.18108781205008%" r="0.9" fill="#000" opacity="0.021"/><circle cx="75.74157272796508%" cy="98.89824571338809%" r="0.9" fill="#000" opacity="0.038"/><circle cx="23.24502988382572%" cy="82.10393669078346%" r="0.9" fill="#000" opacity="0.038"/><circle cx="20.840139782617584%" cy="93.24401889498823%" r="0.9" fill="#000" opacity="0.048"/><circle cx="97.63882072163906%" cy="79.78619747767264%" r="0.9" fill="#000" opacity="0.005"/><circle cx="70.59915532946307%" cy="48.43387898673218%" r="0.9" fill="#000" opacity="0.038"/><circle cx="95.48043678580585%" cy="4.459590659335233%" r="0.9" fill="#000" opacity="0.039"/><circle cx="30.77632706037754%" cy="99.71107052377428%" r="0.9" fill="#000" opacity="0.024"/><circle cx="59.048951608185476%" cy="24.025117738525026%" r="0.9" fill="#000" opacity="0.041"/><circle cx="18.62129849554659%" cy="13.060263393459504%" r="0.9" fill="#000" opacity="0.034"/><circle cx="18.104887015264026%" cy="85.76276730075033%" r="0.9" fill="#000" opacity="0.047"/><circle cx="34.40672214970372%" cy="85.33101265256083%" r="0.9" fill="#000" opacity="0.031"/><circle cx="51.957571536332814%" cy="49.05633160246784%" r="0.9" fill="#000" opacity="0.012"/><circle cx="49.370953804216036%" cy="65.10893664351411%" r="0.9" fill="#000" opacity="0.003"/><circle cx="48.48301387467912%" cy="80.5227545715228%" r="0.9" fill="#000" opacity="0.048"/><circle cx="87.02159153688616%" cy="41.21163771582943%" r="0.9" fill="#000" opacity="0.008"/><circle cx="50.57123760200908%" cy="97.91772754826782%" r="0.9" fill="#000" opacity="0.005"/><circle cx="96.56041967736695%" cy="19.72841855236013%" r="0.9" fill="#000" opacity="0.029"/><circle cx="82.84240549410386%" cy="13.599536688331149%" r="0.9" fill="#000" opacity="0.011"/><circle cx="25.504821116235664%" cy="1.8644031809425754%" r="0.9" fill="#000" opacity="0.031"/><circle cx="25.4917089127094%" cy="76.01806752889951%" r="0.9" fill="#000" opacity="0.029"/><circle cx="91.81784970272705%" cy="58.602685976824745%" r="0.9" fill="#000" opacity="0.001"/><circle cx="41.82233233288321%" cy="56.268639444115074%" r="0.9" fill="#000" opacity="0.014"/><circle cx="57.97331599677354%" cy="42.71148333503246%" r="0.9" fill="#000" opacity="0.028"/><circle cx="18.443206832687085%" cy="93.1513822329693%" r="0.9" fill="#000" opacity="0.038"/><circle cx="99.09334086125412%" cy="35.793651859482%" r="0.9" fill="#000" opacity="0.004"/><circle cx="88.57950808674372%" cy="44.19554820518003%" r="0.9" fill="#000" opacity="0.045"/><circle cx="75.49064371947678%" cy="40.37420848857926%" r="0.9" fill="#000" opacity="0.022"/><circle cx="68.0255536155415%" cy="61.624865936009684%" r="0.9" fill="#000" opacity="0.048"/><circle cx="85.58579975963644%" cy="1.8330175330136367%" r="0.9" fill="#000" opacity="0.048"/><circle cx="20.844210717668254%" cy="25.074875259677942%" r="0.9" fill="#000" opacity="0.032"/><circle cx="60.72804273703206%" cy="63.44997448176019%" r="0.9" fill="#000" opacity="0.022"/><circle cx="55.89708548766239%" cy="48.645394442537736%" r="0.9" fill="#000" opacity="0.005"/><circle cx="20.617461975912132%" cy="32.42508042938865%" r="0.9" fill="#000" opacity="0.043"/><circle cx="35.23445286862653%" cy="62.17634845938136%" r="0.9" fill="#000" opacity="0.043"/><circle cx="39.31000960003998%" cy="55.12715393200519%" r="0.9" fill="#000" opacity="0.018"/><circle cx="83.77029267601567%" cy="77.39506066993917%" r="0.9" fill="#000" opacity="0.006"/><circle cx="71.06186672708446%" cy="56.12316837060924%" r="0.9" fill="#000" opacity="0.034"/><circle cx="12.04575658493161%" cy="11.93092261127282%" r="0.9" fill="#000" opacity="0.006"/><circle cx="54.86746638482492%" cy="69.68520200756157%" r="0.9" fill="#000" opacity="0.029"/>
  
    <g transform="translate(450.0,506.0)" opacity="0.9">
      <path d="M -66.96 -256.68
               C -66.96 -306.90000000000003 66.96 -306.90000000000003 66.96 -256.68
               L 55.800000000000004 -223.20000000000002
               C 189.72000000000003 -167.4 223.20000000000002 27.900000000000002 189.72000000000003 156.24
               C 156.24 267.84 -156.24 267.84 -189.72000000000003 156.24
               C -223.20000000000002 27.900000000000002 -189.72000000000003 -167.4 -55.800000000000004 -223.20000000000002
               Z"
            fill="#dac9af" stroke="#94795a" stroke-width="6.696"/>
      <rect x="-89.28" y="-323.64" width="178.56" height="55.800000000000004" rx="16.74"
            fill="#94795a" opacity="0.55"/>
      <ellipse cx="0" cy="33.48" rx="89.28" ry="111.60000000000001" fill="#94795a" opacity="0.18"/>
    </g>
  <rect width="900" height="1100" fill="url(#vig)"/>
  <text x="50%" y="1023" text-anchor="middle"
        font-family="Georgia, 'Times New Roman', serif" font-size="27"
        letter-spacing="3" fill="#94795a" opacity="0.85">TRAUMA SCENT</text>
</svg>