<svg xmlns="http://www.w3.org/2000/svg" width="900" height="1100" viewBox="0 0 900 1100" role="img" aria-label="RITUAL OBJECTS placeholder">
  <defs>
    <linearGradient id="bg" x1="0" y1="0" x2="0.4" y2="1">
      <stop offset="0" stop-color="#d9d6cf"/>
      <stop offset="1" stop-color="#bdb8ad"/>
    </linearGradient>
    <radialGradient id="vig" cx="0.5" cy="0.42" r="0.75">
      <stop offset="0.55" stop-color="#000" stop-opacity="0"/>
      <stop offset="1" stop-color="#000" stop-opacity="0.10"/>
    </radialGradient>
  </defs>
  <rect width="900" height="1100" fill="url(#bg)"/>
  <circle cx="11.215900264043555%" cy="72.52960632784573%" r="0.9" fill="#000" opacity="0.044"/><circle cx="52.55830038248162%" cy="53.44353347987075%" r="0.9" fill="#000" opacity="0.014"/><circle cx="37.503895740387215%" cy="35.82091117976059%" r="0.9" fill="#000" opacity="0.024"/><circle cx="80.7217505788996%" cy="66.20104528726591%" r="0.9" fill="#000" opacity="0.023"/><circle cx="30.075451919223106%" cy="70.55274620696719%" r="0.9" fill="#000" opacity="0.025"/><circle cx="65.86834289008996%" cy="13.034414074171707%" r="0.9" fill="#000" opacity="0.034"/><circle cx="36.2986980790734%" cy="77.45794453101591%" r="0.9" fill="#000" opacity="0.006"/><circle cx="49.59222970807319%" cy="83.85284905150476%" r="0.9" fill="#000" opacity="0.013"/><circle cx="9.023666612435232%" cy="6.889323088687716%" r="0.9" fill="#000" opacity="0.047"/><circle cx="74.96340928288352%" cy="71.85121844599128%" r="0.9" fill="#000" opacity="0.019"/><circle cx="19.85063433296803%" cy="81.74819158932279%" r="0.9" fill="#000" opacity="0.024"/><circle cx="73.59004071768365%" cy="26.669036951243218%" r="0.9" fill="#000" opacity="0.012"/><circle cx="87.73004246103268%" cy="97.58857805418658%" r="0.9" fill="#000" opacity="0.040"/><circle cx="78.980801603918%" cy="73.08705516313032%" r="0.9" fill="#000" opacity="0.009"/><circle cx="29.140196289756602%" cy="45.61554870661927%" r="0.9" fill="#000" opacity="0.040"/><circle cx="0.16783014920648265%" cy="43.019227982940365%" r="0.9" fill="#000" opacity="0.009"/><circle cx="80.17319831657485%" cy="64.58742505605504%" r="0.9" fill="#000" opacity="0.015"/><circle cx="46.144283156891305%" cy="33.48804788949722%" r="0.9" fill="#000" opacity="0.008"/><circle cx="28.56815409966079%" cy="79.31398208742188%" r="0.9" fill="#000" opacity="0.021"/><circle cx="0.31588259251333906%" cy="58.70919941294643%" r="0.9" fill="#000" opacity="0.012"/><circle cx="87.87402071227469%" cy="53.18814312057359%" r="0.9" fill="#000" opacity="0.016"/><circle cx="76.39053174773855%" cy="17.576849290556705%" r="0.9" fill="#000" opacity="0.012"/><circle cx="35.57880858271392%" cy="56.803146148029946%" r="0.9" fill="#000" opacity="0.037"/><circle cx="2.113040675012934%" cy="28.25758865329441%" r="0.9" fill="#000" opacity="0.025"/><circle cx="47.44890411731062%" cy="1.2934808845512347%" r="0.9" fill="#000" opacity="0.037"/><circle cx="88.66829141748018%" cy="49.66337853168339%" r="0.9" fill="#000" opacity="0.009"/><circle cx="32.593514340153895%" cy="28.39753302682253%" r="0.9" fill="#000" opacity="0.021"/><circle cx="64.3311130060371%" cy="95.49781345068432%" r="0.9" fill="#000" opacity="0.034"/><circle cx="7.24103510962637%" cy="83.8466951626948%" r="0.9" fill="#000" opacity="0.003"/><circle cx="35.77021195330764%" cy="68.58316172623155%" r="0.9" fill="#000" opacity="0.036"/><circle cx="54.86700760024047%" cy="15.302945425429026%" r="0.9" fill="#000" opacity="0.037"/><circle cx="10.650463986040016%" cy="89.02962481480743%" r="0.9" fill="#000" opacity="0.004"/><circle cx="49.067734954141685%" cy="61.43140584406663%" r="0.9" fill="#000" opacity="0.022"/><circle cx="4.766492643754338%" cy="74.0698551351862%" r="0.9" fill="#000" opacity="0.035"/><circle cx="98.14734786147898%" cy="92.17944376195838%" r="0.9" fill="#000" opacity="0.023"/><circle cx="42.79675142451625%" cy="69.34650900828976%" r="0.9" fill="#000" opacity="0.037"/><circle cx="0.031224583443656417%" cy="52.02177673068794%" r="0.9" fill="#000" opacity="0.009"/><circle cx="29.84876312970973%" cy="18.796833088076635%" r="0.9" fill="#000" opacity="0.036"/><circle cx="8.996350131706144%" cy="62.96290239124025%" r="0.9" fill="#000" opacity="0.029"/><circle cx="50.757881758149125%" cy="72.64509372260815%" r="0.9" fill="#000" opacity="0.035"/><circle cx="25.581189062349885%" cy="25.381940750901123%" r="0.9" fill="#000" opacity="0.006"/><circle cx="5.24256749442592%" cy="38.95554017072169%" r="0.9" fill="#000" opacity="0.032"/><circle cx="10.114430251267025%" cy="66.91416033549308%" r="0.9" fill="#000" opacity="0.040"/><circle cx="86.5169103155626%" cy="95.32073475927137%" r="0.9" fill="#000" opacity="0.017"/><circle cx="3.4341735055862133%" cy="89.33759062937455%" r="0.9" fill="#000" opacity="0.021"/><circle cx="34.310647893615766%" cy="62.07595523531636%" r="0.9" fill="#000" opacity="0.020"/><circle cx="34.61339778004533%" cy="3.2227447569793455%" r="0.9" fill="#000" opacity="0.048"/><circle cx="84.98117586619854%" cy="71.81434678803251%" r="0.9" fill="#000" opacity="0.046"/><circle cx="66.16906863256841%" cy="30.107389906753447%" r="0.9" fill="#000" opacity="0.028"/><circle cx="99.17442834381634%" cy="37.44009402779853%" r="0.9" fill="#000" opacity="0.001"/><circle cx="69.28935315119533%" cy="10.033378358443967%" r="0.9" fill="#000" opacity="0.010"/><circle cx="30.38567073410603%" cy="2.4735619528460595%" r="0.9" fill="#000" opacity="0.036"/><circle cx="99.64621638547581%" cy="82.03170485763947%" r="0.9" fill="#000" opacity="0.005"/><circle cx="10.913341578457326%" cy="95.11025292827162%" r="0.9" fill="#000" opacity="0.024"/><circle cx="86.6894558319967%" cy="15.178744549402268%" r="0.9" fill="#000" opacity="0.033"/><circle cx="98.47257566572189%" cy="1.0083844736235692%" r="0.9" fill="#000" opacity="0.022"/><circle cx="93.9870331506331%" cy="82.45649472673837%" r="0.9" fill="#000" opacity="0.008"/><circle cx="88.81712142174723%" cy="39.45697775210496%" r="0.9" fill="#000" opacity="0.019"/><circle cx="11.372032160446356%" cy="67.33142938200632%" r="0.9" fill="#000" opacity="0.006"/><circle cx="63.41210604743773%" cy="6.9845300868752735%" r="0.9" fill="#000" opacity="0.008"/><circle cx="85.10687306128534%" cy="21.22661770458364%" r="0.9" fill="#000" opacity="0.020"/><circle cx="96.6551356791726%" cy="13.262121878286703%" r="0.9" fill="#000" opacity="0.009"/><circle cx="58.66836435371564%" cy="23.766724251178427%" r="0.9" fill="#000" opacity="0.031"/><circle cx="72.41781113853466%" cy="40.223146392274955%" r="0.9" fill="#000" opacity="0.040"/><circle cx="11.117057976472633%" cy="20.82967855468515%" r="0.9" fill="#000" opacity="0.007"/><circle cx="13.124479438999604%" cy="39.657109661596635%" r="0.9" fill="#000" opacity="0.025"/><circle cx="12.191269256836158%" cy="7.032288909399808%" r="0.9" fill="#000" opacity="0.043"/><circle cx="12.325175540741796%" cy="20.642898462247693%" r="0.9" fill="#000" opacity="0.023"/><circle cx="37.84381948468108%" cy="72.48298927172104%" r="0.9" fill="#000" opacity="0.043"/><circle cx="83.26287640611069%" cy="36.38097436917044%" r="0.9" fill="#000" opacity="0.024"/><circle cx="18.875174751442316%" cy="18.101838125036764%" r="0.9" fill="#000" opacity="0.034"/><circle cx="5.1937832417723655%" cy="45.11247128788693%" r="0.9" fill="#000" opacity="0.011"/><circle cx="51.508254301998726%" cy="44.996232572763915%" r="0.9" fill="#000" opacity="0.038"/><circle cx="71.60650651076764%" cy="63.791727185356116%" r="0.9" fill="#000" opacity="0.036"/><circle cx="35.56244427391967%" cy="50.55505844555802%" r="0.9" fill="#000" opacity="0.034"/><circle cx="46.15355644545288%" cy="83.86367961765046%" r="0.9" fill="#000" opacity="0.018"/><circle cx="71.32391457860642%" cy="69.34385075274227%" r="0.9" fill="#000" opacity="0.029"/><circle cx="28.187026512283573%" cy="15.61538396838692%" r="0.9" fill="#000" opacity="0.007"/><circle cx="31.42507845639715%" cy="95.38200739855296%" r="0.9" fill="#000" opacity="0.020"/><circle cx="27.19696194112634%" cy="10.812903562164689%" r="0.9" fill="#000" opacity="0.028"/><circle cx="0.4619269202664311%" cy="72.87448511180902%" r="0.9" fill="#000" opacity="0.040"/><circle cx="83.14394497162769%" cy="88.7895717692731%" r="0.9" fill="#000" opacity="0.031"/><circle cx="86.61463869365643%" cy="48.7699162243475%" r="0.9" fill="#000" opacity="0.022"/><circle cx="15.657397765211034%" cy="75.70339599716618%" r="0.9" fill="#000" opacity="0.035"/><circle cx="23.91893692630298%" cy="52.04035332533263%" r="0.9" fill="#000" opacity="0.007"/><circle cx="82.97421667252809%" cy="69.1385756432869%" r="0.9" fill="#000" opacity="0.012"/><circle cx="29.88384965494184%" cy="8.012597106695607%" r="0.9" fill="#000" opacity="0.044"/><circle cx="25.8616612829921%" cy="60.585491862917415%" r="0.9" fill="#000" opacity="0.009"/><circle cx="29.188494855352275%" cy="90.32300638695297%" r="0.9" fill="#000" opacity="0.044"/><circle cx="90.05632121889606%" cy="74.82251772403886%" r="0.9" fill="#000" opacity="0.021"/>
  
    <g transform="translate(450.0,506.0)" opacity="0.9">
      <path d="M -66.96 -256.68
               C -66.96 -306.90000000000003 66.96 -306.90000000000003 66.96 -256.68
               L 55.800000000000004 -223.20000000000002
               C 189.72000000000003 -167.4 223.20000000000002 27.900000000000002 189.72000000000003 156.24
               C 156.24 267.84 -156.24 267.84 -189.72000000000003 156.24
               C -223.20000000000002 27.900000000000002 -189.72000000000003 -167.4 -55.800000000000004 -223.20000000000002
               Z"
            fill="#bdb8ad" stroke="#3a3733" stroke-width="6.696"/>
      <rect x="-89.28" y="-323.64" width="178.56" height="55.800000000000004" rx="16.74"
            fill="#3a3733" opacity="0.55"/>
      <ellipse cx="0" cy="33.48" rx="89.28" ry="111.60000000000001" fill="#3a3733" opacity="0.18"/>
    </g>
  <rect width="900" height="1100" fill="url(#vig)"/>
  <text x="50%" y="1023" text-anchor="middle"
        font-family="Georgia, 'Times New Roman', serif" font-size="27"
        letter-spacing="3" fill="#3a3733" opacity="0.85">RITUAL OBJECTS</text>
</svg>