<svg xmlns="http://www.w3.org/2000/svg" width="900" height="1100" viewBox="0 0 900 1100" role="img" aria-label="MOON SILVER placeholder">
  <defs>
    <linearGradient id="bg" x1="0" y1="0" x2="0.4" y2="1">
      <stop offset="0" stop-color="#e4e6e8"/>
      <stop offset="1" stop-color="#c7ccd1"/>
    </linearGradient>
    <radialGradient id="vig" cx="0.5" cy="0.42" r="0.75">
      <stop offset="0.55" stop-color="#000" stop-opacity="0"/>
      <stop offset="1" stop-color="#000" stop-opacity="0.10"/>
    </radialGradient>
  </defs>
  <rect width="900" height="1100" fill="url(#bg)"/>
  <circle cx="21.06710379682939%" cy="93.80328238559007%" r="0.9" fill="#000" opacity="0.028"/><circle cx="48.2178779031632%" cy="69.21704192424565%" r="0.9" fill="#000" opacity="0.030"/><circle cx="28.067318178028355%" cy="41.56950568007806%" r="0.9" fill="#000" opacity="0.013"/><circle cx="96.14130167855441%" cy="7.07151121265176%" r="0.9" fill="#000" opacity="0.049"/><circle cx="23.156734593376104%" cy="77.32742734543422%" r="0.9" fill="#000" opacity="0.038"/><circle cx="27.985320941194015%" cy="53.67732092433625%" r="0.9" fill="#000" opacity="0.030"/><circle cx="64.67752274170387%" cy="37.2411779688262%" r="0.9" fill="#000" opacity="0.041"/><circle cx="81.81245805793202%" cy="37.750723072494154%" r="0.9" fill="#000" opacity="0.034"/><circle cx="72.20829306911104%" cy="73.42832220144605%" r="0.9" fill="#000" opacity="0.018"/><circle cx="71.18310852405017%" cy="65.33762678731007%" r="0.9" fill="#000" opacity="0.030"/><circle cx="24.62502685702672%" cy="63.422409584563596%" r="0.9" fill="#000" opacity="0.038"/><circle cx="93.43351725725354%" cy="27.622085017059817%" r="0.9" fill="#000" opacity="0.023"/><circle cx="72.16276717967004%" cy="1.7590600245009358%" r="0.9" fill="#000" opacity="0.023"/><circle cx="94.52764500582774%" cy="60.74779488685781%" r="0.9" fill="#000" opacity="0.049"/><circle cx="92.68186379015224%" cy="94.36421270531206%" r="0.9" fill="#000" opacity="0.009"/><circle cx="92.08912473126668%" cy="73.14713437731547%" r="0.9" fill="#000" opacity="0.025"/><circle cx="29.792175349757%" cy="35.00594275918908%" r="0.9" fill="#000" opacity="0.032"/><circle cx="55.766454969029326%" cy="63.82451411523758%" r="0.9" fill="#000" opacity="0.010"/><circle cx="63.201399412668955%" cy="91.75561148832773%" r="0.9" fill="#000" opacity="0.008"/><circle cx="34.09841908722594%" cy="65.77307948305324%" r="0.9" fill="#000" opacity="0.014"/><circle cx="14.443572426114414%" cy="14.364727656465304%" r="0.9" fill="#000" opacity="0.003"/><circle cx="50.852431580928496%" cy="43.58803686278932%" r="0.9" fill="#000" opacity="0.049"/><circle cx="56.954148141335345%" cy="42.80783577446694%" r="0.9" fill="#000" opacity="0.016"/><circle cx="70.88843280198104%" cy="80.15451633153265%" r="0.9" fill="#000" opacity="0.011"/><circle cx="68.66879485000787%" cy="7.237968203725242%" r="0.9" fill="#000" opacity="0.047"/><circle cx="21.964320431462347%" cy="59.161605962653965%" r="0.9" fill="#000" opacity="0.039"/><circle cx="21.40721242263983%" cy="83.36924476697814%" r="0.9" fill="#000" opacity="0.008"/><circle cx="36.65868158685286%" cy="98.44164586117331%" r="0.9" fill="#000" opacity="0.031"/><circle cx="14.231075568033248%" cy="16.850407299078885%" r="0.9" fill="#000" opacity="0.019"/><circle cx="27.568355326162465%" cy="16.32965140384206%" r="0.9" fill="#000" opacity="0.016"/><circle cx="79.1210567738616%" cy="32.23739532041613%" r="0.9" fill="#000" opacity="0.044"/><circle cx="98.47921554381041%" cy="58.150370085542406%" r="0.9" fill="#000" opacity="0.034"/><circle cx="49.76135520146976%" cy="97.6888807512043%" r="0.9" fill="#000" opacity="0.018"/><circle cx="26.022239932354697%" cy="2.089869603951744%" r="0.9" fill="#000" opacity="0.009"/><circle cx="65.31434026140133%" cy="16.877815280695764%" r="0.9" fill="#000" opacity="0.044"/><circle cx="31.952994605271645%" cy="81.22725262370805%" r="0.9" fill="#000" opacity="0.012"/><circle cx="78.42438167734225%" cy="52.44320347789079%" r="0.9" fill="#000" opacity="0.038"/><circle cx="5.0930251260020265%" cy="83.19213621243455%" r="0.9" fill="#000" opacity="0.030"/><circle cx="22.354039420592674%" cy="2.969018031833226%" r="0.9" fill="#000" opacity="0.028"/><circle cx="55.62233442379736%" cy="41.41529937958616%" r="0.9" fill="#000" opacity="0.021"/><circle cx="76.86206663613181%" cy="15.622498016720332%" r="0.9" fill="#000" opacity="0.029"/><circle cx="15.048975297896872%" cy="13.132945257799166%" r="0.9" fill="#000" opacity="0.002"/><circle cx="76.3910568955369%" cy="72.56677048272327%" r="0.9" fill="#000" opacity="0.047"/><circle cx="83.61941194918164%" cy="15.963985126732327%" r="0.9" fill="#000" opacity="0.020"/><circle cx="34.199085381076074%" cy="88.99607723703461%" r="0.9" fill="#000" opacity="0.025"/><circle cx="81.49890929443397%" cy="88.35913773820666%" r="0.9" fill="#000" opacity="0.028"/><circle cx="3.250565668862415%" cy="27.232350507056257%" r="0.9" fill="#000" opacity="0.044"/><circle cx="40.07115074166649%" cy="85.77662747925545%" r="0.9" fill="#000" opacity="0.017"/><circle cx="90.35735228923136%" cy="77.68959482374393%" r="0.9" fill="#000" opacity="0.027"/><circle cx="10.42122728255932%" cy="38.44316384185888%" r="0.9" fill="#000" opacity="0.012"/><circle cx="87.13880550534498%" cy="20.295848274990426%" r="0.9" fill="#000" opacity="0.002"/><circle cx="8.044729979813825%" cy="74.37636393059388%" r="0.9" fill="#000" opacity="0.045"/><circle cx="27.247420981552317%" cy="6.799356979165017%" r="0.9" fill="#000" opacity="0.020"/><circle cx="67.91416164060723%" cy="61.50489163065031%" r="0.9" fill="#000" opacity="0.039"/><circle cx="98.45995926725199%" cy="15.40956806874253%" r="0.9" fill="#000" opacity="0.020"/><circle cx="16.261788898905106%" cy="88.35532074781746%" r="0.9" fill="#000" opacity="0.006"/><circle cx="32.53913463102587%" cy="46.87380972748747%" r="0.9" fill="#000" opacity="0.017"/><circle cx="93.8667883336953%" cy="51.394119457606855%" r="0.9" fill="#000" opacity="0.028"/><circle cx="29.709022169343413%" cy="25.332775962602096%" r="0.9" fill="#000" opacity="0.016"/><circle cx="69.26330314424625%" cy="4.270301406414212%" r="0.9" fill="#000" opacity="0.005"/><circle cx="25.03149132107303%" cy="84.86853674004405%" r="0.9" fill="#000" opacity="0.019"/><circle cx="46.52041914651769%" cy="65.75336340575208%" r="0.9" fill="#000" opacity="0.005"/><circle cx="64.29469110260527%" cy="23.92910235728015%" r="0.9" fill="#000" opacity="0.009"/><circle cx="55.25958470131217%" cy="3.69948427093012%" r="0.9" fill="#000" opacity="0.048"/><circle cx="40.44884851582032%" cy="59.3045111408661%" r="0.9" fill="#000" opacity="0.014"/><circle cx="91.3885259324347%" cy="98.9393083951818%" r="0.9" fill="#000" opacity="0.012"/><circle cx="19.48195803719841%" cy="74.92881907937144%" r="0.9" fill="#000" opacity="0.028"/><circle cx="14.160129282052624%" cy="22.524259905220934%" r="0.9" fill="#000" opacity="0.031"/><circle cx="96.00307346685621%" cy="55.31456600306044%" r="0.9" fill="#000" opacity="0.046"/><circle cx="73.89094502260896%" cy="11.710387578229975%" r="0.9" fill="#000" opacity="0.049"/><circle cx="84.88731841278516%" cy="84.67053656903272%" r="0.9" fill="#000" opacity="0.005"/><circle cx="31.411385619969945%" cy="19.88284978432644%" r="0.9" fill="#000" opacity="0.024"/><circle cx="85.8356148488764%" cy="31.86697464384588%" r="0.9" fill="#000" opacity="0.033"/><circle cx="94.5310479505673%" cy="4.624981387251337%" r="0.9" fill="#000" opacity="0.012"/><circle cx="81.78163024196056%" cy="2.904621642173344%" r="0.9" fill="#000" opacity="0.047"/><circle cx="75.57770948976231%" cy="29.745109188198505%" r="0.9" fill="#000" opacity="0.049"/><circle cx="52.84674904595384%" cy="75.51993462533832%" r="0.9" fill="#000" opacity="0.027"/><circle cx="38.184305844838576%" cy="66.68005549381493%" r="0.9" fill="#000" opacity="0.044"/><circle cx="54.42813831645835%" cy="36.00157236887199%" r="0.9" fill="#000" opacity="0.047"/><circle cx="36.87828622402438%" cy="39.293200644266705%" r="0.9" fill="#000" opacity="0.017"/><circle cx="78.49014555212018%" cy="22.47700059427902%" r="0.9" fill="#000" opacity="0.031"/><circle cx="70.34892688192731%" cy="42.47985314136128%" r="0.9" fill="#000" opacity="0.005"/><circle cx="28.654545614962423%" cy="50.21722440245434%" r="0.9" fill="#000" opacity="0.017"/><circle cx="79.35826163050976%" cy="88.83883263095201%" r="0.9" fill="#000" opacity="0.028"/><circle cx="79.71530763810397%" cy="68.75575338887533%" r="0.9" fill="#000" opacity="0.040"/><circle cx="87.5525331384171%" cy="50.1617933252335%" r="0.9" fill="#000" opacity="0.019"/><circle cx="46.26071076281145%" cy="89.67522535347754%" r="0.9" fill="#000" opacity="0.008"/><circle cx="60.791617213399206%" cy="35.47289976801681%" r="0.9" fill="#000" opacity="0.002"/><circle cx="58.02581161206468%" cy="31.82297007706505%" r="0.9" fill="#000" opacity="0.041"/><circle cx="10.533727300716155%" cy="56.19871470395286%" r="0.9" fill="#000" opacity="0.050"/>
  
    <g transform="translate(450.0,506.0)" opacity="0.9">
      <path d="M -66.96 -256.68
               C -66.96 -306.90000000000003 66.96 -306.90000000000003 66.96 -256.68
               L 55.800000000000004 -223.20000000000002
               C 189.72000000000003 -167.4 223.20000000000002 27.900000000000002 189.72000000000003 156.24
               C 156.24 267.84 -156.24 267.84 -189.72000000000003 156.24
               C -223.20000000000002 27.900000000000002 -189.72000000000003 -167.4 -55.800000000000004 -223.20000000000002
               Z"
            fill="#c7ccd1" stroke="#7d858d" stroke-width="6.696"/>
      <rect x="-89.28" y="-323.64" width="178.56" height="55.800000000000004" rx="16.74"
            fill="#7d858d" opacity="0.55"/>
      <ellipse cx="0" cy="33.48" rx="89.28" ry="111.60000000000001" fill="#7d858d" opacity="0.18"/>
    </g>
  <rect width="900" height="1100" fill="url(#vig)"/>
  <text x="50%" y="1023" text-anchor="middle"
        font-family="Georgia, 'Times New Roman', serif" font-size="27"
        letter-spacing="3" fill="#7d858d" opacity="0.85">MOON SILVER</text>
</svg>