<svg xmlns="http://www.w3.org/2000/svg" width="1600" height="1000" viewBox="0 0 1600 1000" role="img" aria-label="GAWU OBJECTS placeholder">
  <defs>
    <linearGradient id="bg" x1="0" y1="0" x2="0.4" y2="1">
      <stop offset="0" stop-color="#efe6d8"/>
      <stop offset="1" stop-color="#dac9af"/>
    </linearGradient>
    <radialGradient id="vig" cx="0.5" cy="0.42" r="0.75">
      <stop offset="0.55" stop-color="#000" stop-opacity="0"/>
      <stop offset="1" stop-color="#000" stop-opacity="0.10"/>
    </radialGradient>
  </defs>
  <rect width="1600" height="1000" fill="url(#bg)"/>
  <circle cx="70.4750342398153%" cy="91.6304204020686%" r="0.9" fill="#000" opacity="0.011"/><circle cx="16.451996343272533%" cy="13.416335824775338%" r="0.9" fill="#000" opacity="0.029"/><circle cx="56.00728069421713%" cy="69.2651270381048%" r="0.9" fill="#000" opacity="0.033"/><circle cx="30.92294513296634%" cy="30.842683382362026%" r="0.9" fill="#000" opacity="0.045"/><circle cx="59.32569524283156%" cy="2.0616155291624527%" r="0.9" fill="#000" opacity="0.016"/><circle cx="22.2124804581169%" cy="42.41905376075603%" r="0.9" fill="#000" opacity="0.014"/><circle cx="3.0129418763055305%" cy="16.25079868894327%" r="0.9" fill="#000" opacity="0.025"/><circle cx="50.0434134017538%" cy="45.23880766763102%" r="0.9" fill="#000" opacity="0.025"/><circle cx="61.80707260338782%" cy="75.88755004359362%" r="0.9" fill="#000" opacity="0.050"/><circle cx="20.677284038469455%" cy="55.412151412689234%" r="0.9" fill="#000" opacity="0.008"/><circle cx="4.611632839689827%" cy="16.799982795010358%" r="0.9" fill="#000" opacity="0.016"/><circle cx="70.65689434407177%" cy="91.49933420036513%" r="0.9" fill="#000" opacity="0.019"/><circle cx="70.82400395764023%" cy="36.144665652918576%" r="0.9" fill="#000" opacity="0.011"/><circle cx="21.82853569078731%" cy="88.52976509338367%" r="0.9" fill="#000" opacity="0.011"/><circle cx="57.57848739048339%" cy="92.5527787603756%" r="0.9" fill="#000" opacity="0.020"/><circle cx="68.56694879901976%" cy="88.64435713893621%" r="0.9" fill="#000" opacity="0.021"/><circle cx="44.96744581714345%" cy="84.07749005885056%" r="0.9" fill="#000" opacity="0.033"/><circle cx="43.98791618140822%" cy="81.49603015362082%" r="0.9" fill="#000" opacity="0.034"/><circle cx="82.82603453309277%" cy="54.93975116068264%" r="0.9" fill="#000" opacity="0.043"/><circle cx="17.611032888478928%" cy="48.96837662391806%" r="0.9" fill="#000" opacity="0.006"/><circle cx="29.0028340617141%" cy="37.62045611045387%" r="0.9" fill="#000" opacity="0.045"/><circle cx="68.2124225210464%" cy="70.01975222328151%" r="0.9" fill="#000" opacity="0.021"/><circle cx="93.64854479578041%" cy="53.69089949510111%" r="0.9" fill="#000" opacity="0.022"/><circle cx="14.653603227321366%" cy="46.289631952750845%" r="0.9" fill="#000" opacity="0.042"/><circle cx="36.36392712001061%" cy="92.36091730699152%" r="0.9" fill="#000" opacity="0.040"/><circle cx="84.99620113352717%" cy="22.50223536051128%" r="0.9" fill="#000" opacity="0.001"/><circle cx="18.558691342560817%" cy="1.0161132843018672%" r="0.9" fill="#000" opacity="0.011"/><circle cx="86.02870417991342%" cy="77.94211947678629%" r="0.9" fill="#000" opacity="0.002"/><circle cx="55.44220958783635%" cy="57.46188449164349%" r="0.9" fill="#000" opacity="0.018"/><circle cx="57.22373853858889%" cy="3.729293842920167%" r="0.9" fill="#000" opacity="0.042"/><circle cx="88.73646800281261%" cy="21.56276383281447%" r="0.9" fill="#000" opacity="0.007"/><circle cx="31.426294218305184%" cy="99.44467699356495%" r="0.9" fill="#000" opacity="0.045"/><circle cx="47.022289442023265%" cy="67.64233816965171%" r="0.9" fill="#000" opacity="0.009"/><circle cx="1.6801779192960997%" cy="15.636494404228873%" r="0.9" fill="#000" opacity="0.044"/><circle cx="94.76120951770343%" cy="91.3245613443773%" r="0.9" fill="#000" opacity="0.027"/><circle cx="79.27759981997849%" cy="36.80050482563877%" r="0.9" fill="#000" opacity="0.011"/><circle cx="29.78709007725484%" cy="99.12159585436015%" r="0.9" fill="#000" opacity="0.014"/><circle cx="36.11156680362344%" cy="94.60792569918664%" r="0.9" fill="#000" opacity="0.013"/><circle cx="57.04053723072763%" cy="3.590494687635204%" r="0.9" fill="#000" opacity="0.041"/><circle cx="7.862930881400576%" cy="28.20787685418107%" r="0.9" fill="#000" opacity="0.009"/><circle cx="2.0703440366776737%" cy="87.16316484106301%" r="0.9" fill="#000" opacity="0.017"/><circle cx="11.906402632540836%" cy="2.311698411735086%" r="0.9" fill="#000" opacity="0.007"/><circle cx="12.89564662625422%" cy="45.17973302522056%" r="0.9" fill="#000" opacity="0.015"/><circle cx="61.36501414480925%" cy="96.73479772272219%" r="0.9" fill="#000" opacity="0.007"/><circle cx="18.661640009603587%" cy="53.26795906711222%" r="0.9" fill="#000" opacity="0.018"/><circle cx="43.194123428980525%" cy="56.169713675543456%" r="0.9" fill="#000" opacity="0.028"/><circle cx="88.08621607457044%" cy="27.342658149417666%" r="0.9" fill="#000" opacity="0.001"/><circle cx="50.11011297056117%" cy="48.43608172031342%" r="0.9" fill="#000" opacity="0.012"/><circle cx="39.77690111617389%" cy="35.41763017787047%" r="0.9" fill="#000" opacity="0.048"/><circle cx="50.5020634499698%" cy="32.28095518213841%" r="0.9" fill="#000" opacity="0.040"/><circle cx="27.577449068891656%" cy="22.028491358693703%" r="0.9" fill="#000" opacity="0.024"/><circle cx="98.55513409132344%" cy="69.46243946492449%" r="0.9" fill="#000" opacity="0.038"/><circle cx="10.20627800304046%" cy="52.82232719327546%" r="0.9" fill="#000" opacity="0.000"/><circle cx="79.30946225857872%" cy="86.01446917392221%" r="0.9" fill="#000" opacity="0.008"/><circle cx="41.58897333287064%" cy="42.423743561015584%" r="0.9" fill="#000" opacity="0.010"/><circle cx="43.83725577453983%" cy="10.49495511479609%" r="0.9" fill="#000" opacity="0.009"/><circle cx="11.254194123177651%" cy="64.35358589677384%" r="0.9" fill="#000" opacity="0.027"/><circle cx="77.04003070159072%" cy="2.5751065150358077%" r="0.9" fill="#000" opacity="0.025"/><circle cx="75.4869638060692%" cy="39.48183667725087%" r="0.9" fill="#000" opacity="0.010"/><circle cx="18.102645438610487%" cy="84.60472684004628%" r="0.9" fill="#000" opacity="0.040"/><circle cx="36.90363425483929%" cy="55.2122946590767%" r="0.9" fill="#000" opacity="0.004"/><circle cx="58.19433132521026%" cy="95.93079836108413%" r="0.9" fill="#000" opacity="0.005"/><circle cx="53.63841399802774%" cy="84.62691921571502%" r="0.9" fill="#000" opacity="0.034"/><circle cx="41.83686071354651%" cy="68.68811829724177%" r="0.9" fill="#000" opacity="0.040"/><circle cx="47.91947375777582%" cy="25.031952384365464%" r="0.9" fill="#000" opacity="0.049"/><circle cx="99.46718254841208%" cy="79.71164164318711%" r="0.9" fill="#000" opacity="0.044"/><circle cx="56.6561633493987%" cy="64.39600882046176%" r="0.9" fill="#000" opacity="0.036"/><circle cx="85.74739326608393%" cy="96.54637713740823%" r="0.9" fill="#000" opacity="0.015"/><circle cx="36.577714555804974%" cy="94.9850948339221%" r="0.9" fill="#000" opacity="0.021"/><circle cx="96.90540212775731%" cy="74.33455252556729%" r="0.9" fill="#000" opacity="0.016"/><circle cx="4.94050997998804%" cy="49.63326565060733%" r="0.9" fill="#000" opacity="0.026"/><circle cx="21.52176110746582%" cy="99.08222476898064%" r="0.9" fill="#000" opacity="0.018"/><circle cx="0.580297025215315%" cy="95.4134239538692%" r="0.9" fill="#000" opacity="0.040"/><circle cx="28.5329938443337%" cy="83.12216233113213%" r="0.9" fill="#000" opacity="0.018"/><circle cx="77.19003163691126%" cy="55.251346632544%" r="0.9" fill="#000" opacity="0.043"/><circle cx="63.430376204953006%" cy="8.645652356886046%" r="0.9" fill="#000" opacity="0.043"/><circle cx="91.14667416379815%" cy="11.946779441188172%" r="0.9" fill="#000" opacity="0.004"/><circle cx="51.8371479945825%" cy="28.11341097053026%" r="0.9" fill="#000" opacity="0.047"/><circle cx="16.709590844658194%" cy="5.932030260457677%" r="0.9" fill="#000" opacity="0.043"/><circle cx="25.76493825086069%" cy="60.67279206757272%" r="0.9" fill="#000" opacity="0.041"/><circle cx="90.67710711302888%" cy="67.08687537035823%" r="0.9" fill="#000" opacity="0.037"/><circle cx="45.423003939379726%" cy="77.82984785982345%" r="0.9" fill="#000" opacity="0.034"/><circle cx="83.4378680977435%" cy="12.30130235256861%" r="0.9" fill="#000" opacity="0.042"/><circle cx="14.377167419881442%" cy="33.494847663876584%" r="0.9" fill="#000" opacity="0.007"/><circle cx="73.68160749340417%" cy="70.60565177488438%" r="0.9" fill="#000" opacity="0.012"/><circle cx="20.221666748253508%" cy="22.01435142767916%" r="0.9" fill="#000" opacity="0.014"/><circle cx="73.39073762606499%" cy="2.217066207189511%" r="0.9" fill="#000" opacity="0.017"/><circle cx="30.643287129436636%" cy="23.477140507311823%" r="0.9" fill="#000" opacity="0.023"/><circle cx="43.303946172198884%" cy="44.31202749985857%" r="0.9" fill="#000" opacity="0.046"/><circle cx="91.06201488052386%" cy="29.272176636612855%" r="0.9" fill="#000" opacity="0.022"/>
  
    <g transform="translate(800.0,460.0)" opacity="0.9">
      <path d="M -74.39999999999999 -285.2
               C -74.39999999999999 -341.0 74.39999999999999 -341.0 74.39999999999999 -285.2
               L 62.0 -248.0
               C 210.8 -186.0 248.0 31.0 210.8 173.60000000000002
               C 173.60000000000002 297.59999999999997 -173.60000000000002 297.59999999999997 -210.8 173.60000000000002
               C -248.0 31.0 -210.8 -186.0 -62.0 -248.0
               Z"
            fill="#dac9af" stroke="#94795a" stroke-width="7.44"/>
      <rect x="-99.2" y="-359.59999999999997" width="198.4" height="62.0" rx="18.599999999999998"
            fill="#94795a" opacity="0.55"/>
      <ellipse cx="0" cy="37.199999999999996" rx="99.2" ry="124.0" fill="#94795a" opacity="0.18"/>
    </g>
  <rect width="1600" height="1000" fill="url(#vig)"/>
  <text x="50%" y="930" text-anchor="middle"
        font-family="Georgia, 'Times New Roman', serif" font-size="48"
        letter-spacing="3" fill="#94795a" opacity="0.85">GAWU OBJECTS</text>
</svg>