<svg xmlns="http://www.w3.org/2000/svg" width="1000" height="700" viewBox="0 0 1000 700" role="img" aria-label="JOURNAL placeholder">
  <defs>
    <linearGradient id="bg" x1="0" y1="0" x2="0.4" y2="1">
      <stop offset="0" stop-color="#efe6d8"/>
      <stop offset="1" stop-color="#dac9af"/>
    </linearGradient>
    <radialGradient id="vig" cx="0.5" cy="0.42" r="0.75">
      <stop offset="0.55" stop-color="#000" stop-opacity="0"/>
      <stop offset="1" stop-color="#000" stop-opacity="0.10"/>
    </radialGradient>
  </defs>
  <rect width="1000" height="700" fill="url(#bg)"/>
  <circle cx="7.1277391958560194%" cy="53.10664954734796%" r="0.9" fill="#000" opacity="0.003"/><circle cx="98.43166715354752%" cy="50.82160878366945%" r="0.9" fill="#000" opacity="0.033"/><circle cx="35.35996877886022%" cy="51.89045206693849%" r="0.9" fill="#000" opacity="0.029"/><circle cx="1.8478653577860493%" cy="45.60648001613601%" r="0.9" fill="#000" opacity="0.016"/><circle cx="73.02831930960022%" cy="88.76657931292459%" r="0.9" fill="#000" opacity="0.001"/><circle cx="35.95393839619098%" cy="29.531275599275464%" r="0.9" fill="#000" opacity="0.048"/><circle cx="53.49912589517902%" cy="10.252429714419375%" r="0.9" fill="#000" opacity="0.032"/><circle cx="78.35721814063369%" cy="5.526116050661822%" r="0.9" fill="#000" opacity="0.003"/><circle cx="77.15151506119142%" cy="80.14928211540436%" r="0.9" fill="#000" opacity="0.030"/><circle cx="48.01178074349356%" cy="29.60292803349407%" r="0.9" fill="#000" opacity="0.025"/><circle cx="36.712243931250356%" cy="97.35162670866282%" r="0.9" fill="#000" opacity="0.014"/><circle cx="56.553789405831665%" cy="3.474890576497036%" r="0.9" fill="#000" opacity="0.004"/><circle cx="31.806331947363486%" cy="94.01436956963907%" r="0.9" fill="#000" opacity="0.030"/><circle cx="11.980099414720769%" cy="22.511331655352528%" r="0.9" fill="#000" opacity="0.000"/><circle cx="27.127447540836148%" cy="7.909397974056365%" r="0.9" fill="#000" opacity="0.033"/><circle cx="27.696327091177984%" cy="71.33680542993002%" r="0.9" fill="#000" opacity="0.011"/><circle cx="46.559892339363365%" cy="96.52442854857509%" r="0.9" fill="#000" opacity="0.007"/><circle cx="16.694184827889636%" cy="91.91416451891921%" r="0.9" fill="#000" opacity="0.028"/><circle cx="5.813435287055235%" cy="32.35904835305824%" r="0.9" fill="#000" opacity="0.018"/><circle cx="26.912459097266872%" cy="16.744497653358227%" r="0.9" fill="#000" opacity="0.022"/><circle cx="43.838423332462604%" cy="95.78795724308546%" r="0.9" fill="#000" opacity="0.028"/><circle cx="83.98849382782831%" cy="55.44571674533483%" r="0.9" fill="#000" opacity="0.009"/><circle cx="70.92079710377183%" cy="21.216652468393516%" r="0.9" fill="#000" opacity="0.013"/><circle cx="63.42412962304249%" cy="62.17241149292994%" r="0.9" fill="#000" opacity="0.023"/><circle cx="33.462588270533914%" cy="89.64109036845521%" r="0.9" fill="#000" opacity="0.029"/><circle cx="20.78475865942069%" cy="21.667194465418525%" r="0.9" fill="#000" opacity="0.003"/><circle cx="6.834891299561052%" cy="47.330819202114014%" r="0.9" fill="#000" opacity="0.010"/><circle cx="72.7989144441185%" cy="4.139262267874799%" r="0.9" fill="#000" opacity="0.005"/><circle cx="95.82902621834428%" cy="45.84124507573395%" r="0.9" fill="#000" opacity="0.039"/><circle cx="78.97361755622069%" cy="40.84410846195561%" r="0.9" fill="#000" opacity="0.038"/><circle cx="1.3887577791829808%" cy="4.266385271359974%" r="0.9" fill="#000" opacity="0.042"/><circle cx="81.99239983692766%" cy="87.82049284743884%" r="0.9" fill="#000" opacity="0.019"/><circle cx="97.75977562063383%" cy="13.839350369173985%" r="0.9" fill="#000" opacity="0.039"/><circle cx="76.37982157024152%" cy="48.80786929365144%" r="0.9" fill="#000" opacity="0.048"/><circle cx="68.97024347634317%" cy="60.3805227529848%" r="0.9" fill="#000" opacity="0.009"/><circle cx="25.77518282049105%" cy="97.18126416931091%" r="0.9" fill="#000" opacity="0.047"/><circle cx="36.46006164165232%" cy="14.078037940419396%" r="0.9" fill="#000" opacity="0.011"/><circle cx="52.26470072022863%" cy="8.190756748755634%" r="0.9" fill="#000" opacity="0.046"/><circle cx="25.234858042182363%" cy="35.73733073614073%" r="0.9" fill="#000" opacity="0.004"/><circle cx="28.084246587477413%" cy="66.97622561010135%" r="0.9" fill="#000" opacity="0.004"/><circle cx="57.76786310852775%" cy="35.45421751104156%" r="0.9" fill="#000" opacity="0.014"/><circle cx="23.814099259655574%" cy="81.63278421586962%" r="0.9" fill="#000" opacity="0.046"/><circle cx="14.013570281336696%" cy="31.043923114360094%" r="0.9" fill="#000" opacity="0.048"/><circle cx="16.58676016280204%" cy="77.02622150316635%" r="0.9" fill="#000" opacity="0.037"/><circle cx="17.643378646958208%" cy="6.5414509244378305%" r="0.9" fill="#000" opacity="0.017"/><circle cx="19.821516945570593%" cy="29.84181780570988%" r="0.9" fill="#000" opacity="0.006"/><circle cx="88.62756114258305%" cy="70.09746175389537%" r="0.9" fill="#000" opacity="0.027"/><circle cx="21.433221804183454%" cy="41.70284752543092%" r="0.9" fill="#000" opacity="0.017"/><circle cx="52.38219210098153%" cy="5.48296495763867%" r="0.9" fill="#000" opacity="0.026"/><circle cx="67.28432462491702%" cy="62.78179147083728%" r="0.9" fill="#000" opacity="0.018"/><circle cx="97.13184656168275%" cy="92.27565803042309%" r="0.9" fill="#000" opacity="0.035"/><circle cx="66.70191429162003%" cy="63.674486776633245%" r="0.9" fill="#000" opacity="0.014"/><circle cx="76.73857128038127%" cy="58.69165087763088%" r="0.9" fill="#000" opacity="0.023"/><circle cx="19.95121947277353%" cy="25.424232593497166%" r="0.9" fill="#000" opacity="0.047"/><circle cx="17.054559746951814%" cy="2.162589567385964%" r="0.9" fill="#000" opacity="0.012"/><circle cx="49.639096756210634%" cy="17.873607716668694%" r="0.9" fill="#000" opacity="0.017"/><circle cx="60.89122449613688%" cy="49.73372935931566%" r="0.9" fill="#000" opacity="0.010"/><circle cx="8.076610753072277%" cy="73.1290564986381%" r="0.9" fill="#000" opacity="0.002"/><circle cx="71.62633339852256%" cy="75.47392713047435%" r="0.9" fill="#000" opacity="0.026"/><circle cx="79.5373213814449%" cy="46.37939102255321%" r="0.9" fill="#000" opacity="0.036"/><circle cx="0.7253656986855428%" cy="13.129528450846117%" r="0.9" fill="#000" opacity="0.025"/><circle cx="15.241433899593826%" cy="58.129149596590544%" r="0.9" fill="#000" opacity="0.027"/><circle cx="89.7095463522518%" cy="80.28377933638816%" r="0.9" fill="#000" opacity="0.006"/><circle cx="75.17252777960782%" cy="1.9891752783533834%" r="0.9" fill="#000" opacity="0.013"/><circle cx="70.509489120361%" cy="98.43840431042507%" r="0.9" fill="#000" opacity="0.009"/><circle cx="18.718750966752708%" cy="37.93325108329418%" r="0.9" fill="#000" opacity="0.047"/><circle cx="87.29077331237129%" cy="11.970130100726239%" r="0.9" fill="#000" opacity="0.015"/><circle cx="39.19080862702149%" cy="96.41229195087155%" r="0.9" fill="#000" opacity="0.028"/><circle cx="40.79972999072359%" cy="47.647283334027826%" r="0.9" fill="#000" opacity="0.004"/><circle cx="28.951043607181138%" cy="35.79411074107478%" r="0.9" fill="#000" opacity="0.033"/><circle cx="10.815282976363584%" cy="83.91508286916832%" r="0.9" fill="#000" opacity="0.050"/><circle cx="44.15782935607797%" cy="69.2334127821985%" r="0.9" fill="#000" opacity="0.045"/><circle cx="99.55257547970304%" cy="22.354942973969962%" r="0.9" fill="#000" opacity="0.007"/><circle cx="45.62085203000715%" cy="8.764815554968408%" r="0.9" fill="#000" opacity="0.006"/><circle cx="14.949211132598261%" cy="59.57970369492271%" r="0.9" fill="#000" opacity="0.026"/><circle cx="17.6724850731214%" cy="87.02355277314297%" r="0.9" fill="#000" opacity="0.031"/><circle cx="83.22129574922984%" cy="83.28948348570849%" r="0.9" fill="#000" opacity="0.028"/><circle cx="92.93352684497619%" cy="38.380142411288155%" r="0.9" fill="#000" opacity="0.033"/><circle cx="42.95137075731208%" cy="21.10036544235929%" r="0.9" fill="#000" opacity="0.012"/><circle cx="63.88336112938667%" cy="17.46290134616253%" r="0.9" fill="#000" opacity="0.004"/><circle cx="4.814807944599098%" cy="87.89398549073337%" r="0.9" fill="#000" opacity="0.001"/><circle cx="34.55282462887713%" cy="18.09201767406722%" r="0.9" fill="#000" opacity="0.003"/><circle cx="89.73741270578428%" cy="22.95419437435735%" r="0.9" fill="#000" opacity="0.043"/><circle cx="36.50691158989622%" cy="43.352243816538895%" r="0.9" fill="#000" opacity="0.023"/><circle cx="26.818066798765084%" cy="67.72531136968306%" r="0.9" fill="#000" opacity="0.028"/><circle cx="87.48266305748454%" cy="47.69128920736721%" r="0.9" fill="#000" opacity="0.045"/><circle cx="97.26292917816514%" cy="63.35532454585303%" r="0.9" fill="#000" opacity="0.034"/><circle cx="15.451513288906726%" cy="12.14249956579877%" r="0.9" fill="#000" opacity="0.023"/><circle cx="22.858898440213913%" cy="28.926459892334233%" r="0.9" fill="#000" opacity="0.048"/><circle cx="61.23505413751676%" cy="72.78771472397938%" r="0.9" fill="#000" opacity="0.047"/>
  
    <g transform="translate(500.0,322.0)" opacity="0.9">
      <path d="M -52.08 -199.64000000000001
               C -52.08 -238.70000000000002 52.08 -238.70000000000002 52.08 -199.64000000000001
               L 43.400000000000006 -173.60000000000002
               C 147.56 -130.2 173.60000000000002 21.700000000000003 147.56 121.52000000000001
               C 121.52000000000001 208.32 -121.52000000000001 208.32 -147.56 121.52000000000001
               C -173.60000000000002 21.700000000000003 -147.56 -130.2 -43.400000000000006 -173.60000000000002
               Z"
            fill="#dac9af" stroke="#94795a" stroke-width="5.208"/>
      <rect x="-69.44" y="-251.71999999999997" width="138.88" height="43.400000000000006" rx="13.02"
            fill="#94795a" opacity="0.55"/>
      <ellipse cx="0" cy="26.04" rx="69.44" ry="86.80000000000001" fill="#94795a" opacity="0.18"/>
    </g>
  <rect width="1000" height="700" fill="url(#vig)"/>
  <text x="50%" y="651" text-anchor="middle"
        font-family="Georgia, 'Times New Roman', serif" font-size="30"
        letter-spacing="3" fill="#94795a" opacity="0.85">JOURNAL</text>
</svg>