<svg xmlns="http://www.w3.org/2000/svg" width="1000" height="700" viewBox="0 0 1000 700" role="img" aria-label="JOURNAL placeholder">
  <defs>
    <linearGradient id="bg" x1="0" y1="0" x2="0.4" y2="1">
      <stop offset="0" stop-color="#e9e2d6"/>
      <stop offset="1" stop-color="#cdbfa9"/>
    </linearGradient>
    <radialGradient id="vig" cx="0.5" cy="0.42" r="0.75">
      <stop offset="0.55" stop-color="#000" stop-opacity="0"/>
      <stop offset="1" stop-color="#000" stop-opacity="0.10"/>
    </radialGradient>
  </defs>
  <rect width="1000" height="700" fill="url(#bg)"/>
  <circle cx="31.319623258489592%" cy="53.433273291966486%" r="0.9" fill="#000" opacity="0.023"/><circle cx="36.22856799410169%" cy="33.392508950156994%" r="0.9" fill="#000" opacity="0.011"/><circle cx="0.5955060557953362%" cy="57.22118883289116%" r="0.9" fill="#000" opacity="0.047"/><circle cx="79.56660495371666%" cy="16.899622345825595%" r="0.9" fill="#000" opacity="0.016"/><circle cx="54.6396030285694%" cy="19.742811893478628%" r="0.9" fill="#000" opacity="0.048"/><circle cx="77.31193774821212%" cy="51.44707943032919%" r="0.9" fill="#000" opacity="0.037"/><circle cx="99.28509631545421%" cy="43.45697365414264%" r="0.9" fill="#000" opacity="0.003"/><circle cx="89.20727880304167%" cy="99.5431117458644%" r="0.9" fill="#000" opacity="0.015"/><circle cx="37.80233253943928%" cy="44.186122288704624%" r="0.9" fill="#000" opacity="0.037"/><circle cx="94.18731726433334%" cy="80.41153721819234%" r="0.9" fill="#000" opacity="0.027"/><circle cx="88.99591480103204%" cy="21.89962391661382%" r="0.9" fill="#000" opacity="0.014"/><circle cx="27.161228274088156%" cy="15.137705652971523%" r="0.9" fill="#000" opacity="0.015"/><circle cx="87.25786145936874%" cy="48.34908780312313%" r="0.9" fill="#000" opacity="0.024"/><circle cx="79.27957673607953%" cy="66.51153286963071%" r="0.9" fill="#000" opacity="0.001"/><circle cx="71.65316081234434%" cy="2.407176692770141%" r="0.9" fill="#000" opacity="0.005"/><circle cx="83.94990854452215%" cy="57.48088484721532%" r="0.9" fill="#000" opacity="0.026"/><circle cx="1.1775827580368992%" cy="38.737809069354%" r="0.9" fill="#000" opacity="0.038"/><circle cx="21.095187988292807%" cy="48.254827000892355%" r="0.9" fill="#000" opacity="0.037"/><circle cx="47.09106074941731%" cy="66.73001539677739%" r="0.9" fill="#000" opacity="0.019"/><circle cx="1.1574591554543545%" cy="82.57996313090715%" r="0.9" fill="#000" opacity="0.040"/><circle cx="23.72496085499303%" cy="17.669911987498487%" r="0.9" fill="#000" opacity="0.034"/><circle cx="94.24275131462672%" cy="81.31115613566276%" r="0.9" fill="#000" opacity="0.017"/><circle cx="70.0722787469656%" cy="84.33820159125017%" r="0.9" fill="#000" opacity="0.032"/><circle cx="96.49543248242225%" cy="98.3598238165168%" r="0.9" fill="#000" opacity="0.012"/><circle cx="15.885910892615874%" cy="25.655420638241544%" r="0.9" fill="#000" opacity="0.023"/><circle cx="81.75649160065572%" cy="89.35142020617603%" r="0.9" fill="#000" opacity="0.036"/><circle cx="94.17940385857618%" cy="17.41710806061102%" r="0.9" fill="#000" opacity="0.003"/><circle cx="72.39609605068942%" cy="34.20680172220171%" r="0.9" fill="#000" opacity="0.008"/><circle cx="87.6192236308697%" cy="55.138564564499326%" r="0.9" fill="#000" opacity="0.012"/><circle cx="15.841582927238274%" cy="50.96716062226413%" r="0.9" fill="#000" opacity="0.050"/><circle cx="5.522969068062822%" cy="11.356099212073701%" r="0.9" fill="#000" opacity="0.010"/><circle cx="33.309538591487545%" cy="90.86727295203652%" r="0.9" fill="#000" opacity="0.022"/><circle cx="2.7156772836206766%" cy="32.85626257361515%" r="0.9" fill="#000" opacity="0.019"/><circle cx="42.99467030448964%" cy="15.932467131584072%" r="0.9" fill="#000" opacity="0.015"/><circle cx="10.474057210864295%" cy="20.789918376827277%" r="0.9" fill="#000" opacity="0.050"/><circle cx="34.735976137115664%" cy="13.742983405366516%" r="0.9" fill="#000" opacity="0.032"/><circle cx="19.909736866947846%" cy="59.731826819386924%" r="0.9" fill="#000" opacity="0.031"/><circle cx="26.80068860013025%" cy="14.990200019473743%" r="0.9" fill="#000" opacity="0.039"/><circle cx="66.02356204365523%" cy="78.66130201745982%" r="0.9" fill="#000" opacity="0.012"/><circle cx="49.7709904332299%" cy="52.25944525374599%" r="0.9" fill="#000" opacity="0.008"/><circle cx="83.30468387619425%" cy="22.768086159254665%" r="0.9" fill="#000" opacity="0.028"/><circle cx="74.37103451270683%" cy="35.00429531790093%" r="0.9" fill="#000" opacity="0.018"/><circle cx="24.422870885780412%" cy="0.19876292449051425%" r="0.9" fill="#000" opacity="0.003"/><circle cx="77.70422647416054%" cy="92.8816485548039%" r="0.9" fill="#000" opacity="0.047"/><circle cx="9.1915683967565%" cy="22.944256403940344%" r="0.9" fill="#000" opacity="0.044"/><circle cx="31.384248080045396%" cy="30.92719242090489%" r="0.9" fill="#000" opacity="0.015"/><circle cx="46.270517633735885%" cy="90.7732766555231%" r="0.9" fill="#000" opacity="0.019"/><circle cx="46.05899334814044%" cy="91.07735145628736%" r="0.9" fill="#000" opacity="0.045"/><circle cx="41.43142492373172%" cy="0.308301521917953%" r="0.9" fill="#000" opacity="0.037"/><circle cx="30.33207895260135%" cy="30.341084157265776%" r="0.9" fill="#000" opacity="0.042"/><circle cx="82.85579444328384%" cy="53.97469587528552%" r="0.9" fill="#000" opacity="0.041"/><circle cx="98.49835369034246%" cy="91.0926030686189%" r="0.9" fill="#000" opacity="0.030"/><circle cx="33.63996616820659%" cy="75.18934032246098%" r="0.9" fill="#000" opacity="0.030"/><circle cx="5.020463324862612%" cy="99.53963776432919%" r="0.9" fill="#000" opacity="0.008"/><circle cx="88.47513149605291%" cy="27.287370819971535%" r="0.9" fill="#000" opacity="0.026"/><circle cx="17.850629559954623%" cy="51.83602398497601%" r="0.9" fill="#000" opacity="0.009"/><circle cx="89.02071119896378%" cy="59.28857234811203%" r="0.9" fill="#000" opacity="0.014"/><circle cx="23.441860614392407%" cy="18.52409454926581%" r="0.9" fill="#000" opacity="0.009"/><circle cx="7.065122427199267%" cy="86.50743583775817%" r="0.9" fill="#000" opacity="0.024"/><circle cx="11.448790217972727%" cy="75.20039310394793%" r="0.9" fill="#000" opacity="0.024"/><circle cx="35.398079734050306%" cy="84.21625191910765%" r="0.9" fill="#000" opacity="0.021"/><circle cx="17.846044558199715%" cy="91.47829654681964%" r="0.9" fill="#000" opacity="0.046"/><circle cx="39.33953462175774%" cy="56.37792490308926%" r="0.9" fill="#000" opacity="0.049"/><circle cx="28.983123980050852%" cy="17.201328093474878%" r="0.9" fill="#000" opacity="0.021"/><circle cx="24.70386977627401%" cy="53.43700773768685%" r="0.9" fill="#000" opacity="0.003"/><circle cx="80.46390253619255%" cy="68.34417171777899%" r="0.9" fill="#000" opacity="0.040"/><circle cx="15.667007731702832%" cy="98.38359675228917%" r="0.9" fill="#000" opacity="0.004"/><circle cx="36.957797595946694%" cy="71.60391852802226%" r="0.9" fill="#000" opacity="0.048"/><circle cx="2.856004961681635%" cy="47.688265332952106%" r="0.9" fill="#000" opacity="0.000"/><circle cx="87.5054801610506%" cy="42.18658811157449%" r="0.9" fill="#000" opacity="0.044"/><circle cx="84.66989403055234%" cy="50.075330571582874%" r="0.9" fill="#000" opacity="0.004"/><circle cx="71.09531388170151%" cy="78.58821647214802%" r="0.9" fill="#000" opacity="0.045"/><circle cx="79.58869650849407%" cy="92.47402184765062%" r="0.9" fill="#000" opacity="0.039"/><circle cx="89.09274704182216%" cy="16.039044135524005%" r="0.9" fill="#000" opacity="0.001"/><circle cx="6.254289668833712%" cy="95.4637514894186%" r="0.9" fill="#000" opacity="0.016"/><circle cx="49.17732014880898%" cy="68.26522202228237%" r="0.9" fill="#000" opacity="0.026"/><circle cx="36.22891198495118%" cy="66.44584121486524%" r="0.9" fill="#000" opacity="0.026"/><circle cx="23.435196391280076%" cy="70.35618704952941%" r="0.9" fill="#000" opacity="0.034"/><circle cx="41.43479994407926%" cy="90.48967694189362%" r="0.9" fill="#000" opacity="0.016"/><circle cx="11.423017095658716%" cy="31.455873283838987%" r="0.9" fill="#000" opacity="0.001"/><circle cx="61.670897052052034%" cy="20.785759369933253%" r="0.9" fill="#000" opacity="0.004"/><circle cx="69.90969970196831%" cy="60.13403106607803%" r="0.9" fill="#000" opacity="0.013"/><circle cx="34.73553111828721%" cy="22.19899770967372%" r="0.9" fill="#000" opacity="0.030"/><circle cx="17.43322209239745%" cy="41.65589062905568%" r="0.9" fill="#000" opacity="0.018"/><circle cx="38.78233749012835%" cy="37.11780441903604%" r="0.9" fill="#000" opacity="0.019"/><circle cx="68.8655526046665%" cy="33.43081620392222%" r="0.9" fill="#000" opacity="0.041"/><circle cx="24.01474770440821%" cy="89.74736460487568%" r="0.9" fill="#000" opacity="0.039"/><circle cx="8.467326585866441%" cy="77.13893849440112%" r="0.9" fill="#000" opacity="0.045"/><circle cx="82.29619834878291%" cy="99.33955987640873%" r="0.9" fill="#000" opacity="0.002"/><circle cx="84.15897531733964%" cy="43.63523312083649%" r="0.9" fill="#000" opacity="0.018"/>
  
    <g transform="translate(500.0,322.0)" opacity="0.9">
      <path d="M -52.08 -199.64000000000001
               C -52.08 -238.70000000000002 52.08 -238.70000000000002 52.08 -199.64000000000001
               L 43.400000000000006 -173.60000000000002
               C 147.56 -130.2 173.60000000000002 21.700000000000003 147.56 121.52000000000001
               C 121.52000000000001 208.32 -121.52000000000001 208.32 -147.56 121.52000000000001
               C -173.60000000000002 21.700000000000003 -147.56 -130.2 -43.400000000000006 -173.60000000000002
               Z"
            fill="#cdbfa9" stroke="#7c6f59" stroke-width="5.208"/>
      <rect x="-69.44" y="-251.71999999999997" width="138.88" height="43.400000000000006" rx="13.02"
            fill="#7c6f59" opacity="0.55"/>
      <ellipse cx="0" cy="26.04" rx="69.44" ry="86.80000000000001" fill="#7c6f59" opacity="0.18"/>
    </g>
  <rect width="1000" height="700" fill="url(#vig)"/>
  <text x="50%" y="651" text-anchor="middle"
        font-family="Georgia, 'Times New Roman', serif" font-size="30"
        letter-spacing="3" fill="#7c6f59" opacity="0.85">JOURNAL</text>
</svg>