<svg xmlns="http://www.w3.org/2000/svg" width="1000" height="700" viewBox="0 0 1000 700" role="img" aria-label="JOURNAL placeholder">
  <defs>
    <linearGradient id="bg" x1="0" y1="0" x2="0.4" y2="1">
      <stop offset="0" stop-color="#dde6ea"/>
      <stop offset="1" stop-color="#b9ccd6"/>
    </linearGradient>
    <radialGradient id="vig" cx="0.5" cy="0.42" r="0.75">
      <stop offset="0.55" stop-color="#000" stop-opacity="0"/>
      <stop offset="1" stop-color="#000" stop-opacity="0.10"/>
    </radialGradient>
  </defs>
  <rect width="1000" height="700" fill="url(#bg)"/>
  <circle cx="47.18438686845258%" cy="45.468836378650934%" r="0.9" fill="#000" opacity="0.023"/><circle cx="40.9904535004586%" cy="92.67557321080653%" r="0.9" fill="#000" opacity="0.026"/><circle cx="66.86862451374502%" cy="72.87855740464524%" r="0.9" fill="#000" opacity="0.044"/><circle cx="17.42120696794177%" cy="82.42183510716694%" r="0.9" fill="#000" opacity="0.031"/><circle cx="57.09624881928859%" cy="2.799085862595463%" r="0.9" fill="#000" opacity="0.009"/><circle cx="68.62317023813785%" cy="54.11315404877563%" r="0.9" fill="#000" opacity="0.021"/><circle cx="34.37316940060432%" cy="27.438998851377782%" r="0.9" fill="#000" opacity="0.047"/><circle cx="71.98968882280323%" cy="95.09513280497089%" r="0.9" fill="#000" opacity="0.009"/><circle cx="85.66580267751772%" cy="22.65968770587452%" r="0.9" fill="#000" opacity="0.010"/><circle cx="53.969534928984345%" cy="4.919215327904835%" r="0.9" fill="#000" opacity="0.013"/><circle cx="64.3286732592669%" cy="23.26263206850645%" r="0.9" fill="#000" opacity="0.033"/><circle cx="88.60998075084345%" cy="53.3626023548338%" r="0.9" fill="#000" opacity="0.025"/><circle cx="29.32668760938064%" cy="29.126424004539253%" r="0.9" fill="#000" opacity="0.039"/><circle cx="42.61447887903385%" cy="99.51861800716246%" r="0.9" fill="#000" opacity="0.030"/><circle cx="94.29782115659738%" cy="98.38466068925553%" r="0.9" fill="#000" opacity="0.022"/><circle cx="96.95787793174567%" cy="90.5443976150405%" r="0.9" fill="#000" opacity="0.017"/><circle cx="77.98698918955382%" cy="97.30395309559334%" r="0.9" fill="#000" opacity="0.001"/><circle cx="68.39374474395208%" cy="75.32056172211252%" r="0.9" fill="#000" opacity="0.046"/><circle cx="85.04502633134702%" cy="33.03369374867636%" r="0.9" fill="#000" opacity="0.029"/><circle cx="53.26433400173981%" cy="98.51196533501692%" r="0.9" fill="#000" opacity="0.025"/><circle cx="85.69916288293507%" cy="37.2722428833828%" r="0.9" fill="#000" opacity="0.016"/><circle cx="64.53474688218542%" cy="0.44418353084076934%" r="0.9" fill="#000" opacity="0.004"/><circle cx="3.9507591658553776%" cy="36.83995680877261%" r="0.9" fill="#000" opacity="0.006"/><circle cx="54.476318079432254%" cy="28.97736473850735%" r="0.9" fill="#000" opacity="0.022"/><circle cx="43.20999428126502%" cy="72.50652962331927%" r="0.9" fill="#000" opacity="0.031"/><circle cx="88.34642048154528%" cy="57.92157996071605%" r="0.9" fill="#000" opacity="0.006"/><circle cx="29.207804764759604%" cy="49.49097762724257%" r="0.9" fill="#000" opacity="0.034"/><circle cx="79.39431802303487%" cy="97.24633723629933%" r="0.9" fill="#000" opacity="0.000"/><circle cx="11.305143859657074%" cy="87.03998687525055%" r="0.9" fill="#000" opacity="0.050"/><circle cx="66.0377841231421%" cy="90.38404080206132%" r="0.9" fill="#000" opacity="0.040"/><circle cx="57.80552094237391%" cy="18.27232399031875%" r="0.9" fill="#000" opacity="0.030"/><circle cx="42.355319348081764%" cy="81.13663648500746%" r="0.9" fill="#000" opacity="0.015"/><circle cx="16.225516838844346%" cy="55.949581451755215%" r="0.9" fill="#000" opacity="0.031"/><circle cx="38.38372222414145%" cy="92.93150275576534%" r="0.9" fill="#000" opacity="0.030"/><circle cx="51.28499091396104%" cy="12.568059429470013%" r="0.9" fill="#000" opacity="0.023"/><circle cx="57.79175963857666%" cy="72.52564602269493%" r="0.9" fill="#000" opacity="0.012"/><circle cx="29.314538598129324%" cy="14.609662436698779%" r="0.9" fill="#000" opacity="0.035"/><circle cx="21.077742471459892%" cy="63.16346154027618%" r="0.9" fill="#000" opacity="0.031"/><circle cx="30.486009844979034%" cy="20.847878831889567%" r="0.9" fill="#000" opacity="0.035"/><circle cx="1.958058955897246%" cy="76.82325156257883%" r="0.9" fill="#000" opacity="0.047"/><circle cx="34.251038798149004%" cy="79.56011464240942%" r="0.9" fill="#000" opacity="0.032"/><circle cx="51.61057949901756%" cy="52.9459765459008%" r="0.9" fill="#000" opacity="0.032"/><circle cx="96.54347836222038%" cy="88.57662565478577%" r="0.9" fill="#000" opacity="0.040"/><circle cx="22.629256986207757%" cy="20.77643192011448%" r="0.9" fill="#000" opacity="0.003"/><circle cx="82.21075714646896%" cy="55.79405875378441%" r="0.9" fill="#000" opacity="0.013"/><circle cx="59.06087916190966%" cy="60.41708776907599%" r="0.9" fill="#000" opacity="0.034"/><circle cx="42.08540120650495%" cy="12.029021231556847%" r="0.9" fill="#000" opacity="0.025"/><circle cx="19.224346579572316%" cy="33.5982024704134%" r="0.9" fill="#000" opacity="0.006"/><circle cx="91.71812251532504%" cy="66.15457025897173%" r="0.9" fill="#000" opacity="0.020"/><circle cx="53.29953869926886%" cy="38.0546458198073%" r="0.9" fill="#000" opacity="0.019"/><circle cx="89.75490260916742%" cy="88.2528851947326%" r="0.9" fill="#000" opacity="0.019"/><circle cx="54.529222383549524%" cy="20.80233689600449%" r="0.9" fill="#000" opacity="0.010"/><circle cx="51.370639883937784%" cy="42.814620150716564%" r="0.9" fill="#000" opacity="0.002"/><circle cx="78.87552870290486%" cy="85.91111241408241%" r="0.9" fill="#000" opacity="0.039"/><circle cx="48.613984629915805%" cy="5.546710365919505%" r="0.9" fill="#000" opacity="0.003"/><circle cx="95.01301714301242%" cy="50.07854117042494%" r="0.9" fill="#000" opacity="0.019"/><circle cx="82.39776472141294%" cy="46.65088417061122%" r="0.9" fill="#000" opacity="0.005"/><circle cx="43.81342547918895%" cy="30.164088200164752%" r="0.9" fill="#000" opacity="0.005"/><circle cx="8.066401710506865%" cy="59.531151873158336%" r="0.9" fill="#000" opacity="0.028"/><circle cx="48.246929786868755%" cy="40.697611065930204%" r="0.9" fill="#000" opacity="0.000"/><circle cx="50.269408632968684%" cy="88.59956587682524%" r="0.9" fill="#000" opacity="0.043"/><circle cx="31.607068251629368%" cy="87.98992331890958%" r="0.9" fill="#000" opacity="0.035"/><circle cx="58.18201575610769%" cy="56.744576316411845%" r="0.9" fill="#000" opacity="0.040"/><circle cx="7.417213885615748%" cy="39.74871801015818%" r="0.9" fill="#000" opacity="0.044"/><circle cx="58.39200452442458%" cy="76.4307955279773%" r="0.9" fill="#000" opacity="0.047"/><circle cx="38.345819204573516%" cy="93.1619712233471%" r="0.9" fill="#000" opacity="0.049"/><circle cx="70.63687536099026%" cy="95.96114252999031%" r="0.9" fill="#000" opacity="0.017"/><circle cx="40.85713245645407%" cy="43.387916612632594%" r="0.9" fill="#000" opacity="0.048"/><circle cx="53.76565678434443%" cy="78.4393827942068%" r="0.9" fill="#000" opacity="0.000"/><circle cx="91.27088207840607%" cy="53.11820815886581%" r="0.9" fill="#000" opacity="0.008"/><circle cx="44.611008439267195%" cy="0.9368958246609771%" r="0.9" fill="#000" opacity="0.031"/><circle cx="64.7826237580175%" cy="93.09761667409332%" r="0.9" fill="#000" opacity="0.040"/><circle cx="23.520432962193027%" cy="82.41852852105637%" r="0.9" fill="#000" opacity="0.046"/><circle cx="63.093305494346374%" cy="70.50799929420573%" r="0.9" fill="#000" opacity="0.021"/><circle cx="76.80056454255448%" cy="38.19173391100086%" r="0.9" fill="#000" opacity="0.023"/><circle cx="39.48035391225994%" cy="21.592302148155806%" r="0.9" fill="#000" opacity="0.047"/><circle cx="89.36920400810234%" cy="74.1071270058174%" r="0.9" fill="#000" opacity="0.022"/><circle cx="77.69361713118441%" cy="65.18879946742764%" r="0.9" fill="#000" opacity="0.027"/><circle cx="89.4238512447541%" cy="46.09733246438839%" r="0.9" fill="#000" opacity="0.046"/><circle cx="75.20936205133859%" cy="2.997445862786008%" r="0.9" fill="#000" opacity="0.015"/><circle cx="3.9852506814051725%" cy="57.255310944335946%" r="0.9" fill="#000" opacity="0.026"/><circle cx="68.28195438294094%" cy="41.685937992187924%" r="0.9" fill="#000" opacity="0.017"/><circle cx="50.50059154616954%" cy="79.28550677648646%" r="0.9" fill="#000" opacity="0.032"/><circle cx="98.93406735924137%" cy="71.96055693897344%" r="0.9" fill="#000" opacity="0.026"/><circle cx="20.437507765406004%" cy="53.66057754868674%" r="0.9" fill="#000" opacity="0.001"/><circle cx="44.97037968327504%" cy="64.05875308142645%" r="0.9" fill="#000" opacity="0.008"/><circle cx="50.59401842288784%" cy="95.47423950304335%" r="0.9" fill="#000" opacity="0.044"/><circle cx="0.9880650257594659%" cy="33.167064045343274%" r="0.9" fill="#000" opacity="0.045"/><circle cx="47.8254440409711%" cy="50.325939023382006%" r="0.9" fill="#000" opacity="0.047"/><circle cx="17.430467287392247%" cy="24.345198387705224%" r="0.9" fill="#000" opacity="0.035"/>
  
    <g transform="translate(500.0,322.0)" opacity="0.9">
      <path d="M -52.08 -199.64000000000001
               C -52.08 -238.70000000000002 52.08 -238.70000000000002 52.08 -199.64000000000001
               L 43.400000000000006 -173.60000000000002
               C 147.56 -130.2 173.60000000000002 21.700000000000003 147.56 121.52000000000001
               C 121.52000000000001 208.32 -121.52000000000001 208.32 -147.56 121.52000000000001
               C -173.60000000000002 21.700000000000003 -147.56 -130.2 -43.400000000000006 -173.60000000000002
               Z"
            fill="#b9ccd6" stroke="#5b7c8c" stroke-width="5.208"/>
      <rect x="-69.44" y="-251.71999999999997" width="138.88" height="43.400000000000006" rx="13.02"
            fill="#5b7c8c" opacity="0.55"/>
      <ellipse cx="0" cy="26.04" rx="69.44" ry="86.80000000000001" fill="#5b7c8c" opacity="0.18"/>
    </g>
  <rect width="1000" height="700" fill="url(#vig)"/>
  <text x="50%" y="651" text-anchor="middle"
        font-family="Georgia, 'Times New Roman', serif" font-size="30"
        letter-spacing="3" fill="#5b7c8c" opacity="0.85">JOURNAL</text>
</svg>