<svg xmlns="http://www.w3.org/2000/svg" width="900" height="700" viewBox="0 0 900 700" role="img" aria-label="SILVER placeholder">
  <defs>
    <linearGradient id="bg" x1="0" y1="0" x2="0.4" y2="1">
      <stop offset="0" stop-color="#e4e6e8"/>
      <stop offset="1" stop-color="#c7ccd1"/>
    </linearGradient>
    <radialGradient id="vig" cx="0.5" cy="0.42" r="0.75">
      <stop offset="0.55" stop-color="#000" stop-opacity="0"/>
      <stop offset="1" stop-color="#000" stop-opacity="0.10"/>
    </radialGradient>
  </defs>
  <rect width="900" height="700" fill="url(#bg)"/>
  <circle cx="25.358869759637116%" cy="0.7802177221236217%" r="0.9" fill="#000" opacity="0.029"/><circle cx="66.32997688490659%" cy="73.30668612449026%" r="0.9" fill="#000" opacity="0.015"/><circle cx="31.46733863115758%" cy="71.58638441420176%" r="0.9" fill="#000" opacity="0.022"/><circle cx="64.28815396280285%" cy="76.91358688733555%" r="0.9" fill="#000" opacity="0.002"/><circle cx="98.64404226246563%" cy="62.790724580897574%" r="0.9" fill="#000" opacity="0.040"/><circle cx="4.853860781462382%" cy="21.849100657409316%" r="0.9" fill="#000" opacity="0.026"/><circle cx="22.368830442066933%" cy="38.87420341652378%" r="0.9" fill="#000" opacity="0.046"/><circle cx="81.88836113363148%" cy="29.636522754291672%" r="0.9" fill="#000" opacity="0.004"/><circle cx="75.1868279011151%" cy="80.04405599445809%" r="0.9" fill="#000" opacity="0.031"/><circle cx="32.58001691655631%" cy="89.05674156611859%" r="0.9" fill="#000" opacity="0.035"/><circle cx="49.01650667958628%" cy="60.36877835281152%" r="0.9" fill="#000" opacity="0.011"/><circle cx="16.560327175549816%" cy="17.764282116411923%" r="0.9" fill="#000" opacity="0.040"/><circle cx="55.563991131038314%" cy="91.63956392113226%" r="0.9" fill="#000" opacity="0.009"/><circle cx="61.20594803426952%" cy="85.0019178627162%" r="0.9" fill="#000" opacity="0.009"/><circle cx="4.8654992670124075%" cy="9.821592141601364%" r="0.9" fill="#000" opacity="0.000"/><circle cx="97.8221497070939%" cy="2.603852793286121%" r="0.9" fill="#000" opacity="0.036"/><circle cx="2.4134363465335595%" cy="79.15713339919928%" r="0.9" fill="#000" opacity="0.016"/><circle cx="42.83904921513976%" cy="52.09612225962401%" r="0.9" fill="#000" opacity="0.017"/><circle cx="17.93051431448204%" cy="32.784243619679266%" r="0.9" fill="#000" opacity="0.020"/><circle cx="57.66875977579096%" cy="52.360417191184375%" r="0.9" fill="#000" opacity="0.005"/><circle cx="0.6790700324003196%" cy="80.98794620667967%" r="0.9" fill="#000" opacity="0.047"/><circle cx="14.462759784201683%" cy="74.14080921717047%" r="0.9" fill="#000" opacity="0.028"/><circle cx="66.36046094558405%" cy="49.54926423794698%" r="0.9" fill="#000" opacity="0.027"/><circle cx="27.156403630669402%" cy="79.10653653698111%" r="0.9" fill="#000" opacity="0.031"/><circle cx="81.57400746821716%" cy="73.05353482583727%" r="0.9" fill="#000" opacity="0.033"/><circle cx="72.71060864345462%" cy="81.63529407302292%" r="0.9" fill="#000" opacity="0.043"/><circle cx="18.871880145541585%" cy="88.7878941452936%" r="0.9" fill="#000" opacity="0.006"/><circle cx="55.82131968076208%" cy="73.71357950109707%" r="0.9" fill="#000" opacity="0.025"/><circle cx="96.47288590008007%" cy="29.333360934479646%" r="0.9" fill="#000" opacity="0.015"/><circle cx="4.675324931027625%" cy="23.070173963140306%" r="0.9" fill="#000" opacity="0.014"/><circle cx="67.31260523886198%" cy="24.64726442787718%" r="0.9" fill="#000" opacity="0.001"/><circle cx="61.439613250219715%" cy="77.21943078800496%" r="0.9" fill="#000" opacity="0.031"/><circle cx="40.05520906804493%" cy="36.4255120541087%" r="0.9" fill="#000" opacity="0.017"/><circle cx="19.992729078600046%" cy="65.13399557387028%" r="0.9" fill="#000" opacity="0.047"/><circle cx="59.03165780546611%" cy="36.286001494355666%" r="0.9" fill="#000" opacity="0.023"/><circle cx="80.0569185015116%" cy="82.23279011910952%" r="0.9" fill="#000" opacity="0.041"/><circle cx="61.73493556900167%" cy="98.453547396104%" r="0.9" fill="#000" opacity="0.020"/><circle cx="39.38075237222437%" cy="82.72084648996967%" r="0.9" fill="#000" opacity="0.048"/><circle cx="69.35759573230193%" cy="13.16341956746947%" r="0.9" fill="#000" opacity="0.009"/><circle cx="64.16769088804858%" cy="0.17941227776817614%" r="0.9" fill="#000" opacity="0.004"/><circle cx="41.37111918262539%" cy="12.710005262722257%" r="0.9" fill="#000" opacity="0.009"/><circle cx="39.303555531807596%" cy="31.338202274654815%" r="0.9" fill="#000" opacity="0.041"/><circle cx="88.83167595141678%" cy="34.67122754135313%" r="0.9" fill="#000" opacity="0.026"/><circle cx="14.173209404993814%" cy="18.886479882674145%" r="0.9" fill="#000" opacity="0.035"/><circle cx="69.70056174376627%" cy="66.54952853538717%" r="0.9" fill="#000" opacity="0.015"/><circle cx="65.35195170168944%" cy="16.562485912796475%" r="0.9" fill="#000" opacity="0.028"/><circle cx="39.89847186067895%" cy="70.75881777546775%" r="0.9" fill="#000" opacity="0.030"/><circle cx="55.84577517835088%" cy="3.977204126499523%" r="0.9" fill="#000" opacity="0.034"/><circle cx="31.67035418077311%" cy="30.757652412066605%" r="0.9" fill="#000" opacity="0.032"/><circle cx="54.446542451176796%" cy="52.36782147060405%" r="0.9" fill="#000" opacity="0.018"/><circle cx="72.5290955110936%" cy="87.68308578474293%" r="0.9" fill="#000" opacity="0.011"/><circle cx="80.67763981238741%" cy="16.816174300461263%" r="0.9" fill="#000" opacity="0.044"/><circle cx="82.82934959437509%" cy="52.87826588790951%" r="0.9" fill="#000" opacity="0.047"/><circle cx="7.249932152631144%" cy="16.631132603100983%" r="0.9" fill="#000" opacity="0.039"/><circle cx="11.285073660105349%" cy="11.99820225589665%" r="0.9" fill="#000" opacity="0.041"/><circle cx="75.01872835305964%" cy="82.6747893533004%" r="0.9" fill="#000" opacity="0.045"/><circle cx="79.16871823344803%" cy="70.38936997076229%" r="0.9" fill="#000" opacity="0.018"/><circle cx="90.83143502716665%" cy="23.291826270773562%" r="0.9" fill="#000" opacity="0.031"/><circle cx="54.45537538433051%" cy="33.67801939450342%" r="0.9" fill="#000" opacity="0.048"/><circle cx="0.016874121721899282%" cy="28.006430178234933%" r="0.9" fill="#000" opacity="0.010"/><circle cx="33.833315519261454%" cy="28.358064963377483%" r="0.9" fill="#000" opacity="0.002"/><circle cx="28.417105174101863%" cy="78.03929252209755%" r="0.9" fill="#000" opacity="0.047"/><circle cx="14.039836845425002%" cy="23.827490889570935%" r="0.9" fill="#000" opacity="0.042"/><circle cx="35.87330735327119%" cy="57.07566939380537%" r="0.9" fill="#000" opacity="0.025"/><circle cx="84.03405929785637%" cy="80.6566946136147%" r="0.9" fill="#000" opacity="0.024"/><circle cx="82.70433697872865%" cy="39.04550489510458%" r="0.9" fill="#000" opacity="0.047"/><circle cx="50.63962861218173%" cy="23.178507961780625%" r="0.9" fill="#000" opacity="0.007"/><circle cx="99.47727326900919%" cy="4.004974352321778%" r="0.9" fill="#000" opacity="0.025"/><circle cx="91.88879603523912%" cy="58.128989684934076%" r="0.9" fill="#000" opacity="0.005"/><circle cx="71.60404495444361%" cy="47.332419189268826%" r="0.9" fill="#000" opacity="0.034"/><circle cx="24.266732862865894%" cy="89.84815271459344%" r="0.9" fill="#000" opacity="0.008"/><circle cx="10.282049130278391%" cy="31.868659275545674%" r="0.9" fill="#000" opacity="0.013"/><circle cx="6.468399775701528%" cy="41.18002822117452%" r="0.9" fill="#000" opacity="0.006"/><circle cx="27.237716315973024%" cy="1.4824921292982518%" r="0.9" fill="#000" opacity="0.040"/><circle cx="58.5616854304309%" cy="16.51752405994884%" r="0.9" fill="#000" opacity="0.048"/><circle cx="63.898713420327965%" cy="83.94955053580419%" r="0.9" fill="#000" opacity="0.036"/><circle cx="95.28788246778966%" cy="45.81516248466454%" r="0.9" fill="#000" opacity="0.020"/><circle cx="12.89538019677704%" cy="49.90710061036406%" r="0.9" fill="#000" opacity="0.020"/><circle cx="96.668292525166%" cy="82.25852946466684%" r="0.9" fill="#000" opacity="0.011"/><circle cx="56.27091705200476%" cy="49.38486181742901%" r="0.9" fill="#000" opacity="0.005"/><circle cx="31.51207380209945%" cy="80.5867811229021%" r="0.9" fill="#000" opacity="0.003"/><circle cx="21.27096885085471%" cy="14.246754620139512%" r="0.9" fill="#000" opacity="0.046"/><circle cx="7.045538169564569%" cy="42.527381929606854%" r="0.9" fill="#000" opacity="0.036"/><circle cx="67.25321033793577%" cy="10.811699545726638%" r="0.9" fill="#000" opacity="0.047"/><circle cx="42.63557289619282%" cy="65.24827992977858%" r="0.9" fill="#000" opacity="0.021"/><circle cx="44.95288111296527%" cy="53.211834781800206%" r="0.9" fill="#000" opacity="0.042"/><circle cx="33.66369172803784%" cy="17.35689074952298%" r="0.9" fill="#000" opacity="0.043"/><circle cx="9.289025180949462%" cy="25.65484293787319%" r="0.9" fill="#000" opacity="0.008"/><circle cx="58.97314644910341%" cy="49.45551955741383%" r="0.9" fill="#000" opacity="0.041"/><circle cx="17.15549880970878%" cy="71.99829494937265%" r="0.9" fill="#000" opacity="0.045"/>
  
    <g transform="translate(450.0,322.0)" opacity="0.9">
      <path d="M -52.08 -199.64000000000001
               C -52.08 -238.70000000000002 52.08 -238.70000000000002 52.08 -199.64000000000001
               L 43.400000000000006 -173.60000000000002
               C 147.56 -130.2 173.60000000000002 21.700000000000003 147.56 121.52000000000001
               C 121.52000000000001 208.32 -121.52000000000001 208.32 -147.56 121.52000000000001
               C -173.60000000000002 21.700000000000003 -147.56 -130.2 -43.400000000000006 -173.60000000000002
               Z"
            fill="#c7ccd1" stroke="#7d858d" stroke-width="5.208"/>
      <rect x="-69.44" y="-251.71999999999997" width="138.88" height="43.400000000000006" rx="13.02"
            fill="#7d858d" opacity="0.55"/>
      <ellipse cx="0" cy="26.04" rx="69.44" ry="86.80000000000001" fill="#7d858d" opacity="0.18"/>
    </g>
  <rect width="900" height="700" fill="url(#vig)"/>
  <text x="50%" y="651" text-anchor="middle"
        font-family="Georgia, 'Times New Roman', serif" font-size="27"
        letter-spacing="3" fill="#7d858d" opacity="0.85">SILVER</text>
</svg>