<svg xmlns="http://www.w3.org/2000/svg" width="900" height="700" viewBox="0 0 900 700" role="img" aria-label="SCENT placeholder">
  <defs>
    <linearGradient id="bg" x1="0" y1="0" x2="0.4" y2="1">
      <stop offset="0" stop-color="#efe6d8"/>
      <stop offset="1" stop-color="#dac9af"/>
    </linearGradient>
    <radialGradient id="vig" cx="0.5" cy="0.42" r="0.75">
      <stop offset="0.55" stop-color="#000" stop-opacity="0"/>
      <stop offset="1" stop-color="#000" stop-opacity="0.10"/>
    </radialGradient>
  </defs>
  <rect width="900" height="700" fill="url(#bg)"/>
  <circle cx="87.86958555045196%" cy="10.568978448506583%" r="0.9" fill="#000" opacity="0.040"/><circle cx="83.45439674278184%" cy="79.13275555272836%" r="0.9" fill="#000" opacity="0.024"/><circle cx="55.18273218970151%" cy="38.93477333433445%" r="0.9" fill="#000" opacity="0.002"/><circle cx="63.507448552446924%" cy="91.3429133156033%" r="0.9" fill="#000" opacity="0.025"/><circle cx="28.46637357320597%" cy="74.18228742467547%" r="0.9" fill="#000" opacity="0.015"/><circle cx="77.7347794224843%" cy="97.30322411608871%" r="0.9" fill="#000" opacity="0.045"/><circle cx="2.482770399393519%" cy="4.1806059621491976%" r="0.9" fill="#000" opacity="0.007"/><circle cx="16.91315096201714%" cy="42.17556482274537%" r="0.9" fill="#000" opacity="0.006"/><circle cx="86.59520691610649%" cy="73.16453700276952%" r="0.9" fill="#000" opacity="0.010"/><circle cx="1.476016085789189%" cy="88.5523060488959%" r="0.9" fill="#000" opacity="0.031"/><circle cx="17.790711659363613%" cy="45.005809529834494%" r="0.9" fill="#000" opacity="0.030"/><circle cx="91.74690604815422%" cy="50.37991987020981%" r="0.9" fill="#000" opacity="0.012"/><circle cx="11.518421803039136%" cy="84.5280253973162%" r="0.9" fill="#000" opacity="0.039"/><circle cx="36.72497808155191%" cy="63.14299116976127%" r="0.9" fill="#000" opacity="0.038"/><circle cx="84.585324469196%" cy="80.51531200713879%" r="0.9" fill="#000" opacity="0.037"/><circle cx="74.32397440405882%" cy="29.991480946160685%" r="0.9" fill="#000" opacity="0.026"/><circle cx="52.46219083775501%" cy="42.5543300385939%" r="0.9" fill="#000" opacity="0.013"/><circle cx="56.47835719623079%" cy="11.683192873040527%" r="0.9" fill="#000" opacity="0.008"/><circle cx="54.585326720454844%" cy="44.865880265081046%" r="0.9" fill="#000" opacity="0.006"/><circle cx="78.88111742767722%" cy="80.77304997277696%" r="0.9" fill="#000" opacity="0.034"/><circle cx="71.74306321713536%" cy="50.73502951962667%" r="0.9" fill="#000" opacity="0.013"/><circle cx="2.428438845172187%" cy="57.0309220253259%" r="0.9" fill="#000" opacity="0.009"/><circle cx="39.977592280468265%" cy="30.081848837172675%" r="0.9" fill="#000" opacity="0.031"/><circle cx="24.637476472162955%" cy="31.276245135526548%" r="0.9" fill="#000" opacity="0.038"/><circle cx="14.670533822349508%" cy="37.808612191922265%" r="0.9" fill="#000" opacity="0.037"/><circle cx="98.89077790629592%" cy="41.65163519147298%" r="0.9" fill="#000" opacity="0.026"/><circle cx="31.832943881092067%" cy="9.172871270386995%" r="0.9" fill="#000" opacity="0.016"/><circle cx="89.7936644766756%" cy="54.67180645269985%" r="0.9" fill="#000" opacity="0.017"/><circle cx="59.47387525858597%" cy="3.6583678367574146%" r="0.9" fill="#000" opacity="0.002"/><circle cx="35.099893326563716%" cy="0.17770584645560028%" r="0.9" fill="#000" opacity="0.040"/><circle cx="38.673003731010006%" cy="81.39975930957199%" r="0.9" fill="#000" opacity="0.014"/><circle cx="91.22423017120632%" cy="73.63875551069803%" r="0.9" fill="#000" opacity="0.048"/><circle cx="57.47899658175829%" cy="49.67807766288056%" r="0.9" fill="#000" opacity="0.022"/><circle cx="0.11609601112170242%" cy="75.53880151278598%" r="0.9" fill="#000" opacity="0.021"/><circle cx="26.877894639297427%" cy="22.770649352901273%" r="0.9" fill="#000" opacity="0.025"/><circle cx="10.390608401147484%" cy="19.036592160653885%" r="0.9" fill="#000" opacity="0.039"/><circle cx="34.64304827410392%" cy="58.53665517341532%" r="0.9" fill="#000" opacity="0.002"/><circle cx="49.117613402307605%" cy="75.85080157018378%" r="0.9" fill="#000" opacity="0.032"/><circle cx="59.424111643462%" cy="90.7825992344544%" r="0.9" fill="#000" opacity="0.030"/><circle cx="5.039990895198465%" cy="8.762713759619356%" r="0.9" fill="#000" opacity="0.037"/><circle cx="66.885305786893%" cy="97.90603582338252%" r="0.9" fill="#000" opacity="0.042"/><circle cx="97.09173638673373%" cy="23.871211151606808%" r="0.9" fill="#000" opacity="0.020"/><circle cx="6.622368695194014%" cy="14.724443142344557%" r="0.9" fill="#000" opacity="0.006"/><circle cx="95.83983152279882%" cy="93.74444318632347%" r="0.9" fill="#000" opacity="0.019"/><circle cx="10.539564284376567%" cy="47.00433198284826%" r="0.9" fill="#000" opacity="0.006"/><circle cx="4.283800593780862%" cy="50.02904897901224%" r="0.9" fill="#000" opacity="0.003"/><circle cx="5.946365636417328%" cy="75.37577973639628%" r="0.9" fill="#000" opacity="0.015"/><circle cx="84.84436560247117%" cy="74.23323487148431%" r="0.9" fill="#000" opacity="0.012"/><circle cx="37.60187360089014%" cy="67.86462287139234%" r="0.9" fill="#000" opacity="0.014"/><circle cx="26.35636102315031%" cy="20.118617177413533%" r="0.9" fill="#000" opacity="0.018"/><circle cx="24.126814445845003%" cy="33.58305500084936%" r="0.9" fill="#000" opacity="0.033"/><circle cx="33.04666886218362%" cy="52.75389330483654%" r="0.9" fill="#000" opacity="0.008"/><circle cx="94.06232276751906%" cy="81.4110098945319%" r="0.9" fill="#000" opacity="0.042"/><circle cx="69.25914396725389%" cy="94.71800214077776%" r="0.9" fill="#000" opacity="0.004"/><circle cx="85.71716395442888%" cy="43.40942529419627%" r="0.9" fill="#000" opacity="0.024"/><circle cx="32.274266767088776%" cy="87.34676001853897%" r="0.9" fill="#000" opacity="0.038"/><circle cx="6.827770709794823%" cy="87.95628401638463%" r="0.9" fill="#000" opacity="0.004"/><circle cx="86.98203702212416%" cy="85.82969110364922%" r="0.9" fill="#000" opacity="0.032"/><circle cx="35.99781702681122%" cy="14.552069915047438%" r="0.9" fill="#000" opacity="0.025"/><circle cx="43.67294594233654%" cy="40.88027970007075%" r="0.9" fill="#000" opacity="0.011"/><circle cx="59.240007863650334%" cy="82.45863024521816%" r="0.9" fill="#000" opacity="0.012"/><circle cx="88.85878863785636%" cy="15.343502585181778%" r="0.9" fill="#000" opacity="0.030"/><circle cx="32.800976243134016%" cy="71.10575489484215%" r="0.9" fill="#000" opacity="0.013"/><circle cx="13.048891892673776%" cy="27.120907867983203%" r="0.9" fill="#000" opacity="0.009"/><circle cx="66.01178109657135%" cy="39.21967474120485%" r="0.9" fill="#000" opacity="0.027"/><circle cx="34.054601339499634%" cy="92.33899994280142%" r="0.9" fill="#000" opacity="0.028"/><circle cx="80.61584757130986%" cy="84.8956501700222%" r="0.9" fill="#000" opacity="0.034"/><circle cx="90.06128779516854%" cy="37.779499683771235%" r="0.9" fill="#000" opacity="0.023"/><circle cx="53.10670629790709%" cy="51.5311285053421%" r="0.9" fill="#000" opacity="0.001"/><circle cx="82.43303280683408%" cy="38.47513416374352%" r="0.9" fill="#000" opacity="0.028"/><circle cx="39.31001364494039%" cy="25.099644585496115%" r="0.9" fill="#000" opacity="0.030"/><circle cx="21.561512179770403%" cy="64.11911412049852%" r="0.9" fill="#000" opacity="0.037"/><circle cx="94.19995124396908%" cy="31.868724232569477%" r="0.9" fill="#000" opacity="0.022"/><circle cx="6.0326793083333%" cy="64.43656338146798%" r="0.9" fill="#000" opacity="0.004"/><circle cx="39.76542735053593%" cy="26.712332823821463%" r="0.9" fill="#000" opacity="0.023"/><circle cx="21.47670353106167%" cy="98.70765363363854%" r="0.9" fill="#000" opacity="0.013"/><circle cx="47.734448586183234%" cy="55.811352848912996%" r="0.9" fill="#000" opacity="0.012"/><circle cx="64.18267256087474%" cy="58.222572315470835%" r="0.9" fill="#000" opacity="0.013"/><circle cx="74.67221921688012%" cy="10.023950937695203%" r="0.9" fill="#000" opacity="0.004"/><circle cx="60.218021720718895%" cy="1.8761246484569005%" r="0.9" fill="#000" opacity="0.024"/><circle cx="18.040427461238274%" cy="2.130821319105758%" r="0.9" fill="#000" opacity="0.010"/><circle cx="53.42004562226401%" cy="49.47745060342223%" r="0.9" fill="#000" opacity="0.010"/><circle cx="36.21288092776672%" cy="31.853533740601968%" r="0.9" fill="#000" opacity="0.019"/><circle cx="97.63091987626223%" cy="62.92129479188107%" r="0.9" fill="#000" opacity="0.031"/><circle cx="36.632861812717145%" cy="7.121967034689036%" r="0.9" fill="#000" opacity="0.045"/><circle cx="66.70542726989237%" cy="58.59338307237974%" r="0.9" fill="#000" opacity="0.041"/><circle cx="35.61369926760255%" cy="51.66452201061878%" r="0.9" fill="#000" opacity="0.042"/><circle cx="0.5733594510303197%" cy="24.74339574976917%" r="0.9" fill="#000" opacity="0.032"/><circle cx="98.25023829746979%" cy="93.52202023536506%" r="0.9" fill="#000" opacity="0.023"/><circle cx="96.21800194313445%" cy="81.84720665038085%" r="0.9" fill="#000" opacity="0.000"/>
  
    <g transform="translate(450.0,322.0)" opacity="0.9">
      <path d="M -52.08 -199.64000000000001
               C -52.08 -238.70000000000002 52.08 -238.70000000000002 52.08 -199.64000000000001
               L 43.400000000000006 -173.60000000000002
               C 147.56 -130.2 173.60000000000002 21.700000000000003 147.56 121.52000000000001
               C 121.52000000000001 208.32 -121.52000000000001 208.32 -147.56 121.52000000000001
               C -173.60000000000002 21.700000000000003 -147.56 -130.2 -43.400000000000006 -173.60000000000002
               Z"
            fill="#dac9af" stroke="#94795a" stroke-width="5.208"/>
      <rect x="-69.44" y="-251.71999999999997" width="138.88" height="43.400000000000006" rx="13.02"
            fill="#94795a" opacity="0.55"/>
      <ellipse cx="0" cy="26.04" rx="69.44" ry="86.80000000000001" fill="#94795a" opacity="0.18"/>
    </g>
  <rect width="900" height="700" fill="url(#vig)"/>
  <text x="50%" y="651" text-anchor="middle"
        font-family="Georgia, 'Times New Roman', serif" font-size="27"
        letter-spacing="3" fill="#94795a" opacity="0.85">SCENT</text>
</svg>