<svg xmlns="http://www.w3.org/2000/svg" width="900" height="700" viewBox="0 0 900 700" role="img" aria-label="STONE placeholder">
  <defs>
    <linearGradient id="bg" x1="0" y1="0" x2="0.4" y2="1">
      <stop offset="0" stop-color="#e9e2d6"/>
      <stop offset="1" stop-color="#cdbfa9"/>
    </linearGradient>
    <radialGradient id="vig" cx="0.5" cy="0.42" r="0.75">
      <stop offset="0.55" stop-color="#000" stop-opacity="0"/>
      <stop offset="1" stop-color="#000" stop-opacity="0.10"/>
    </radialGradient>
  </defs>
  <rect width="900" height="700" fill="url(#bg)"/>
  <circle cx="52.89435478576906%" cy="20.002965316763145%" r="0.9" fill="#000" opacity="0.003"/><circle cx="66.15562659449645%" cy="77.02596550180391%" r="0.9" fill="#000" opacity="0.043"/><circle cx="45.720359248249075%" cy="28.975751223237157%" r="0.9" fill="#000" opacity="0.012"/><circle cx="41.56773680346648%" cy="61.60823548050275%" r="0.9" fill="#000" opacity="0.047"/><circle cx="75.09068461330692%" cy="80.60112688770393%" r="0.9" fill="#000" opacity="0.041"/><circle cx="77.77750048045384%" cy="8.156820262045283%" r="0.9" fill="#000" opacity="0.016"/><circle cx="95.18420985429074%" cy="65.13296581481917%" r="0.9" fill="#000" opacity="0.047"/><circle cx="6.564305476698062%" cy="26.341099733190067%" r="0.9" fill="#000" opacity="0.001"/><circle cx="43.67443444153185%" cy="51.11344976489974%" r="0.9" fill="#000" opacity="0.017"/><circle cx="53.016623441749914%" cy="37.57377734857585%" r="0.9" fill="#000" opacity="0.013"/><circle cx="24.717849917058622%" cy="48.622933272036605%" r="0.9" fill="#000" opacity="0.001"/><circle cx="49.07453940798916%" cy="56.76608028001786%" r="0.9" fill="#000" opacity="0.005"/><circle cx="44.348583887818585%" cy="28.029931256529007%" r="0.9" fill="#000" opacity="0.017"/><circle cx="20.992443811065662%" cy="11.790821498585258%" r="0.9" fill="#000" opacity="0.024"/><circle cx="23.453730543537553%" cy="11.458543552570987%" r="0.9" fill="#000" opacity="0.024"/><circle cx="67.78708688593994%" cy="77.98494102906574%" r="0.9" fill="#000" opacity="0.022"/><circle cx="19.058841374491543%" cy="30.609051751722525%" r="0.9" fill="#000" opacity="0.033"/><circle cx="28.187898186786843%" cy="33.405844056248704%" r="0.9" fill="#000" opacity="0.030"/><circle cx="18.29788680098565%" cy="7.481927840748204%" r="0.9" fill="#000" opacity="0.035"/><circle cx="62.45066204295273%" cy="23.125296770914073%" r="0.9" fill="#000" opacity="0.020"/><circle cx="50.85290393491201%" cy="86.09073938694677%" r="0.9" fill="#000" opacity="0.025"/><circle cx="94.02429419727105%" cy="19.12929206008386%" r="0.9" fill="#000" opacity="0.043"/><circle cx="67.30724118109583%" cy="57.958975460760406%" r="0.9" fill="#000" opacity="0.043"/><circle cx="38.73719704630242%" cy="63.85293773167041%" r="0.9" fill="#000" opacity="0.043"/><circle cx="78.81906365506276%" cy="43.73410111787257%" r="0.9" fill="#000" opacity="0.050"/><circle cx="37.947376629969966%" cy="56.8689420355216%" r="0.9" fill="#000" opacity="0.047"/><circle cx="34.29624724175363%" cy="58.00164115721089%" r="0.9" fill="#000" opacity="0.024"/><circle cx="61.72390484394287%" cy="77.80476189415292%" r="0.9" fill="#000" opacity="0.035"/><circle cx="52.55123802893824%" cy="99.92965319730773%" r="0.9" fill="#000" opacity="0.002"/><circle cx="14.219216235347687%" cy="73.87606068071767%" r="0.9" fill="#000" opacity="0.021"/><circle cx="21.79693399361301%" cy="62.74804712541675%" r="0.9" fill="#000" opacity="0.022"/><circle cx="81.42592926151512%" cy="47.41771701615329%" r="0.9" fill="#000" opacity="0.045"/><circle cx="70.34516409379604%" cy="60.74395439645662%" r="0.9" fill="#000" opacity="0.010"/><circle cx="95.57362950608777%" cy="45.426144558193094%" r="0.9" fill="#000" opacity="0.021"/><circle cx="61.217366447249454%" cy="16.25940860774151%" r="0.9" fill="#000" opacity="0.028"/><circle cx="1.722384832823276%" cy="49.25730388497388%" r="0.9" fill="#000" opacity="0.047"/><circle cx="28.117266362061265%" cy="65.13185884770081%" r="0.9" fill="#000" opacity="0.041"/><circle cx="26.208406075853652%" cy="63.61454430368452%" r="0.9" fill="#000" opacity="0.031"/><circle cx="86.35555889785859%" cy="84.34738622341459%" r="0.9" fill="#000" opacity="0.037"/><circle cx="39.73854127047976%" cy="44.44856591707591%" r="0.9" fill="#000" opacity="0.042"/><circle cx="27.565026450334063%" cy="57.989109780488214%" r="0.9" fill="#000" opacity="0.000"/><circle cx="72.82631550698264%" cy="32.520242171268876%" r="0.9" fill="#000" opacity="0.046"/><circle cx="48.92687590798437%" cy="99.85725340234328%" r="0.9" fill="#000" opacity="0.043"/><circle cx="14.419329129767267%" cy="70.44626310455958%" r="0.9" fill="#000" opacity="0.028"/><circle cx="0.2951053922063629%" cy="21.574092748091488%" r="0.9" fill="#000" opacity="0.010"/><circle cx="70.72811257589188%" cy="87.04783736618283%" r="0.9" fill="#000" opacity="0.022"/><circle cx="87.38417328734197%" cy="3.177794308518833%" r="0.9" fill="#000" opacity="0.049"/><circle cx="98.73739566919272%" cy="49.66734810483759%" r="0.9" fill="#000" opacity="0.010"/><circle cx="23.982209540814914%" cy="40.49026215507534%" r="0.9" fill="#000" opacity="0.021"/><circle cx="27.03599236310118%" cy="65.79730647248812%" r="0.9" fill="#000" opacity="0.049"/><circle cx="83.5603207739216%" cy="94.2375795108515%" r="0.9" fill="#000" opacity="0.000"/><circle cx="49.92312566266251%" cy="50.96932069505085%" r="0.9" fill="#000" opacity="0.010"/><circle cx="50.365953979802704%" cy="79.26655824516857%" r="0.9" fill="#000" opacity="0.042"/><circle cx="73.55510457967841%" cy="28.526657092277084%" r="0.9" fill="#000" opacity="0.023"/><circle cx="89.03972611963367%" cy="80.71635141818811%" r="0.9" fill="#000" opacity="0.011"/><circle cx="52.91579708857371%" cy="99.15191301865966%" r="0.9" fill="#000" opacity="0.048"/><circle cx="62.11546459992806%" cy="28.062705735510285%" r="0.9" fill="#000" opacity="0.011"/><circle cx="65.11355464842887%" cy="60.73684464241443%" r="0.9" fill="#000" opacity="0.034"/><circle cx="59.61330832892453%" cy="59.16940659512415%" r="0.9" fill="#000" opacity="0.020"/><circle cx="15.982816497757145%" cy="3.454074332148094%" r="0.9" fill="#000" opacity="0.043"/><circle cx="91.42011620233137%" cy="97.62892240593666%" r="0.9" fill="#000" opacity="0.049"/><circle cx="44.31420673368124%" cy="43.09421452637092%" r="0.9" fill="#000" opacity="0.035"/><circle cx="76.15421079780026%" cy="70.04333356760661%" r="0.9" fill="#000" opacity="0.015"/><circle cx="62.71196307266037%" cy="89.55054739197611%" r="0.9" fill="#000" opacity="0.048"/><circle cx="32.989074097438774%" cy="74.91147782612806%" r="0.9" fill="#000" opacity="0.019"/><circle cx="7.372093310585415%" cy="20.94319790651462%" r="0.9" fill="#000" opacity="0.009"/><circle cx="24.505254309455637%" cy="33.214200289144635%" r="0.9" fill="#000" opacity="0.038"/><circle cx="50.212041917297256%" cy="47.432663042226174%" r="0.9" fill="#000" opacity="0.010"/><circle cx="97.9476921230143%" cy="4.259965497022766%" r="0.9" fill="#000" opacity="0.036"/><circle cx="71.73342661079325%" cy="81.20602687963108%" r="0.9" fill="#000" opacity="0.041"/><circle cx="92.06801368285477%" cy="15.880921874138076%" r="0.9" fill="#000" opacity="0.033"/><circle cx="36.857011042611646%" cy="2.469829870857776%" r="0.9" fill="#000" opacity="0.018"/><circle cx="97.66213339147063%" cy="2.0232941161476226%" r="0.9" fill="#000" opacity="0.003"/><circle cx="21.206095203945384%" cy="5.880770315769224%" r="0.9" fill="#000" opacity="0.012"/><circle cx="72.08489496110859%" cy="62.171390144718345%" r="0.9" fill="#000" opacity="0.016"/><circle cx="81.34413187873474%" cy="78.0594464961895%" r="0.9" fill="#000" opacity="0.016"/><circle cx="39.77402320484684%" cy="15.32231551083144%" r="0.9" fill="#000" opacity="0.018"/><circle cx="96.07594999894017%" cy="67.48452202549025%" r="0.9" fill="#000" opacity="0.038"/><circle cx="45.20465335293499%" cy="79.36246772208115%" r="0.9" fill="#000" opacity="0.017"/><circle cx="48.659501218722035%" cy="80.84846798674275%" r="0.9" fill="#000" opacity="0.043"/><circle cx="43.39490445594362%" cy="23.191374993837066%" r="0.9" fill="#000" opacity="0.000"/><circle cx="46.17709864735839%" cy="82.41886973523214%" r="0.9" fill="#000" opacity="0.016"/><circle cx="51.24404384610338%" cy="96.7815907007986%" r="0.9" fill="#000" opacity="0.014"/><circle cx="53.25748455101357%" cy="86.49283637726501%" r="0.9" fill="#000" opacity="0.019"/><circle cx="52.24081088475005%" cy="69.08771176382615%" r="0.9" fill="#000" opacity="0.036"/><circle cx="52.72224085672554%" cy="75.74067973298978%" r="0.9" fill="#000" opacity="0.049"/><circle cx="45.62709513581527%" cy="19.222976007122572%" r="0.9" fill="#000" opacity="0.048"/><circle cx="15.419894380396105%" cy="30.29977997677451%" r="0.9" fill="#000" opacity="0.012"/><circle cx="27.89197650324805%" cy="77.01833774006533%" r="0.9" fill="#000" opacity="0.046"/><circle cx="82.71495007421706%" cy="86.61983282359662%" r="0.9" fill="#000" opacity="0.033"/>
  
    <g transform="translate(450.0,322.0)" opacity="0.9">
      <path d="M -52.08 -199.64000000000001
               C -52.08 -238.70000000000002 52.08 -238.70000000000002 52.08 -199.64000000000001
               L 43.400000000000006 -173.60000000000002
               C 147.56 -130.2 173.60000000000002 21.700000000000003 147.56 121.52000000000001
               C 121.52000000000001 208.32 -121.52000000000001 208.32 -147.56 121.52000000000001
               C -173.60000000000002 21.700000000000003 -147.56 -130.2 -43.400000000000006 -173.60000000000002
               Z"
            fill="#cdbfa9" stroke="#7c6f59" stroke-width="5.208"/>
      <rect x="-69.44" y="-251.71999999999997" width="138.88" height="43.400000000000006" rx="13.02"
            fill="#7c6f59" opacity="0.55"/>
      <ellipse cx="0" cy="26.04" rx="69.44" ry="86.80000000000001" fill="#7c6f59" opacity="0.18"/>
    </g>
  <rect width="900" height="700" fill="url(#vig)"/>
  <text x="50%" y="651" text-anchor="middle"
        font-family="Georgia, 'Times New Roman', serif" font-size="27"
        letter-spacing="3" fill="#7c6f59" opacity="0.85">STONE</text>
</svg>