<svg xmlns="http://www.w3.org/2000/svg" width="1000" height="1250" viewBox="0 0 1000 1250" role="img" aria-label="LAKE VESSEL · III placeholder">
  <defs>
    <linearGradient id="bg" x1="0" y1="0" x2="0.4" y2="1">
      <stop offset="0" stop-color="#dde6ea"/>
      <stop offset="1" stop-color="#b9ccd6"/>
    </linearGradient>
    <radialGradient id="vig" cx="0.5" cy="0.42" r="0.75">
      <stop offset="0.55" stop-color="#000" stop-opacity="0"/>
      <stop offset="1" stop-color="#000" stop-opacity="0.10"/>
    </radialGradient>
  </defs>
  <rect width="1000" height="1250" fill="url(#bg)"/>
  <circle cx="65.44398189618225%" cy="61.13047022702557%" r="0.9" fill="#000" opacity="0.043"/><circle cx="49.39656381711477%" cy="48.84693494414029%" r="0.9" fill="#000" opacity="0.016"/><circle cx="85.21109433758144%" cy="44.887412643275695%" r="0.9" fill="#000" opacity="0.030"/><circle cx="37.70782987358936%" cy="12.45014614097485%" r="0.9" fill="#000" opacity="0.047"/><circle cx="2.622128515126043%" cy="77.86285541496078%" r="0.9" fill="#000" opacity="0.031"/><circle cx="79.41431291160147%" cy="52.657920430519745%" r="0.9" fill="#000" opacity="0.022"/><circle cx="31.434857323199484%" cy="64.11853212437485%" r="0.9" fill="#000" opacity="0.001"/><circle cx="43.433148046271356%" cy="87.99873829195879%" r="0.9" fill="#000" opacity="0.010"/><circle cx="50.6101177231038%" cy="88.52114162040516%" r="0.9" fill="#000" opacity="0.027"/><circle cx="17.443679937855837%" cy="30.814331298041665%" r="0.9" fill="#000" opacity="0.020"/><circle cx="48.54839171690241%" cy="19.599514453385503%" r="0.9" fill="#000" opacity="0.023"/><circle cx="71.5794357083517%" cy="65.62992050084688%" r="0.9" fill="#000" opacity="0.029"/><circle cx="6.459247566226766%" cy="30.941126721370114%" r="0.9" fill="#000" opacity="0.009"/><circle cx="19.19625787356294%" cy="17.450348178165253%" r="0.9" fill="#000" opacity="0.049"/><circle cx="28.67821130034348%" cy="85.24396209435145%" r="0.9" fill="#000" opacity="0.030"/><circle cx="66.58927728842667%" cy="46.45978847235158%" r="0.9" fill="#000" opacity="0.035"/><circle cx="54.418885648056005%" cy="32.95363735742088%" r="0.9" fill="#000" opacity="0.005"/><circle cx="42.58718268257105%" cy="25.154612873281636%" r="0.9" fill="#000" opacity="0.023"/><circle cx="15.477769899278416%" cy="68.8988609150576%" r="0.9" fill="#000" opacity="0.044"/><circle cx="98.85882560521442%" cy="93.10925732279817%" r="0.9" fill="#000" opacity="0.001"/><circle cx="54.82226586022308%" cy="77.80081544782027%" r="0.9" fill="#000" opacity="0.012"/><circle cx="40.98458376430103%" cy="0.9403034360995766%" r="0.9" fill="#000" opacity="0.045"/><circle cx="51.583031701173695%" cy="19.04041414108747%" r="0.9" fill="#000" opacity="0.008"/><circle cx="7.302731890768999%" cy="21.404822221399932%" r="0.9" fill="#000" opacity="0.031"/><circle cx="8.212131658501665%" cy="20.414157131386613%" r="0.9" fill="#000" opacity="0.018"/><circle cx="44.68174574773837%" cy="98.37124663063005%" r="0.9" fill="#000" opacity="0.006"/><circle cx="86.68445628519528%" cy="30.176825124867456%" r="0.9" fill="#000" opacity="0.035"/><circle cx="24.697373013418666%" cy="53.57815987985837%" r="0.9" fill="#000" opacity="0.042"/><circle cx="43.964288665094664%" cy="21.795954354954496%" r="0.9" fill="#000" opacity="0.042"/><circle cx="68.23319381851302%" cy="30.30794458486493%" r="0.9" fill="#000" opacity="0.009"/><circle cx="97.5590181767007%" cy="65.38686303833498%" r="0.9" fill="#000" opacity="0.034"/><circle cx="13.913280760119173%" cy="22.054599566430966%" r="0.9" fill="#000" opacity="0.024"/><circle cx="25.09652227320427%" cy="81.38284459558288%" r="0.9" fill="#000" opacity="0.035"/><circle cx="14.640493307169367%" cy="63.44371556795654%" r="0.9" fill="#000" opacity="0.018"/><circle cx="86.66370322756829%" cy="60.24049540095761%" r="0.9" fill="#000" opacity="0.001"/><circle cx="4.344546508590607%" cy="66.71007577243941%" r="0.9" fill="#000" opacity="0.024"/><circle cx="96.65935345745802%" cy="26.765119895873756%" r="0.9" fill="#000" opacity="0.044"/><circle cx="23.522175043654446%" cy="89.60927939461779%" r="0.9" fill="#000" opacity="0.025"/><circle cx="80.8713605691692%" cy="76.52957803972872%" r="0.9" fill="#000" opacity="0.044"/><circle cx="27.854157088730545%" cy="5.306910109789953%" r="0.9" fill="#000" opacity="0.032"/><circle cx="10.689504316055132%" cy="88.78624212898745%" r="0.9" fill="#000" opacity="0.024"/><circle cx="49.80689154368473%" cy="95.88885552695923%" r="0.9" fill="#000" opacity="0.029"/><circle cx="25.420803435721105%" cy="86.59825989947969%" r="0.9" fill="#000" opacity="0.036"/><circle cx="82.62963710263229%" cy="76.5144931399964%" r="0.9" fill="#000" opacity="0.038"/><circle cx="17.607452892850162%" cy="91.69920807946326%" r="0.9" fill="#000" opacity="0.024"/><circle cx="32.77302362645178%" cy="47.38333218056985%" r="0.9" fill="#000" opacity="0.040"/><circle cx="92.02588659866592%" cy="10.508190786601002%" r="0.9" fill="#000" opacity="0.045"/><circle cx="54.300779332024874%" cy="92.46557343897472%" r="0.9" fill="#000" opacity="0.022"/><circle cx="6.746774227140606%" cy="84.36386228790356%" r="0.9" fill="#000" opacity="0.025"/><circle cx="36.151958219524516%" cy="57.46293793880668%" r="0.9" fill="#000" opacity="0.018"/><circle cx="70.60377125073254%" cy="11.29787309299516%" r="0.9" fill="#000" opacity="0.013"/><circle cx="28.87596219715777%" cy="53.68160302349912%" r="0.9" fill="#000" opacity="0.043"/><circle cx="26.821693754937925%" cy="60.923291036072094%" r="0.9" fill="#000" opacity="0.040"/><circle cx="90.25653819796857%" cy="80.09676948429488%" r="0.9" fill="#000" opacity="0.043"/><circle cx="71.14870336058631%" cy="24.137433018543863%" r="0.9" fill="#000" opacity="0.040"/><circle cx="98.34214774010059%" cy="61.12706779071959%" r="0.9" fill="#000" opacity="0.045"/><circle cx="99.7974812425625%" cy="44.27630638911477%" r="0.9" fill="#000" opacity="0.007"/><circle cx="46.241067249080544%" cy="98.68092549045335%" r="0.9" fill="#000" opacity="0.014"/><circle cx="93.76854924595305%" cy="9.206624069244295%" r="0.9" fill="#000" opacity="0.021"/><circle cx="45.459541635714196%" cy="91.49656348427831%" r="0.9" fill="#000" opacity="0.012"/><circle cx="80.31993908453471%" cy="39.703539448843706%" r="0.9" fill="#000" opacity="0.027"/><circle cx="23.28557197307569%" cy="92.36596612673486%" r="0.9" fill="#000" opacity="0.018"/><circle cx="13.039225678813793%" cy="5.473217700515265%" r="0.9" fill="#000" opacity="0.027"/><circle cx="68.35341219591398%" cy="34.55306175895897%" r="0.9" fill="#000" opacity="0.036"/><circle cx="0.42710944505345294%" cy="68.29353338644084%" r="0.9" fill="#000" opacity="0.027"/><circle cx="47.16822415158711%" cy="54.14739621638829%" r="0.9" fill="#000" opacity="0.024"/><circle cx="34.821059182903284%" cy="59.91346407809729%" r="0.9" fill="#000" opacity="0.024"/><circle cx="25.56333427201517%" cy="68.58598972114483%" r="0.9" fill="#000" opacity="0.045"/><circle cx="65.36064149531289%" cy="64.78772850839486%" r="0.9" fill="#000" opacity="0.040"/><circle cx="87.05521518953744%" cy="24.326671485625706%" r="0.9" fill="#000" opacity="0.016"/><circle cx="84.81785030277905%" cy="17.46171111864008%" r="0.9" fill="#000" opacity="0.004"/><circle cx="99.0215690101483%" cy="6.122645412716155%" r="0.9" fill="#000" opacity="0.029"/><circle cx="62.15124598713734%" cy="51.779671213699515%" r="0.9" fill="#000" opacity="0.005"/><circle cx="51.23888115174334%" cy="93.56320726389843%" r="0.9" fill="#000" opacity="0.022"/><circle cx="64.42754329384326%" cy="19.69648985479414%" r="0.9" fill="#000" opacity="0.029"/><circle cx="55.56143145737653%" cy="44.22080628277681%" r="0.9" fill="#000" opacity="0.044"/><circle cx="23.903127897780852%" cy="60.89784731657852%" r="0.9" fill="#000" opacity="0.045"/><circle cx="99.43857705691221%" cy="88.87648617572317%" r="0.9" fill="#000" opacity="0.038"/><circle cx="63.72165593276724%" cy="3.8118046753417234%" r="0.9" fill="#000" opacity="0.038"/><circle cx="62.31870052630947%" cy="19.36000822288586%" r="0.9" fill="#000" opacity="0.019"/><circle cx="73.30780276295283%" cy="0.17439348033175817%" r="0.9" fill="#000" opacity="0.012"/><circle cx="80.56613054003193%" cy="71.28411595631385%" r="0.9" fill="#000" opacity="0.032"/><circle cx="68.73733503074696%" cy="66.00732244837185%" r="0.9" fill="#000" opacity="0.012"/><circle cx="49.751309965836576%" cy="30.774386794495612%" r="0.9" fill="#000" opacity="0.002"/><circle cx="26.478298314434433%" cy="31.14004289774599%" r="0.9" fill="#000" opacity="0.001"/><circle cx="38.22301067229659%" cy="97.87454741424874%" r="0.9" fill="#000" opacity="0.027"/><circle cx="70.04802390391004%" cy="56.02850580294897%" r="0.9" fill="#000" opacity="0.030"/><circle cx="27.735764480340574%" cy="40.73335225250493%" r="0.9" fill="#000" opacity="0.016"/><circle cx="23.12848055992518%" cy="16.367030174880714%" r="0.9" fill="#000" opacity="0.049"/><circle cx="73.71358537080552%" cy="33.325486835689375%" r="0.9" fill="#000" opacity="0.006"/>
  
    <g transform="translate(500.0,575.0)" opacity="0.9">
      <path d="M -74.39999999999999 -285.2
               C -74.39999999999999 -341.0 74.39999999999999 -341.0 74.39999999999999 -285.2
               L 62.0 -248.0
               C 210.8 -186.0 248.0 31.0 210.8 173.60000000000002
               C 173.60000000000002 297.59999999999997 -173.60000000000002 297.59999999999997 -210.8 173.60000000000002
               C -248.0 31.0 -210.8 -186.0 -62.0 -248.0
               Z"
            fill="#b9ccd6" stroke="#5b7c8c" stroke-width="7.44"/>
      <rect x="-99.2" y="-359.59999999999997" width="198.4" height="62.0" rx="18.599999999999998"
            fill="#5b7c8c" opacity="0.55"/>
      <ellipse cx="0" cy="37.199999999999996" rx="99.2" ry="124.0" fill="#5b7c8c" opacity="0.18"/>
    </g>
  <rect width="1000" height="1250" fill="url(#vig)"/>
  <text x="50%" y="1162" text-anchor="middle"
        font-family="Georgia, 'Times New Roman', serif" font-size="30"
        letter-spacing="3" fill="#5b7c8c" opacity="0.85">LAKE VESSEL · III</text>
</svg>