<svg xmlns="http://www.w3.org/2000/svg" width="1000" height="1250" viewBox="0 0 1000 1250" role="img" aria-label="BLUE STONE · III placeholder">
  <defs>
    <linearGradient id="bg" x1="0" y1="0" x2="0.4" y2="1">
      <stop offset="0" stop-color="#dde6ea"/>
      <stop offset="1" stop-color="#b9ccd6"/>
    </linearGradient>
    <radialGradient id="vig" cx="0.5" cy="0.42" r="0.75">
      <stop offset="0.55" stop-color="#000" stop-opacity="0"/>
      <stop offset="1" stop-color="#000" stop-opacity="0.10"/>
    </radialGradient>
  </defs>
  <rect width="1000" height="1250" fill="url(#bg)"/>
  <circle cx="39.99966425826916%" cy="9.490477284834242%" r="0.9" fill="#000" opacity="0.026"/><circle cx="79.96239553555053%" cy="11.878937904923925%" r="0.9" fill="#000" opacity="0.014"/><circle cx="31.343907281152706%" cy="70.00168973265885%" r="0.9" fill="#000" opacity="0.049"/><circle cx="25.46953581315933%" cy="15.48504275246546%" r="0.9" fill="#000" opacity="0.049"/><circle cx="80.92068368809393%" cy="27.535185418350384%" r="0.9" fill="#000" opacity="0.028"/><circle cx="3.473565747298002%" cy="4.356521490564413%" r="0.9" fill="#000" opacity="0.024"/><circle cx="13.293358828636158%" cy="25.651206245726733%" r="0.9" fill="#000" opacity="0.024"/><circle cx="30.138128445329215%" cy="15.905082135605298%" r="0.9" fill="#000" opacity="0.021"/><circle cx="65.48314212130101%" cy="14.921009508626891%" r="0.9" fill="#000" opacity="0.027"/><circle cx="19.479198861413515%" cy="5.85193171859647%" r="0.9" fill="#000" opacity="0.045"/><circle cx="74.92427837732151%" cy="0.8245278806008782%" r="0.9" fill="#000" opacity="0.010"/><circle cx="15.355041940676795%" cy="52.17691009341212%" r="0.9" fill="#000" opacity="0.005"/><circle cx="47.34512940218845%" cy="82.81775336520893%" r="0.9" fill="#000" opacity="0.049"/><circle cx="86.80821614034066%" cy="34.28493581261487%" r="0.9" fill="#000" opacity="0.004"/><circle cx="14.996034166139815%" cy="45.51810342278608%" r="0.9" fill="#000" opacity="0.048"/><circle cx="96.97513926102297%" cy="91.58007989505914%" r="0.9" fill="#000" opacity="0.043"/><circle cx="37.1806145091415%" cy="95.67913891598508%" r="0.9" fill="#000" opacity="0.040"/><circle cx="5.5039315429474485%" cy="70.0979535974346%" r="0.9" fill="#000" opacity="0.025"/><circle cx="78.2887134475019%" cy="39.709921513337264%" r="0.9" fill="#000" opacity="0.006"/><circle cx="13.579631696785588%" cy="41.04667394003767%" r="0.9" fill="#000" opacity="0.021"/><circle cx="33.55835055721735%" cy="40.28715879075162%" r="0.9" fill="#000" opacity="0.048"/><circle cx="53.28215453371601%" cy="90.85683455325125%" r="0.9" fill="#000" opacity="0.013"/><circle cx="32.52631735393096%" cy="29.382040201002756%" r="0.9" fill="#000" opacity="0.038"/><circle cx="38.805594962186404%" cy="2.3821704349532347%" r="0.9" fill="#000" opacity="0.049"/><circle cx="42.95989339621361%" cy="4.140284724654119%" r="0.9" fill="#000" opacity="0.023"/><circle cx="11.816020793800508%" cy="21.995652419205058%" r="0.9" fill="#000" opacity="0.017"/><circle cx="26.213994303281794%" cy="52.918215671685566%" r="0.9" fill="#000" opacity="0.047"/><circle cx="15.424667428196415%" cy="11.555767378972426%" r="0.9" fill="#000" opacity="0.008"/><circle cx="64.05893792159775%" cy="2.59963845944039%" r="0.9" fill="#000" opacity="0.005"/><circle cx="40.407511636197505%" cy="64.70240670350036%" r="0.9" fill="#000" opacity="0.024"/><circle cx="99.0412625392323%" cy="74.33003182131755%" r="0.9" fill="#000" opacity="0.026"/><circle cx="57.80394173427705%" cy="41.357550683768565%" r="0.9" fill="#000" opacity="0.025"/><circle cx="2.658866245717495%" cy="17.143956250677718%" r="0.9" fill="#000" opacity="0.026"/><circle cx="7.208045172087518%" cy="25.51693032772412%" r="0.9" fill="#000" opacity="0.048"/><circle cx="24.31094300122093%" cy="16.086165279951402%" r="0.9" fill="#000" opacity="0.012"/><circle cx="64.01429071080106%" cy="61.8233693491612%" r="0.9" fill="#000" opacity="0.018"/><circle cx="37.80932088750063%" cy="23.340141226724143%" r="0.9" fill="#000" opacity="0.011"/><circle cx="87.71953584364012%" cy="63.0469647768397%" r="0.9" fill="#000" opacity="0.023"/><circle cx="72.2994637684923%" cy="71.36676338568893%" r="0.9" fill="#000" opacity="0.014"/><circle cx="15.535077741672666%" cy="67.07053700422048%" r="0.9" fill="#000" opacity="0.039"/><circle cx="4.168651005008583%" cy="92.95108876554869%" r="0.9" fill="#000" opacity="0.044"/><circle cx="67.9607399884091%" cy="84.0386554831345%" r="0.9" fill="#000" opacity="0.019"/><circle cx="0.17381464619654619%" cy="85.77282259452356%" r="0.9" fill="#000" opacity="0.027"/><circle cx="49.813874893759%" cy="10.618859152461802%" r="0.9" fill="#000" opacity="0.039"/><circle cx="96.2368900743395%" cy="85.85174094338404%" r="0.9" fill="#000" opacity="0.041"/><circle cx="93.88486720759701%" cy="85.51404663669099%" r="0.9" fill="#000" opacity="0.002"/><circle cx="65.32890139255149%" cy="23.73352851469234%" r="0.9" fill="#000" opacity="0.035"/><circle cx="19.808524620301416%" cy="54.64512964197892%" r="0.9" fill="#000" opacity="0.042"/><circle cx="14.528188912357399%" cy="23.609287844633553%" r="0.9" fill="#000" opacity="0.027"/><circle cx="69.21360324645342%" cy="81.5310059922701%" r="0.9" fill="#000" opacity="0.046"/><circle cx="88.40043069378297%" cy="96.83305502617999%" r="0.9" fill="#000" opacity="0.036"/><circle cx="86.37993980082076%" cy="90.7294586326544%" r="0.9" fill="#000" opacity="0.006"/><circle cx="89.43115322392535%" cy="22.01968982084258%" r="0.9" fill="#000" opacity="0.012"/><circle cx="36.55308568660377%" cy="52.29988858635674%" r="0.9" fill="#000" opacity="0.047"/><circle cx="45.53585872305531%" cy="34.56282659149886%" r="0.9" fill="#000" opacity="0.014"/><circle cx="29.637188251885295%" cy="22.72798641981858%" r="0.9" fill="#000" opacity="0.000"/><circle cx="58.48202711705882%" cy="21.893772620686736%" r="0.9" fill="#000" opacity="0.005"/><circle cx="55.80539508722667%" cy="17.17187418710474%" r="0.9" fill="#000" opacity="0.001"/><circle cx="95.73476259049419%" cy="70.23023124412516%" r="0.9" fill="#000" opacity="0.019"/><circle cx="87.3477632508339%" cy="88.58588887977497%" r="0.9" fill="#000" opacity="0.046"/><circle cx="17.104447346429453%" cy="21.316274708093374%" r="0.9" fill="#000" opacity="0.007"/><circle cx="1.1911533264389318%" cy="6.595705808291996%" r="0.9" fill="#000" opacity="0.033"/><circle cx="44.32909856537999%" cy="53.16756823151113%" r="0.9" fill="#000" opacity="0.044"/><circle cx="31.710950452244745%" cy="45.07823730305683%" r="0.9" fill="#000" opacity="0.045"/><circle cx="37.51997286523484%" cy="5.579294042825933%" r="0.9" fill="#000" opacity="0.031"/><circle cx="5.566627569800597%" cy="45.653992645469756%" r="0.9" fill="#000" opacity="0.042"/><circle cx="27.47988742090928%" cy="48.349241161683274%" r="0.9" fill="#000" opacity="0.042"/><circle cx="8.223916269528297%" cy="74.53151777330498%" r="0.9" fill="#000" opacity="0.035"/><circle cx="85.65926039523171%" cy="94.87856044716578%" r="0.9" fill="#000" opacity="0.036"/><circle cx="1.726798030026655%" cy="65.36126954891539%" r="0.9" fill="#000" opacity="0.020"/><circle cx="81.99104813120188%" cy="12.544688233883083%" r="0.9" fill="#000" opacity="0.021"/><circle cx="34.532993722826646%" cy="93.78854159703643%" r="0.9" fill="#000" opacity="0.046"/><circle cx="31.260415350648852%" cy="65.91947652598716%" r="0.9" fill="#000" opacity="0.044"/><circle cx="25.619780152317016%" cy="40.44460061147075%" r="0.9" fill="#000" opacity="0.018"/><circle cx="0.18150968207519824%" cy="35.55236918216478%" r="0.9" fill="#000" opacity="0.038"/><circle cx="97.01268190926594%" cy="25.89890134389996%" r="0.9" fill="#000" opacity="0.015"/><circle cx="83.11946300718682%" cy="78.2653813077865%" r="0.9" fill="#000" opacity="0.002"/><circle cx="26.826504411150065%" cy="35.15589899574525%" r="0.9" fill="#000" opacity="0.004"/><circle cx="18.799586952785695%" cy="50.19417972909179%" r="0.9" fill="#000" opacity="0.017"/><circle cx="63.31869453369675%" cy="90.95283673937818%" r="0.9" fill="#000" opacity="0.044"/><circle cx="81.16091686071776%" cy="17.77295851534125%" r="0.9" fill="#000" opacity="0.026"/><circle cx="84.26954243989088%" cy="1.9574589225498928%" r="0.9" fill="#000" opacity="0.030"/><circle cx="77.28021989561948%" cy="10.576683110210006%" r="0.9" fill="#000" opacity="0.049"/><circle cx="31.88422118100759%" cy="57.779677575258184%" r="0.9" fill="#000" opacity="0.035"/><circle cx="66.25388526453374%" cy="66.05376833700201%" r="0.9" fill="#000" opacity="0.042"/><circle cx="69.2123425390923%" cy="3.1488951775941576%" r="0.9" fill="#000" opacity="0.034"/><circle cx="4.784645450846714%" cy="27.256121924511266%" r="0.9" fill="#000" opacity="0.010"/><circle cx="16.52489224661724%" cy="57.292577468976205%" r="0.9" fill="#000" opacity="0.006"/><circle cx="4.895727401113081%" cy="75.37699589834132%" r="0.9" fill="#000" opacity="0.017"/><circle cx="57.72792930630559%" cy="72.70796226918523%" r="0.9" fill="#000" opacity="0.028"/>
  
    <g transform="translate(500.0,575.0)" opacity="0.9">
      <path d="M -74.39999999999999 -285.2
               C -74.39999999999999 -341.0 74.39999999999999 -341.0 74.39999999999999 -285.2
               L 62.0 -248.0
               C 210.8 -186.0 248.0 31.0 210.8 173.60000000000002
               C 173.60000000000002 297.59999999999997 -173.60000000000002 297.59999999999997 -210.8 173.60000000000002
               C -248.0 31.0 -210.8 -186.0 -62.0 -248.0
               Z"
            fill="#b9ccd6" stroke="#5b7c8c" stroke-width="7.44"/>
      <rect x="-99.2" y="-359.59999999999997" width="198.4" height="62.0" rx="18.599999999999998"
            fill="#5b7c8c" opacity="0.55"/>
      <ellipse cx="0" cy="37.199999999999996" rx="99.2" ry="124.0" fill="#5b7c8c" opacity="0.18"/>
    </g>
  <rect width="1000" height="1250" fill="url(#vig)"/>
  <text x="50%" y="1162" text-anchor="middle"
        font-family="Georgia, 'Times New Roman', serif" font-size="30"
        letter-spacing="3" fill="#5b7c8c" opacity="0.85">BLUE STONE · III</text>
</svg>