<svg xmlns="http://www.w3.org/2000/svg" width="1000" height="1250" viewBox="0 0 1000 1250" role="img" aria-label="NOMADIC SILVER placeholder">
  <defs>
    <linearGradient id="bg" x1="0" y1="0" x2="0.4" y2="1">
      <stop offset="0" stop-color="#e9e2d6"/>
      <stop offset="1" stop-color="#cdbfa9"/>
    </linearGradient>
    <radialGradient id="vig" cx="0.5" cy="0.42" r="0.75">
      <stop offset="0.55" stop-color="#000" stop-opacity="0"/>
      <stop offset="1" stop-color="#000" stop-opacity="0.10"/>
    </radialGradient>
  </defs>
  <rect width="1000" height="1250" fill="url(#bg)"/>
  <circle cx="39.009993997884685%" cy="28.416442397987897%" r="0.9" fill="#000" opacity="0.024"/><circle cx="40.30575503156351%" cy="6.392784612620295%" r="0.9" fill="#000" opacity="0.046"/><circle cx="44.088882950636986%" cy="36.643426805230206%" r="0.9" fill="#000" opacity="0.034"/><circle cx="68.1166155729547%" cy="52.19018327180734%" r="0.9" fill="#000" opacity="0.002"/><circle cx="77.12522944231105%" cy="98.47686353674551%" r="0.9" fill="#000" opacity="0.009"/><circle cx="3.065053878113022%" cy="19.333725480296206%" r="0.9" fill="#000" opacity="0.026"/><circle cx="53.925952647841356%" cy="3.787383948308798%" r="0.9" fill="#000" opacity="0.016"/><circle cx="40.331936323425%" cy="94.13214696739439%" r="0.9" fill="#000" opacity="0.005"/><circle cx="8.373881526788463%" cy="66.48132805302346%" r="0.9" fill="#000" opacity="0.022"/><circle cx="7.741125186663444%" cy="20.434328147172852%" r="0.9" fill="#000" opacity="0.018"/><circle cx="87.36768507167358%" cy="36.937379772221604%" r="0.9" fill="#000" opacity="0.037"/><circle cx="55.60655677835275%" cy="65.5403203017229%" r="0.9" fill="#000" opacity="0.003"/><circle cx="8.556593061412121%" cy="15.188820351318654%" r="0.9" fill="#000" opacity="0.020"/><circle cx="4.750477899368411%" cy="37.727987884251824%" r="0.9" fill="#000" opacity="0.034"/><circle cx="16.608646761721634%" cy="19.523614520506428%" r="0.9" fill="#000" opacity="0.048"/><circle cx="70.14292814040732%" cy="60.256458261713455%" r="0.9" fill="#000" opacity="0.046"/><circle cx="50.458733169938796%" cy="32.991228093081595%" r="0.9" fill="#000" opacity="0.040"/><circle cx="6.554736491991198%" cy="69.17428594664756%" r="0.9" fill="#000" opacity="0.035"/><circle cx="39.76725986095322%" cy="41.051547049470315%" r="0.9" fill="#000" opacity="0.022"/><circle cx="71.2942929285274%" cy="22.65988115963363%" r="0.9" fill="#000" opacity="0.020"/><circle cx="90.46784524337254%" cy="39.08585423046998%" r="0.9" fill="#000" opacity="0.003"/><circle cx="90.89230449956555%" cy="14.869615353041333%" r="0.9" fill="#000" opacity="0.028"/><circle cx="15.787944669919485%" cy="11.123336033302067%" r="0.9" fill="#000" opacity="0.005"/><circle cx="26.624948850207332%" cy="98.24258491789925%" r="0.9" fill="#000" opacity="0.041"/><circle cx="19.549855057109134%" cy="61.620447802614706%" r="0.9" fill="#000" opacity="0.009"/><circle cx="64.71200744545646%" cy="11.848861445077619%" r="0.9" fill="#000" opacity="0.010"/><circle cx="30.548147781154423%" cy="68.79487850381952%" r="0.9" fill="#000" opacity="0.017"/><circle cx="54.5809985539596%" cy="43.98489293342119%" r="0.9" fill="#000" opacity="0.029"/><circle cx="42.531993096511634%" cy="28.012185790062595%" r="0.9" fill="#000" opacity="0.011"/><circle cx="18.90827899003793%" cy="88.76880369018106%" r="0.9" fill="#000" opacity="0.026"/><circle cx="34.54206126888688%" cy="5.1486789222011105%" r="0.9" fill="#000" opacity="0.011"/><circle cx="82.51162136844559%" cy="21.94039428223111%" r="0.9" fill="#000" opacity="0.005"/><circle cx="14.036884878568967%" cy="89.73087774923431%" r="0.9" fill="#000" opacity="0.028"/><circle cx="87.93777786897506%" cy="91.06092907085753%" r="0.9" fill="#000" opacity="0.003"/><circle cx="47.4114676889521%" cy="42.91876095876479%" r="0.9" fill="#000" opacity="0.001"/><circle cx="89.33226675765764%" cy="37.86504409373411%" r="0.9" fill="#000" opacity="0.013"/><circle cx="47.438266833037886%" cy="63.214716748365205%" r="0.9" fill="#000" opacity="0.026"/><circle cx="30.474978202679935%" cy="11.764650271602072%" r="0.9" fill="#000" opacity="0.001"/><circle cx="87.1019881640968%" cy="79.30846769252905%" r="0.9" fill="#000" opacity="0.004"/><circle cx="85.14309903470429%" cy="31.30079094031747%" r="0.9" fill="#000" opacity="0.049"/><circle cx="5.0519625987059396%" cy="11.470085932744157%" r="0.9" fill="#000" opacity="0.019"/><circle cx="25.731404771822277%" cy="43.91866599407655%" r="0.9" fill="#000" opacity="0.046"/><circle cx="12.461930117213015%" cy="58.16316618883812%" r="0.9" fill="#000" opacity="0.039"/><circle cx="39.05085759649464%" cy="55.308305568544604%" r="0.9" fill="#000" opacity="0.015"/><circle cx="94.88642419791648%" cy="34.72988117623029%" r="0.9" fill="#000" opacity="0.016"/><circle cx="5.296802036833825%" cy="14.438637695695666%" r="0.9" fill="#000" opacity="0.033"/><circle cx="3.7981094694202855%" cy="86.55398444890037%" r="0.9" fill="#000" opacity="0.036"/><circle cx="32.201207844366564%" cy="1.2746331012882028%" r="0.9" fill="#000" opacity="0.044"/><circle cx="88.80525405807408%" cy="49.39368169684343%" r="0.9" fill="#000" opacity="0.036"/><circle cx="49.114383992958885%" cy="42.83270071143113%" r="0.9" fill="#000" opacity="0.034"/><circle cx="79.94114094960564%" cy="66.28580336468585%" r="0.9" fill="#000" opacity="0.023"/><circle cx="43.13827678131994%" cy="53.04514392414564%" r="0.9" fill="#000" opacity="0.013"/><circle cx="60.98526920574281%" cy="23.8293225239965%" r="0.9" fill="#000" opacity="0.003"/><circle cx="20.796018241799686%" cy="11.040275548756572%" r="0.9" fill="#000" opacity="0.007"/><circle cx="55.497215718604245%" cy="38.83399333986971%" r="0.9" fill="#000" opacity="0.033"/><circle cx="94.89899720380934%" cy="95.19851539530949%" r="0.9" fill="#000" opacity="0.028"/><circle cx="75.17033366173939%" cy="43.64309476773918%" r="0.9" fill="#000" opacity="0.045"/><circle cx="59.28814061922032%" cy="80.68105156901596%" r="0.9" fill="#000" opacity="0.006"/><circle cx="65.73569472932812%" cy="72.29524266508437%" r="0.9" fill="#000" opacity="0.023"/><circle cx="20.6508300051633%" cy="59.86646266955806%" r="0.9" fill="#000" opacity="0.027"/><circle cx="63.34672775486957%" cy="62.649584660484855%" r="0.9" fill="#000" opacity="0.008"/><circle cx="90.99887064744789%" cy="67.92317460695676%" r="0.9" fill="#000" opacity="0.046"/><circle cx="7.889086433187886%" cy="17.164301091001942%" r="0.9" fill="#000" opacity="0.027"/><circle cx="40.413513277773625%" cy="12.905939423750523%" r="0.9" fill="#000" opacity="0.023"/><circle cx="84.87170862564739%" cy="0.3873666926294206%" r="0.9" fill="#000" opacity="0.023"/><circle cx="23.168774400481198%" cy="51.68657629540551%" r="0.9" fill="#000" opacity="0.044"/><circle cx="2.8904350700192483%" cy="93.77632697389531%" r="0.9" fill="#000" opacity="0.002"/><circle cx="15.421724266156966%" cy="44.73188042685743%" r="0.9" fill="#000" opacity="0.042"/><circle cx="90.71854000895124%" cy="91.25749651726916%" r="0.9" fill="#000" opacity="0.002"/><circle cx="81.4652727744319%" cy="31.654820897562175%" r="0.9" fill="#000" opacity="0.045"/><circle cx="59.59142984493872%" cy="78.95265781642443%" r="0.9" fill="#000" opacity="0.046"/><circle cx="77.02244089242318%" cy="89.77927256855395%" r="0.9" fill="#000" opacity="0.033"/><circle cx="83.39206029568331%" cy="48.268190190160695%" r="0.9" fill="#000" opacity="0.005"/><circle cx="12.933064629269275%" cy="85.72686838699653%" r="0.9" fill="#000" opacity="0.000"/><circle cx="55.8935246220717%" cy="53.640020672588726%" r="0.9" fill="#000" opacity="0.036"/><circle cx="90.72331082381213%" cy="41.957985999514754%" r="0.9" fill="#000" opacity="0.017"/><circle cx="99.87514513879134%" cy="87.01802812651071%" r="0.9" fill="#000" opacity="0.008"/><circle cx="63.41165132633161%" cy="2.8269841452872924%" r="0.9" fill="#000" opacity="0.046"/><circle cx="13.296761879309848%" cy="69.14817646794566%" r="0.9" fill="#000" opacity="0.016"/><circle cx="83.68719587327313%" cy="93.39143150599251%" r="0.9" fill="#000" opacity="0.003"/><circle cx="21.51092180644256%" cy="37.735174888341284%" r="0.9" fill="#000" opacity="0.023"/><circle cx="59.9415491614964%" cy="34.18497031971677%" r="0.9" fill="#000" opacity="0.031"/><circle cx="82.7142423017037%" cy="74.90877976632034%" r="0.9" fill="#000" opacity="0.012"/><circle cx="17.33676284042671%" cy="73.76707952245044%" r="0.9" fill="#000" opacity="0.028"/><circle cx="96.82753126611395%" cy="48.64389350844939%" r="0.9" fill="#000" opacity="0.036"/><circle cx="77.1506290465518%" cy="34.414072773739846%" r="0.9" fill="#000" opacity="0.048"/><circle cx="24.265362196541705%" cy="77.18761837687683%" r="0.9" fill="#000" opacity="0.012"/><circle cx="24.51851763301447%" cy="93.03367630158685%" r="0.9" fill="#000" opacity="0.045"/><circle cx="54.89795325622458%" cy="4.734308762038819%" r="0.9" fill="#000" opacity="0.029"/><circle cx="52.14600639163714%" cy="82.32940440129882%" r="0.9" fill="#000" opacity="0.029"/>
  
    <g transform="translate(500.0,575.0)" opacity="0.9">
      <path d="M -74.39999999999999 -285.2
               C -74.39999999999999 -341.0 74.39999999999999 -341.0 74.39999999999999 -285.2
               L 62.0 -248.0
               C 210.8 -186.0 248.0 31.0 210.8 173.60000000000002
               C 173.60000000000002 297.59999999999997 -173.60000000000002 297.59999999999997 -210.8 173.60000000000002
               C -248.0 31.0 -210.8 -186.0 -62.0 -248.0
               Z"
            fill="#cdbfa9" stroke="#7c6f59" stroke-width="7.44"/>
      <rect x="-99.2" y="-359.59999999999997" width="198.4" height="62.0" rx="18.599999999999998"
            fill="#7c6f59" opacity="0.55"/>
      <ellipse cx="0" cy="37.199999999999996" rx="99.2" ry="124.0" fill="#7c6f59" opacity="0.18"/>
    </g>
  <rect width="1000" height="1250" fill="url(#vig)"/>
  <text x="50%" y="1162" text-anchor="middle"
        font-family="Georgia, 'Times New Roman', serif" font-size="30"
        letter-spacing="3" fill="#7c6f59" opacity="0.85">NOMADIC SILVER</text>
</svg>