<svg xmlns="http://www.w3.org/2000/svg" width="1000" height="1250" viewBox="0 0 1000 1250" role="img" aria-label="LAKE VESSEL placeholder">
  <defs>
    <linearGradient id="bg" x1="0" y1="0" x2="0.4" y2="1">
      <stop offset="0" stop-color="#dde6ea"/>
      <stop offset="1" stop-color="#b9ccd6"/>
    </linearGradient>
    <radialGradient id="vig" cx="0.5" cy="0.42" r="0.75">
      <stop offset="0.55" stop-color="#000" stop-opacity="0"/>
      <stop offset="1" stop-color="#000" stop-opacity="0.10"/>
    </radialGradient>
  </defs>
  <rect width="1000" height="1250" fill="url(#bg)"/>
  <circle cx="20.65378785625105%" cy="34.518976066388085%" r="0.9" fill="#000" opacity="0.038"/><circle cx="28.32951823871047%" cy="63.03280726721443%" r="0.9" fill="#000" opacity="0.024"/><circle cx="30.500501742027897%" cy="85.63615558700494%" r="0.9" fill="#000" opacity="0.002"/><circle cx="71.15429414780117%" cy="7.5869189396091885%" r="0.9" fill="#000" opacity="0.003"/><circle cx="46.35788230836212%" cy="66.48446387261777%" r="0.9" fill="#000" opacity="0.039"/><circle cx="65.70094781889112%" cy="52.01567834723102%" r="0.9" fill="#000" opacity="0.042"/><circle cx="60.0784734261132%" cy="64.38336548012626%" r="0.9" fill="#000" opacity="0.045"/><circle cx="31.094940885410892%" cy="42.34646362442172%" r="0.9" fill="#000" opacity="0.035"/><circle cx="55.071263933164595%" cy="98.43279022513916%" r="0.9" fill="#000" opacity="0.044"/><circle cx="95.40791898029799%" cy="41.12931096583981%" r="0.9" fill="#000" opacity="0.048"/><circle cx="25.727798350811405%" cy="31.51395844373215%" r="0.9" fill="#000" opacity="0.033"/><circle cx="10.053799553088504%" cy="44.88505934659618%" r="0.9" fill="#000" opacity="0.029"/><circle cx="75.3013839171598%" cy="85.85914815649028%" r="0.9" fill="#000" opacity="0.040"/><circle cx="38.4363195392521%" cy="2.962054864686725%" r="0.9" fill="#000" opacity="0.027"/><circle cx="18.225385762918446%" cy="87.69608420471113%" r="0.9" fill="#000" opacity="0.030"/><circle cx="43.60326146884066%" cy="4.173246351052051%" r="0.9" fill="#000" opacity="0.026"/><circle cx="91.03470704225687%" cy="95.71682404098313%" r="0.9" fill="#000" opacity="0.049"/><circle cx="43.12451971961925%" cy="7.453453781745678%" r="0.9" fill="#000" opacity="0.050"/><circle cx="98.22693218011945%" cy="63.699647651988634%" r="0.9" fill="#000" opacity="0.026"/><circle cx="26.373416108263303%" cy="81.64817259628394%" r="0.9" fill="#000" opacity="0.042"/><circle cx="12.949464680781764%" cy="2.266082832105887%" r="0.9" fill="#000" opacity="0.035"/><circle cx="34.97276009954437%" cy="13.752191216819432%" r="0.9" fill="#000" opacity="0.003"/><circle cx="97.52415644321017%" cy="28.88729054264759%" r="0.9" fill="#000" opacity="0.049"/><circle cx="89.42931271481845%" cy="43.37847431972926%" r="0.9" fill="#000" opacity="0.044"/><circle cx="43.08731244741101%" cy="18.033538440902465%" r="0.9" fill="#000" opacity="0.009"/><circle cx="63.957013348632564%" cy="52.63743132317044%" r="0.9" fill="#000" opacity="0.011"/><circle cx="91.282235193482%" cy="64.46792764960163%" r="0.9" fill="#000" opacity="0.019"/><circle cx="38.95739007963191%" cy="91.14015726935304%" r="0.9" fill="#000" opacity="0.038"/><circle cx="87.6136575482199%" cy="20.202351518117812%" r="0.9" fill="#000" opacity="0.036"/><circle cx="66.0444893168361%" cy="81.95292595216533%" r="0.9" fill="#000" opacity="0.005"/><circle cx="63.57569613848303%" cy="70.123953981327%" r="0.9" fill="#000" opacity="0.036"/><circle cx="47.26496358621476%" cy="4.848850305202945%" r="0.9" fill="#000" opacity="0.004"/><circle cx="99.09258142754787%" cy="25.83249977268196%" r="0.9" fill="#000" opacity="0.047"/><circle cx="39.584446222366054%" cy="58.55781823477154%" r="0.9" fill="#000" opacity="0.022"/><circle cx="74.45806595784441%" cy="81.4151661686093%" r="0.9" fill="#000" opacity="0.046"/><circle cx="68.82117401306925%" cy="12.917862514639811%" r="0.9" fill="#000" opacity="0.035"/><circle cx="85.45968718163563%" cy="50.358954500535916%" r="0.9" fill="#000" opacity="0.020"/><circle cx="21.121019852614676%" cy="96.77020090199858%" r="0.9" fill="#000" opacity="0.002"/><circle cx="45.782907359910986%" cy="26.42732889575593%" r="0.9" fill="#000" opacity="0.048"/><circle cx="69.09469059170665%" cy="28.604861550181127%" r="0.9" fill="#000" opacity="0.039"/><circle cx="14.31043599572127%" cy="25.206002972672593%" r="0.9" fill="#000" opacity="0.033"/><circle cx="74.91756361717441%" cy="83.23191846589353%" r="0.9" fill="#000" opacity="0.025"/><circle cx="93.2865069545442%" cy="61.1375912781016%" r="0.9" fill="#000" opacity="0.004"/><circle cx="83.63177081755872%" cy="66.31988900668014%" r="0.9" fill="#000" opacity="0.049"/><circle cx="56.18491719799975%" cy="37.66042626052231%" r="0.9" fill="#000" opacity="0.010"/><circle cx="52.161703495363064%" cy="17.92679197831705%" r="0.9" fill="#000" opacity="0.022"/><circle cx="54.81033977357633%" cy="82.28525196320335%" r="0.9" fill="#000" opacity="0.012"/><circle cx="70.762348558469%" cy="29.894927163088436%" r="0.9" fill="#000" opacity="0.047"/><circle cx="14.02484787331999%" cy="78.42619633428195%" r="0.9" fill="#000" opacity="0.016"/><circle cx="98.99913503785733%" cy="33.7236400499873%" r="0.9" fill="#000" opacity="0.004"/><circle cx="79.74812430106941%" cy="44.10533593604207%" r="0.9" fill="#000" opacity="0.045"/><circle cx="6.350331115906949%" cy="40.63362997510872%" r="0.9" fill="#000" opacity="0.031"/><circle cx="97.45095578976071%" cy="45.600395368034064%" r="0.9" fill="#000" opacity="0.012"/><circle cx="27.72971730763173%" cy="78.04008580513558%" r="0.9" fill="#000" opacity="0.039"/><circle cx="84.48567341707606%" cy="48.974709833209715%" r="0.9" fill="#000" opacity="0.004"/><circle cx="86.45417477100004%" cy="51.958376000617335%" r="0.9" fill="#000" opacity="0.043"/><circle cx="4.232028033434054%" cy="29.63162039478461%" r="0.9" fill="#000" opacity="0.027"/><circle cx="50.43206629865008%" cy="78.83068045663339%" r="0.9" fill="#000" opacity="0.031"/><circle cx="96.5471089625728%" cy="29.803605786031717%" r="0.9" fill="#000" opacity="0.033"/><circle cx="27.357694565185366%" cy="72.23360936144039%" r="0.9" fill="#000" opacity="0.047"/><circle cx="13.967813744303614%" cy="34.40077831604318%" r="0.9" fill="#000" opacity="0.018"/><circle cx="81.96111936133067%" cy="46.9978496171237%" r="0.9" fill="#000" opacity="0.007"/><circle cx="67.87710177635837%" cy="58.3863636561016%" r="0.9" fill="#000" opacity="0.048"/><circle cx="86.88530694797589%" cy="9.354887473270669%" r="0.9" fill="#000" opacity="0.004"/><circle cx="36.26985918078983%" cy="19.67757153238455%" r="0.9" fill="#000" opacity="0.036"/><circle cx="49.27997176589321%" cy="77.53204611683825%" r="0.9" fill="#000" opacity="0.049"/><circle cx="81.24773300587704%" cy="20.827102016562694%" r="0.9" fill="#000" opacity="0.007"/><circle cx="56.388625348882805%" cy="37.107842695737546%" r="0.9" fill="#000" opacity="0.000"/><circle cx="51.367353059801566%" cy="83.39061840561031%" r="0.9" fill="#000" opacity="0.042"/><circle cx="91.61232617558089%" cy="71.01148297126984%" r="0.9" fill="#000" opacity="0.004"/><circle cx="0.11262167340725382%" cy="6.567092535773988%" r="0.9" fill="#000" opacity="0.046"/><circle cx="35.62558115826261%" cy="6.497961973656608%" r="0.9" fill="#000" opacity="0.027"/><circle cx="31.597704132293526%" cy="24.626105057720928%" r="0.9" fill="#000" opacity="0.034"/><circle cx="24.830052785719925%" cy="96.38020536434742%" r="0.9" fill="#000" opacity="0.004"/><circle cx="8.895899524654205%" cy="40.33097726434354%" r="0.9" fill="#000" opacity="0.046"/><circle cx="6.540515187178819%" cy="21.968110722622303%" r="0.9" fill="#000" opacity="0.004"/><circle cx="94.58231668618542%" cy="28.40382347005892%" r="0.9" fill="#000" opacity="0.003"/><circle cx="19.710257268005126%" cy="82.99416986658828%" r="0.9" fill="#000" opacity="0.020"/><circle cx="1.5201034694164894%" cy="12.013623166937748%" r="0.9" fill="#000" opacity="0.043"/><circle cx="91.92352942383813%" cy="90.90142509168177%" r="0.9" fill="#000" opacity="0.027"/><circle cx="53.35631567242015%" cy="50.101800014739375%" r="0.9" fill="#000" opacity="0.023"/><circle cx="33.43681930210879%" cy="49.748213802912844%" r="0.9" fill="#000" opacity="0.043"/><circle cx="99.03985208134118%" cy="22.109860617215226%" r="0.9" fill="#000" opacity="0.036"/><circle cx="54.43983114450044%" cy="32.1705219953309%" r="0.9" fill="#000" opacity="0.038"/><circle cx="45.310799968963025%" cy="15.67623300904637%" r="0.9" fill="#000" opacity="0.024"/><circle cx="35.14182871053625%" cy="81.74205153016591%" r="0.9" fill="#000" opacity="0.024"/><circle cx="55.11874381693512%" cy="24.51903994003993%" r="0.9" fill="#000" opacity="0.046"/><circle cx="90.15173760517288%" cy="73.99771152880632%" r="0.9" fill="#000" opacity="0.050"/><circle cx="34.92203096525337%" cy="57.5730653034213%" r="0.9" fill="#000" opacity="0.049"/><circle cx="49.470466443553185%" cy="79.71947700315584%" r="0.9" fill="#000" opacity="0.025"/>
  
    <g transform="translate(500.0,575.0)" opacity="0.9">
      <path d="M -74.39999999999999 -285.2
               C -74.39999999999999 -341.0 74.39999999999999 -341.0 74.39999999999999 -285.2
               L 62.0 -248.0
               C 210.8 -186.0 248.0 31.0 210.8 173.60000000000002
               C 173.60000000000002 297.59999999999997 -173.60000000000002 297.59999999999997 -210.8 173.60000000000002
               C -248.0 31.0 -210.8 -186.0 -62.0 -248.0
               Z"
            fill="#b9ccd6" stroke="#5b7c8c" stroke-width="7.44"/>
      <rect x="-99.2" y="-359.59999999999997" width="198.4" height="62.0" rx="18.599999999999998"
            fill="#5b7c8c" opacity="0.55"/>
      <ellipse cx="0" cy="37.199999999999996" rx="99.2" ry="124.0" fill="#5b7c8c" opacity="0.18"/>
    </g>
  <rect width="1000" height="1250" fill="url(#vig)"/>
  <text x="50%" y="1162" text-anchor="middle"
        font-family="Georgia, 'Times New Roman', serif" font-size="30"
        letter-spacing="3" fill="#5b7c8c" opacity="0.85">LAKE VESSEL</text>
</svg>