<svg xmlns="http://www.w3.org/2000/svg" width="1000" height="1250" viewBox="0 0 1000 1250" role="img" aria-label="MEMORY HOLDER · III placeholder">
  <defs>
    <linearGradient id="bg" x1="0" y1="0" x2="0.4" y2="1">
      <stop offset="0" stop-color="#e9e2d6"/>
      <stop offset="1" stop-color="#cdbfa9"/>
    </linearGradient>
    <radialGradient id="vig" cx="0.5" cy="0.42" r="0.75">
      <stop offset="0.55" stop-color="#000" stop-opacity="0"/>
      <stop offset="1" stop-color="#000" stop-opacity="0.10"/>
    </radialGradient>
  </defs>
  <rect width="1000" height="1250" fill="url(#bg)"/>
  <circle cx="78.96639161331056%" cy="84.23745027565836%" r="0.9" fill="#000" opacity="0.011"/><circle cx="91.4835639325966%" cy="24.14233689778966%" r="0.9" fill="#000" opacity="0.035"/><circle cx="39.18313552717171%" cy="90.27873899879845%" r="0.9" fill="#000" opacity="0.015"/><circle cx="98.223401691597%" cy="10.772059131806067%" r="0.9" fill="#000" opacity="0.035"/><circle cx="71.81409336592257%" cy="47.38895024645613%" r="0.9" fill="#000" opacity="0.006"/><circle cx="26.393660028848387%" cy="81.8764217494886%" r="0.9" fill="#000" opacity="0.016"/><circle cx="20.52326612869082%" cy="47.528461864677205%" r="0.9" fill="#000" opacity="0.044"/><circle cx="59.27077835304768%" cy="19.881301409335194%" r="0.9" fill="#000" opacity="0.047"/><circle cx="83.97055011407079%" cy="18.976468393213896%" r="0.9" fill="#000" opacity="0.017"/><circle cx="57.09512700075523%" cy="30.989302454960477%" r="0.9" fill="#000" opacity="0.036"/><circle cx="11.326010206206849%" cy="22.75978997539837%" r="0.9" fill="#000" opacity="0.038"/><circle cx="80.42624776768628%" cy="78.89417172319263%" r="0.9" fill="#000" opacity="0.013"/><circle cx="83.23179735976726%" cy="91.46077372501587%" r="0.9" fill="#000" opacity="0.037"/><circle cx="63.4084423908969%" cy="16.050052073027988%" r="0.9" fill="#000" opacity="0.014"/><circle cx="61.08293238640555%" cy="72.45852931266364%" r="0.9" fill="#000" opacity="0.023"/><circle cx="66.97058616091026%" cy="43.21642264747213%" r="0.9" fill="#000" opacity="0.002"/><circle cx="89.5756265117108%" cy="94.5923458644241%" r="0.9" fill="#000" opacity="0.032"/><circle cx="4.964120551312135%" cy="62.15524332611926%" r="0.9" fill="#000" opacity="0.038"/><circle cx="25.201715664677714%" cy="79.62573543751425%" r="0.9" fill="#000" opacity="0.048"/><circle cx="54.949474830535095%" cy="8.913421702954128%" r="0.9" fill="#000" opacity="0.039"/><circle cx="76.69549213478143%" cy="75.6921731615374%" r="0.9" fill="#000" opacity="0.021"/><circle cx="93.02499041757709%" cy="61.015198995357146%" r="0.9" fill="#000" opacity="0.042"/><circle cx="90.10235659531507%" cy="78.19038292977163%" r="0.9" fill="#000" opacity="0.041"/><circle cx="22.381008651726496%" cy="54.75272496863273%" r="0.9" fill="#000" opacity="0.039"/><circle cx="85.06648447388966%" cy="96.79556568825001%" r="0.9" fill="#000" opacity="0.007"/><circle cx="53.870632149839295%" cy="74.78414674471372%" r="0.9" fill="#000" opacity="0.030"/><circle cx="52.865434321770124%" cy="39.70572417692168%" r="0.9" fill="#000" opacity="0.022"/><circle cx="97.7281379479152%" cy="51.63307122295894%" r="0.9" fill="#000" opacity="0.010"/><circle cx="73.9034167841419%" cy="19.180609888485144%" r="0.9" fill="#000" opacity="0.022"/><circle cx="4.3985605085467565%" cy="12.377699681377162%" r="0.9" fill="#000" opacity="0.019"/><circle cx="60.74919168197348%" cy="11.265738768483347%" r="0.9" fill="#000" opacity="0.027"/><circle cx="95.44274932327468%" cy="63.80475334977985%" r="0.9" fill="#000" opacity="0.020"/><circle cx="36.4412068797753%" cy="93.84090148671372%" r="0.9" fill="#000" opacity="0.047"/><circle cx="86.25355349743191%" cy="84.79916767275341%" r="0.9" fill="#000" opacity="0.038"/><circle cx="81.0477675103425%" cy="9.808225260090108%" r="0.9" fill="#000" opacity="0.049"/><circle cx="85.55922186667307%" cy="59.27150549214248%" r="0.9" fill="#000" opacity="0.038"/><circle cx="77.00077281590501%" cy="4.9904728759792345%" r="0.9" fill="#000" opacity="0.041"/><circle cx="75.26173401943275%" cy="50.22551538433031%" r="0.9" fill="#000" opacity="0.033"/><circle cx="66.51678667446444%" cy="81.12947104114191%" r="0.9" fill="#000" opacity="0.006"/><circle cx="87.09003320005621%" cy="65.15478928009279%" r="0.9" fill="#000" opacity="0.050"/><circle cx="0.6461779029107384%" cy="37.136777240180386%" r="0.9" fill="#000" opacity="0.021"/><circle cx="18.958022294578125%" cy="36.51730561354665%" r="0.9" fill="#000" opacity="0.018"/><circle cx="32.93874598831646%" cy="43.84800991484761%" r="0.9" fill="#000" opacity="0.014"/><circle cx="44.13009894627592%" cy="20.547449042124065%" r="0.9" fill="#000" opacity="0.048"/><circle cx="39.12796075570269%" cy="98.28536093975528%" r="0.9" fill="#000" opacity="0.005"/><circle cx="70.10560166030781%" cy="25.237778915593978%" r="0.9" fill="#000" opacity="0.023"/><circle cx="77.50464592165851%" cy="64.37690650425834%" r="0.9" fill="#000" opacity="0.043"/><circle cx="25.938199653079863%" cy="77.61954428892501%" r="0.9" fill="#000" opacity="0.019"/><circle cx="15.463577740046542%" cy="62.153801081410556%" r="0.9" fill="#000" opacity="0.001"/><circle cx="56.03723099490166%" cy="65.62795193426851%" r="0.9" fill="#000" opacity="0.044"/><circle cx="26.517211733493273%" cy="89.515696058318%" r="0.9" fill="#000" opacity="0.042"/><circle cx="6.605401171185732%" cy="86.85123931653534%" r="0.9" fill="#000" opacity="0.028"/><circle cx="68.84575317649266%" cy="22.991738112212158%" r="0.9" fill="#000" opacity="0.000"/><circle cx="42.941724121757595%" cy="92.72572545963689%" r="0.9" fill="#000" opacity="0.027"/><circle cx="45.485546387334175%" cy="89.43841894883928%" r="0.9" fill="#000" opacity="0.012"/><circle cx="83.17253535453791%" cy="56.23695276075383%" r="0.9" fill="#000" opacity="0.014"/><circle cx="59.227891177751026%" cy="54.77984762032647%" r="0.9" fill="#000" opacity="0.013"/><circle cx="53.51173146180136%" cy="78.83026768650298%" r="0.9" fill="#000" opacity="0.005"/><circle cx="64.25752996027808%" cy="46.41063030309013%" r="0.9" fill="#000" opacity="0.027"/><circle cx="30.289624066351728%" cy="97.23542316331014%" r="0.9" fill="#000" opacity="0.000"/><circle cx="50.21517298415515%" cy="6.307002887922009%" r="0.9" fill="#000" opacity="0.016"/><circle cx="0.05355183199430291%" cy="48.56172227668082%" r="0.9" fill="#000" opacity="0.045"/><circle cx="68.77185768928359%" cy="13.89037770229714%" r="0.9" fill="#000" opacity="0.030"/><circle cx="47.99915532719924%" cy="37.73441075242909%" r="0.9" fill="#000" opacity="0.026"/><circle cx="13.745416089783092%" cy="95.97345499418736%" r="0.9" fill="#000" opacity="0.002"/><circle cx="72.92068013478855%" cy="98.25126249622397%" r="0.9" fill="#000" opacity="0.034"/><circle cx="4.6416399426389425%" cy="75.62212692343184%" r="0.9" fill="#000" opacity="0.002"/><circle cx="44.244587415859215%" cy="64.42333623729087%" r="0.9" fill="#000" opacity="0.016"/><circle cx="56.474116651908766%" cy="80.88876690150826%" r="0.9" fill="#000" opacity="0.042"/><circle cx="44.04605489752229%" cy="26.055631931926214%" r="0.9" fill="#000" opacity="0.031"/><circle cx="49.32187204126338%" cy="17.27490474717347%" r="0.9" fill="#000" opacity="0.025"/><circle cx="25.134515797402557%" cy="87.65725037690063%" r="0.9" fill="#000" opacity="0.037"/><circle cx="5.1554322528252206%" cy="88.36742532881755%" r="0.9" fill="#000" opacity="0.001"/><circle cx="83.3077021942648%" cy="49.39941422577731%" r="0.9" fill="#000" opacity="0.001"/><circle cx="50.76695453920459%" cy="57.258054163365756%" r="0.9" fill="#000" opacity="0.010"/><circle cx="40.50708557877638%" cy="83.43903026358534%" r="0.9" fill="#000" opacity="0.034"/><circle cx="55.73484305448028%" cy="20.70238587076637%" r="0.9" fill="#000" opacity="0.042"/><circle cx="44.31832270961592%" cy="76.8122623299903%" r="0.9" fill="#000" opacity="0.036"/><circle cx="77.5312803061845%" cy="36.76925636636659%" r="0.9" fill="#000" opacity="0.030"/><circle cx="87.00849010720552%" cy="69.1176247073676%" r="0.9" fill="#000" opacity="0.005"/><circle cx="92.3548617643204%" cy="25.155734552310648%" r="0.9" fill="#000" opacity="0.025"/><circle cx="93.95380986107105%" cy="58.61220489219343%" r="0.9" fill="#000" opacity="0.022"/><circle cx="55.295302755821254%" cy="5.920634117970913%" r="0.9" fill="#000" opacity="0.028"/><circle cx="60.18127494646633%" cy="81.51445279099697%" r="0.9" fill="#000" opacity="0.001"/><circle cx="89.21243234434007%" cy="91.0783658692642%" r="0.9" fill="#000" opacity="0.007"/><circle cx="94.3355635835087%" cy="19.970864472843264%" r="0.9" fill="#000" opacity="0.011"/><circle cx="66.18104674481123%" cy="37.69758935437994%" r="0.9" fill="#000" opacity="0.032"/><circle cx="14.545238395024962%" cy="20.227651234877932%" r="0.9" fill="#000" opacity="0.019"/><circle cx="93.15970758657906%" cy="73.91898559468244%" r="0.9" fill="#000" opacity="0.031"/><circle cx="64.56035534274724%" cy="57.40366270328677%" r="0.9" fill="#000" opacity="0.019"/>
  
    <g transform="translate(500.0,575.0)" opacity="0.9">
      <path d="M -74.39999999999999 -285.2
               C -74.39999999999999 -341.0 74.39999999999999 -341.0 74.39999999999999 -285.2
               L 62.0 -248.0
               C 210.8 -186.0 248.0 31.0 210.8 173.60000000000002
               C 173.60000000000002 297.59999999999997 -173.60000000000002 297.59999999999997 -210.8 173.60000000000002
               C -248.0 31.0 -210.8 -186.0 -62.0 -248.0
               Z"
            fill="#cdbfa9" stroke="#7c6f59" stroke-width="7.44"/>
      <rect x="-99.2" y="-359.59999999999997" width="198.4" height="62.0" rx="18.599999999999998"
            fill="#7c6f59" opacity="0.55"/>
      <ellipse cx="0" cy="37.199999999999996" rx="99.2" ry="124.0" fill="#7c6f59" opacity="0.18"/>
    </g>
  <rect width="1000" height="1250" fill="url(#vig)"/>
  <text x="50%" y="1162" text-anchor="middle"
        font-family="Georgia, 'Times New Roman', serif" font-size="30"
        letter-spacing="3" fill="#7c6f59" opacity="0.85">MEMORY HOLDER · III</text>
</svg>