<svg xmlns="http://www.w3.org/2000/svg" width="1000" height="1250" viewBox="0 0 1000 1250" role="img" aria-label="GUARDIAN SCENT · III placeholder">
  <defs>
    <linearGradient id="bg" x1="0" y1="0" x2="0.4" y2="1">
      <stop offset="0" stop-color="#efe6d8"/>
      <stop offset="1" stop-color="#dac9af"/>
    </linearGradient>
    <radialGradient id="vig" cx="0.5" cy="0.42" r="0.75">
      <stop offset="0.55" stop-color="#000" stop-opacity="0"/>
      <stop offset="1" stop-color="#000" stop-opacity="0.10"/>
    </radialGradient>
  </defs>
  <rect width="1000" height="1250" fill="url(#bg)"/>
  <circle cx="75.53705490539922%" cy="53.44110396572953%" r="0.9" fill="#000" opacity="0.016"/><circle cx="78.13201354468153%" cy="84.258171261232%" r="0.9" fill="#000" opacity="0.036"/><circle cx="79.54166276405624%" cy="83.63697522114228%" r="0.9" fill="#000" opacity="0.014"/><circle cx="88.45198601734934%" cy="70.97043745457995%" r="0.9" fill="#000" opacity="0.011"/><circle cx="15.46282039363771%" cy="17.96212075284871%" r="0.9" fill="#000" opacity="0.048"/><circle cx="20.089330486720257%" cy="88.30314223834608%" r="0.9" fill="#000" opacity="0.048"/><circle cx="54.84703700330974%" cy="9.948489676761596%" r="0.9" fill="#000" opacity="0.018"/><circle cx="92.62639896492263%" cy="1.3732385167548267%" r="0.9" fill="#000" opacity="0.018"/><circle cx="35.324997854002326%" cy="84.31500650049078%" r="0.9" fill="#000" opacity="0.015"/><circle cx="60.3237855456771%" cy="9.454347856109802%" r="0.9" fill="#000" opacity="0.010"/><circle cx="66.62850282271539%" cy="75.1785993467885%" r="0.9" fill="#000" opacity="0.012"/><circle cx="96.08779186038949%" cy="16.380330513162246%" r="0.9" fill="#000" opacity="0.047"/><circle cx="12.695741475225041%" cy="50.92746700184993%" r="0.9" fill="#000" opacity="0.030"/><circle cx="33.24779671106973%" cy="37.15149394815567%" r="0.9" fill="#000" opacity="0.030"/><circle cx="48.68058248374613%" cy="94.23505613311804%" r="0.9" fill="#000" opacity="0.022"/><circle cx="57.24633427512554%" cy="57.4368067429173%" r="0.9" fill="#000" opacity="0.008"/><circle cx="22.086014752429183%" cy="38.77661243267178%" r="0.9" fill="#000" opacity="0.041"/><circle cx="94.73064889343406%" cy="19.85331953543402%" r="0.9" fill="#000" opacity="0.003"/><circle cx="54.628168166403526%" cy="17.708987502179607%" r="0.9" fill="#000" opacity="0.021"/><circle cx="60.56821872546734%" cy="82.89178790036613%" r="0.9" fill="#000" opacity="0.045"/><circle cx="40.234099737288396%" cy="81.74416944104932%" r="0.9" fill="#000" opacity="0.027"/><circle cx="22.577804701577254%" cy="31.31081974255524%" r="0.9" fill="#000" opacity="0.011"/><circle cx="40.74389710205627%" cy="83.9385258246039%" r="0.9" fill="#000" opacity="0.042"/><circle cx="51.13080944816544%" cy="75.19293978988219%" r="0.9" fill="#000" opacity="0.032"/><circle cx="44.42244364032521%" cy="32.395918281298805%" r="0.9" fill="#000" opacity="0.045"/><circle cx="23.55280379242638%" cy="11.297181494714959%" r="0.9" fill="#000" opacity="0.037"/><circle cx="94.50758162191184%" cy="10.180780399209443%" r="0.9" fill="#000" opacity="0.039"/><circle cx="99.61758628865137%" cy="71.49855703321758%" r="0.9" fill="#000" opacity="0.021"/><circle cx="1.6466544576039355%" cy="94.94911200365556%" r="0.9" fill="#000" opacity="0.022"/><circle cx="33.015560222989635%" cy="76.06280158825737%" r="0.9" fill="#000" opacity="0.000"/><circle cx="16.650924929157938%" cy="15.394227748017308%" r="0.9" fill="#000" opacity="0.012"/><circle cx="2.6098469356702902%" cy="97.86630909512292%" r="0.9" fill="#000" opacity="0.039"/><circle cx="39.197429739343214%" cy="44.6870651055971%" r="0.9" fill="#000" opacity="0.023"/><circle cx="80.34497515867028%" cy="9.912297593904329%" r="0.9" fill="#000" opacity="0.037"/><circle cx="49.611438050494485%" cy="1.6242428360306094%" r="0.9" fill="#000" opacity="0.028"/><circle cx="53.93311009157824%" cy="71.9252006924948%" r="0.9" fill="#000" opacity="0.014"/><circle cx="7.4693635473287%" cy="25.917770863902177%" r="0.9" fill="#000" opacity="0.016"/><circle cx="76.59018561256781%" cy="95.01356276781986%" r="0.9" fill="#000" opacity="0.009"/><circle cx="6.530532413249013%" cy="17.877770758941036%" r="0.9" fill="#000" opacity="0.011"/><circle cx="10.712374749535448%" cy="49.44271270004547%" r="0.9" fill="#000" opacity="0.019"/><circle cx="6.03971922660913%" cy="76.68637131728653%" r="0.9" fill="#000" opacity="0.018"/><circle cx="37.79737479512855%" cy="69.66717577591938%" r="0.9" fill="#000" opacity="0.021"/><circle cx="7.48266029413066%" cy="60.97114721936558%" r="0.9" fill="#000" opacity="0.024"/><circle cx="62.43957941893981%" cy="58.762359909388415%" r="0.9" fill="#000" opacity="0.024"/><circle cx="93.99775506971586%" cy="66.19936444716934%" r="0.9" fill="#000" opacity="0.016"/><circle cx="78.41835978129893%" cy="25.738531983328862%" r="0.9" fill="#000" opacity="0.021"/><circle cx="17.40039757149304%" cy="39.84356935553021%" r="0.9" fill="#000" opacity="0.045"/><circle cx="55.85411610723211%" cy="3.0708144689059136%" r="0.9" fill="#000" opacity="0.041"/><circle cx="18.705286804962682%" cy="55.81597432239571%" r="0.9" fill="#000" opacity="0.012"/><circle cx="96.96839138015119%" cy="60.77256786697621%" r="0.9" fill="#000" opacity="0.044"/><circle cx="17.46218947159829%" cy="91.95674758302086%" r="0.9" fill="#000" opacity="0.002"/><circle cx="72.32724458841842%" cy="88.58157777913213%" r="0.9" fill="#000" opacity="0.023"/><circle cx="18.400666878954652%" cy="30.19840820790243%" r="0.9" fill="#000" opacity="0.000"/><circle cx="41.44383027194639%" cy="55.06427600249717%" r="0.9" fill="#000" opacity="0.039"/><circle cx="18.528530508933216%" cy="89.16235040931807%" r="0.9" fill="#000" opacity="0.022"/><circle cx="84.80604492564598%" cy="88.57848775189876%" r="0.9" fill="#000" opacity="0.050"/><circle cx="95.53878551144112%" cy="11.546187907374394%" r="0.9" fill="#000" opacity="0.036"/><circle cx="93.60554747361637%" cy="44.395465840731084%" r="0.9" fill="#000" opacity="0.003"/><circle cx="7.525117024986072%" cy="47.73518159666236%" r="0.9" fill="#000" opacity="0.013"/><circle cx="4.1205832470943555%" cy="56.52331039948648%" r="0.9" fill="#000" opacity="0.014"/><circle cx="87.15282416487314%" cy="84.96276338427262%" r="0.9" fill="#000" opacity="0.045"/><circle cx="66.05464080349098%" cy="41.20052913149741%" r="0.9" fill="#000" opacity="0.003"/><circle cx="92.32782067675977%" cy="84.29888478117708%" r="0.9" fill="#000" opacity="0.023"/><circle cx="18.18929242275804%" cy="68.84068402069809%" r="0.9" fill="#000" opacity="0.041"/><circle cx="14.756696642654477%" cy="32.83084648300946%" r="0.9" fill="#000" opacity="0.006"/><circle cx="52.793530233070996%" cy="69.9170589356564%" r="0.9" fill="#000" opacity="0.027"/><circle cx="21.46441308395253%" cy="82.63122360075286%" r="0.9" fill="#000" opacity="0.014"/><circle cx="47.48777980120169%" cy="86.4747768620235%" r="0.9" fill="#000" opacity="0.037"/><circle cx="41.63781750847815%" cy="84.42769916434145%" r="0.9" fill="#000" opacity="0.021"/><circle cx="96.10648228478217%" cy="10.534193314118845%" r="0.9" fill="#000" opacity="0.042"/><circle cx="18.209755323216115%" cy="47.58946644935374%" r="0.9" fill="#000" opacity="0.016"/><circle cx="83.48994447253085%" cy="53.50030431623656%" r="0.9" fill="#000" opacity="0.014"/><circle cx="45.45153635818774%" cy="33.25549433814622%" r="0.9" fill="#000" opacity="0.046"/><circle cx="80.26174636561724%" cy="1.4986738158993762%" r="0.9" fill="#000" opacity="0.026"/><circle cx="46.353073279361325%" cy="83.33552254730213%" r="0.9" fill="#000" opacity="0.018"/><circle cx="60.28528538695672%" cy="50.66012804646076%" r="0.9" fill="#000" opacity="0.034"/><circle cx="68.45054614800908%" cy="58.33034247522279%" r="0.9" fill="#000" opacity="0.032"/><circle cx="56.30500874156492%" cy="90.73657476668131%" r="0.9" fill="#000" opacity="0.043"/><circle cx="27.516590394696827%" cy="28.810914184842318%" r="0.9" fill="#000" opacity="0.024"/><circle cx="7.22819846565752%" cy="48.583887772074306%" r="0.9" fill="#000" opacity="0.025"/><circle cx="4.094590771296803%" cy="63.81039750113179%" r="0.9" fill="#000" opacity="0.008"/><circle cx="27.635818956416024%" cy="60.84273574726035%" r="0.9" fill="#000" opacity="0.001"/><circle cx="93.70843454077637%" cy="85.04336919682275%" r="0.9" fill="#000" opacity="0.033"/><circle cx="55.3895956188876%" cy="97.04175807706744%" r="0.9" fill="#000" opacity="0.002"/><circle cx="22.778039072398105%" cy="58.69399023062949%" r="0.9" fill="#000" opacity="0.022"/><circle cx="84.81246834283182%" cy="38.28130521989043%" r="0.9" fill="#000" opacity="0.030"/><circle cx="95.68019800703722%" cy="66.71397070279997%" r="0.9" fill="#000" opacity="0.038"/><circle cx="20.246276101272265%" cy="65.38102635722561%" r="0.9" fill="#000" opacity="0.046"/><circle cx="26.089575758418547%" cy="37.25251822598682%" r="0.9" fill="#000" opacity="0.040"/><circle cx="60.037658508580094%" cy="71.49312694261542%" r="0.9" fill="#000" opacity="0.046"/>
  
    <g transform="translate(500.0,575.0)" opacity="0.9">
      <path d="M -74.39999999999999 -285.2
               C -74.39999999999999 -341.0 74.39999999999999 -341.0 74.39999999999999 -285.2
               L 62.0 -248.0
               C 210.8 -186.0 248.0 31.0 210.8 173.60000000000002
               C 173.60000000000002 297.59999999999997 -173.60000000000002 297.59999999999997 -210.8 173.60000000000002
               C -248.0 31.0 -210.8 -186.0 -62.0 -248.0
               Z"
            fill="#dac9af" stroke="#94795a" stroke-width="7.44"/>
      <rect x="-99.2" y="-359.59999999999997" width="198.4" height="62.0" rx="18.599999999999998"
            fill="#94795a" opacity="0.55"/>
      <ellipse cx="0" cy="37.199999999999996" rx="99.2" ry="124.0" fill="#94795a" opacity="0.18"/>
    </g>
  <rect width="1000" height="1250" fill="url(#vig)"/>
  <text x="50%" y="1162" text-anchor="middle"
        font-family="Georgia, 'Times New Roman', serif" font-size="30"
        letter-spacing="3" fill="#94795a" opacity="0.85">GUARDIAN SCENT · III</text>
</svg>