<svg xmlns="http://www.w3.org/2000/svg" width="1000" height="1250" viewBox="0 0 1000 1250" role="img" aria-label="PRAYER CAPSULE · II placeholder">
  <defs>
    <linearGradient id="bg" x1="0" y1="0" x2="0.4" y2="1">
      <stop offset="0" stop-color="#e4e6e8"/>
      <stop offset="1" stop-color="#c7ccd1"/>
    </linearGradient>
    <radialGradient id="vig" cx="0.5" cy="0.42" r="0.75">
      <stop offset="0.55" stop-color="#000" stop-opacity="0"/>
      <stop offset="1" stop-color="#000" stop-opacity="0.10"/>
    </radialGradient>
  </defs>
  <rect width="1000" height="1250" fill="url(#bg)"/>
  <circle cx="62.189043144654185%" cy="67.29876718851082%" r="0.9" fill="#000" opacity="0.027"/><circle cx="51.785908763563704%" cy="32.090276644059536%" r="0.9" fill="#000" opacity="0.045"/><circle cx="75.7096164028686%" cy="92.15319962747216%" r="0.9" fill="#000" opacity="0.044"/><circle cx="62.06720821476846%" cy="9.15118272922857%" r="0.9" fill="#000" opacity="0.036"/><circle cx="60.09267034891216%" cy="44.23478842444164%" r="0.9" fill="#000" opacity="0.046"/><circle cx="96.02910625083467%" cy="37.73895815877252%" r="0.9" fill="#000" opacity="0.028"/><circle cx="2.3897900504615377%" cy="42.242045707056505%" r="0.9" fill="#000" opacity="0.022"/><circle cx="13.474723902091746%" cy="6.741762048700117%" r="0.9" fill="#000" opacity="0.005"/><circle cx="50.010928025992406%" cy="60.50993457920877%" r="0.9" fill="#000" opacity="0.008"/><circle cx="26.53238608161962%" cy="92.73190364851976%" r="0.9" fill="#000" opacity="0.018"/><circle cx="26.354744964569367%" cy="93.44019817852788%" r="0.9" fill="#000" opacity="0.017"/><circle cx="83.2032882103466%" cy="47.66910666079496%" r="0.9" fill="#000" opacity="0.010"/><circle cx="76.52038142373677%" cy="24.746214565724124%" r="0.9" fill="#000" opacity="0.006"/><circle cx="84.75977421503585%" cy="3.1365223552021093%" r="0.9" fill="#000" opacity="0.015"/><circle cx="7.121863163313669%" cy="71.5634875593396%" r="0.9" fill="#000" opacity="0.045"/><circle cx="54.855782017383106%" cy="32.89737321827811%" r="0.9" fill="#000" opacity="0.036"/><circle cx="17.05842747694203%" cy="12.88099446842753%" r="0.9" fill="#000" opacity="0.002"/><circle cx="78.25401239939042%" cy="83.66635889765843%" r="0.9" fill="#000" opacity="0.012"/><circle cx="36.977103187666025%" cy="87.22062869379205%" r="0.9" fill="#000" opacity="0.029"/><circle cx="58.45686878169316%" cy="93.89177557785361%" r="0.9" fill="#000" opacity="0.049"/><circle cx="3.0881053726978913%" cy="1.6212164226203196%" r="0.9" fill="#000" opacity="0.018"/><circle cx="36.29110312366953%" cy="83.34789624994403%" r="0.9" fill="#000" opacity="0.015"/><circle cx="46.79728693778406%" cy="67.7409374112045%" r="0.9" fill="#000" opacity="0.048"/><circle cx="80.92975500752804%" cy="55.70024211523218%" r="0.9" fill="#000" opacity="0.014"/><circle cx="10.15552564255926%" cy="5.9941031236090065%" r="0.9" fill="#000" opacity="0.025"/><circle cx="73.12959079824779%" cy="27.93921582712261%" r="0.9" fill="#000" opacity="0.039"/><circle cx="40.83828664896053%" cy="96.77582768182874%" r="0.9" fill="#000" opacity="0.016"/><circle cx="65.6302124193738%" cy="12.810936984517706%" r="0.9" fill="#000" opacity="0.029"/><circle cx="31.33422585222041%" cy="20.25031916984057%" r="0.9" fill="#000" opacity="0.025"/><circle cx="47.6645235964145%" cy="53.19993825749029%" r="0.9" fill="#000" opacity="0.015"/><circle cx="33.900910506561324%" cy="27.1039725428893%" r="0.9" fill="#000" opacity="0.026"/><circle cx="82.26371301825982%" cy="38.07903646204598%" r="0.9" fill="#000" opacity="0.025"/><circle cx="18.715364475274143%" cy="12.461909354132604%" r="0.9" fill="#000" opacity="0.000"/><circle cx="87.26516980809515%" cy="60.143906577965%" r="0.9" fill="#000" opacity="0.008"/><circle cx="7.895651410900573%" cy="99.25011783401986%" r="0.9" fill="#000" opacity="0.011"/><circle cx="95.19426751483597%" cy="32.29528369760507%" r="0.9" fill="#000" opacity="0.043"/><circle cx="34.78617273468797%" cy="72.45901583832108%" r="0.9" fill="#000" opacity="0.018"/><circle cx="0.16424983205883814%" cy="24.173307648751464%" r="0.9" fill="#000" opacity="0.018"/><circle cx="72.6351617710774%" cy="43.052801562289446%" r="0.9" fill="#000" opacity="0.045"/><circle cx="91.47132963980239%" cy="94.99191368896447%" r="0.9" fill="#000" opacity="0.020"/><circle cx="35.29498567149528%" cy="64.16310146427148%" r="0.9" fill="#000" opacity="0.004"/><circle cx="43.19608446221434%" cy="92.48695645120218%" r="0.9" fill="#000" opacity="0.029"/><circle cx="73.17803492698283%" cy="2.06237184016983%" r="0.9" fill="#000" opacity="0.019"/><circle cx="77.262133291365%" cy="52.123332884574424%" r="0.9" fill="#000" opacity="0.022"/><circle cx="91.98484571726767%" cy="4.878277781745155%" r="0.9" fill="#000" opacity="0.047"/><circle cx="51.9935445596997%" cy="67.97760508962256%" r="0.9" fill="#000" opacity="0.007"/><circle cx="44.81043428891246%" cy="57.58641992128669%" r="0.9" fill="#000" opacity="0.050"/><circle cx="37.10101749404797%" cy="4.529167805396672%" r="0.9" fill="#000" opacity="0.037"/><circle cx="13.347451175024306%" cy="85.19403057374744%" r="0.9" fill="#000" opacity="0.043"/><circle cx="30.79245890573037%" cy="63.438887292863875%" r="0.9" fill="#000" opacity="0.025"/><circle cx="81.24340445175278%" cy="76.64354617696296%" r="0.9" fill="#000" opacity="0.028"/><circle cx="72.03284588721284%" cy="75.03229734329557%" r="0.9" fill="#000" opacity="0.044"/><circle cx="38.02429132877013%" cy="80.44096273248911%" r="0.9" fill="#000" opacity="0.005"/><circle cx="53.33093258112379%" cy="85.47961661855025%" r="0.9" fill="#000" opacity="0.014"/><circle cx="91.8237161593125%" cy="98.59247904795984%" r="0.9" fill="#000" opacity="0.050"/><circle cx="44.61983820285229%" cy="57.026792910585385%" r="0.9" fill="#000" opacity="0.024"/><circle cx="40.67415379414891%" cy="39.257167891950196%" r="0.9" fill="#000" opacity="0.041"/><circle cx="17.745610918742127%" cy="79.19045060584166%" r="0.9" fill="#000" opacity="0.046"/><circle cx="36.82100589476176%" cy="92.44882251769904%" r="0.9" fill="#000" opacity="0.003"/><circle cx="99.94382570808676%" cy="76.82423704603897%" r="0.9" fill="#000" opacity="0.030"/><circle cx="45.30513576460316%" cy="84.25137312731049%" r="0.9" fill="#000" opacity="0.033"/><circle cx="82.92439954256461%" cy="74.76211081988502%" r="0.9" fill="#000" opacity="0.028"/><circle cx="23.569588287544573%" cy="14.754276604549476%" r="0.9" fill="#000" opacity="0.012"/><circle cx="61.90575294207981%" cy="20.12397693948604%" r="0.9" fill="#000" opacity="0.040"/><circle cx="33.60743528906336%" cy="73.82028033944782%" r="0.9" fill="#000" opacity="0.005"/><circle cx="63.778178229034424%" cy="62.74434979533837%" r="0.9" fill="#000" opacity="0.027"/><circle cx="60.45891234098515%" cy="11.27712822522302%" r="0.9" fill="#000" opacity="0.021"/><circle cx="83.19882070662985%" cy="16.00182383875286%" r="0.9" fill="#000" opacity="0.013"/><circle cx="88.42951644522913%" cy="48.51154930012793%" r="0.9" fill="#000" opacity="0.044"/><circle cx="55.97955085634183%" cy="8.07980834726828%" r="0.9" fill="#000" opacity="0.003"/><circle cx="33.65662764189664%" cy="38.01287157504463%" r="0.9" fill="#000" opacity="0.025"/><circle cx="32.12937046554636%" cy="93.83240623463948%" r="0.9" fill="#000" opacity="0.013"/><circle cx="58.861147351519485%" cy="3.8579402850452027%" r="0.9" fill="#000" opacity="0.025"/><circle cx="83.57870970809083%" cy="21.00917980640976%" r="0.9" fill="#000" opacity="0.033"/><circle cx="52.05745418651815%" cy="4.694016945079548%" r="0.9" fill="#000" opacity="0.010"/><circle cx="79.67664536319785%" cy="91.8413622440355%" r="0.9" fill="#000" opacity="0.020"/><circle cx="53.58969584266735%" cy="12.780172762662234%" r="0.9" fill="#000" opacity="0.042"/><circle cx="22.14312367083767%" cy="25.03617373909591%" r="0.9" fill="#000" opacity="0.033"/><circle cx="71.92634908819754%" cy="61.59331444718853%" r="0.9" fill="#000" opacity="0.020"/><circle cx="53.29255869746973%" cy="78.08581202173085%" r="0.9" fill="#000" opacity="0.033"/><circle cx="17.081102473111066%" cy="76.6665902843265%" r="0.9" fill="#000" opacity="0.029"/><circle cx="4.293953932986694%" cy="62.18586663949832%" r="0.9" fill="#000" opacity="0.036"/><circle cx="58.655142081113844%" cy="34.44225230826492%" r="0.9" fill="#000" opacity="0.006"/><circle cx="29.366409694160023%" cy="33.96378543553209%" r="0.9" fill="#000" opacity="0.018"/><circle cx="50.30243381087423%" cy="49.52672108397553%" r="0.9" fill="#000" opacity="0.007"/><circle cx="10.707286983423113%" cy="54.79013645379687%" r="0.9" fill="#000" opacity="0.024"/><circle cx="23.193441030211893%" cy="88.8465730238035%" r="0.9" fill="#000" opacity="0.045"/><circle cx="52.699294871832926%" cy="1.2619234700639859%" r="0.9" fill="#000" opacity="0.038"/><circle cx="90.28785625618858%" cy="9.929057162525313%" r="0.9" fill="#000" opacity="0.041"/><circle cx="33.623545048041315%" cy="10.239881548587814%" r="0.9" fill="#000" opacity="0.028"/>
  
    <g transform="translate(500.0,575.0)" opacity="0.9">
      <path d="M -74.39999999999999 -285.2
               C -74.39999999999999 -341.0 74.39999999999999 -341.0 74.39999999999999 -285.2
               L 62.0 -248.0
               C 210.8 -186.0 248.0 31.0 210.8 173.60000000000002
               C 173.60000000000002 297.59999999999997 -173.60000000000002 297.59999999999997 -210.8 173.60000000000002
               C -248.0 31.0 -210.8 -186.0 -62.0 -248.0
               Z"
            fill="#c7ccd1" stroke="#7d858d" stroke-width="7.44"/>
      <rect x="-99.2" y="-359.59999999999997" width="198.4" height="62.0" rx="18.599999999999998"
            fill="#7d858d" opacity="0.55"/>
      <ellipse cx="0" cy="37.199999999999996" rx="99.2" ry="124.0" fill="#7d858d" opacity="0.18"/>
    </g>
  <rect width="1000" height="1250" fill="url(#vig)"/>
  <text x="50%" y="1162" text-anchor="middle"
        font-family="Georgia, 'Times New Roman', serif" font-size="30"
        letter-spacing="3" fill="#7d858d" opacity="0.85">PRAYER CAPSULE · II</text>
</svg>