<svg xmlns="http://www.w3.org/2000/svg" width="1000" height="1250" viewBox="0 0 1000 1250" role="img" aria-label="MEMORY HOLDER placeholder">
  <defs>
    <linearGradient id="bg" x1="0" y1="0" x2="0.4" y2="1">
      <stop offset="0" stop-color="#e9e2d6"/>
      <stop offset="1" stop-color="#cdbfa9"/>
    </linearGradient>
    <radialGradient id="vig" cx="0.5" cy="0.42" r="0.75">
      <stop offset="0.55" stop-color="#000" stop-opacity="0"/>
      <stop offset="1" stop-color="#000" stop-opacity="0.10"/>
    </radialGradient>
  </defs>
  <rect width="1000" height="1250" fill="url(#bg)"/>
  <circle cx="93.91246112769657%" cy="80.40292246349445%" r="0.9" fill="#000" opacity="0.024"/><circle cx="32.373369475088154%" cy="37.768000929172516%" r="0.9" fill="#000" opacity="0.033"/><circle cx="42.78284565910062%" cy="31.73041876775948%" r="0.9" fill="#000" opacity="0.006"/><circle cx="97.97426363609932%" cy="62.20087754877299%" r="0.9" fill="#000" opacity="0.041"/><circle cx="73.41044511861737%" cy="90.82225065719348%" r="0.9" fill="#000" opacity="0.022"/><circle cx="22.30314366019368%" cy="62.30919894804538%" r="0.9" fill="#000" opacity="0.008"/><circle cx="50.70500249366076%" cy="11.358019590763158%" r="0.9" fill="#000" opacity="0.048"/><circle cx="26.287020418822127%" cy="99.43828005894719%" r="0.9" fill="#000" opacity="0.015"/><circle cx="5.3714417370406835%" cy="15.687514893767018%" r="0.9" fill="#000" opacity="0.006"/><circle cx="75.11777281644805%" cy="78.99844150736965%" r="0.9" fill="#000" opacity="0.046"/><circle cx="46.18605914257712%" cy="80.32876790679313%" r="0.9" fill="#000" opacity="0.026"/><circle cx="55.82406850547494%" cy="26.863701796575167%" r="0.9" fill="#000" opacity="0.046"/><circle cx="97.16396648458823%" cy="95.4293397159844%" r="0.9" fill="#000" opacity="0.031"/><circle cx="60.2572186213756%" cy="24.946416648109093%" r="0.9" fill="#000" opacity="0.004"/><circle cx="3.0360364847261456%" cy="13.570619078850022%" r="0.9" fill="#000" opacity="0.032"/><circle cx="12.811124931196915%" cy="49.366983679179135%" r="0.9" fill="#000" opacity="0.044"/><circle cx="9.502335112976168%" cy="62.40235273664827%" r="0.9" fill="#000" opacity="0.031"/><circle cx="57.42677387351955%" cy="9.906258143532066%" r="0.9" fill="#000" opacity="0.014"/><circle cx="7.168027713426639%" cy="8.535298571954353%" r="0.9" fill="#000" opacity="0.001"/><circle cx="92.60822624032696%" cy="71.57263918107755%" r="0.9" fill="#000" opacity="0.046"/><circle cx="61.26253119614259%" cy="96.4870935258848%" r="0.9" fill="#000" opacity="0.018"/><circle cx="5.045166665785883%" cy="85.43482765599532%" r="0.9" fill="#000" opacity="0.036"/><circle cx="76.60017808253214%" cy="57.08186863237701%" r="0.9" fill="#000" opacity="0.012"/><circle cx="0.4836094177089967%" cy="52.05911647448194%" r="0.9" fill="#000" opacity="0.018"/><circle cx="91.72780960887404%" cy="1.0977989387006004%" r="0.9" fill="#000" opacity="0.036"/><circle cx="63.2862452224826%" cy="47.922034869760886%" r="0.9" fill="#000" opacity="0.025"/><circle cx="47.15598318079841%" cy="51.61025975890388%" r="0.9" fill="#000" opacity="0.046"/><circle cx="12.706504762569082%" cy="21.999049684846504%" r="0.9" fill="#000" opacity="0.017"/><circle cx="54.647405799478236%" cy="32.756258329698355%" r="0.9" fill="#000" opacity="0.010"/><circle cx="64.01822286540029%" cy="9.547022583419551%" r="0.9" fill="#000" opacity="0.048"/><circle cx="73.80590117969969%" cy="6.920440337144296%" r="0.9" fill="#000" opacity="0.016"/><circle cx="66.97023845089927%" cy="80.67059983511523%" r="0.9" fill="#000" opacity="0.022"/><circle cx="79.81451452294017%" cy="28.126429957652967%" r="0.9" fill="#000" opacity="0.002"/><circle cx="73.77659952541282%" cy="41.196245007498234%" r="0.9" fill="#000" opacity="0.005"/><circle cx="30.803126216882625%" cy="57.86293011523532%" r="0.9" fill="#000" opacity="0.031"/><circle cx="94.8411412335242%" cy="46.37327212581537%" r="0.9" fill="#000" opacity="0.034"/><circle cx="25.607449110629275%" cy="57.941406797984015%" r="0.9" fill="#000" opacity="0.028"/><circle cx="6.692197760741292%" cy="81.6678067249591%" r="0.9" fill="#000" opacity="0.021"/><circle cx="47.99901091217414%" cy="29.594147962762285%" r="0.9" fill="#000" opacity="0.027"/><circle cx="46.95349226297948%" cy="79.19853344297111%" r="0.9" fill="#000" opacity="0.003"/><circle cx="41.40853245687881%" cy="11.656027346349095%" r="0.9" fill="#000" opacity="0.025"/><circle cx="14.252355767571846%" cy="40.52542411557785%" r="0.9" fill="#000" opacity="0.026"/><circle cx="95.06850636730677%" cy="54.15212884379328%" r="0.9" fill="#000" opacity="0.001"/><circle cx="81.43273728535264%" cy="13.956824179416948%" r="0.9" fill="#000" opacity="0.013"/><circle cx="48.06844793969003%" cy="45.441791850821176%" r="0.9" fill="#000" opacity="0.032"/><circle cx="18.29037741798244%" cy="14.275892940349099%" r="0.9" fill="#000" opacity="0.036"/><circle cx="43.5580174343118%" cy="48.61040934808884%" r="0.9" fill="#000" opacity="0.019"/><circle cx="73.5972250936967%" cy="38.95924169581605%" r="0.9" fill="#000" opacity="0.049"/><circle cx="79.12352497912418%" cy="0.7332687096872847%" r="0.9" fill="#000" opacity="0.011"/><circle cx="53.154773033429215%" cy="86.34682122728009%" r="0.9" fill="#000" opacity="0.044"/><circle cx="53.403145169821876%" cy="66.50086947775952%" r="0.9" fill="#000" opacity="0.033"/><circle cx="99.48958248688777%" cy="62.268055667097535%" r="0.9" fill="#000" opacity="0.039"/><circle cx="18.683657772236007%" cy="62.45471022720254%" r="0.9" fill="#000" opacity="0.001"/><circle cx="4.541560393013844%" cy="75.47629860190727%" r="0.9" fill="#000" opacity="0.039"/><circle cx="56.369418307217146%" cy="41.855589558508356%" r="0.9" fill="#000" opacity="0.002"/><circle cx="21.87394485713108%" cy="17.109062574445034%" r="0.9" fill="#000" opacity="0.043"/><circle cx="25.475787455212394%" cy="60.43572620198605%" r="0.9" fill="#000" opacity="0.030"/><circle cx="83.14361307277423%" cy="63.842654745541836%" r="0.9" fill="#000" opacity="0.036"/><circle cx="92.78961872743369%" cy="69.44366549423498%" r="0.9" fill="#000" opacity="0.008"/><circle cx="21.50779858460257%" cy="63.85887946591207%" r="0.9" fill="#000" opacity="0.018"/><circle cx="41.97056550771102%" cy="36.500386524764686%" r="0.9" fill="#000" opacity="0.017"/><circle cx="77.66881454815022%" cy="45.92684385219032%" r="0.9" fill="#000" opacity="0.015"/><circle cx="37.39456012542314%" cy="31.766222664375142%" r="0.9" fill="#000" opacity="0.020"/><circle cx="1.1557781995526595%" cy="80.14596867870578%" r="0.9" fill="#000" opacity="0.011"/><circle cx="65.57332115181256%" cy="12.130404308661923%" r="0.9" fill="#000" opacity="0.030"/><circle cx="59.0027189495771%" cy="9.636040245872945%" r="0.9" fill="#000" opacity="0.045"/><circle cx="69.70464494377765%" cy="61.14206542499271%" r="0.9" fill="#000" opacity="0.032"/><circle cx="22.40894089731188%" cy="99.35461375204262%" r="0.9" fill="#000" opacity="0.040"/><circle cx="89.26689177288968%" cy="81.21956409416616%" r="0.9" fill="#000" opacity="0.005"/><circle cx="10.39409180668901%" cy="83.97660613697353%" r="0.9" fill="#000" opacity="0.047"/><circle cx="16.244175681257246%" cy="95.85487716490738%" r="0.9" fill="#000" opacity="0.032"/><circle cx="16.263795663451063%" cy="3.1704218599210354%" r="0.9" fill="#000" opacity="0.005"/><circle cx="6.733758893504993%" cy="38.758424614467046%" r="0.9" fill="#000" opacity="0.007"/><circle cx="40.97150243017258%" cy="39.440650650046685%" r="0.9" fill="#000" opacity="0.014"/><circle cx="97.39682598904751%" cy="28.234337005004495%" r="0.9" fill="#000" opacity="0.031"/><circle cx="69.24435723722131%" cy="88.52399240396335%" r="0.9" fill="#000" opacity="0.007"/><circle cx="1.3816516208113305%" cy="5.301440895874709%" r="0.9" fill="#000" opacity="0.043"/><circle cx="8.403335496120778%" cy="35.128681257168026%" r="0.9" fill="#000" opacity="0.007"/><circle cx="96.13239568636813%" cy="65.67232426396315%" r="0.9" fill="#000" opacity="0.024"/><circle cx="21.80981025947233%" cy="75.16637682651415%" r="0.9" fill="#000" opacity="0.007"/><circle cx="96.60368430115992%" cy="29.338319712466877%" r="0.9" fill="#000" opacity="0.025"/><circle cx="79.73395131865927%" cy="67.43866148148702%" r="0.9" fill="#000" opacity="0.030"/><circle cx="34.72570066571258%" cy="66.26329181622553%" r="0.9" fill="#000" opacity="0.037"/><circle cx="19.797245698096578%" cy="12.15382683509545%" r="0.9" fill="#000" opacity="0.009"/><circle cx="2.0200630327771085%" cy="38.049458559247554%" r="0.9" fill="#000" opacity="0.015"/><circle cx="85.37263536993795%" cy="30.62805819393677%" r="0.9" fill="#000" opacity="0.026"/><circle cx="96.39568840316912%" cy="17.515321562549868%" r="0.9" fill="#000" opacity="0.018"/><circle cx="36.15304420079796%" cy="6.361916951131674%" r="0.9" fill="#000" opacity="0.040"/><circle cx="30.460540549395088%" cy="47.3939299449619%" r="0.9" fill="#000" opacity="0.042"/><circle cx="19.597931979671046%" cy="54.662741056889075%" r="0.9" fill="#000" opacity="0.012"/>
  
    <g transform="translate(500.0,575.0)" opacity="0.9">
      <path d="M -74.39999999999999 -285.2
               C -74.39999999999999 -341.0 74.39999999999999 -341.0 74.39999999999999 -285.2
               L 62.0 -248.0
               C 210.8 -186.0 248.0 31.0 210.8 173.60000000000002
               C 173.60000000000002 297.59999999999997 -173.60000000000002 297.59999999999997 -210.8 173.60000000000002
               C -248.0 31.0 -210.8 -186.0 -62.0 -248.0
               Z"
            fill="#cdbfa9" stroke="#7c6f59" stroke-width="7.44"/>
      <rect x="-99.2" y="-359.59999999999997" width="198.4" height="62.0" rx="18.599999999999998"
            fill="#7c6f59" opacity="0.55"/>
      <ellipse cx="0" cy="37.199999999999996" rx="99.2" ry="124.0" fill="#7c6f59" opacity="0.18"/>
    </g>
  <rect width="1000" height="1250" fill="url(#vig)"/>
  <text x="50%" y="1162" text-anchor="middle"
        font-family="Georgia, 'Times New Roman', serif" font-size="30"
        letter-spacing="3" fill="#7c6f59" opacity="0.85">MEMORY HOLDER</text>
</svg>