<svg xmlns="http://www.w3.org/2000/svg" width="1000" height="1250" viewBox="0 0 1000 1250" role="img" aria-label="GUARDIAN SCENT · II placeholder">
  <defs>
    <linearGradient id="bg" x1="0" y1="0" x2="0.4" y2="1">
      <stop offset="0" stop-color="#efe6d8"/>
      <stop offset="1" stop-color="#dac9af"/>
    </linearGradient>
    <radialGradient id="vig" cx="0.5" cy="0.42" r="0.75">
      <stop offset="0.55" stop-color="#000" stop-opacity="0"/>
      <stop offset="1" stop-color="#000" stop-opacity="0.10"/>
    </radialGradient>
  </defs>
  <rect width="1000" height="1250" fill="url(#bg)"/>
  <circle cx="50.55045810600117%" cy="16.847683958858706%" r="0.9" fill="#000" opacity="0.018"/><circle cx="80.71702847978206%" cy="69.77564764569286%" r="0.9" fill="#000" opacity="0.008"/><circle cx="88.63774569835195%" cy="86.11772858382672%" r="0.9" fill="#000" opacity="0.002"/><circle cx="64.45157069115854%" cy="37.9015792207524%" r="0.9" fill="#000" opacity="0.004"/><circle cx="31.903439907017052%" cy="64.50497639681663%" r="0.9" fill="#000" opacity="0.005"/><circle cx="32.16869292248693%" cy="68.81289820238615%" r="0.9" fill="#000" opacity="0.012"/><circle cx="87.45086285929528%" cy="57.278623479791065%" r="0.9" fill="#000" opacity="0.032"/><circle cx="3.776015985695491%" cy="6.934135474811798%" r="0.9" fill="#000" opacity="0.031"/><circle cx="17.362535891793797%" cy="52.424606704255005%" r="0.9" fill="#000" opacity="0.045"/><circle cx="59.15598500538726%" cy="44.371157863734666%" r="0.9" fill="#000" opacity="0.005"/><circle cx="12.558482220089173%" cy="24.78168309911506%" r="0.9" fill="#000" opacity="0.048"/><circle cx="75.37969424245458%" cy="16.97049507012801%" r="0.9" fill="#000" opacity="0.002"/><circle cx="97.18995228684688%" cy="96.60546194885582%" r="0.9" fill="#000" opacity="0.027"/><circle cx="27.284429913610364%" cy="53.532156038959386%" r="0.9" fill="#000" opacity="0.045"/><circle cx="25.105519880780612%" cy="78.38865341612185%" r="0.9" fill="#000" opacity="0.025"/><circle cx="54.785461805545566%" cy="93.78087685565917%" r="0.9" fill="#000" opacity="0.001"/><circle cx="29.974106973785265%" cy="9.991146598296973%" r="0.9" fill="#000" opacity="0.009"/><circle cx="86.64177351347585%" cy="3.2460297616962674%" r="0.9" fill="#000" opacity="0.048"/><circle cx="35.627657323018134%" cy="60.61507719504464%" r="0.9" fill="#000" opacity="0.025"/><circle cx="10.892661148629434%" cy="24.74726370761946%" r="0.9" fill="#000" opacity="0.010"/><circle cx="33.090760399707705%" cy="0.7512862761119177%" r="0.9" fill="#000" opacity="0.029"/><circle cx="24.293510544087148%" cy="68.22857922069394%" r="0.9" fill="#000" opacity="0.027"/><circle cx="84.08040691312803%" cy="95.84598841224074%" r="0.9" fill="#000" opacity="0.016"/><circle cx="63.47613156510993%" cy="78.20582178337986%" r="0.9" fill="#000" opacity="0.015"/><circle cx="59.769765545544615%" cy="73.53194800035556%" r="0.9" fill="#000" opacity="0.043"/><circle cx="76.52315945141083%" cy="49.84462590318455%" r="0.9" fill="#000" opacity="0.025"/><circle cx="38.07266012657955%" cy="64.16334112523857%" r="0.9" fill="#000" opacity="0.049"/><circle cx="2.0776115665490535%" cy="68.38151274096494%" r="0.9" fill="#000" opacity="0.036"/><circle cx="42.45331144943143%" cy="1.8355506954676581%" r="0.9" fill="#000" opacity="0.013"/><circle cx="91.49567945250884%" cy="75.96475601989076%" r="0.9" fill="#000" opacity="0.034"/><circle cx="93.92594905980592%" cy="89.6501732294249%" r="0.9" fill="#000" opacity="0.001"/><circle cx="44.406500568958805%" cy="69.94370545737742%" r="0.9" fill="#000" opacity="0.040"/><circle cx="47.40325090150829%" cy="6.598750873279624%" r="0.9" fill="#000" opacity="0.031"/><circle cx="67.30872043240504%" cy="41.02850578852386%" r="0.9" fill="#000" opacity="0.001"/><circle cx="18.362697883407165%" cy="16.890581701995178%" r="0.9" fill="#000" opacity="0.024"/><circle cx="82.56651105175378%" cy="15.561706537531418%" r="0.9" fill="#000" opacity="0.017"/><circle cx="20.837303891758573%" cy="12.738367611829048%" r="0.9" fill="#000" opacity="0.008"/><circle cx="54.71946234969434%" cy="77.6527643025015%" r="0.9" fill="#000" opacity="0.047"/><circle cx="91.58814632413048%" cy="96.60633575329935%" r="0.9" fill="#000" opacity="0.026"/><circle cx="77.71974218396105%" cy="27.656014765568383%" r="0.9" fill="#000" opacity="0.032"/><circle cx="84.65814905847192%" cy="28.965247086450773%" r="0.9" fill="#000" opacity="0.010"/><circle cx="24.03530077746756%" cy="61.29018187430717%" r="0.9" fill="#000" opacity="0.033"/><circle cx="42.539158318859336%" cy="22.334389237860698%" r="0.9" fill="#000" opacity="0.025"/><circle cx="15.16076993473443%" cy="79.89189632697916%" r="0.9" fill="#000" opacity="0.042"/><circle cx="10.868497045211623%" cy="37.57572731041739%" r="0.9" fill="#000" opacity="0.044"/><circle cx="25.79441587900503%" cy="84.66537009360846%" r="0.9" fill="#000" opacity="0.045"/><circle cx="70.89571499909017%" cy="69.98605985683297%" r="0.9" fill="#000" opacity="0.020"/><circle cx="25.25045140259101%" cy="43.82321968907149%" r="0.9" fill="#000" opacity="0.004"/><circle cx="12.16702534756049%" cy="63.9388795113429%" r="0.9" fill="#000" opacity="0.013"/><circle cx="23.960316727795792%" cy="95.24468034497708%" r="0.9" fill="#000" opacity="0.034"/><circle cx="49.65245237311936%" cy="52.81263921867193%" r="0.9" fill="#000" opacity="0.001"/><circle cx="93.05082002538829%" cy="41.111126862318905%" r="0.9" fill="#000" opacity="0.014"/><circle cx="17.564469108299143%" cy="75.58553118801146%" r="0.9" fill="#000" opacity="0.027"/><circle cx="52.129911493409196%" cy="45.88811685546845%" r="0.9" fill="#000" opacity="0.049"/><circle cx="98.35713413078642%" cy="43.68964406460679%" r="0.9" fill="#000" opacity="0.004"/><circle cx="98.41324949684856%" cy="25.749593523567192%" r="0.9" fill="#000" opacity="0.042"/><circle cx="0.3184434406722114%" cy="79.15600267773594%" r="0.9" fill="#000" opacity="0.023"/><circle cx="88.14511362010158%" cy="22.88593345531339%" r="0.9" fill="#000" opacity="0.030"/><circle cx="98.45828508760202%" cy="34.39619651156682%" r="0.9" fill="#000" opacity="0.003"/><circle cx="87.51033244123717%" cy="74.71126045435211%" r="0.9" fill="#000" opacity="0.000"/><circle cx="35.0456857252914%" cy="14.616713631515033%" r="0.9" fill="#000" opacity="0.021"/><circle cx="78.9254975837644%" cy="56.44765038191727%" r="0.9" fill="#000" opacity="0.021"/><circle cx="48.515154844788114%" cy="75.12191947629944%" r="0.9" fill="#000" opacity="0.004"/><circle cx="47.39406659262032%" cy="66.13573707393783%" r="0.9" fill="#000" opacity="0.033"/><circle cx="49.29575053312367%" cy="95.0802521916886%" r="0.9" fill="#000" opacity="0.017"/><circle cx="8.13770871045405%" cy="88.14614245403062%" r="0.9" fill="#000" opacity="0.045"/><circle cx="63.90963018400618%" cy="93.86032877197414%" r="0.9" fill="#000" opacity="0.025"/><circle cx="47.493381650557595%" cy="38.35555158863425%" r="0.9" fill="#000" opacity="0.021"/><circle cx="40.89437250955873%" cy="40.98642371796768%" r="0.9" fill="#000" opacity="0.013"/><circle cx="40.49257593003684%" cy="7.288346136620561%" r="0.9" fill="#000" opacity="0.004"/><circle cx="67.27609060786548%" cy="48.9193005264091%" r="0.9" fill="#000" opacity="0.043"/><circle cx="55.537785861876365%" cy="10.710540426598836%" r="0.9" fill="#000" opacity="0.029"/><circle cx="68.95231795327562%" cy="77.71650898244066%" r="0.9" fill="#000" opacity="0.036"/><circle cx="96.26300683565864%" cy="25.31837319583876%" r="0.9" fill="#000" opacity="0.028"/><circle cx="27.484344949748618%" cy="12.650398771268279%" r="0.9" fill="#000" opacity="0.040"/><circle cx="13.846514099197705%" cy="15.40862342471213%" r="0.9" fill="#000" opacity="0.020"/><circle cx="19.72310710622821%" cy="8.47850659013587%" r="0.9" fill="#000" opacity="0.008"/><circle cx="72.15825243611003%" cy="48.90222073508307%" r="0.9" fill="#000" opacity="0.047"/><circle cx="26.92462805967636%" cy="34.992845013078075%" r="0.9" fill="#000" opacity="0.024"/><circle cx="46.61202611769863%" cy="79.98555102987626%" r="0.9" fill="#000" opacity="0.040"/><circle cx="54.493897451373954%" cy="31.84764935383695%" r="0.9" fill="#000" opacity="0.030"/><circle cx="16.377929788576175%" cy="90.28900539354953%" r="0.9" fill="#000" opacity="0.005"/><circle cx="56.298941318116604%" cy="82.29807746831213%" r="0.9" fill="#000" opacity="0.009"/><circle cx="34.27576776397584%" cy="58.8154888585082%" r="0.9" fill="#000" opacity="0.040"/><circle cx="98.75775248573929%" cy="93.8685091473748%" r="0.9" fill="#000" opacity="0.047"/><circle cx="78.91885971000475%" cy="62.91887244342158%" r="0.9" fill="#000" opacity="0.006"/><circle cx="94.97173034508637%" cy="46.10833231768778%" r="0.9" fill="#000" opacity="0.033"/><circle cx="39.16428048795906%" cy="88.19981044734209%" r="0.9" fill="#000" opacity="0.034"/><circle cx="71.88453641126583%" cy="86.94127366876683%" r="0.9" fill="#000" opacity="0.017"/><circle cx="39.26805578449182%" cy="39.43267231663773%" r="0.9" fill="#000" opacity="0.017"/>
  
    <g transform="translate(500.0,575.0)" opacity="0.9">
      <path d="M -74.39999999999999 -285.2
               C -74.39999999999999 -341.0 74.39999999999999 -341.0 74.39999999999999 -285.2
               L 62.0 -248.0
               C 210.8 -186.0 248.0 31.0 210.8 173.60000000000002
               C 173.60000000000002 297.59999999999997 -173.60000000000002 297.59999999999997 -210.8 173.60000000000002
               C -248.0 31.0 -210.8 -186.0 -62.0 -248.0
               Z"
            fill="#dac9af" stroke="#94795a" stroke-width="7.44"/>
      <rect x="-99.2" y="-359.59999999999997" width="198.4" height="62.0" rx="18.599999999999998"
            fill="#94795a" opacity="0.55"/>
      <ellipse cx="0" cy="37.199999999999996" rx="99.2" ry="124.0" fill="#94795a" opacity="0.18"/>
    </g>
  <rect width="1000" height="1250" fill="url(#vig)"/>
  <text x="50%" y="1162" text-anchor="middle"
        font-family="Georgia, 'Times New Roman', serif" font-size="30"
        letter-spacing="3" fill="#94795a" opacity="0.85">GUARDIAN SCENT · II</text>
</svg>