<svg xmlns="http://www.w3.org/2000/svg" width="1000" height="1250" viewBox="0 0 1000 1250" role="img" aria-label="GUARDIAN SCENT placeholder">
  <defs>
    <linearGradient id="bg" x1="0" y1="0" x2="0.4" y2="1">
      <stop offset="0" stop-color="#efe6d8"/>
      <stop offset="1" stop-color="#dac9af"/>
    </linearGradient>
    <radialGradient id="vig" cx="0.5" cy="0.42" r="0.75">
      <stop offset="0.55" stop-color="#000" stop-opacity="0"/>
      <stop offset="1" stop-color="#000" stop-opacity="0.10"/>
    </radialGradient>
  </defs>
  <rect width="1000" height="1250" fill="url(#bg)"/>
  <circle cx="55.70381481736858%" cy="2.336098379870555%" r="0.9" fill="#000" opacity="0.048"/><circle cx="28.59964005003981%" cy="64.23571085478463%" r="0.9" fill="#000" opacity="0.009"/><circle cx="36.543017748168594%" cy="71.27508239778749%" r="0.9" fill="#000" opacity="0.046"/><circle cx="31.98303071551316%" cy="20.280385973061943%" r="0.9" fill="#000" opacity="0.003"/><circle cx="49.13271877495205%" cy="32.07150554386735%" r="0.9" fill="#000" opacity="0.001"/><circle cx="13.460091670977803%" cy="56.60035270657118%" r="0.9" fill="#000" opacity="0.032"/><circle cx="65.45386023919284%" cy="74.57481819504135%" r="0.9" fill="#000" opacity="0.014"/><circle cx="12.634016277606797%" cy="70.21356500210054%" r="0.9" fill="#000" opacity="0.030"/><circle cx="59.469907401774904%" cy="4.129269194279084%" r="0.9" fill="#000" opacity="0.005"/><circle cx="76.49384861181116%" cy="12.638383137818288%" r="0.9" fill="#000" opacity="0.020"/><circle cx="69.33804478182974%" cy="57.285242634613375%" r="0.9" fill="#000" opacity="0.036"/><circle cx="0.6282817059090173%" cy="53.778754245560926%" r="0.9" fill="#000" opacity="0.014"/><circle cx="68.19300387816415%" cy="25.695618719514325%" r="0.9" fill="#000" opacity="0.045"/><circle cx="33.98547195649233%" cy="21.188538743687303%" r="0.9" fill="#000" opacity="0.028"/><circle cx="12.65137212752947%" cy="80.51881553099011%" r="0.9" fill="#000" opacity="0.002"/><circle cx="58.29177308969498%" cy="73.1371059106997%" r="0.9" fill="#000" opacity="0.016"/><circle cx="27.136181246671654%" cy="74.68058385397958%" r="0.9" fill="#000" opacity="0.028"/><circle cx="19.57069630877951%" cy="91.52713551896493%" r="0.9" fill="#000" opacity="0.021"/><circle cx="40.34052123701915%" cy="34.761612757307894%" r="0.9" fill="#000" opacity="0.041"/><circle cx="49.367050431274016%" cy="75.70187076817773%" r="0.9" fill="#000" opacity="0.011"/><circle cx="3.861695736970938%" cy="88.71177478172076%" r="0.9" fill="#000" opacity="0.013"/><circle cx="16.66994214459424%" cy="28.608000325903905%" r="0.9" fill="#000" opacity="0.015"/><circle cx="44.462008809857025%" cy="90.89080895131748%" r="0.9" fill="#000" opacity="0.029"/><circle cx="18.75448704537558%" cy="12.883851434782034%" r="0.9" fill="#000" opacity="0.048"/><circle cx="10.270319806874252%" cy="50.999392452692604%" r="0.9" fill="#000" opacity="0.010"/><circle cx="16.193413676199054%" cy="37.164877881994194%" r="0.9" fill="#000" opacity="0.022"/><circle cx="90.07890615291048%" cy="23.06053120024194%" r="0.9" fill="#000" opacity="0.026"/><circle cx="23.49624983741322%" cy="87.95144256069973%" r="0.9" fill="#000" opacity="0.030"/><circle cx="68.47262526499777%" cy="86.23276615855563%" r="0.9" fill="#000" opacity="0.016"/><circle cx="50.339138339436296%" cy="38.76508256770785%" r="0.9" fill="#000" opacity="0.036"/><circle cx="96.95360005368372%" cy="9.42721239027936%" r="0.9" fill="#000" opacity="0.015"/><circle cx="24.148745289494656%" cy="44.978075340944415%" r="0.9" fill="#000" opacity="0.004"/><circle cx="7.764592771222089%" cy="31.794225082778972%" r="0.9" fill="#000" opacity="0.031"/><circle cx="58.650243353178155%" cy="23.919227043603332%" r="0.9" fill="#000" opacity="0.004"/><circle cx="73.73051328814672%" cy="13.834214600291872%" r="0.9" fill="#000" opacity="0.036"/><circle cx="55.35294918115908%" cy="95.2541173143791%" r="0.9" fill="#000" opacity="0.001"/><circle cx="10.446663378258702%" cy="2.6060079595686902%" r="0.9" fill="#000" opacity="0.042"/><circle cx="44.88955262001792%" cy="13.422002297727753%" r="0.9" fill="#000" opacity="0.005"/><circle cx="45.72299357158656%" cy="58.57445641376145%" r="0.9" fill="#000" opacity="0.008"/><circle cx="56.30091854648971%" cy="19.635038858232324%" r="0.9" fill="#000" opacity="0.038"/><circle cx="64.38778176098025%" cy="31.641245829291066%" r="0.9" fill="#000" opacity="0.028"/><circle cx="75.7260248343286%" cy="18.932489719305135%" r="0.9" fill="#000" opacity="0.003"/><circle cx="55.71917006106668%" cy="69.28419112996681%" r="0.9" fill="#000" opacity="0.021"/><circle cx="51.26053732289071%" cy="8.767753310231141%" r="0.9" fill="#000" opacity="0.020"/><circle cx="27.665793313925104%" cy="54.821559693265584%" r="0.9" fill="#000" opacity="0.049"/><circle cx="23.396793933703442%" cy="50.382100945822515%" r="0.9" fill="#000" opacity="0.035"/><circle cx="72.24937303250101%" cy="17.484802682128155%" r="0.9" fill="#000" opacity="0.045"/><circle cx="40.36666795425572%" cy="79.29516354953155%" r="0.9" fill="#000" opacity="0.008"/><circle cx="36.45403926696895%" cy="91.86196174543456%" r="0.9" fill="#000" opacity="0.037"/><circle cx="96.03316206188246%" cy="73.24863956377612%" r="0.9" fill="#000" opacity="0.036"/><circle cx="72.08814037088167%" cy="14.338777489980137%" r="0.9" fill="#000" opacity="0.036"/><circle cx="92.6968045805661%" cy="83.18558087846164%" r="0.9" fill="#000" opacity="0.041"/><circle cx="92.5554116302988%" cy="6.059136210665672%" r="0.9" fill="#000" opacity="0.044"/><circle cx="14.837130531160604%" cy="39.15931151930667%" r="0.9" fill="#000" opacity="0.016"/><circle cx="93.06078273979297%" cy="34.58913272332727%" r="0.9" fill="#000" opacity="0.034"/><circle cx="56.562089660293736%" cy="93.85665268330892%" r="0.9" fill="#000" opacity="0.033"/><circle cx="13.050758363586457%" cy="12.538828721957563%" r="0.9" fill="#000" opacity="0.021"/><circle cx="41.18924175008257%" cy="44.535107078230794%" r="0.9" fill="#000" opacity="0.003"/><circle cx="42.1716673116753%" cy="12.444568153799473%" r="0.9" fill="#000" opacity="0.010"/><circle cx="65.87153333854515%" cy="24.605189321515997%" r="0.9" fill="#000" opacity="0.015"/><circle cx="78.68080199050816%" cy="6.002454403041046%" r="0.9" fill="#000" opacity="0.020"/><circle cx="74.13315229120767%" cy="25.070247719232462%" r="0.9" fill="#000" opacity="0.016"/><circle cx="82.80737778341556%" cy="4.169767986472572%" r="0.9" fill="#000" opacity="0.015"/><circle cx="75.85111036709512%" cy="92.83592675963615%" r="0.9" fill="#000" opacity="0.040"/><circle cx="97.33775678162337%" cy="63.860788216205556%" r="0.9" fill="#000" opacity="0.039"/><circle cx="58.170260894076776%" cy="57.15201697085862%" r="0.9" fill="#000" opacity="0.010"/><circle cx="27.78585486594881%" cy="12.670365200771794%" r="0.9" fill="#000" opacity="0.000"/><circle cx="9.397284160977538%" cy="13.211152896389343%" r="0.9" fill="#000" opacity="0.016"/><circle cx="46.31874529474397%" cy="68.92825555466612%" r="0.9" fill="#000" opacity="0.004"/><circle cx="41.78207408714895%" cy="23.851733423434464%" r="0.9" fill="#000" opacity="0.029"/><circle cx="55.957191574561705%" cy="22.187479310930648%" r="0.9" fill="#000" opacity="0.008"/><circle cx="55.61955366567014%" cy="20.724241904092032%" r="0.9" fill="#000" opacity="0.020"/><circle cx="81.70345645531867%" cy="84.21078386407436%" r="0.9" fill="#000" opacity="0.043"/><circle cx="79.75307634377243%" cy="50.54782099620173%" r="0.9" fill="#000" opacity="0.010"/><circle cx="64.71757004117207%" cy="23.190391176047175%" r="0.9" fill="#000" opacity="0.046"/><circle cx="5.283885831414259%" cy="41.8016089281929%" r="0.9" fill="#000" opacity="0.005"/><circle cx="74.13407952233372%" cy="28.12568499064686%" r="0.9" fill="#000" opacity="0.048"/><circle cx="30.262280556955755%" cy="37.004641159338384%" r="0.9" fill="#000" opacity="0.010"/><circle cx="62.411803739340954%" cy="49.15239871341475%" r="0.9" fill="#000" opacity="0.027"/><circle cx="96.59712793910631%" cy="9.868588058213257%" r="0.9" fill="#000" opacity="0.039"/><circle cx="11.08779317302152%" cy="92.60417165680221%" r="0.9" fill="#000" opacity="0.039"/><circle cx="28.7362603293016%" cy="2.678088787578503%" r="0.9" fill="#000" opacity="0.002"/><circle cx="24.920560707150198%" cy="86.978414962577%" r="0.9" fill="#000" opacity="0.038"/><circle cx="37.09739716822917%" cy="48.53012854627266%" r="0.9" fill="#000" opacity="0.018"/><circle cx="84.37242118488544%" cy="14.567714441146107%" r="0.9" fill="#000" opacity="0.044"/><circle cx="31.32761921141336%" cy="49.512497562897586%" r="0.9" fill="#000" opacity="0.010"/><circle cx="96.10898982933%" cy="78.6693868185904%" r="0.9" fill="#000" opacity="0.049"/><circle cx="95.2176873419865%" cy="32.572308191747176%" r="0.9" fill="#000" opacity="0.023"/><circle cx="27.11625547081572%" cy="77.59959058175008%" r="0.9" fill="#000" opacity="0.011"/><circle cx="96.12832825925808%" cy="3.5795780035184244%" r="0.9" fill="#000" opacity="0.037"/>
  
    <g transform="translate(500.0,575.0)" opacity="0.9">
      <path d="M -74.39999999999999 -285.2
               C -74.39999999999999 -341.0 74.39999999999999 -341.0 74.39999999999999 -285.2
               L 62.0 -248.0
               C 210.8 -186.0 248.0 31.0 210.8 173.60000000000002
               C 173.60000000000002 297.59999999999997 -173.60000000000002 297.59999999999997 -210.8 173.60000000000002
               C -248.0 31.0 -210.8 -186.0 -62.0 -248.0
               Z"
            fill="#dac9af" stroke="#94795a" stroke-width="7.44"/>
      <rect x="-99.2" y="-359.59999999999997" width="198.4" height="62.0" rx="18.599999999999998"
            fill="#94795a" opacity="0.55"/>
      <ellipse cx="0" cy="37.199999999999996" rx="99.2" ry="124.0" fill="#94795a" opacity="0.18"/>
    </g>
  <rect width="1000" height="1250" fill="url(#vig)"/>
  <text x="50%" y="1162" text-anchor="middle"
        font-family="Georgia, 'Times New Roman', serif" font-size="30"
        letter-spacing="3" fill="#94795a" opacity="0.85">GUARDIAN SCENT</text>
</svg>