<svg xmlns="http://www.w3.org/2000/svg" width="1000" height="1250" viewBox="0 0 1000 1250" role="img" aria-label="BLUE STONE placeholder">
  <defs>
    <linearGradient id="bg" x1="0" y1="0" x2="0.4" y2="1">
      <stop offset="0" stop-color="#dde6ea"/>
      <stop offset="1" stop-color="#b9ccd6"/>
    </linearGradient>
    <radialGradient id="vig" cx="0.5" cy="0.42" r="0.75">
      <stop offset="0.55" stop-color="#000" stop-opacity="0"/>
      <stop offset="1" stop-color="#000" stop-opacity="0.10"/>
    </radialGradient>
  </defs>
  <rect width="1000" height="1250" fill="url(#bg)"/>
  <circle cx="20.367044742105158%" cy="9.269342184833151%" r="0.9" fill="#000" opacity="0.033"/><circle cx="58.61294218137865%" cy="63.440921072983244%" r="0.9" fill="#000" opacity="0.018"/><circle cx="45.126484018795466%" cy="88.83693290473246%" r="0.9" fill="#000" opacity="0.041"/><circle cx="26.472725338019576%" cy="27.283011652347668%" r="0.9" fill="#000" opacity="0.004"/><circle cx="73.15481986397349%" cy="4.104358686522525%" r="0.9" fill="#000" opacity="0.034"/><circle cx="95.1939128259082%" cy="84.67770172755084%" r="0.9" fill="#000" opacity="0.019"/><circle cx="80.90952493694098%" cy="13.145593960467172%" r="0.9" fill="#000" opacity="0.038"/><circle cx="18.06513373130042%" cy="67.93580433501637%" r="0.9" fill="#000" opacity="0.001"/><circle cx="50.48094785854935%" cy="92.7342703714037%" r="0.9" fill="#000" opacity="0.011"/><circle cx="10.281913475096992%" cy="42.41027018035128%" r="0.9" fill="#000" opacity="0.000"/><circle cx="8.30656159198837%" cy="65.11894774474585%" r="0.9" fill="#000" opacity="0.049"/><circle cx="97.24722879224234%" cy="80.99478300565029%" r="0.9" fill="#000" opacity="0.022"/><circle cx="78.33859319584685%" cy="73.8704517399632%" r="0.9" fill="#000" opacity="0.038"/><circle cx="47.757246584748%" cy="74.88723918364433%" r="0.9" fill="#000" opacity="0.017"/><circle cx="27.50720593819248%" cy="17.597216072115394%" r="0.9" fill="#000" opacity="0.019"/><circle cx="43.91323842653869%" cy="31.943590689830692%" r="0.9" fill="#000" opacity="0.044"/><circle cx="53.2151174326365%" cy="42.38104857472984%" r="0.9" fill="#000" opacity="0.048"/><circle cx="88.53659998537553%" cy="5.661977452722089%" r="0.9" fill="#000" opacity="0.017"/><circle cx="69.11315880608062%" cy="42.88737097880051%" r="0.9" fill="#000" opacity="0.048"/><circle cx="72.64044149200045%" cy="93.08544460265531%" r="0.9" fill="#000" opacity="0.034"/><circle cx="19.510640428177105%" cy="5.626848775299909%" r="0.9" fill="#000" opacity="0.020"/><circle cx="16.11811601782397%" cy="55.74962806330368%" r="0.9" fill="#000" opacity="0.038"/><circle cx="55.896103308494304%" cy="70.70295728366727%" r="0.9" fill="#000" opacity="0.006"/><circle cx="99.26842542406236%" cy="99.36330583580087%" r="0.9" fill="#000" opacity="0.015"/><circle cx="67.7812734283019%" cy="68.3797323541899%" r="0.9" fill="#000" opacity="0.032"/><circle cx="28.852872752810597%" cy="38.018121659828395%" r="0.9" fill="#000" opacity="0.018"/><circle cx="30.168643220686665%" cy="87.23390968742174%" r="0.9" fill="#000" opacity="0.035"/><circle cx="63.70575100561212%" cy="0.49395294123095734%" r="0.9" fill="#000" opacity="0.006"/><circle cx="49.04877668884351%" cy="73.9226400755266%" r="0.9" fill="#000" opacity="0.020"/><circle cx="78.99830417562836%" cy="15.49841149965544%" r="0.9" fill="#000" opacity="0.036"/><circle cx="94.40336717263628%" cy="83.93610836238362%" r="0.9" fill="#000" opacity="0.035"/><circle cx="8.203962724773117%" cy="31.410403252130724%" r="0.9" fill="#000" opacity="0.019"/><circle cx="1.2751877907446807%" cy="30.373128911314407%" r="0.9" fill="#000" opacity="0.048"/><circle cx="42.87466712411803%" cy="76.76644379641009%" r="0.9" fill="#000" opacity="0.010"/><circle cx="15.587594767124457%" cy="7.725133066176637%" r="0.9" fill="#000" opacity="0.018"/><circle cx="85.19367387972162%" cy="73.57453378159424%" r="0.9" fill="#000" opacity="0.008"/><circle cx="37.915583997703294%" cy="20.797321982081474%" r="0.9" fill="#000" opacity="0.020"/><circle cx="46.58923032879425%" cy="86.30374655934948%" r="0.9" fill="#000" opacity="0.003"/><circle cx="59.58634361850934%" cy="38.52490352780622%" r="0.9" fill="#000" opacity="0.033"/><circle cx="85.6830396388392%" cy="25.54258139246228%" r="0.9" fill="#000" opacity="0.024"/><circle cx="94.20077892739137%" cy="63.800850777921795%" r="0.9" fill="#000" opacity="0.024"/><circle cx="31.34878471250714%" cy="58.17880864726375%" r="0.9" fill="#000" opacity="0.033"/><circle cx="48.1181313453151%" cy="25.857908940601682%" r="0.9" fill="#000" opacity="0.020"/><circle cx="12.883560018788852%" cy="34.003532796384285%" r="0.9" fill="#000" opacity="0.035"/><circle cx="90.857601120912%" cy="34.9472913102827%" r="0.9" fill="#000" opacity="0.018"/><circle cx="65.95808778273556%" cy="84.87657353019826%" r="0.9" fill="#000" opacity="0.013"/><circle cx="94.26885658263402%" cy="5.593795168142557%" r="0.9" fill="#000" opacity="0.040"/><circle cx="16.197996608014144%" cy="51.47870355032802%" r="0.9" fill="#000" opacity="0.010"/><circle cx="72.277957994216%" cy="17.247586464515628%" r="0.9" fill="#000" opacity="0.025"/><circle cx="13.182015300606341%" cy="22.75349222630022%" r="0.9" fill="#000" opacity="0.017"/><circle cx="49.70126168195299%" cy="43.273940970013%" r="0.9" fill="#000" opacity="0.041"/><circle cx="16.72044481086319%" cy="62.04086810397034%" r="0.9" fill="#000" opacity="0.001"/><circle cx="47.66660128097387%" cy="50.011582934198394%" r="0.9" fill="#000" opacity="0.042"/><circle cx="31.68688532639322%" cy="24.634896610562674%" r="0.9" fill="#000" opacity="0.002"/><circle cx="75.18098624034786%" cy="85.58658169785524%" r="0.9" fill="#000" opacity="0.013"/><circle cx="49.95710595405324%" cy="47.943761202086655%" r="0.9" fill="#000" opacity="0.016"/><circle cx="88.04882047961692%" cy="47.74201127187994%" r="0.9" fill="#000" opacity="0.016"/><circle cx="69.62493180466667%" cy="75.41907949916519%" r="0.9" fill="#000" opacity="0.038"/><circle cx="85.3528244980567%" cy="5.261839407539037%" r="0.9" fill="#000" opacity="0.020"/><circle cx="11.755759993270964%" cy="40.99994114574434%" r="0.9" fill="#000" opacity="0.028"/><circle cx="98.3557201787162%" cy="81.86555609323064%" r="0.9" fill="#000" opacity="0.028"/><circle cx="66.86212266298894%" cy="76.16833096086204%" r="0.9" fill="#000" opacity="0.042"/><circle cx="61.600050326955326%" cy="0.19606304408769093%" r="0.9" fill="#000" opacity="0.038"/><circle cx="71.8702618090548%" cy="68.23498081941767%" r="0.9" fill="#000" opacity="0.028"/><circle cx="97.21961852264984%" cy="77.12425906662955%" r="0.9" fill="#000" opacity="0.031"/><circle cx="15.397852486323549%" cy="27.820734091438048%" r="0.9" fill="#000" opacity="0.045"/><circle cx="38.78641229774152%" cy="20.12417668145484%" r="0.9" fill="#000" opacity="0.030"/><circle cx="23.00993261355927%" cy="64.9331027665322%" r="0.9" fill="#000" opacity="0.009"/><circle cx="14.146340441909967%" cy="22.121783077532264%" r="0.9" fill="#000" opacity="0.027"/><circle cx="91.00849499781796%" cy="3.416695454594443%" r="0.9" fill="#000" opacity="0.045"/><circle cx="9.802809667488699%" cy="57.124047762530004%" r="0.9" fill="#000" opacity="0.036"/><circle cx="31.18144776694183%" cy="8.546667583723632%" r="0.9" fill="#000" opacity="0.048"/><circle cx="89.43066097164827%" cy="22.707113985678063%" r="0.9" fill="#000" opacity="0.012"/><circle cx="38.10433698075354%" cy="2.4781302959166807%" r="0.9" fill="#000" opacity="0.030"/><circle cx="94.87009148236032%" cy="64.85552090868751%" r="0.9" fill="#000" opacity="0.040"/><circle cx="52.09201689637049%" cy="0.10582947206093651%" r="0.9" fill="#000" opacity="0.043"/><circle cx="38.09579899849449%" cy="24.768912333346982%" r="0.9" fill="#000" opacity="0.004"/><circle cx="49.60176533102736%" cy="12.551003977586305%" r="0.9" fill="#000" opacity="0.034"/><circle cx="94.22983826424158%" cy="9.17732511052055%" r="0.9" fill="#000" opacity="0.005"/><circle cx="1.8628192351696993%" cy="44.08216741240052%" r="0.9" fill="#000" opacity="0.024"/><circle cx="71.76759146553157%" cy="88.80878625052618%" r="0.9" fill="#000" opacity="0.013"/><circle cx="86.67491337079593%" cy="75.2119885856652%" r="0.9" fill="#000" opacity="0.012"/><circle cx="66.52910063681071%" cy="76.15538336290236%" r="0.9" fill="#000" opacity="0.022"/><circle cx="60.70215428512758%" cy="29.755401266668326%" r="0.9" fill="#000" opacity="0.049"/><circle cx="3.870690221740647%" cy="54.44074079316354%" r="0.9" fill="#000" opacity="0.040"/><circle cx="94.85055725047926%" cy="12.580376526527392%" r="0.9" fill="#000" opacity="0.043"/><circle cx="74.47252962575726%" cy="6.41396713825192%" r="0.9" fill="#000" opacity="0.021"/><circle cx="5.701570637270692%" cy="33.37784102291745%" r="0.9" fill="#000" opacity="0.050"/><circle cx="55.77053399135781%" cy="35.82828114010208%" r="0.9" fill="#000" opacity="0.048"/><circle cx="99.58087580810873%" cy="22.01036078776667%" r="0.9" fill="#000" opacity="0.033"/>
  
    <g transform="translate(500.0,575.0)" opacity="0.9">
      <path d="M -74.39999999999999 -285.2
               C -74.39999999999999 -341.0 74.39999999999999 -341.0 74.39999999999999 -285.2
               L 62.0 -248.0
               C 210.8 -186.0 248.0 31.0 210.8 173.60000000000002
               C 173.60000000000002 297.59999999999997 -173.60000000000002 297.59999999999997 -210.8 173.60000000000002
               C -248.0 31.0 -210.8 -186.0 -62.0 -248.0
               Z"
            fill="#b9ccd6" stroke="#5b7c8c" stroke-width="7.44"/>
      <rect x="-99.2" y="-359.59999999999997" width="198.4" height="62.0" rx="18.599999999999998"
            fill="#5b7c8c" opacity="0.55"/>
      <ellipse cx="0" cy="37.199999999999996" rx="99.2" ry="124.0" fill="#5b7c8c" opacity="0.18"/>
    </g>
  <rect width="1000" height="1250" fill="url(#vig)"/>
  <text x="50%" y="1162" text-anchor="middle"
        font-family="Georgia, 'Times New Roman', serif" font-size="30"
        letter-spacing="3" fill="#5b7c8c" opacity="0.85">BLUE STONE</text>
</svg>