<svg xmlns="http://www.w3.org/2000/svg" width="1000" height="1250" viewBox="0 0 1000 1250" role="img" aria-label="QUIET RELIC · II placeholder">
  <defs>
    <linearGradient id="bg" x1="0" y1="0" x2="0.4" y2="1">
      <stop offset="0" stop-color="#d9d6cf"/>
      <stop offset="1" stop-color="#bdb8ad"/>
    </linearGradient>
    <radialGradient id="vig" cx="0.5" cy="0.42" r="0.75">
      <stop offset="0.55" stop-color="#000" stop-opacity="0"/>
      <stop offset="1" stop-color="#000" stop-opacity="0.10"/>
    </radialGradient>
  </defs>
  <rect width="1000" height="1250" fill="url(#bg)"/>
  <circle cx="90.9769237923872%" cy="29.40790407586785%" r="0.9" fill="#000" opacity="0.023"/><circle cx="13.63587105435612%" cy="99.50607203462695%" r="0.9" fill="#000" opacity="0.008"/><circle cx="67.39395534640641%" cy="59.802555454168086%" r="0.9" fill="#000" opacity="0.036"/><circle cx="41.05259240114544%" cy="38.008929963879886%" r="0.9" fill="#000" opacity="0.020"/><circle cx="7.255160439549668%" cy="31.976488807713288%" r="0.9" fill="#000" opacity="0.014"/><circle cx="78.08225146632043%" cy="44.58428536123128%" r="0.9" fill="#000" opacity="0.005"/><circle cx="3.1698349795664105%" cy="34.597680183266675%" r="0.9" fill="#000" opacity="0.049"/><circle cx="2.5428043793231825%" cy="45.075250977463334%" r="0.9" fill="#000" opacity="0.038"/><circle cx="12.102284654136664%" cy="80.34348178112408%" r="0.9" fill="#000" opacity="0.044"/><circle cx="82.64319156474815%" cy="13.382806896405263%" r="0.9" fill="#000" opacity="0.047"/><circle cx="22.893467247154543%" cy="79.97316351575218%" r="0.9" fill="#000" opacity="0.040"/><circle cx="52.31158762705231%" cy="75.19530284486808%" r="0.9" fill="#000" opacity="0.039"/><circle cx="80.10730426298238%" cy="30.947535594963092%" r="0.9" fill="#000" opacity="0.048"/><circle cx="62.19119122845997%" cy="35.668072803707695%" r="0.9" fill="#000" opacity="0.006"/><circle cx="83.96547522684918%" cy="98.50143908168874%" r="0.9" fill="#000" opacity="0.044"/><circle cx="65.88939135801388%" cy="72.87370882485304%" r="0.9" fill="#000" opacity="0.020"/><circle cx="15.068935974815856%" cy="92.7398476234351%" r="0.9" fill="#000" opacity="0.039"/><circle cx="54.61539298922696%" cy="87.3089697316432%" r="0.9" fill="#000" opacity="0.008"/><circle cx="10.075764951673992%" cy="27.248879345801736%" r="0.9" fill="#000" opacity="0.045"/><circle cx="35.73265808032725%" cy="9.147123055004226%" r="0.9" fill="#000" opacity="0.009"/><circle cx="11.664326547963256%" cy="89.73238949726361%" r="0.9" fill="#000" opacity="0.049"/><circle cx="5.799851612269591%" cy="66.71049665518453%" r="0.9" fill="#000" opacity="0.011"/><circle cx="85.34405538568106%" cy="25.926574297691975%" r="0.9" fill="#000" opacity="0.037"/><circle cx="5.368158173202698%" cy="57.261311883195845%" r="0.9" fill="#000" opacity="0.021"/><circle cx="12.749082643088395%" cy="92.1710185626215%" r="0.9" fill="#000" opacity="0.023"/><circle cx="73.98526524966321%" cy="18.849857451840656%" r="0.9" fill="#000" opacity="0.016"/><circle cx="88.03955625169945%" cy="51.96327988765751%" r="0.9" fill="#000" opacity="0.048"/><circle cx="68.34296705966379%" cy="98.25263245445096%" r="0.9" fill="#000" opacity="0.017"/><circle cx="51.940971890626855%" cy="90.60790880470351%" r="0.9" fill="#000" opacity="0.002"/><circle cx="54.11036986016742%" cy="1.7201613028424045%" r="0.9" fill="#000" opacity="0.012"/><circle cx="42.183992082685926%" cy="24.926806592127914%" r="0.9" fill="#000" opacity="0.004"/><circle cx="7.822573049364001%" cy="66.82879075902683%" r="0.9" fill="#000" opacity="0.043"/><circle cx="60.24971782150437%" cy="33.81822128580205%" r="0.9" fill="#000" opacity="0.036"/><circle cx="2.97733231615549%" cy="77.19170970602165%" r="0.9" fill="#000" opacity="0.028"/><circle cx="50.60214640051113%" cy="59.51993106944343%" r="0.9" fill="#000" opacity="0.006"/><circle cx="47.13730430215225%" cy="53.71831261218196%" r="0.9" fill="#000" opacity="0.022"/><circle cx="51.50037193889593%" cy="38.05955462151781%" r="0.9" fill="#000" opacity="0.030"/><circle cx="35.724626651248094%" cy="94.22314934445238%" r="0.9" fill="#000" opacity="0.013"/><circle cx="77.86817743919858%" cy="54.57881456399002%" r="0.9" fill="#000" opacity="0.044"/><circle cx="77.36552384631405%" cy="46.72371893298754%" r="0.9" fill="#000" opacity="0.050"/><circle cx="82.34425685144659%" cy="15.99225732839189%" r="0.9" fill="#000" opacity="0.015"/><circle cx="24.37355688995948%" cy="45.67684371593208%" r="0.9" fill="#000" opacity="0.026"/><circle cx="50.29407407507652%" cy="89.47278114830168%" r="0.9" fill="#000" opacity="0.018"/><circle cx="85.35674969714293%" cy="44.163730566917955%" r="0.9" fill="#000" opacity="0.034"/><circle cx="13.702114637730878%" cy="74.75669259744376%" r="0.9" fill="#000" opacity="0.012"/><circle cx="71.01065044439706%" cy="33.545456049881764%" r="0.9" fill="#000" opacity="0.040"/><circle cx="77.14078880531034%" cy="8.287478131035597%" r="0.9" fill="#000" opacity="0.040"/><circle cx="58.25515675227234%" cy="14.913754813339008%" r="0.9" fill="#000" opacity="0.036"/><circle cx="46.62138345457451%" cy="98.7480521461855%" r="0.9" fill="#000" opacity="0.031"/><circle cx="18.628666594653552%" cy="61.11637280332211%" r="0.9" fill="#000" opacity="0.004"/><circle cx="19.889073876619378%" cy="10.293575864755567%" r="0.9" fill="#000" opacity="0.003"/><circle cx="49.09978400041294%" cy="98.20265675739887%" r="0.9" fill="#000" opacity="0.023"/><circle cx="27.315648119797775%" cy="2.4141473518800027%" r="0.9" fill="#000" opacity="0.022"/><circle cx="35.72410292528269%" cy="10.481482232422934%" r="0.9" fill="#000" opacity="0.040"/><circle cx="70.96691079698671%" cy="3.272572514155214%" r="0.9" fill="#000" opacity="0.029"/><circle cx="47.97880268022469%" cy="86.7164633298163%" r="0.9" fill="#000" opacity="0.008"/><circle cx="15.860807036622603%" cy="83.19614685934833%" r="0.9" fill="#000" opacity="0.012"/><circle cx="42.120521447021794%" cy="13.287433668343397%" r="0.9" fill="#000" opacity="0.011"/><circle cx="84.43642542612237%" cy="12.95475252702719%" r="0.9" fill="#000" opacity="0.039"/><circle cx="20.202753072697544%" cy="71.03324447173232%" r="0.9" fill="#000" opacity="0.032"/><circle cx="80.59004829536387%" cy="78.54225236557473%" r="0.9" fill="#000" opacity="0.029"/><circle cx="95.4246167005901%" cy="37.717395617368766%" r="0.9" fill="#000" opacity="0.016"/><circle cx="64.56620540051743%" cy="18.956327534548656%" r="0.9" fill="#000" opacity="0.016"/><circle cx="3.549659173419739%" cy="59.25777153267813%" r="0.9" fill="#000" opacity="0.026"/><circle cx="41.11298324438321%" cy="34.823819034105554%" r="0.9" fill="#000" opacity="0.021"/><circle cx="29.76579313996581%" cy="38.96809088608866%" r="0.9" fill="#000" opacity="0.026"/><circle cx="92.39778480882312%" cy="4.41478107276152%" r="0.9" fill="#000" opacity="0.034"/><circle cx="44.58349296887012%" cy="97.06817755837523%" r="0.9" fill="#000" opacity="0.035"/><circle cx="43.164281222308986%" cy="84.385118722356%" r="0.9" fill="#000" opacity="0.009"/><circle cx="34.73127594480058%" cy="76.06552197281067%" r="0.9" fill="#000" opacity="0.049"/><circle cx="52.161887493822654%" cy="86.10165572668825%" r="0.9" fill="#000" opacity="0.046"/><circle cx="79.17038186984581%" cy="32.43767680106669%" r="0.9" fill="#000" opacity="0.012"/><circle cx="77.60970390586817%" cy="77.4228265238025%" r="0.9" fill="#000" opacity="0.013"/><circle cx="22.80468612229195%" cy="39.82187544872953%" r="0.9" fill="#000" opacity="0.015"/><circle cx="16.460053923421793%" cy="84.85748579685466%" r="0.9" fill="#000" opacity="0.034"/><circle cx="38.6739574829977%" cy="91.316427431367%" r="0.9" fill="#000" opacity="0.032"/><circle cx="83.3720506983963%" cy="23.401022873647047%" r="0.9" fill="#000" opacity="0.001"/><circle cx="19.542931497341197%" cy="10.570361243690007%" r="0.9" fill="#000" opacity="0.040"/><circle cx="0.7842539935550286%" cy="85.32039146674764%" r="0.9" fill="#000" opacity="0.049"/><circle cx="48.48007069957313%" cy="95.35499523482778%" r="0.9" fill="#000" opacity="0.043"/><circle cx="8.453043156844808%" cy="69.766861815875%" r="0.9" fill="#000" opacity="0.036"/><circle cx="19.136482409362333%" cy="2.6289454695386127%" r="0.9" fill="#000" opacity="0.005"/><circle cx="24.736019364092922%" cy="97.20107877009478%" r="0.9" fill="#000" opacity="0.007"/><circle cx="29.069492404535914%" cy="71.87047306408331%" r="0.9" fill="#000" opacity="0.032"/><circle cx="6.609837416694586%" cy="23.83326626275849%" r="0.9" fill="#000" opacity="0.025"/><circle cx="24.945531921241738%" cy="23.05345380738455%" r="0.9" fill="#000" opacity="0.026"/><circle cx="75.005199745037%" cy="98.91159925706292%" r="0.9" fill="#000" opacity="0.037"/><circle cx="35.89381770631769%" cy="99.97013642784303%" r="0.9" fill="#000" opacity="0.044"/><circle cx="79.93761722801797%" cy="61.04808931505457%" r="0.9" fill="#000" opacity="0.021"/><circle cx="81.12597838539499%" cy="5.440001224682223%" r="0.9" fill="#000" opacity="0.034"/>
  
    <g transform="translate(500.0,575.0)" opacity="0.9">
      <path d="M -74.39999999999999 -285.2
               C -74.39999999999999 -341.0 74.39999999999999 -341.0 74.39999999999999 -285.2
               L 62.0 -248.0
               C 210.8 -186.0 248.0 31.0 210.8 173.60000000000002
               C 173.60000000000002 297.59999999999997 -173.60000000000002 297.59999999999997 -210.8 173.60000000000002
               C -248.0 31.0 -210.8 -186.0 -62.0 -248.0
               Z"
            fill="#bdb8ad" stroke="#3a3733" stroke-width="7.44"/>
      <rect x="-99.2" y="-359.59999999999997" width="198.4" height="62.0" rx="18.599999999999998"
            fill="#3a3733" opacity="0.55"/>
      <ellipse cx="0" cy="37.199999999999996" rx="99.2" ry="124.0" fill="#3a3733" opacity="0.18"/>
    </g>
  <rect width="1000" height="1250" fill="url(#vig)"/>
  <text x="50%" y="1162" text-anchor="middle"
        font-family="Georgia, 'Times New Roman', serif" font-size="30"
        letter-spacing="3" fill="#3a3733" opacity="0.85">QUIET RELIC · II</text>
</svg>