<svg xmlns="http://www.w3.org/2000/svg" width="1000" height="1250" viewBox="0 0 1000 1250" role="img" aria-label="NOMADIC SILVER · III placeholder">
  <defs>
    <linearGradient id="bg" x1="0" y1="0" x2="0.4" y2="1">
      <stop offset="0" stop-color="#e9e2d6"/>
      <stop offset="1" stop-color="#cdbfa9"/>
    </linearGradient>
    <radialGradient id="vig" cx="0.5" cy="0.42" r="0.75">
      <stop offset="0.55" stop-color="#000" stop-opacity="0"/>
      <stop offset="1" stop-color="#000" stop-opacity="0.10"/>
    </radialGradient>
  </defs>
  <rect width="1000" height="1250" fill="url(#bg)"/>
  <circle cx="52.36768239490694%" cy="29.45106100570516%" r="0.9" fill="#000" opacity="0.042"/><circle cx="96.7840967206878%" cy="64.55717257704859%" r="0.9" fill="#000" opacity="0.033"/><circle cx="43.47337329912838%" cy="28.364918603821053%" r="0.9" fill="#000" opacity="0.049"/><circle cx="97.41398518640827%" cy="18.902631300258943%" r="0.9" fill="#000" opacity="0.044"/><circle cx="97.3733058115092%" cy="26.881838219798194%" r="0.9" fill="#000" opacity="0.017"/><circle cx="69.501992881233%" cy="53.85651461878873%" r="0.9" fill="#000" opacity="0.009"/><circle cx="51.545445194740346%" cy="98.19219465577682%" r="0.9" fill="#000" opacity="0.017"/><circle cx="30.818280857303538%" cy="35.28125278165093%" r="0.9" fill="#000" opacity="0.021"/><circle cx="58.0850794628029%" cy="61.11025926010474%" r="0.9" fill="#000" opacity="0.046"/><circle cx="64.9236136528024%" cy="29.66442703504818%" r="0.9" fill="#000" opacity="0.041"/><circle cx="37.42836787636885%" cy="67.76904814291856%" r="0.9" fill="#000" opacity="0.024"/><circle cx="20.3218896938286%" cy="90.87362400987057%" r="0.9" fill="#000" opacity="0.016"/><circle cx="49.39116136746772%" cy="94.4867221294368%" r="0.9" fill="#000" opacity="0.006"/><circle cx="80.34472634969718%" cy="65.867091034177%" r="0.9" fill="#000" opacity="0.045"/><circle cx="91.31311727910312%" cy="16.01723237673065%" r="0.9" fill="#000" opacity="0.006"/><circle cx="90.1271999262264%" cy="49.786268493104934%" r="0.9" fill="#000" opacity="0.030"/><circle cx="56.307716220618744%" cy="27.929441230717313%" r="0.9" fill="#000" opacity="0.037"/><circle cx="41.3683933778761%" cy="25.128322342057395%" r="0.9" fill="#000" opacity="0.045"/><circle cx="83.59150914523518%" cy="45.51339878522608%" r="0.9" fill="#000" opacity="0.009"/><circle cx="45.046960291716246%" cy="79.99106454857929%" r="0.9" fill="#000" opacity="0.024"/><circle cx="77.77160586313107%" cy="71.84119155813991%" r="0.9" fill="#000" opacity="0.019"/><circle cx="12.941455604149986%" cy="77.76292592130332%" r="0.9" fill="#000" opacity="0.023"/><circle cx="23.493953399474353%" cy="31.540229788794637%" r="0.9" fill="#000" opacity="0.032"/><circle cx="38.392687236235105%" cy="71.13363967937921%" r="0.9" fill="#000" opacity="0.013"/><circle cx="13.030344998273636%" cy="67.02304920326628%" r="0.9" fill="#000" opacity="0.042"/><circle cx="55.37134174086988%" cy="52.430413086036495%" r="0.9" fill="#000" opacity="0.019"/><circle cx="81.59000544289836%" cy="95.43072853924596%" r="0.9" fill="#000" opacity="0.034"/><circle cx="69.13936047507012%" cy="32.136539520581586%" r="0.9" fill="#000" opacity="0.046"/><circle cx="45.1571330449328%" cy="42.700272939152406%" r="0.9" fill="#000" opacity="0.030"/><circle cx="74.99926478942045%" cy="1.567609841660489%" r="0.9" fill="#000" opacity="0.044"/><circle cx="78.19847337653292%" cy="53.49833811835414%" r="0.9" fill="#000" opacity="0.034"/><circle cx="2.6828607104588675%" cy="47.30768014546428%" r="0.9" fill="#000" opacity="0.015"/><circle cx="55.07407343376482%" cy="99.54699281603757%" r="0.9" fill="#000" opacity="0.035"/><circle cx="45.27789799339883%" cy="91.52854765885206%" r="0.9" fill="#000" opacity="0.037"/><circle cx="83.81000853650252%" cy="81.97004756499418%" r="0.9" fill="#000" opacity="0.012"/><circle cx="89.19680465710778%" cy="1.640576921536041%" r="0.9" fill="#000" opacity="0.021"/><circle cx="43.92647055700086%" cy="78.9405465449179%" r="0.9" fill="#000" opacity="0.046"/><circle cx="49.0047784577482%" cy="27.649900444550923%" r="0.9" fill="#000" opacity="0.040"/><circle cx="69.1796013144209%" cy="56.400174791416546%" r="0.9" fill="#000" opacity="0.032"/><circle cx="18.868057674263707%" cy="1.6731009478238357%" r="0.9" fill="#000" opacity="0.039"/><circle cx="18.52814940828045%" cy="89.90975728626648%" r="0.9" fill="#000" opacity="0.011"/><circle cx="59.5796576325075%" cy="30.395632054658073%" r="0.9" fill="#000" opacity="0.010"/><circle cx="6.368132550108108%" cy="61.38208738844268%" r="0.9" fill="#000" opacity="0.006"/><circle cx="46.547394268236%" cy="18.70465540852132%" r="0.9" fill="#000" opacity="0.001"/><circle cx="94.33133096644195%" cy="4.252854526154703%" r="0.9" fill="#000" opacity="0.050"/><circle cx="23.050768010539446%" cy="95.78333610611207%" r="0.9" fill="#000" opacity="0.045"/><circle cx="51.04552016431636%" cy="26.490637619692492%" r="0.9" fill="#000" opacity="0.008"/><circle cx="79.53683834361699%" cy="70.06979015989427%" r="0.9" fill="#000" opacity="0.006"/><circle cx="39.45217001302906%" cy="91.18995396858507%" r="0.9" fill="#000" opacity="0.049"/><circle cx="3.2844039324278484%" cy="32.320127061829936%" r="0.9" fill="#000" opacity="0.042"/><circle cx="76.73022663652974%" cy="49.74163000049514%" r="0.9" fill="#000" opacity="0.007"/><circle cx="71.43761623028794%" cy="54.42776612195005%" r="0.9" fill="#000" opacity="0.017"/><circle cx="11.511102212292235%" cy="28.912565827955174%" r="0.9" fill="#000" opacity="0.003"/><circle cx="82.14165317176263%" cy="51.93702212711375%" r="0.9" fill="#000" opacity="0.038"/><circle cx="99.34487166956524%" cy="29.256798432699902%" r="0.9" fill="#000" opacity="0.033"/><circle cx="79.31284597594657%" cy="76.23792153951017%" r="0.9" fill="#000" opacity="0.042"/><circle cx="37.38851283281978%" cy="18.288790674309297%" r="0.9" fill="#000" opacity="0.015"/><circle cx="29.016627786639916%" cy="48.58316365670283%" r="0.9" fill="#000" opacity="0.041"/><circle cx="91.52940281935157%" cy="23.2001654582363%" r="0.9" fill="#000" opacity="0.040"/><circle cx="84.93951405804641%" cy="96.45642327458572%" r="0.9" fill="#000" opacity="0.015"/><circle cx="41.437820827766345%" cy="4.069978832290588%" r="0.9" fill="#000" opacity="0.049"/><circle cx="31.27539634110681%" cy="93.28269998967585%" r="0.9" fill="#000" opacity="0.018"/><circle cx="68.84239024675213%" cy="31.611749112663567%" r="0.9" fill="#000" opacity="0.023"/><circle cx="97.21648126272842%" cy="71.72844895415842%" r="0.9" fill="#000" opacity="0.031"/><circle cx="44.21663021826062%" cy="46.11538011231341%" r="0.9" fill="#000" opacity="0.024"/><circle cx="17.48064296242098%" cy="34.60220100159188%" r="0.9" fill="#000" opacity="0.049"/><circle cx="11.261848971293764%" cy="75.40211508913063%" r="0.9" fill="#000" opacity="0.011"/><circle cx="83.43067381758172%" cy="14.511089363370665%" r="0.9" fill="#000" opacity="0.021"/><circle cx="5.54789650460652%" cy="69.21071904336782%" r="0.9" fill="#000" opacity="0.042"/><circle cx="43.31295698473483%" cy="78.11522901804443%" r="0.9" fill="#000" opacity="0.028"/><circle cx="19.390530826158503%" cy="16.860522447372528%" r="0.9" fill="#000" opacity="0.013"/><circle cx="94.51827815342493%" cy="34.57208450819302%" r="0.9" fill="#000" opacity="0.002"/><circle cx="6.02522867710662%" cy="10.836522728616826%" r="0.9" fill="#000" opacity="0.030"/><circle cx="43.65847303277498%" cy="79.48521057316313%" r="0.9" fill="#000" opacity="0.025"/><circle cx="55.5592331500702%" cy="41.99150722334011%" r="0.9" fill="#000" opacity="0.049"/><circle cx="10.024609782810302%" cy="33.58655639845929%" r="0.9" fill="#000" opacity="0.031"/><circle cx="80.51510211635254%" cy="78.41359646303302%" r="0.9" fill="#000" opacity="0.032"/><circle cx="15.168077292797044%" cy="73.19116000430785%" r="0.9" fill="#000" opacity="0.025"/><circle cx="54.0971141736999%" cy="95.01859807897368%" r="0.9" fill="#000" opacity="0.023"/><circle cx="7.76285636736922%" cy="93.07864943322521%" r="0.9" fill="#000" opacity="0.007"/><circle cx="71.44118897926467%" cy="75.43482619572826%" r="0.9" fill="#000" opacity="0.021"/><circle cx="85.83876151507572%" cy="83.57682337080587%" r="0.9" fill="#000" opacity="0.004"/><circle cx="29.556015948968994%" cy="71.46276204583167%" r="0.9" fill="#000" opacity="0.045"/><circle cx="50.61325000511624%" cy="67.12028277302099%" r="0.9" fill="#000" opacity="0.018"/><circle cx="30.039017681938983%" cy="99.33054074895755%" r="0.9" fill="#000" opacity="0.047"/><circle cx="14.47513441829158%" cy="43.797155990686974%" r="0.9" fill="#000" opacity="0.032"/><circle cx="89.05186740411345%" cy="77.657022090004%" r="0.9" fill="#000" opacity="0.003"/><circle cx="29.621241502444494%" cy="22.139430348469702%" r="0.9" fill="#000" opacity="0.032"/><circle cx="0.6945889680354589%" cy="51.46661846966063%" r="0.9" fill="#000" opacity="0.009"/><circle cx="47.29776647535835%" cy="71.65690820545858%" r="0.9" fill="#000" opacity="0.038"/>
  
    <g transform="translate(500.0,575.0)" opacity="0.9">
      <path d="M -74.39999999999999 -285.2
               C -74.39999999999999 -341.0 74.39999999999999 -341.0 74.39999999999999 -285.2
               L 62.0 -248.0
               C 210.8 -186.0 248.0 31.0 210.8 173.60000000000002
               C 173.60000000000002 297.59999999999997 -173.60000000000002 297.59999999999997 -210.8 173.60000000000002
               C -248.0 31.0 -210.8 -186.0 -62.0 -248.0
               Z"
            fill="#cdbfa9" stroke="#7c6f59" stroke-width="7.44"/>
      <rect x="-99.2" y="-359.59999999999997" width="198.4" height="62.0" rx="18.599999999999998"
            fill="#7c6f59" opacity="0.55"/>
      <ellipse cx="0" cy="37.199999999999996" rx="99.2" ry="124.0" fill="#7c6f59" opacity="0.18"/>
    </g>
  <rect width="1000" height="1250" fill="url(#vig)"/>
  <text x="50%" y="1162" text-anchor="middle"
        font-family="Georgia, 'Times New Roman', serif" font-size="30"
        letter-spacing="3" fill="#7c6f59" opacity="0.85">NOMADIC SILVER · III</text>
</svg>