<svg xmlns="http://www.w3.org/2000/svg" width="1000" height="1250" viewBox="0 0 1000 1250" role="img" aria-label="MOON SNUFF · II placeholder">
  <defs>
    <linearGradient id="bg" x1="0" y1="0" x2="0.4" y2="1">
      <stop offset="0" stop-color="#e4e6e8"/>
      <stop offset="1" stop-color="#c7ccd1"/>
    </linearGradient>
    <radialGradient id="vig" cx="0.5" cy="0.42" r="0.75">
      <stop offset="0.55" stop-color="#000" stop-opacity="0"/>
      <stop offset="1" stop-color="#000" stop-opacity="0.10"/>
    </radialGradient>
  </defs>
  <rect width="1000" height="1250" fill="url(#bg)"/>
  <circle cx="13.132060068982288%" cy="88.50271493511603%" r="0.9" fill="#000" opacity="0.035"/><circle cx="48.478137466075985%" cy="92.05313146546828%" r="0.9" fill="#000" opacity="0.046"/><circle cx="54.759012431715114%" cy="80.30937959589114%" r="0.9" fill="#000" opacity="0.009"/><circle cx="83.8890552539514%" cy="62.613513689742874%" r="0.9" fill="#000" opacity="0.019"/><circle cx="87.53931251366352%" cy="40.00835640049323%" r="0.9" fill="#000" opacity="0.022"/><circle cx="64.00869906123387%" cy="41.290516871350114%" r="0.9" fill="#000" opacity="0.031"/><circle cx="15.861437274723144%" cy="44.58034803011116%" r="0.9" fill="#000" opacity="0.039"/><circle cx="82.72836370105946%" cy="39.73798856013939%" r="0.9" fill="#000" opacity="0.002"/><circle cx="38.64922191983615%" cy="25.10781614238714%" r="0.9" fill="#000" opacity="0.022"/><circle cx="67.43469195725596%" cy="53.11240340539264%" r="0.9" fill="#000" opacity="0.031"/><circle cx="15.6069150518665%" cy="7.8749996045431985%" r="0.9" fill="#000" opacity="0.032"/><circle cx="6.5886382180218135%" cy="39.434622456684224%" r="0.9" fill="#000" opacity="0.005"/><circle cx="31.242666403038054%" cy="28.13685981336218%" r="0.9" fill="#000" opacity="0.019"/><circle cx="9.0571290184709%" cy="30.70137319723433%" r="0.9" fill="#000" opacity="0.030"/><circle cx="48.37506705962091%" cy="30.285097864594302%" r="0.9" fill="#000" opacity="0.032"/><circle cx="84.60498351741336%" cy="91.50539647204404%" r="0.9" fill="#000" opacity="0.036"/><circle cx="52.80473816918404%" cy="51.57238415112781%" r="0.9" fill="#000" opacity="0.049"/><circle cx="27.11704799678376%" cy="13.336513883186685%" r="0.9" fill="#000" opacity="0.044"/><circle cx="61.73068697666974%" cy="28.275749579829323%" r="0.9" fill="#000" opacity="0.041"/><circle cx="45.96932200609625%" cy="91.50964413782523%" r="0.9" fill="#000" opacity="0.040"/><circle cx="93.54212680002597%" cy="95.64217843486563%" r="0.9" fill="#000" opacity="0.004"/><circle cx="41.085420515867256%" cy="63.99167627506203%" r="0.9" fill="#000" opacity="0.021"/><circle cx="60.614860514237854%" cy="64.25731167553408%" r="0.9" fill="#000" opacity="0.049"/><circle cx="53.40947524804649%" cy="75.99705195342575%" r="0.9" fill="#000" opacity="0.018"/><circle cx="26.438479023360163%" cy="30.24776627667619%" r="0.9" fill="#000" opacity="0.045"/><circle cx="9.514143300417855%" cy="94.76453543668822%" r="0.9" fill="#000" opacity="0.039"/><circle cx="90.50980394444176%" cy="14.368817714170735%" r="0.9" fill="#000" opacity="0.021"/><circle cx="74.64506136463068%" cy="79.59992007726497%" r="0.9" fill="#000" opacity="0.040"/><circle cx="75.31180609843013%" cy="31.426897230242545%" r="0.9" fill="#000" opacity="0.028"/><circle cx="92.18324557068297%" cy="17.819580331748554%" r="0.9" fill="#000" opacity="0.030"/><circle cx="33.70846325087703%" cy="19.903001144040044%" r="0.9" fill="#000" opacity="0.047"/><circle cx="64.85880441846116%" cy="41.66965721521312%" r="0.9" fill="#000" opacity="0.013"/><circle cx="1.7158303579671297%" cy="23.494794107228365%" r="0.9" fill="#000" opacity="0.006"/><circle cx="93.80756755979175%" cy="10.398214578177322%" r="0.9" fill="#000" opacity="0.013"/><circle cx="1.2517780125010147%" cy="57.48865690943881%" r="0.9" fill="#000" opacity="0.033"/><circle cx="66.57095716765502%" cy="37.640874904281084%" r="0.9" fill="#000" opacity="0.039"/><circle cx="93.97062549498172%" cy="35.327998258793144%" r="0.9" fill="#000" opacity="0.031"/><circle cx="23.156145086265354%" cy="25.583309904585438%" r="0.9" fill="#000" opacity="0.029"/><circle cx="61.781386346638314%" cy="4.327830789823716%" r="0.9" fill="#000" opacity="0.037"/><circle cx="87.25446107725709%" cy="38.88594597077593%" r="0.9" fill="#000" opacity="0.032"/><circle cx="51.4647515833928%" cy="80.69742604794638%" r="0.9" fill="#000" opacity="0.045"/><circle cx="93.26901268432984%" cy="37.61665805136795%" r="0.9" fill="#000" opacity="0.031"/><circle cx="70.20176105814492%" cy="78.71658265916028%" r="0.9" fill="#000" opacity="0.027"/><circle cx="65.46060176699518%" cy="18.17970217781498%" r="0.9" fill="#000" opacity="0.018"/><circle cx="99.559281811013%" cy="70.29580509112488%" r="0.9" fill="#000" opacity="0.007"/><circle cx="77.78314566343869%" cy="40.258611085622306%" r="0.9" fill="#000" opacity="0.022"/><circle cx="9.79104474935374%" cy="71.05223300707883%" r="0.9" fill="#000" opacity="0.015"/><circle cx="85.14143571753485%" cy="16.523883052240308%" r="0.9" fill="#000" opacity="0.010"/><circle cx="18.2155264754444%" cy="25.518943637053336%" r="0.9" fill="#000" opacity="0.037"/><circle cx="20.941807893999464%" cy="36.403766966309746%" r="0.9" fill="#000" opacity="0.049"/><circle cx="78.1895416273875%" cy="74.67286261664664%" r="0.9" fill="#000" opacity="0.008"/><circle cx="19.767441886654858%" cy="4.566507122593377%" r="0.9" fill="#000" opacity="0.031"/><circle cx="80.12747302283354%" cy="12.720795833048893%" r="0.9" fill="#000" opacity="0.005"/><circle cx="32.604424821882816%" cy="76.42446557628986%" r="0.9" fill="#000" opacity="0.048"/><circle cx="82.56460166615433%" cy="38.43517259491643%" r="0.9" fill="#000" opacity="0.038"/><circle cx="44.85940662892878%" cy="70.58594310788698%" r="0.9" fill="#000" opacity="0.012"/><circle cx="87.62090115532139%" cy="95.65911198598866%" r="0.9" fill="#000" opacity="0.030"/><circle cx="40.51393108747614%" cy="0.34321136081369996%" r="0.9" fill="#000" opacity="0.014"/><circle cx="47.860319453622665%" cy="21.38784273087474%" r="0.9" fill="#000" opacity="0.005"/><circle cx="30.7708729429375%" cy="99.61244883958929%" r="0.9" fill="#000" opacity="0.027"/><circle cx="2.8468720479366993%" cy="77.8737358026126%" r="0.9" fill="#000" opacity="0.011"/><circle cx="44.34306596192916%" cy="99.19396498233479%" r="0.9" fill="#000" opacity="0.020"/><circle cx="13.517531605252964%" cy="42.208867320172594%" r="0.9" fill="#000" opacity="0.006"/><circle cx="58.20456674624677%" cy="6.088741816449794%" r="0.9" fill="#000" opacity="0.017"/><circle cx="69.43670126555543%" cy="64.57937949408738%" r="0.9" fill="#000" opacity="0.030"/><circle cx="36.62327241998432%" cy="36.55087151391552%" r="0.9" fill="#000" opacity="0.034"/><circle cx="93.00222406909381%" cy="62.8427761208259%" r="0.9" fill="#000" opacity="0.046"/><circle cx="58.661237321059275%" cy="8.077545570692092%" r="0.9" fill="#000" opacity="0.028"/><circle cx="21.776300886659563%" cy="41.4339864539034%" r="0.9" fill="#000" opacity="0.038"/><circle cx="62.48730766432885%" cy="46.86757328569219%" r="0.9" fill="#000" opacity="0.005"/><circle cx="33.36954329969548%" cy="33.47033417465468%" r="0.9" fill="#000" opacity="0.002"/><circle cx="77.1616393068451%" cy="69.28978038489362%" r="0.9" fill="#000" opacity="0.021"/><circle cx="64.22242659495396%" cy="64.06365895967508%" r="0.9" fill="#000" opacity="0.023"/><circle cx="41.32464430772257%" cy="81.97704923128634%" r="0.9" fill="#000" opacity="0.017"/><circle cx="17.363455413638352%" cy="90.40152805992473%" r="0.9" fill="#000" opacity="0.046"/><circle cx="89.78964438809238%" cy="80.1097290277715%" r="0.9" fill="#000" opacity="0.045"/><circle cx="38.247262327980515%" cy="76.92496021748359%" r="0.9" fill="#000" opacity="0.014"/><circle cx="20.878805611046204%" cy="89.1217424505423%" r="0.9" fill="#000" opacity="0.017"/><circle cx="81.32217895144387%" cy="85.81139339245738%" r="0.9" fill="#000" opacity="0.022"/><circle cx="40.514591822740364%" cy="9.02640081720314%" r="0.9" fill="#000" opacity="0.024"/><circle cx="5.682681151130198%" cy="42.895164749566725%" r="0.9" fill="#000" opacity="0.018"/><circle cx="95.3111801676059%" cy="91.09888647761433%" r="0.9" fill="#000" opacity="0.005"/><circle cx="50.98865147247956%" cy="44.14603319101038%" r="0.9" fill="#000" opacity="0.011"/><circle cx="71.3949179695806%" cy="84.42419707842483%" r="0.9" fill="#000" opacity="0.032"/><circle cx="25.81962965389194%" cy="43.72277147913815%" r="0.9" fill="#000" opacity="0.032"/><circle cx="44.96048474188814%" cy="37.66988145187514%" r="0.9" fill="#000" opacity="0.028"/><circle cx="87.09233925616375%" cy="26.286563178172994%" r="0.9" fill="#000" opacity="0.029"/><circle cx="35.47656481354443%" cy="4.663890662134906%" r="0.9" fill="#000" opacity="0.037"/><circle cx="79.02955187771066%" cy="6.062278296070822%" r="0.9" fill="#000" opacity="0.008"/><circle cx="14.052139407978725%" cy="60.336055046592584%" r="0.9" fill="#000" opacity="0.036"/>
  
    <g transform="translate(500.0,575.0)" opacity="0.9">
      <path d="M -74.39999999999999 -285.2
               C -74.39999999999999 -341.0 74.39999999999999 -341.0 74.39999999999999 -285.2
               L 62.0 -248.0
               C 210.8 -186.0 248.0 31.0 210.8 173.60000000000002
               C 173.60000000000002 297.59999999999997 -173.60000000000002 297.59999999999997 -210.8 173.60000000000002
               C -248.0 31.0 -210.8 -186.0 -62.0 -248.0
               Z"
            fill="#c7ccd1" stroke="#7d858d" stroke-width="7.44"/>
      <rect x="-99.2" y="-359.59999999999997" width="198.4" height="62.0" rx="18.599999999999998"
            fill="#7d858d" opacity="0.55"/>
      <ellipse cx="0" cy="37.199999999999996" rx="99.2" ry="124.0" fill="#7d858d" opacity="0.18"/>
    </g>
  <rect width="1000" height="1250" fill="url(#vig)"/>
  <text x="50%" y="1162" text-anchor="middle"
        font-family="Georgia, 'Times New Roman', serif" font-size="30"
        letter-spacing="3" fill="#7d858d" opacity="0.85">MOON SNUFF · II</text>
</svg>