<svg xmlns="http://www.w3.org/2000/svg" width="1000" height="1250" viewBox="0 0 1000 1250" role="img" aria-label="QUIET RELIC placeholder">
  <defs>
    <linearGradient id="bg" x1="0" y1="0" x2="0.4" y2="1">
      <stop offset="0" stop-color="#d9d6cf"/>
      <stop offset="1" stop-color="#bdb8ad"/>
    </linearGradient>
    <radialGradient id="vig" cx="0.5" cy="0.42" r="0.75">
      <stop offset="0.55" stop-color="#000" stop-opacity="0"/>
      <stop offset="1" stop-color="#000" stop-opacity="0.10"/>
    </radialGradient>
  </defs>
  <rect width="1000" height="1250" fill="url(#bg)"/>
  <circle cx="22.67058593810488%" cy="96.22950358343829%" r="0.9" fill="#000" opacity="0.006"/><circle cx="70.4816922871608%" cy="8.518526805075266%" r="0.9" fill="#000" opacity="0.012"/><circle cx="99.9128539162579%" cy="20.93976318889128%" r="0.9" fill="#000" opacity="0.032"/><circle cx="45.91337627723967%" cy="45.31324311381428%" r="0.9" fill="#000" opacity="0.025"/><circle cx="19.223084224268217%" cy="83.05212736329717%" r="0.9" fill="#000" opacity="0.004"/><circle cx="23.418295948970535%" cy="1.9991306224180772%" r="0.9" fill="#000" opacity="0.013"/><circle cx="40.76638629609571%" cy="90.20643004116283%" r="0.9" fill="#000" opacity="0.019"/><circle cx="11.373092728079992%" cy="25.835670603191275%" r="0.9" fill="#000" opacity="0.050"/><circle cx="6.308868070221852%" cy="62.01679619366842%" r="0.9" fill="#000" opacity="0.019"/><circle cx="66.08431716118325%" cy="33.84385871471404%" r="0.9" fill="#000" opacity="0.035"/><circle cx="49.758053499007204%" cy="64.97213655472632%" r="0.9" fill="#000" opacity="0.045"/><circle cx="58.153654492193986%" cy="14.213797902104641%" r="0.9" fill="#000" opacity="0.003"/><circle cx="94.60514339615764%" cy="48.8666830225436%" r="0.9" fill="#000" opacity="0.010"/><circle cx="94.60443247877996%" cy="57.89617855568466%" r="0.9" fill="#000" opacity="0.036"/><circle cx="88.0959685483105%" cy="28.565323022991464%" r="0.9" fill="#000" opacity="0.018"/><circle cx="87.80765043655035%" cy="13.497573255225825%" r="0.9" fill="#000" opacity="0.038"/><circle cx="9.761649021363251%" cy="69.01812576784687%" r="0.9" fill="#000" opacity="0.035"/><circle cx="94.99997321062271%" cy="84.34929661052816%" r="0.9" fill="#000" opacity="0.025"/><circle cx="19.76481550096817%" cy="15.01598682682147%" r="0.9" fill="#000" opacity="0.026"/><circle cx="50.97908203084482%" cy="7.142083203883498%" r="0.9" fill="#000" opacity="0.045"/><circle cx="50.741723115045524%" cy="70.12947763870349%" r="0.9" fill="#000" opacity="0.011"/><circle cx="24.388628384399556%" cy="1.1916177687843699%" r="0.9" fill="#000" opacity="0.017"/><circle cx="26.684229846040587%" cy="42.34018568305137%" r="0.9" fill="#000" opacity="0.019"/><circle cx="83.43162067636538%" cy="89.14677159258693%" r="0.9" fill="#000" opacity="0.009"/><circle cx="39.62639429886804%" cy="16.618165323543423%" r="0.9" fill="#000" opacity="0.033"/><circle cx="97.48455287935835%" cy="20.180825869049134%" r="0.9" fill="#000" opacity="0.038"/><circle cx="30.004475352528015%" cy="1.3217626485361844%" r="0.9" fill="#000" opacity="0.038"/><circle cx="34.18159249156466%" cy="17.015701956395635%" r="0.9" fill="#000" opacity="0.022"/><circle cx="23.17192564833045%" cy="41.01009783446587%" r="0.9" fill="#000" opacity="0.022"/><circle cx="41.79615458856486%" cy="58.8508718237098%" r="0.9" fill="#000" opacity="0.014"/><circle cx="9.511172051752437%" cy="8.525587367424992%" r="0.9" fill="#000" opacity="0.005"/><circle cx="52.094453221026086%" cy="36.01638909701733%" r="0.9" fill="#000" opacity="0.040"/><circle cx="50.49232951420491%" cy="70.81773441175598%" r="0.9" fill="#000" opacity="0.049"/><circle cx="6.297390304267292%" cy="1.694218749266041%" r="0.9" fill="#000" opacity="0.007"/><circle cx="38.63329563901371%" cy="57.36710661705502%" r="0.9" fill="#000" opacity="0.037"/><circle cx="35.14442617106025%" cy="96.49620977494426%" r="0.9" fill="#000" opacity="0.000"/><circle cx="83.56784470306306%" cy="21.00819428314713%" r="0.9" fill="#000" opacity="0.044"/><circle cx="3.312146576423214%" cy="96.51628201373182%" r="0.9" fill="#000" opacity="0.038"/><circle cx="99.04598729047058%" cy="58.000788965800965%" r="0.9" fill="#000" opacity="0.009"/><circle cx="96.98687749432904%" cy="44.15238732170407%" r="0.9" fill="#000" opacity="0.004"/><circle cx="60.540177094923855%" cy="49.720804997815414%" r="0.9" fill="#000" opacity="0.024"/><circle cx="15.45194788358194%" cy="12.202201864466012%" r="0.9" fill="#000" opacity="0.029"/><circle cx="45.26891905659062%" cy="12.645186274756748%" r="0.9" fill="#000" opacity="0.022"/><circle cx="72.55242175640771%" cy="71.54894018808542%" r="0.9" fill="#000" opacity="0.024"/><circle cx="39.37529237304731%" cy="36.08079959104676%" r="0.9" fill="#000" opacity="0.011"/><circle cx="19.750686771368066%" cy="44.62213897063989%" r="0.9" fill="#000" opacity="0.005"/><circle cx="72.51410037621973%" cy="70.83211213398462%" r="0.9" fill="#000" opacity="0.031"/><circle cx="2.2617419475409295%" cy="36.40981229339908%" r="0.9" fill="#000" opacity="0.022"/><circle cx="9.333568050454522%" cy="96.77855577242879%" r="0.9" fill="#000" opacity="0.038"/><circle cx="50.25826008563597%" cy="70.51707772089074%" r="0.9" fill="#000" opacity="0.010"/><circle cx="22.94343883105283%" cy="52.574084240280825%" r="0.9" fill="#000" opacity="0.037"/><circle cx="64.72717240167812%" cy="0.6685229313061147%" r="0.9" fill="#000" opacity="0.031"/><circle cx="90.88512441506566%" cy="74.32899871545285%" r="0.9" fill="#000" opacity="0.046"/><circle cx="98.17309707617923%" cy="22.366815531507644%" r="0.9" fill="#000" opacity="0.015"/><circle cx="54.73385931512949%" cy="97.68034722225887%" r="0.9" fill="#000" opacity="0.018"/><circle cx="94.14230267760519%" cy="85.0482533282252%" r="0.9" fill="#000" opacity="0.026"/><circle cx="62.511215233247505%" cy="95.70521142845509%" r="0.9" fill="#000" opacity="0.039"/><circle cx="29.582701363700124%" cy="84.57166262663785%" r="0.9" fill="#000" opacity="0.010"/><circle cx="36.99722243740881%" cy="95.85835530234085%" r="0.9" fill="#000" opacity="0.042"/><circle cx="31.19911119732981%" cy="29.049530176090123%" r="0.9" fill="#000" opacity="0.031"/><circle cx="84.26376873177786%" cy="68.43389982257561%" r="0.9" fill="#000" opacity="0.047"/><circle cx="72.80329045339357%" cy="82.09221636952363%" r="0.9" fill="#000" opacity="0.030"/><circle cx="36.218313629249025%" cy="42.75014936616992%" r="0.9" fill="#000" opacity="0.024"/><circle cx="52.89337598332745%" cy="83.81929329185142%" r="0.9" fill="#000" opacity="0.013"/><circle cx="6.862739844800403%" cy="73.31289564550246%" r="0.9" fill="#000" opacity="0.014"/><circle cx="41.97353853290022%" cy="11.704248655255235%" r="0.9" fill="#000" opacity="0.041"/><circle cx="27.394366999516194%" cy="29.164624418391348%" r="0.9" fill="#000" opacity="0.040"/><circle cx="50.42365287885517%" cy="27.732911702446717%" r="0.9" fill="#000" opacity="0.044"/><circle cx="41.18029046396728%" cy="36.13604996038956%" r="0.9" fill="#000" opacity="0.048"/><circle cx="79.01626415902005%" cy="74.73865409041579%" r="0.9" fill="#000" opacity="0.012"/><circle cx="81.32730633834768%" cy="59.65990016255217%" r="0.9" fill="#000" opacity="0.041"/><circle cx="36.794044447428284%" cy="78.07663090955289%" r="0.9" fill="#000" opacity="0.040"/><circle cx="38.79405415372838%" cy="65.46916154824771%" r="0.9" fill="#000" opacity="0.039"/><circle cx="99.3082928862982%" cy="92.04510751749424%" r="0.9" fill="#000" opacity="0.039"/><circle cx="13.680515454775922%" cy="61.02858498040086%" r="0.9" fill="#000" opacity="0.034"/><circle cx="8.704482090052801%" cy="46.269097521704516%" r="0.9" fill="#000" opacity="0.043"/><circle cx="90.54288512634912%" cy="92.53148627736805%" r="0.9" fill="#000" opacity="0.005"/><circle cx="60.708649722911936%" cy="86.50104178541753%" r="0.9" fill="#000" opacity="0.033"/><circle cx="31.991949521458764%" cy="3.8711144295363376%" r="0.9" fill="#000" opacity="0.046"/><circle cx="85.90684468843533%" cy="65.36421835765623%" r="0.9" fill="#000" opacity="0.018"/><circle cx="82.8444615565057%" cy="81.48043470884298%" r="0.9" fill="#000" opacity="0.036"/><circle cx="59.9737426566102%" cy="31.929443197197905%" r="0.9" fill="#000" opacity="0.015"/><circle cx="35.74914035738421%" cy="32.679122735641485%" r="0.9" fill="#000" opacity="0.026"/><circle cx="11.399412092939132%" cy="72.13834569568307%" r="0.9" fill="#000" opacity="0.017"/><circle cx="15.973781166288404%" cy="25.491440216860596%" r="0.9" fill="#000" opacity="0.019"/><circle cx="43.12254021152434%" cy="78.22030638540454%" r="0.9" fill="#000" opacity="0.005"/><circle cx="22.260338129211267%" cy="29.31581655519476%" r="0.9" fill="#000" opacity="0.009"/><circle cx="74.9405691019653%" cy="10.900992859542347%" r="0.9" fill="#000" opacity="0.003"/><circle cx="55.58532311501383%" cy="73.61709712273205%" r="0.9" fill="#000" opacity="0.041"/><circle cx="55.947796731888765%" cy="32.676180672200914%" r="0.9" fill="#000" opacity="0.044"/>
  
    <g transform="translate(500.0,575.0)" opacity="0.9">
      <path d="M -74.39999999999999 -285.2
               C -74.39999999999999 -341.0 74.39999999999999 -341.0 74.39999999999999 -285.2
               L 62.0 -248.0
               C 210.8 -186.0 248.0 31.0 210.8 173.60000000000002
               C 173.60000000000002 297.59999999999997 -173.60000000000002 297.59999999999997 -210.8 173.60000000000002
               C -248.0 31.0 -210.8 -186.0 -62.0 -248.0
               Z"
            fill="#bdb8ad" stroke="#3a3733" stroke-width="7.44"/>
      <rect x="-99.2" y="-359.59999999999997" width="198.4" height="62.0" rx="18.599999999999998"
            fill="#3a3733" opacity="0.55"/>
      <ellipse cx="0" cy="37.199999999999996" rx="99.2" ry="124.0" fill="#3a3733" opacity="0.18"/>
    </g>
  <rect width="1000" height="1250" fill="url(#vig)"/>
  <text x="50%" y="1162" text-anchor="middle"
        font-family="Georgia, 'Times New Roman', serif" font-size="30"
        letter-spacing="3" fill="#3a3733" opacity="0.85">QUIET RELIC</text>
</svg>