<svg xmlns="http://www.w3.org/2000/svg" width="1000" height="1250" viewBox="0 0 1000 1250" role="img" aria-label="LAKE VESSEL · II placeholder">
  <defs>
    <linearGradient id="bg" x1="0" y1="0" x2="0.4" y2="1">
      <stop offset="0" stop-color="#dde6ea"/>
      <stop offset="1" stop-color="#b9ccd6"/>
    </linearGradient>
    <radialGradient id="vig" cx="0.5" cy="0.42" r="0.75">
      <stop offset="0.55" stop-color="#000" stop-opacity="0"/>
      <stop offset="1" stop-color="#000" stop-opacity="0.10"/>
    </radialGradient>
  </defs>
  <rect width="1000" height="1250" fill="url(#bg)"/>
  <circle cx="24.06551279332326%" cy="9.43638735862018%" r="0.9" fill="#000" opacity="0.048"/><circle cx="8.016023626741175%" cy="83.41409107049745%" r="0.9" fill="#000" opacity="0.038"/><circle cx="47.94880393511755%" cy="33.95438082355506%" r="0.9" fill="#000" opacity="0.042"/><circle cx="17.585058018579048%" cy="53.703488624231596%" r="0.9" fill="#000" opacity="0.002"/><circle cx="28.542365911895384%" cy="99.49940016571414%" r="0.9" fill="#000" opacity="0.050"/><circle cx="15.088997464577702%" cy="57.47068748704971%" r="0.9" fill="#000" opacity="0.023"/><circle cx="31.886411963399507%" cy="18.238494362052048%" r="0.9" fill="#000" opacity="0.026"/><circle cx="91.61606482646003%" cy="82.83955984491158%" r="0.9" fill="#000" opacity="0.022"/><circle cx="46.31372389418738%" cy="95.90187224313624%" r="0.9" fill="#000" opacity="0.012"/><circle cx="71.9838495026582%" cy="9.678473471199089%" r="0.9" fill="#000" opacity="0.022"/><circle cx="93.1669374929043%" cy="63.743302412695826%" r="0.9" fill="#000" opacity="0.021"/><circle cx="79.3430689846328%" cy="84.73760815471772%" r="0.9" fill="#000" opacity="0.023"/><circle cx="16.478614007889412%" cy="79.36743935284967%" r="0.9" fill="#000" opacity="0.002"/><circle cx="76.20681469071648%" cy="2.475230971192488%" r="0.9" fill="#000" opacity="0.043"/><circle cx="66.1296923927577%" cy="96.46904681781761%" r="0.9" fill="#000" opacity="0.044"/><circle cx="6.937899717349783%" cy="70.52780610263784%" r="0.9" fill="#000" opacity="0.029"/><circle cx="5.633180691675898%" cy="29.502264568774628%" r="0.9" fill="#000" opacity="0.022"/><circle cx="50.998275820299824%" cy="20.182092138832786%" r="0.9" fill="#000" opacity="0.021"/><circle cx="23.07537009631058%" cy="11.073020902501462%" r="0.9" fill="#000" opacity="0.046"/><circle cx="47.9052821047976%" cy="26.010974751062342%" r="0.9" fill="#000" opacity="0.004"/><circle cx="79.54988264623037%" cy="26.935201445446566%" r="0.9" fill="#000" opacity="0.014"/><circle cx="70.74352403454591%" cy="9.641680137823395%" r="0.9" fill="#000" opacity="0.013"/><circle cx="93.28607252210291%" cy="52.882960632484924%" r="0.9" fill="#000" opacity="0.009"/><circle cx="13.385956816863454%" cy="63.510940211867585%" r="0.9" fill="#000" opacity="0.042"/><circle cx="53.826701745246375%" cy="42.32841842242654%" r="0.9" fill="#000" opacity="0.030"/><circle cx="0.5016768407534067%" cy="54.09041200651522%" r="0.9" fill="#000" opacity="0.016"/><circle cx="74.28682557271402%" cy="95.5596313537918%" r="0.9" fill="#000" opacity="0.049"/><circle cx="64.08619934707468%" cy="98.70262763264247%" r="0.9" fill="#000" opacity="0.025"/><circle cx="79.2045857239125%" cy="64.37405067418058%" r="0.9" fill="#000" opacity="0.035"/><circle cx="79.00917128828736%" cy="51.023692242862026%" r="0.9" fill="#000" opacity="0.025"/><circle cx="78.14302961202819%" cy="43.283060854542676%" r="0.9" fill="#000" opacity="0.018"/><circle cx="86.38523498824149%" cy="76.71195194514853%" r="0.9" fill="#000" opacity="0.006"/><circle cx="51.380741545259134%" cy="31.57311451445001%" r="0.9" fill="#000" opacity="0.016"/><circle cx="78.71774415119563%" cy="81.69532917856782%" r="0.9" fill="#000" opacity="0.016"/><circle cx="33.7376278564296%" cy="99.72636828538724%" r="0.9" fill="#000" opacity="0.017"/><circle cx="32.99752477967206%" cy="71.08096876368609%" r="0.9" fill="#000" opacity="0.022"/><circle cx="75.12310509273733%" cy="51.21945986548108%" r="0.9" fill="#000" opacity="0.033"/><circle cx="66.08696836155286%" cy="54.96479425569745%" r="0.9" fill="#000" opacity="0.018"/><circle cx="31.947404799681845%" cy="53.79230528176399%" r="0.9" fill="#000" opacity="0.033"/><circle cx="9.769748102696207%" cy="12.321643677893546%" r="0.9" fill="#000" opacity="0.037"/><circle cx="49.964321707795555%" cy="11.792120739989386%" r="0.9" fill="#000" opacity="0.049"/><circle cx="20.201278520579123%" cy="80.53592544516216%" r="0.9" fill="#000" opacity="0.010"/><circle cx="64.24604123420973%" cy="81.62936888738092%" r="0.9" fill="#000" opacity="0.029"/><circle cx="94.904181531208%" cy="33.74977915487182%" r="0.9" fill="#000" opacity="0.034"/><circle cx="63.43893320687511%" cy="21.483751609096004%" r="0.9" fill="#000" opacity="0.013"/><circle cx="35.739941892646044%" cy="71.48536359416111%" r="0.9" fill="#000" opacity="0.049"/><circle cx="66.48314964846104%" cy="81.50511527207523%" r="0.9" fill="#000" opacity="0.039"/><circle cx="76.81504725338019%" cy="44.43334664187795%" r="0.9" fill="#000" opacity="0.030"/><circle cx="1.1326841847614788%" cy="1.042136959611295%" r="0.9" fill="#000" opacity="0.025"/><circle cx="18.890520423913117%" cy="91.33544625962763%" r="0.9" fill="#000" opacity="0.041"/><circle cx="71.52866708710884%" cy="5.144359941927168%" r="0.9" fill="#000" opacity="0.020"/><circle cx="8.414166152793568%" cy="56.712286222720465%" r="0.9" fill="#000" opacity="0.041"/><circle cx="10.212522479925246%" cy="71.70810167585833%" r="0.9" fill="#000" opacity="0.039"/><circle cx="4.7374032484705175%" cy="4.42826537361497%" r="0.9" fill="#000" opacity="0.012"/><circle cx="23.88995041396428%" cy="11.990056275443383%" r="0.9" fill="#000" opacity="0.034"/><circle cx="40.67695872388137%" cy="66.21528856342897%" r="0.9" fill="#000" opacity="0.003"/><circle cx="32.809242644398765%" cy="71.51460153978779%" r="0.9" fill="#000" opacity="0.004"/><circle cx="53.01909573020337%" cy="12.889708299075453%" r="0.9" fill="#000" opacity="0.047"/><circle cx="5.77921037569169%" cy="21.113242143354704%" r="0.9" fill="#000" opacity="0.014"/><circle cx="24.839815308013534%" cy="77.99218822656329%" r="0.9" fill="#000" opacity="0.015"/><circle cx="81.53148831631617%" cy="87.05677619387403%" r="0.9" fill="#000" opacity="0.004"/><circle cx="8.14652958070161%" cy="58.784216174317194%" r="0.9" fill="#000" opacity="0.048"/><circle cx="85.05603346970416%" cy="2.500751389792555%" r="0.9" fill="#000" opacity="0.020"/><circle cx="54.2803302333432%" cy="79.85066590730159%" r="0.9" fill="#000" opacity="0.030"/><circle cx="92.66233119440861%" cy="86.16245888805817%" r="0.9" fill="#000" opacity="0.032"/><circle cx="37.239710615208764%" cy="29.660426134425023%" r="0.9" fill="#000" opacity="0.030"/><circle cx="29.34347144382289%" cy="2.5535432316145745%" r="0.9" fill="#000" opacity="0.000"/><circle cx="56.219478601735915%" cy="88.73433246179178%" r="0.9" fill="#000" opacity="0.026"/><circle cx="0.8107732501697495%" cy="87.51482524489363%" r="0.9" fill="#000" opacity="0.023"/><circle cx="11.043131029811137%" cy="80.21302325519393%" r="0.9" fill="#000" opacity="0.018"/><circle cx="73.13899134752583%" cy="32.17838845222756%" r="0.9" fill="#000" opacity="0.004"/><circle cx="38.402665330341044%" cy="78.74933682937564%" r="0.9" fill="#000" opacity="0.029"/><circle cx="2.180489555961296%" cy="86.89177693470957%" r="0.9" fill="#000" opacity="0.001"/><circle cx="38.453755751158845%" cy="44.799766634169025%" r="0.9" fill="#000" opacity="0.038"/><circle cx="56.200442886999326%" cy="80.1415008335043%" r="0.9" fill="#000" opacity="0.031"/><circle cx="84.37797263372258%" cy="65.22405421036235%" r="0.9" fill="#000" opacity="0.049"/><circle cx="55.844145594319926%" cy="10.599583818671011%" r="0.9" fill="#000" opacity="0.032"/><circle cx="62.55389518149559%" cy="95.48716701289742%" r="0.9" fill="#000" opacity="0.006"/><circle cx="5.71898971687177%" cy="73.50812130184269%" r="0.9" fill="#000" opacity="0.034"/><circle cx="68.79624759298825%" cy="72.87407383277596%" r="0.9" fill="#000" opacity="0.038"/><circle cx="81.7476145245817%" cy="32.15221255414578%" r="0.9" fill="#000" opacity="0.015"/><circle cx="95.96946602935034%" cy="59.21317415381046%" r="0.9" fill="#000" opacity="0.016"/><circle cx="43.6328557730785%" cy="33.51130884106117%" r="0.9" fill="#000" opacity="0.033"/><circle cx="89.72378906557435%" cy="93.75132589639264%" r="0.9" fill="#000" opacity="0.006"/><circle cx="66.64624357836402%" cy="84.63481873311777%" r="0.9" fill="#000" opacity="0.003"/><circle cx="62.66091307109542%" cy="10.244399602718223%" r="0.9" fill="#000" opacity="0.044"/><circle cx="87.42491589095935%" cy="99.849503670833%" r="0.9" fill="#000" opacity="0.042"/><circle cx="0.8590943155074915%" cy="89.76203708499104%" r="0.9" fill="#000" opacity="0.031"/><circle cx="77.65493685364308%" cy="44.155792675189275%" r="0.9" fill="#000" opacity="0.040"/><circle cx="82.30203065979123%" cy="89.5176786868899%" r="0.9" fill="#000" opacity="0.033"/>
  
    <g transform="translate(500.0,575.0)" opacity="0.9">
      <path d="M -74.39999999999999 -285.2
               C -74.39999999999999 -341.0 74.39999999999999 -341.0 74.39999999999999 -285.2
               L 62.0 -248.0
               C 210.8 -186.0 248.0 31.0 210.8 173.60000000000002
               C 173.60000000000002 297.59999999999997 -173.60000000000002 297.59999999999997 -210.8 173.60000000000002
               C -248.0 31.0 -210.8 -186.0 -62.0 -248.0
               Z"
            fill="#b9ccd6" stroke="#5b7c8c" stroke-width="7.44"/>
      <rect x="-99.2" y="-359.59999999999997" width="198.4" height="62.0" rx="18.599999999999998"
            fill="#5b7c8c" opacity="0.55"/>
      <ellipse cx="0" cy="37.199999999999996" rx="99.2" ry="124.0" fill="#5b7c8c" opacity="0.18"/>
    </g>
  <rect width="1000" height="1250" fill="url(#vig)"/>
  <text x="50%" y="1162" text-anchor="middle"
        font-family="Georgia, 'Times New Roman', serif" font-size="30"
        letter-spacing="3" fill="#5b7c8c" opacity="0.85">LAKE VESSEL · II</text>
</svg>