<svg xmlns="http://www.w3.org/2000/svg" width="1000" height="1250" viewBox="0 0 1000 1250" role="img" aria-label="PRODUCT IMAGE placeholder">
  <defs>
    <linearGradient id="bg" x1="0" y1="0" x2="0.4" y2="1">
      <stop offset="0" stop-color="#f3ece0"/>
      <stop offset="1" stop-color="#e7ddcc"/>
    </linearGradient>
    <radialGradient id="vig" cx="0.5" cy="0.42" r="0.75">
      <stop offset="0.55" stop-color="#000" stop-opacity="0"/>
      <stop offset="1" stop-color="#000" stop-opacity="0.10"/>
    </radialGradient>
  </defs>
  <rect width="1000" height="1250" fill="url(#bg)"/>
  <circle cx="63.942679845788376%" cy="2.5010755222666936%" r="0.9" fill="#000" opacity="0.014"/><circle cx="22.321073814882276%" cy="73.64712141640123%" r="0.9" fill="#000" opacity="0.034"/><circle cx="89.21795677048453%" cy="8.693883262941615%" r="0.9" fill="#000" opacity="0.021"/><circle cx="2.9797219438070344%" cy="21.863797480360336%" r="0.9" fill="#000" opacity="0.025"/><circle cx="2.6535969683863625%" cy="19.88376506866485%" r="0.9" fill="#000" opacity="0.032"/><circle cx="54.49414806032167%" cy="22.044062204069668%" r="0.9" fill="#000" opacity="0.029"/><circle cx="80.94304566778267%" cy="0.6498759678061017%" r="0.9" fill="#000" opacity="0.040"/><circle cx="69.81393949882269%" cy="34.02505165179919%" r="0.9" fill="#000" opacity="0.008"/><circle cx="95.72130722067811%" cy="33.65945451126267%" r="0.9" fill="#000" opacity="0.005"/><circle cx="9.6716376833464%" cy="84.74943663474598%" r="0.9" fill="#000" opacity="0.030"/><circle cx="80.71282732743802%" cy="72.9731786693818%" r="0.9" fill="#000" opacity="0.027"/><circle cx="97.31157639793706%" cy="37.853437720835345%" r="0.9" fill="#000" opacity="0.028"/><circle cx="82.94046642529949%" cy="61.85197523642461%" r="0.9" fill="#000" opacity="0.043"/><circle cx="57.735214525676206%" cy="70.45718362149235%" r="0.9" fill="#000" opacity="0.002"/><circle cx="22.789827565154685%" cy="28.938796360210716%" r="0.9" fill="#000" opacity="0.004"/><circle cx="23.27908863610302%" cy="10.100142940972912%" r="0.9" fill="#000" opacity="0.014"/><circle cx="63.56844442644002%" cy="36.48321789700842%" r="0.9" fill="#000" opacity="0.019"/><circle cx="20.95070307714877%" cy="26.697782204911334%" r="0.9" fill="#000" opacity="0.047"/><circle cx="64.80353852465936%" cy="60.913100566698816%" r="0.9" fill="#000" opacity="0.009"/><circle cx="72.91267979503492%" cy="16.34024937619284%" r="0.9" fill="#000" opacity="0.019"/><circle cx="98.95233506365952%" cy="63.999975985409286%" r="0.9" fill="#000" opacity="0.028"/><circle cx="68.46142509898746%" cy="84.28519201898096%" r="0.9" fill="#000" opacity="0.039"/><circle cx="22.904807196410438%" cy="3.210024390403776%" r="0.9" fill="#000" opacity="0.016"/><circle cx="26.774087597570272%" cy="21.098284358632647%" r="0.9" fill="#000" opacity="0.047"/><circle cx="87.63676264726689%" cy="31.467788079847793%" r="0.9" fill="#000" opacity="0.033"/><circle cx="39.56319010606643%" cy="91.45475897405436%" r="0.9" fill="#000" opacity="0.023"/><circle cx="26.488016649805246%" cy="24.662750769398343%" r="0.9" fill="#000" opacity="0.028"/><circle cx="26.274160852293527%" cy="58.45859902235405%" r="0.9" fill="#000" opacity="0.045"/><circle cx="39.940050514039726%" cy="21.932075915728333%" r="0.9" fill="#000" opacity="0.050"/><circle cx="50.95262936764645%" cy="9.090941217379388%" r="0.9" fill="#000" opacity="0.002"/><circle cx="10.964913035065916%" cy="62.744604170309%" r="0.9" fill="#000" opacity="0.040"/><circle cx="42.215996679968406%" cy="6.352770615195713%" r="0.9" fill="#000" opacity="0.019"/><circle cx="99.61213802400968%" cy="52.911434509913704%" r="0.9" fill="#000" opacity="0.049"/><circle cx="86.07797022344981%" cy="1.1481021942819636%" r="0.9" fill="#000" opacity="0.036"/><circle cx="68.17103690265748%" cy="53.69703304087952%" r="0.9" fill="#000" opacity="0.013"/><circle cx="64.0961798579808%" cy="11.155217359587644%" r="0.9" fill="#000" opacity="0.022"/><circle cx="45.37237063292064%" cy="95.38159275210802%" r="0.9" fill="#000" opacity="0.044"/><circle cx="26.338905075109075%" cy="50.058611305029835%" r="0.9" fill="#000" opacity="0.009"/><circle cx="91.26278393448204%" cy="87.05185698367669%" r="0.9" fill="#000" opacity="0.015"/><circle cx="63.89494948660052%" cy="60.897021143817234%" r="0.9" fill="#000" opacity="0.008"/><circle cx="76.25108000751513%" cy="53.937903011962575%" r="0.9" fill="#000" opacity="0.039"/><circle cx="53.035367219517745%" cy="0.05718961279435053%" r="0.9" fill="#000" opacity="0.016"/><circle cx="1.9476742385832302%" cy="92.9098616264617%" r="0.9" fill="#000" opacity="0.044"/><circle cx="83.16655293611794%" cy="30.751412540266145%" r="0.9" fill="#000" opacity="0.003"/><circle cx="87.80095992040405%" cy="94.69494452979941%" r="0.9" fill="#000" opacity="0.004"/><circle cx="48.59904633166138%" cy="6.921251846838361%" r="0.9" fill="#000" opacity="0.038"/><circle cx="76.58344293069878%" cy="12.83914644997628%" r="0.9" fill="#000" opacity="0.024"/><circle cx="54.98035934949439%" cy="26.50566289400591%" r="0.9" fill="#000" opacity="0.044"/><circle cx="42.31379402008869%" cy="21.179820544208205%" r="0.9" fill="#000" opacity="0.027"/><circle cx="72.99310690899762%" cy="20.11510633896959%" r="0.9" fill="#000" opacity="0.016"/><circle cx="99.51493566608947%" cy="64.98780576394535%" r="0.9" fill="#000" opacity="0.022"/><circle cx="51.75758410355906%" cy="12.100419586826572%" r="0.9" fill="#000" opacity="0.011"/><circle cx="33.808556214745536%" cy="58.83087184572333%" r="0.9" fill="#000" opacity="0.012"/><circle cx="22.021738445155947%" cy="7.099308600903253%" r="0.9" fill="#000" opacity="0.032"/><circle cx="22.894178381115438%" cy="90.5420013006128%" r="0.9" fill="#000" opacity="0.043"/><circle cx="7.085734988865344%" cy="23.80046343689952%" r="0.9" fill="#000" opacity="0.033"/><circle cx="21.42368073704386%" cy="13.2311848725025%" r="0.9" fill="#000" opacity="0.047"/><circle cx="57.104309332528445%" cy="47.26710263117941%" r="0.9" fill="#000" opacity="0.039"/><circle cx="80.74969977666434%" cy="19.04099143618777%" r="0.9" fill="#000" opacity="0.005"/><circle cx="43.10511824063775%" cy="42.35786230199208%" r="0.9" fill="#000" opacity="0.023"/><circle cx="72.90758494598506%" cy="67.33645472933016%" r="0.9" fill="#000" opacity="0.049"/><circle cx="9.841787115195888%" cy="40.26212821022688%" r="0.9" fill="#000" opacity="0.017"/><circle cx="86.16725363527911%" cy="24.865633392028563%" r="0.9" fill="#000" opacity="0.010"/><circle cx="44.86135478331319%" cy="42.18816398344042%" r="0.9" fill="#000" opacity="0.014"/><circle cx="24.98064478821005%" cy="92.32655992760128%" r="0.9" fill="#000" opacity="0.022"/><circle cx="86.13491047618305%" cy="55.0325312449848%" r="0.9" fill="#000" opacity="0.003"/><circle cx="99.92824684127267%" cy="83.60275850799519%" r="0.9" fill="#000" opacity="0.048"/><circle cx="92.63669830081275%" cy="84.86957344143055%" r="0.9" fill="#000" opacity="0.008"/><circle cx="48.56411254507185%" cy="21.374729919918167%" r="0.9" fill="#000" opacity="0.020"/><circle cx="5.8635399972178925%" cy="37.89731189769161%" r="0.9" fill="#000" opacity="0.049"/><circle cx="26.520305817215196%" cy="78.40706019485694%" r="0.9" fill="#000" opacity="0.023"/><circle cx="42.30074859901629%" cy="95.73176408596731%" r="0.9" fill="#000" opacity="0.050"/><circle cx="55.57683234056182%" cy="71.8408275296326%" r="0.9" fill="#000" opacity="0.008"/><circle cx="29.67078254945642%" cy="96.87093649691589%" r="0.9" fill="#000" opacity="0.029"/><circle cx="54.21952013742742%" cy="74.7975560379064%" r="0.9" fill="#000" opacity="0.003"/><circle cx="58.41775944589712%" cy="50.28503829195136%" r="0.9" fill="#000" opacity="0.043"/><circle cx="15.743272793948327%" cy="96.07789032744503%" r="0.9" fill="#000" opacity="0.004"/><circle cx="18.58249609807232%" cy="59.50351064500276%" r="0.9" fill="#000" opacity="0.034"/><circle cx="23.52038950009312%" cy="11.98866139471242%" r="0.9" fill="#000" opacity="0.045"/><circle cx="24.621534778862486%" cy="59.45191535334412%" r="0.9" fill="#000" opacity="0.031"/><circle cx="41.92249153358725%" cy="58.367228929122476%" r="0.9" fill="#000" opacity="0.026"/><circle cx="93.47062577364272%" cy="20.425919942353644%" r="0.9" fill="#000" opacity="0.036"/><circle cx="23.868595261584602%" cy="39.57858467912545%" r="0.9" fill="#000" opacity="0.034"/><circle cx="29.999707979876224%" cy="31.6177196271854%" r="0.9" fill="#000" opacity="0.038"/><circle cx="7.254311449315731%" cy="45.82855226185861%" r="0.9" fill="#000" opacity="0.050"/><circle cx="99.60964478550945%" cy="7.3260721099633%" r="0.9" fill="#000" opacity="0.011"/><circle cx="26.520041475040134%" cy="93.3259377993709%" r="0.9" fill="#000" opacity="0.044"/><circle cx="87.92702424845427%" cy="36.9527088738884%" r="0.9" fill="#000" opacity="0.008"/><circle cx="83.37449546398071%" cy="70.3539925087371%" r="0.9" fill="#000" opacity="0.031"/><circle cx="98.72330636315043%" cy="65.39763177107326%" r="0.9" fill="#000" opacity="0.000"/>
  
    <g transform="translate(500.0,575.0)" opacity="0.9">
      <path d="M -74.39999999999999 -285.2
               C -74.39999999999999 -341.0 74.39999999999999 -341.0 74.39999999999999 -285.2
               L 62.0 -248.0
               C 210.8 -186.0 248.0 31.0 210.8 173.60000000000002
               C 173.60000000000002 297.59999999999997 -173.60000000000002 297.59999999999997 -210.8 173.60000000000002
               C -248.0 31.0 -210.8 -186.0 -62.0 -248.0
               Z"
            fill="#e7ddcc" stroke="#8a8170" stroke-width="7.44"/>
      <rect x="-99.2" y="-359.59999999999997" width="198.4" height="62.0" rx="18.599999999999998"
            fill="#8a8170" opacity="0.55"/>
      <ellipse cx="0" cy="37.199999999999996" rx="99.2" ry="124.0" fill="#8a8170" opacity="0.18"/>
    </g>
  <rect width="1000" height="1250" fill="url(#vig)"/>
  <text x="50%" y="1162" text-anchor="middle"
        font-family="Georgia, 'Times New Roman', serif" font-size="30"
        letter-spacing="3" fill="#8a8170" opacity="0.85">PRODUCT IMAGE</text>
</svg>