<svg xmlns="http://www.w3.org/2000/svg" width="1000" height="1250" viewBox="0 0 1000 1250" role="img" aria-label="MEMORY HOLDER · II placeholder">
  <defs>
    <linearGradient id="bg" x1="0" y1="0" x2="0.4" y2="1">
      <stop offset="0" stop-color="#e9e2d6"/>
      <stop offset="1" stop-color="#cdbfa9"/>
    </linearGradient>
    <radialGradient id="vig" cx="0.5" cy="0.42" r="0.75">
      <stop offset="0.55" stop-color="#000" stop-opacity="0"/>
      <stop offset="1" stop-color="#000" stop-opacity="0.10"/>
    </radialGradient>
  </defs>
  <rect width="1000" height="1250" fill="url(#bg)"/>
  <circle cx="63.11006935877681%" cy="47.30932766668062%" r="0.9" fill="#000" opacity="0.046"/><circle cx="72.59652344876267%" cy="96.88879034223554%" r="0.9" fill="#000" opacity="0.036"/><circle cx="12.72577964900281%" cy="36.563037367458584%" r="0.9" fill="#000" opacity="0.037"/><circle cx="56.1672737798136%" cy="29.834005803227182%" r="0.9" fill="#000" opacity="0.028"/><circle cx="71.78175109648835%" cy="44.15655089823345%" r="0.9" fill="#000" opacity="0.036"/><circle cx="25.09399822697097%" cy="7.7372147150216675%" r="0.9" fill="#000" opacity="0.022"/><circle cx="50.004825414697486%" cy="56.053533590772965%" r="0.9" fill="#000" opacity="0.023"/><circle cx="57.50560621414266%" cy="45.97346661178593%" r="0.9" fill="#000" opacity="0.003"/><circle cx="6.826658802966612%" cy="34.43947736479161%" r="0.9" fill="#000" opacity="0.012"/><circle cx="59.8540486689888%" cy="97.79432608942535%" r="0.9" fill="#000" opacity="0.050"/><circle cx="15.340663612649507%" cy="50.42419386838103%" r="0.9" fill="#000" opacity="0.048"/><circle cx="24.001092804894675%" cy="70.66882849237443%" r="0.9" fill="#000" opacity="0.034"/><circle cx="36.851663269622726%" cy="0.37961955810734693%" r="0.9" fill="#000" opacity="0.033"/><circle cx="22.05024678527159%" cy="39.23871921234166%" r="0.9" fill="#000" opacity="0.024"/><circle cx="91.80884673600828%" cy="17.339159903794%" r="0.9" fill="#000" opacity="0.029"/><circle cx="74.2913274812659%" cy="74.04759607784743%" r="0.9" fill="#000" opacity="0.006"/><circle cx="3.56242218556162%" cy="1.9578925574387895%" r="0.9" fill="#000" opacity="0.027"/><circle cx="36.09938271891002%" cy="76.77718322107896%" r="0.9" fill="#000" opacity="0.005"/><circle cx="81.98840030974466%" cy="63.7118303314878%" r="0.9" fill="#000" opacity="0.041"/><circle cx="28.98080388577694%" cy="55.225240672130724%" r="0.9" fill="#000" opacity="0.010"/><circle cx="73.54823608721941%" cy="88.51077904897079%" r="0.9" fill="#000" opacity="0.009"/><circle cx="99.8472933741504%" cy="19.476091585930877%" r="0.9" fill="#000" opacity="0.049"/><circle cx="39.749029435169945%" cy="39.49243529305863%" r="0.9" fill="#000" opacity="0.009"/><circle cx="91.29717296540224%" cy="28.996887534323214%" r="0.9" fill="#000" opacity="0.038"/><circle cx="53.07892558720063%" cy="7.124174390593618%" r="0.9" fill="#000" opacity="0.012"/><circle cx="36.08155034808913%" cy="49.81641615263309%" r="0.9" fill="#000" opacity="0.040"/><circle cx="37.591892953902615%" cy="78.01063508361074%" r="0.9" fill="#000" opacity="0.008"/><circle cx="12.691398473631777%" cy="14.740097158284915%" r="0.9" fill="#000" opacity="0.041"/><circle cx="91.73799590097586%" cy="63.262208455715765%" r="0.9" fill="#000" opacity="0.006"/><circle cx="79.71481548020867%" cy="78.66055720435516%" r="0.9" fill="#000" opacity="0.037"/><circle cx="2.915249756749616%" cy="5.548998283742912%" r="0.9" fill="#000" opacity="0.007"/><circle cx="2.9437400773972278%" cy="8.515908853003417%" r="0.9" fill="#000" opacity="0.004"/><circle cx="3.274646645019652%" cy="79.2448711469535%" r="0.9" fill="#000" opacity="0.007"/><circle cx="44.03223174798877%" cy="52.045554517752215%" r="0.9" fill="#000" opacity="0.004"/><circle cx="11.270546592417274%" cy="59.04637765097631%" r="0.9" fill="#000" opacity="0.021"/><circle cx="31.550028499566995%" cy="17.81541712071666%" r="0.9" fill="#000" opacity="0.018"/><circle cx="68.12751798812147%" cy="55.39502567433542%" r="0.9" fill="#000" opacity="0.043"/><circle cx="50.438224433108736%" cy="90.12523438144811%" r="0.9" fill="#000" opacity="0.012"/><circle cx="91.66875620597139%" cy="28.574113030219316%" r="0.9" fill="#000" opacity="0.006"/><circle cx="16.838048051650055%" cy="61.64524635326504%" r="0.9" fill="#000" opacity="0.011"/><circle cx="85.93782900045014%" cy="75.92126341535582%" r="0.9" fill="#000" opacity="0.029"/><circle cx="89.35979237637358%" cy="5.028716064830752%" r="0.9" fill="#000" opacity="0.013"/><circle cx="99.27351719913014%" cy="35.442420094567105%" r="0.9" fill="#000" opacity="0.026"/><circle cx="19.44014524536881%" cy="44.84670629838323%" r="0.9" fill="#000" opacity="0.004"/><circle cx="86.70921141187713%" cy="26.38370024935718%" r="0.9" fill="#000" opacity="0.028"/><circle cx="10.898622194188546%" cy="60.800460738562364%" r="0.9" fill="#000" opacity="0.027"/><circle cx="31.515095345301315%" cy="83.55547726884917%" r="0.9" fill="#000" opacity="0.042"/><circle cx="51.999199576313714%" cy="54.588617575973096%" r="0.9" fill="#000" opacity="0.044"/><circle cx="22.505413914177975%" cy="99.12652832586635%" r="0.9" fill="#000" opacity="0.044"/><circle cx="29.515867228467606%" cy="17.741207978684947%" r="0.9" fill="#000" opacity="0.018"/><circle cx="34.039910566025746%" cy="51.954051012782784%" r="0.9" fill="#000" opacity="0.016"/><circle cx="48.569505696701064%" cy="66.41938866066945%" r="0.9" fill="#000" opacity="0.038"/><circle cx="95.43093320368256%" cy="31.232534646756214%" r="0.9" fill="#000" opacity="0.025"/><circle cx="37.41448406802071%" cy="40.773237486860204%" r="0.9" fill="#000" opacity="0.008"/><circle cx="58.032097972619056%" cy="86.50516576599598%" r="0.9" fill="#000" opacity="0.032"/><circle cx="55.88957521351071%" cy="76.29307280471153%" r="0.9" fill="#000" opacity="0.008"/><circle cx="31.22009325390995%" cy="82.77635219449706%" r="0.9" fill="#000" opacity="0.033"/><circle cx="99.62003020687162%" cy="61.74347560570015%" r="0.9" fill="#000" opacity="0.037"/><circle cx="52.96706529077729%" cy="63.52137279545094%" r="0.9" fill="#000" opacity="0.032"/><circle cx="10.51783594733905%" cy="95.71895104969322%" r="0.9" fill="#000" opacity="0.028"/><circle cx="24.344344898001136%" cy="99.36457044475783%" r="0.9" fill="#000" opacity="0.018"/><circle cx="92.93640561840294%" cy="20.708417091039756%" r="0.9" fill="#000" opacity="0.038"/><circle cx="84.55168922867529%" cy="69.55950246570247%" r="0.9" fill="#000" opacity="0.038"/><circle cx="99.45770833989936%" cy="30.520999730409283%" r="0.9" fill="#000" opacity="0.008"/><circle cx="97.73940431475921%" cy="64.54056852875303%" r="0.9" fill="#000" opacity="0.016"/><circle cx="56.99117844712492%" cy="52.07084067720129%" r="0.9" fill="#000" opacity="0.045"/><circle cx="6.21145564154264%" cy="50.03742989955056%" r="0.9" fill="#000" opacity="0.000"/><circle cx="65.75658472714704%" cy="74.67311254597408%" r="0.9" fill="#000" opacity="0.025"/><circle cx="6.995165477548859%" cy="60.725183167445316%" r="0.9" fill="#000" opacity="0.029"/><circle cx="29.988464455514407%" cy="0.29351892766685816%" r="0.9" fill="#000" opacity="0.000"/><circle cx="77.73187670906061%" cy="62.85171255300337%" r="0.9" fill="#000" opacity="0.029"/><circle cx="71.9794286608103%" cy="49.04414171460261%" r="0.9" fill="#000" opacity="0.043"/><circle cx="81.29335122859017%" cy="11.086836162639123%" r="0.9" fill="#000" opacity="0.037"/><circle cx="54.27413192729878%" cy="74.16711721770336%" r="0.9" fill="#000" opacity="0.003"/><circle cx="28.994118396734603%" cy="89.01607602547969%" r="0.9" fill="#000" opacity="0.016"/><circle cx="65.0320679840072%" cy="11.040271254714574%" r="0.9" fill="#000" opacity="0.003"/><circle cx="1.1053025888233536%" cy="49.81150454679229%" r="0.9" fill="#000" opacity="0.004"/><circle cx="66.89561601799721%" cy="59.18679364298865%" r="0.9" fill="#000" opacity="0.049"/><circle cx="57.58728951426385%" cy="6.2071617967056625%" r="0.9" fill="#000" opacity="0.007"/><circle cx="43.12847309488673%" cy="45.41528177722554%" r="0.9" fill="#000" opacity="0.047"/><circle cx="43.834945319864396%" cy="33.08055506355093%" r="0.9" fill="#000" opacity="0.039"/><circle cx="39.30418342390652%" cy="57.3069871919907%" r="0.9" fill="#000" opacity="0.016"/><circle cx="97.10345014572225%" cy="30.417180576680593%" r="0.9" fill="#000" opacity="0.005"/><circle cx="45.481250678633835%" cy="40.718208451602024%" r="0.9" fill="#000" opacity="0.028"/><circle cx="63.00578944019629%" cy="78.8033628073822%" r="0.9" fill="#000" opacity="0.034"/><circle cx="81.9959226195305%" cy="47.8809044170951%" r="0.9" fill="#000" opacity="0.042"/><circle cx="94.51691540244677%" cy="86.68176944669155%" r="0.9" fill="#000" opacity="0.022"/><circle cx="29.07560705492356%" cy="17.709926559695553%" r="0.9" fill="#000" opacity="0.049"/><circle cx="28.077572539584594%" cy="64.1651683691464%" r="0.9" fill="#000" opacity="0.049"/><circle cx="96.23510719932555%" cy="75.44743666962145%" r="0.9" fill="#000" opacity="0.018"/>
  
    <g transform="translate(500.0,575.0)" opacity="0.9">
      <path d="M -74.39999999999999 -285.2
               C -74.39999999999999 -341.0 74.39999999999999 -341.0 74.39999999999999 -285.2
               L 62.0 -248.0
               C 210.8 -186.0 248.0 31.0 210.8 173.60000000000002
               C 173.60000000000002 297.59999999999997 -173.60000000000002 297.59999999999997 -210.8 173.60000000000002
               C -248.0 31.0 -210.8 -186.0 -62.0 -248.0
               Z"
            fill="#cdbfa9" stroke="#7c6f59" stroke-width="7.44"/>
      <rect x="-99.2" y="-359.59999999999997" width="198.4" height="62.0" rx="18.599999999999998"
            fill="#7c6f59" opacity="0.55"/>
      <ellipse cx="0" cy="37.199999999999996" rx="99.2" ry="124.0" fill="#7c6f59" opacity="0.18"/>
    </g>
  <rect width="1000" height="1250" fill="url(#vig)"/>
  <text x="50%" y="1162" text-anchor="middle"
        font-family="Georgia, 'Times New Roman', serif" font-size="30"
        letter-spacing="3" fill="#7c6f59" opacity="0.85">MEMORY HOLDER · II</text>
</svg>