<svg xmlns="http://www.w3.org/2000/svg" width="1000" height="1250" viewBox="0 0 1000 1250" role="img" aria-label="QUIET RELIC · III placeholder">
  <defs>
    <linearGradient id="bg" x1="0" y1="0" x2="0.4" y2="1">
      <stop offset="0" stop-color="#d9d6cf"/>
      <stop offset="1" stop-color="#bdb8ad"/>
    </linearGradient>
    <radialGradient id="vig" cx="0.5" cy="0.42" r="0.75">
      <stop offset="0.55" stop-color="#000" stop-opacity="0"/>
      <stop offset="1" stop-color="#000" stop-opacity="0.10"/>
    </radialGradient>
  </defs>
  <rect width="1000" height="1250" fill="url(#bg)"/>
  <circle cx="10.682853770165568%" cy="70.25855239868555%" r="0.9" fill="#000" opacity="0.033"/><circle cx="94.03523895661179%" cy="27.111522656032317%" r="0.9" fill="#000" opacity="0.013"/><circle cx="73.40593641446968%" cy="65.84500182400758%" r="0.9" fill="#000" opacity="0.015"/><circle cx="68.42331280769555%" cy="39.66736450330139%" r="0.9" fill="#000" opacity="0.039"/><circle cx="11.839956986543854%" cy="22.326611631224957%" r="0.9" fill="#000" opacity="0.045"/><circle cx="35.803267961629324%" cy="26.0402331953273%" r="0.9" fill="#000" opacity="0.040"/><circle cx="63.16639223416798%" cy="14.970355600901309%" r="0.9" fill="#000" opacity="0.028"/><circle cx="66.3999052907005%" cy="16.494824745211968%" r="0.9" fill="#000" opacity="0.033"/><circle cx="12.302634563166247%" cy="33.70662259145638%" r="0.9" fill="#000" opacity="0.004"/><circle cx="20.442169795989294%" cy="97.79995335778577%" r="0.9" fill="#000" opacity="0.020"/><circle cx="99.04326344602246%" cy="43.86480517418042%" r="0.9" fill="#000" opacity="0.030"/><circle cx="87.259538204121%" cy="68.68835008602954%" r="0.9" fill="#000" opacity="0.006"/><circle cx="58.908416805727114%" cy="63.37293711621883%" r="0.9" fill="#000" opacity="0.009"/><circle cx="9.467249920221965%" cy="87.47939205663485%" r="0.9" fill="#000" opacity="0.026"/><circle cx="19.383871012054964%" cy="45.260090845910575%" r="0.9" fill="#000" opacity="0.011"/><circle cx="79.82419005135095%" cy="50.048012476131596%" r="0.9" fill="#000" opacity="0.005"/><circle cx="81.81280121149864%" cy="8.953523843460964%" r="0.9" fill="#000" opacity="0.014"/><circle cx="2.79974055418043%" cy="74.03412417461651%" r="0.9" fill="#000" opacity="0.006"/><circle cx="52.57645591046186%" cy="9.298369605234768%" r="0.9" fill="#000" opacity="0.024"/><circle cx="68.53721303371549%" cy="53.48504736027736%" r="0.9" fill="#000" opacity="0.023"/><circle cx="48.48709364222439%" cy="43.70425821668926%" r="0.9" fill="#000" opacity="0.030"/><circle cx="9.485423010869665%" cy="47.451816047786025%" r="0.9" fill="#000" opacity="0.012"/><circle cx="86.54531286311659%" cy="93.90202201087564%" r="0.9" fill="#000" opacity="0.003"/><circle cx="14.329695320914837%" cy="70.34708728401729%" r="0.9" fill="#000" opacity="0.029"/><circle cx="1.910599936060997%" cy="70.48936590976024%" r="0.9" fill="#000" opacity="0.047"/><circle cx="42.31103511213895%" cy="34.74905171224796%" r="0.9" fill="#000" opacity="0.028"/><circle cx="93.91359498429583%" cy="26.35385942131402%" r="0.9" fill="#000" opacity="0.015"/><circle cx="18.871058555540078%" cy="62.841754078777754%" r="0.9" fill="#000" opacity="0.023"/><circle cx="25.60736544084554%" cy="38.78944374459261%" r="0.9" fill="#000" opacity="0.002"/><circle cx="31.244885940242384%" cy="98.29057753113243%" r="0.9" fill="#000" opacity="0.029"/><circle cx="28.25839260337687%" cy="93.61301049933901%" r="0.9" fill="#000" opacity="0.018"/><circle cx="25.1534686340369%" cy="3.5139731738315527%" r="0.9" fill="#000" opacity="0.007"/><circle cx="19.90390941633391%" cy="23.00353217891262%" r="0.9" fill="#000" opacity="0.044"/><circle cx="26.45463882565623%" cy="24.86006260503236%" r="0.9" fill="#000" opacity="0.030"/><circle cx="91.71390111150085%" cy="29.137483031611367%" r="0.9" fill="#000" opacity="0.038"/><circle cx="36.873585754282686%" cy="56.111337931183606%" r="0.9" fill="#000" opacity="0.030"/><circle cx="94.23113225932214%" cy="75.72583493459642%" r="0.9" fill="#000" opacity="0.025"/><circle cx="84.13972124258345%" cy="36.64699233341332%" r="0.9" fill="#000" opacity="0.019"/><circle cx="95.99759607616667%" cy="54.594201262031405%" r="0.9" fill="#000" opacity="0.039"/><circle cx="31.44485465285364%" cy="91.52908694173931%" r="0.9" fill="#000" opacity="0.031"/><circle cx="24.730970444651636%" cy="93.36372347876993%" r="0.9" fill="#000" opacity="0.023"/><circle cx="33.94333652378471%" cy="26.275262092911056%" r="0.9" fill="#000" opacity="0.005"/><circle cx="20.064286183238366%" cy="69.22427261508507%" r="0.9" fill="#000" opacity="0.007"/><circle cx="25.871549164524733%" cy="44.73786810463491%" r="0.9" fill="#000" opacity="0.027"/><circle cx="38.05059645383982%" cy="78.50946791944403%" r="0.9" fill="#000" opacity="0.013"/><circle cx="36.86000223552828%" cy="42.50061394177551%" r="0.9" fill="#000" opacity="0.006"/><circle cx="22.231380708606974%" cy="14.648552096290246%" r="0.9" fill="#000" opacity="0.036"/><circle cx="14.655973030009273%" cy="66.80740483717412%" r="0.9" fill="#000" opacity="0.011"/><circle cx="64.69515179105792%" cy="65.65302596984876%" r="0.9" fill="#000" opacity="0.018"/><circle cx="93.30949976701444%" cy="65.67898454018162%" r="0.9" fill="#000" opacity="0.028"/><circle cx="4.628941847299117%" cy="40.6530741366659%" r="0.9" fill="#000" opacity="0.013"/><circle cx="46.98585817421249%" cy="93.33300074690032%" r="0.9" fill="#000" opacity="0.043"/><circle cx="6.190516050628158%" cy="68.01256957773171%" r="0.9" fill="#000" opacity="0.047"/><circle cx="54.244150834654704%" cy="9.675258338862736%" r="0.9" fill="#000" opacity="0.043"/><circle cx="42.63399752947233%" cy="98.05494331955636%" r="0.9" fill="#000" opacity="0.044"/><circle cx="82.88767162367343%" cy="93.12308741425146%" r="0.9" fill="#000" opacity="0.003"/><circle cx="79.37763532754295%" cy="30.518278513004347%" r="0.9" fill="#000" opacity="0.007"/><circle cx="37.914194081933296%" cy="58.890625201066115%" r="0.9" fill="#000" opacity="0.000"/><circle cx="44.96511553876486%" cy="78.42616577778291%" r="0.9" fill="#000" opacity="0.025"/><circle cx="52.81487108761556%" cy="29.62953379844301%" r="0.9" fill="#000" opacity="0.049"/><circle cx="24.817275465938206%" cy="68.11522885662222%" r="0.9" fill="#000" opacity="0.032"/><circle cx="0.05762096375111492%" cy="99.6496072384784%" r="0.9" fill="#000" opacity="0.012"/><circle cx="98.88385013322932%" cy="92.83020150533406%" r="0.9" fill="#000" opacity="0.045"/><circle cx="85.525598468948%" cy="39.77516173014284%" r="0.9" fill="#000" opacity="0.022"/><circle cx="34.574783388167226%" cy="93.59983901192224%" r="0.9" fill="#000" opacity="0.001"/><circle cx="13.685758621988375%" cy="95.64099279536407%" r="0.9" fill="#000" opacity="0.040"/><circle cx="70.60410254513458%" cy="96.78931475896853%" r="0.9" fill="#000" opacity="0.026"/><circle cx="83.52656505917062%" cy="44.28650366182375%" r="0.9" fill="#000" opacity="0.045"/><circle cx="6.965091823855096%" cy="43.83203040056281%" r="0.9" fill="#000" opacity="0.029"/><circle cx="79.43356603498007%" cy="42.25062672056418%" r="0.9" fill="#000" opacity="0.034"/><circle cx="96.78001104012888%" cy="41.884500512098434%" r="0.9" fill="#000" opacity="0.010"/><circle cx="3.028229904627222%" cy="86.18071803115889%" r="0.9" fill="#000" opacity="0.024"/><circle cx="38.79943476172267%" cy="51.96693910214054%" r="0.9" fill="#000" opacity="0.006"/><circle cx="22.205497196091716%" cy="23.578258004140608%" r="0.9" fill="#000" opacity="0.013"/><circle cx="85.95886012537353%" cy="24.66187759590026%" r="0.9" fill="#000" opacity="0.005"/><circle cx="86.67146389329568%" cy="55.82595545817034%" r="0.9" fill="#000" opacity="0.001"/><circle cx="67.51827658122238%" cy="68.6238002805385%" r="0.9" fill="#000" opacity="0.032"/><circle cx="77.4589106400831%" cy="42.39300896196014%" r="0.9" fill="#000" opacity="0.011"/><circle cx="74.42649086437973%" cy="62.50654911576845%" r="0.9" fill="#000" opacity="0.035"/><circle cx="18.36490982625586%" cy="37.26946224338536%" r="0.9" fill="#000" opacity="0.035"/><circle cx="38.45698990470817%" cy="60.24622497247445%" r="0.9" fill="#000" opacity="0.024"/><circle cx="75.4564782094047%" cy="34.83780200330919%" r="0.9" fill="#000" opacity="0.025"/><circle cx="82.84946976612932%" cy="31.062164939802074%" r="0.9" fill="#000" opacity="0.009"/><circle cx="63.66109733352794%" cy="13.31185765709434%" r="0.9" fill="#000" opacity="0.043"/><circle cx="27.496499177405475%" cy="90.41409291691646%" r="0.9" fill="#000" opacity="0.027"/><circle cx="15.415573161562946%" cy="52.10251512414254%" r="0.9" fill="#000" opacity="0.034"/><circle cx="48.61387786642525%" cy="63.514464568966446%" r="0.9" fill="#000" opacity="0.018"/><circle cx="95.91931904797882%" cy="17.4452357973081%" r="0.9" fill="#000" opacity="0.040"/><circle cx="2.37349957926285%" cy="50.7161101474009%" r="0.9" fill="#000" opacity="0.003"/><circle cx="13.175000902997237%" cy="58.84939300128325%" r="0.9" fill="#000" opacity="0.045"/>
  
    <g transform="translate(500.0,575.0)" opacity="0.9">
      <path d="M -74.39999999999999 -285.2
               C -74.39999999999999 -341.0 74.39999999999999 -341.0 74.39999999999999 -285.2
               L 62.0 -248.0
               C 210.8 -186.0 248.0 31.0 210.8 173.60000000000002
               C 173.60000000000002 297.59999999999997 -173.60000000000002 297.59999999999997 -210.8 173.60000000000002
               C -248.0 31.0 -210.8 -186.0 -62.0 -248.0
               Z"
            fill="#bdb8ad" stroke="#3a3733" stroke-width="7.44"/>
      <rect x="-99.2" y="-359.59999999999997" width="198.4" height="62.0" rx="18.599999999999998"
            fill="#3a3733" opacity="0.55"/>
      <ellipse cx="0" cy="37.199999999999996" rx="99.2" ry="124.0" fill="#3a3733" opacity="0.18"/>
    </g>
  <rect width="1000" height="1250" fill="url(#vig)"/>
  <text x="50%" y="1162" text-anchor="middle"
        font-family="Georgia, 'Times New Roman', serif" font-size="30"
        letter-spacing="3" fill="#3a3733" opacity="0.85">QUIET RELIC · III</text>
</svg>