<svg xmlns="http://www.w3.org/2000/svg" width="1000" height="1250" viewBox="0 0 1000 1250" role="img" aria-label="PRAYER CAPSULE placeholder">
  <defs>
    <linearGradient id="bg" x1="0" y1="0" x2="0.4" y2="1">
      <stop offset="0" stop-color="#e4e6e8"/>
      <stop offset="1" stop-color="#c7ccd1"/>
    </linearGradient>
    <radialGradient id="vig" cx="0.5" cy="0.42" r="0.75">
      <stop offset="0.55" stop-color="#000" stop-opacity="0"/>
      <stop offset="1" stop-color="#000" stop-opacity="0.10"/>
    </radialGradient>
  </defs>
  <rect width="1000" height="1250" fill="url(#bg)"/>
  <circle cx="79.67212866644694%" cy="48.55672088029497%" r="0.9" fill="#000" opacity="0.046"/><circle cx="30.889531157024074%" cy="98.7954325797917%" r="0.9" fill="#000" opacity="0.046"/><circle cx="43.249006626786645%" cy="39.70051933733985%" r="0.9" fill="#000" opacity="0.026"/><circle cx="76.17689174914194%" cy="34.0134785137677%" r="0.9" fill="#000" opacity="0.005"/><circle cx="19.84330475833973%" cy="65.07362880594687%" r="0.9" fill="#000" opacity="0.015"/><circle cx="45.70428345030015%" cy="81.76349489130409%" r="0.9" fill="#000" opacity="0.007"/><circle cx="65.23464933451962%" cy="37.924816749013516%" r="0.9" fill="#000" opacity="0.040"/><circle cx="31.95473139351076%" cy="65.63263286994251%" r="0.9" fill="#000" opacity="0.031"/><circle cx="4.447057067409299%" cy="19.210464155890982%" r="0.9" fill="#000" opacity="0.032"/><circle cx="85.56854001437728%" cy="8.616700166777559%" r="0.9" fill="#000" opacity="0.019"/><circle cx="87.86453696131328%" cy="40.86645453707606%" r="0.9" fill="#000" opacity="0.026"/><circle cx="74.13946180358288%" cy="91.72905924450717%" r="0.9" fill="#000" opacity="0.047"/><circle cx="67.83145583314753%" cy="37.480945277861444%" r="0.9" fill="#000" opacity="0.029"/><circle cx="82.18455055400776%" cy="99.39738375382602%" r="0.9" fill="#000" opacity="0.044"/><circle cx="91.85352618720722%" cy="10.053238160319488%" r="0.9" fill="#000" opacity="0.010"/><circle cx="12.283654744497085%" cy="55.62510360780317%" r="0.9" fill="#000" opacity="0.008"/><circle cx="59.395213832491365%" cy="78.23350275636346%" r="0.9" fill="#000" opacity="0.030"/><circle cx="51.36630843374924%" cy="86.55044263411126%" r="0.9" fill="#000" opacity="0.004"/><circle cx="91.6630016752354%" cy="49.452884880179425%" r="0.9" fill="#000" opacity="0.048"/><circle cx="5.189828914209937%" cy="76.05016061277016%" r="0.9" fill="#000" opacity="0.022"/><circle cx="95.15493621007897%" cy="55.13150650529742%" r="0.9" fill="#000" opacity="0.043"/><circle cx="50.290189922845464%" cy="63.37463784729477%" r="0.9" fill="#000" opacity="0.049"/><circle cx="43.460808168924295%" cy="32.06720985515964%" r="0.9" fill="#000" opacity="0.017"/><circle cx="35.576176295483776%" cy="91.35238619401359%" r="0.9" fill="#000" opacity="0.049"/><circle cx="73.17512340599593%" cy="69.2399125733074%" r="0.9" fill="#000" opacity="0.002"/><circle cx="39.79553843539485%" cy="47.0929609339234%" r="0.9" fill="#000" opacity="0.010"/><circle cx="7.464567574240666%" cy="45.04343878776369%" r="0.9" fill="#000" opacity="0.027"/><circle cx="73.02701179873142%" cy="54.62082185335879%" r="0.9" fill="#000" opacity="0.026"/><circle cx="52.768511504317885%" cy="84.40844453486935%" r="0.9" fill="#000" opacity="0.001"/><circle cx="44.41461726011433%" cy="55.51131963714953%" r="0.9" fill="#000" opacity="0.023"/><circle cx="52.44789939208151%" cy="26.97019257662382%" r="0.9" fill="#000" opacity="0.013"/><circle cx="3.367463432964801%" cy="25.050716000096806%" r="0.9" fill="#000" opacity="0.032"/><circle cx="99.90922951454004%" cy="97.40787952165387%" r="0.9" fill="#000" opacity="0.037"/><circle cx="12.803938351336551%" cy="89.89194669565573%" r="0.9" fill="#000" opacity="0.025"/><circle cx="3.307615319020929%" cy="16.07841921666524%" r="0.9" fill="#000" opacity="0.042"/><circle cx="97.50220432341611%" cy="71.14630208205607%" r="0.9" fill="#000" opacity="0.035"/><circle cx="23.211647491953524%" cy="28.939961363520638%" r="0.9" fill="#000" opacity="0.035"/><circle cx="1.8798022269128745%" cy="86.69764027325364%" r="0.9" fill="#000" opacity="0.038"/><circle cx="36.25596894497768%" cy="2.7971527033295973%" r="0.9" fill="#000" opacity="0.015"/><circle cx="38.51351727805814%" cy="21.433158041720123%" r="0.9" fill="#000" opacity="0.038"/><circle cx="93.07768913919006%" cy="59.02905990657186%" r="0.9" fill="#000" opacity="0.016"/><circle cx="30.64641438674701%" cy="92.48064021379467%" r="0.9" fill="#000" opacity="0.005"/><circle cx="56.801880399088255%" cy="17.790110756685262%" r="0.9" fill="#000" opacity="0.013"/><circle cx="84.9139919401398%" cy="19.670552904369877%" r="0.9" fill="#000" opacity="0.015"/><circle cx="98.04033894673765%" cy="69.35561380333476%" r="0.9" fill="#000" opacity="0.047"/><circle cx="50.36558219880756%" cy="71.126964145053%" r="0.9" fill="#000" opacity="0.033"/><circle cx="30.475637234851284%" cy="50.64019118557251%" r="0.9" fill="#000" opacity="0.044"/><circle cx="50.42152319839083%" cy="37.24148672980701%" r="0.9" fill="#000" opacity="0.034"/><circle cx="18.630153629980228%" cy="32.3495506291876%" r="0.9" fill="#000" opacity="0.033"/><circle cx="95.52417988418223%" cy="28.181367529377923%" r="0.9" fill="#000" opacity="0.025"/><circle cx="7.63560198555755%" cy="58.251215733007164%" r="0.9" fill="#000" opacity="0.032"/><circle cx="24.26452654771317%" cy="55.98710496773956%" r="0.9" fill="#000" opacity="0.028"/><circle cx="82.97478184785248%" cy="69.47538324487181%" r="0.9" fill="#000" opacity="0.022"/><circle cx="40.12592280692119%" cy="62.66352950871149%" r="0.9" fill="#000" opacity="0.010"/><circle cx="30.392027177135915%" cy="31.0475428373449%" r="0.9" fill="#000" opacity="0.010"/><circle cx="42.45625504939677%" cy="55.22656102255048%" r="0.9" fill="#000" opacity="0.010"/><circle cx="35.94549491536348%" cy="47.76352842003869%" r="0.9" fill="#000" opacity="0.008"/><circle cx="79.56971588079685%" cy="5.3799901454841255%" r="0.9" fill="#000" opacity="0.026"/><circle cx="75.6039850005372%" cy="79.60951957715548%" r="0.9" fill="#000" opacity="0.015"/><circle cx="0.384113034687672%" cy="29.035760001150212%" r="0.9" fill="#000" opacity="0.020"/><circle cx="89.87650595585325%" cy="58.856316450517646%" r="0.9" fill="#000" opacity="0.041"/><circle cx="0.48512041706578746%" cy="14.278237442752895%" r="0.9" fill="#000" opacity="0.044"/><circle cx="52.6187117010396%" cy="92.2541149799283%" r="0.9" fill="#000" opacity="0.044"/><circle cx="34.0364326236266%" cy="70.90795243228656%" r="0.9" fill="#000" opacity="0.045"/><circle cx="30.63420981673124%" cy="82.36267327710101%" r="0.9" fill="#000" opacity="0.036"/><circle cx="24.460081197460816%" cy="78.92953806189166%" r="0.9" fill="#000" opacity="0.044"/><circle cx="10.253778054279394%" cy="83.19777989137792%" r="0.9" fill="#000" opacity="0.009"/><circle cx="60.35263173983631%" cy="77.29102789829366%" r="0.9" fill="#000" opacity="0.031"/><circle cx="62.985236163712486%" cy="91.2027561701715%" r="0.9" fill="#000" opacity="0.003"/><circle cx="24.32995413386273%" cy="54.220229363603835%" r="0.9" fill="#000" opacity="0.003"/><circle cx="1.5307772527746732%" cy="24.397771285907844%" r="0.9" fill="#000" opacity="0.013"/><circle cx="73.61060146242852%" cy="54.9007994777205%" r="0.9" fill="#000" opacity="0.047"/><circle cx="5.7024570649074064%" cy="45.51004460381438%" r="0.9" fill="#000" opacity="0.034"/><circle cx="20.06711819405921%" cy="25.567688546783486%" r="0.9" fill="#000" opacity="0.050"/><circle cx="38.16370665960077%" cy="8.208101462404505%" r="0.9" fill="#000" opacity="0.017"/><circle cx="73.32276350932791%" cy="4.5055340453727055%" r="0.9" fill="#000" opacity="0.046"/><circle cx="77.43520143590732%" cy="73.42468004790665%" r="0.9" fill="#000" opacity="0.028"/><circle cx="71.98716044174688%" cy="15.438831159988286%" r="0.9" fill="#000" opacity="0.010"/><circle cx="35.304691981600435%" cy="48.419520626500656%" r="0.9" fill="#000" opacity="0.020"/><circle cx="39.964561588037505%" cy="27.66259290017897%" r="0.9" fill="#000" opacity="0.031"/><circle cx="9.303618526996537%" cy="45.12869209165854%" r="0.9" fill="#000" opacity="0.028"/><circle cx="99.54787914389047%" cy="3.618173969895655%" r="0.9" fill="#000" opacity="0.030"/><circle cx="78.5459795867262%" cy="51.57209620193424%" r="0.9" fill="#000" opacity="0.031"/><circle cx="95.26361841737653%" cy="73.38836638459057%" r="0.9" fill="#000" opacity="0.027"/><circle cx="61.14310878773336%" cy="1.9933268506346469%" r="0.9" fill="#000" opacity="0.019"/><circle cx="9.219731087500682%" cy="85.46739133903995%" r="0.9" fill="#000" opacity="0.015"/><circle cx="73.41531751433352%" cy="20.23091154438812%" r="0.9" fill="#000" opacity="0.002"/><circle cx="29.351216930068613%" cy="80.17344249443535%" r="0.9" fill="#000" opacity="0.036"/><circle cx="68.00054635726457%" cy="57.192795607716086%" r="0.9" fill="#000" opacity="0.028"/><circle cx="64.69712653831236%" cy="95.8464942041193%" r="0.9" fill="#000" opacity="0.044"/>
  
    <g transform="translate(500.0,575.0)" opacity="0.9">
      <path d="M -74.39999999999999 -285.2
               C -74.39999999999999 -341.0 74.39999999999999 -341.0 74.39999999999999 -285.2
               L 62.0 -248.0
               C 210.8 -186.0 248.0 31.0 210.8 173.60000000000002
               C 173.60000000000002 297.59999999999997 -173.60000000000002 297.59999999999997 -210.8 173.60000000000002
               C -248.0 31.0 -210.8 -186.0 -62.0 -248.0
               Z"
            fill="#c7ccd1" stroke="#7d858d" stroke-width="7.44"/>
      <rect x="-99.2" y="-359.59999999999997" width="198.4" height="62.0" rx="18.599999999999998"
            fill="#7d858d" opacity="0.55"/>
      <ellipse cx="0" cy="37.199999999999996" rx="99.2" ry="124.0" fill="#7d858d" opacity="0.18"/>
    </g>
  <rect width="1000" height="1250" fill="url(#vig)"/>
  <text x="50%" y="1162" text-anchor="middle"
        font-family="Georgia, 'Times New Roman', serif" font-size="30"
        letter-spacing="3" fill="#7d858d" opacity="0.85">PRAYER CAPSULE</text>
</svg>