<svg xmlns="http://www.w3.org/2000/svg" width="1000" height="1250" viewBox="0 0 1000 1250" role="img" aria-label="MOON SNUFF placeholder">
  <defs>
    <linearGradient id="bg" x1="0" y1="0" x2="0.4" y2="1">
      <stop offset="0" stop-color="#e4e6e8"/>
      <stop offset="1" stop-color="#c7ccd1"/>
    </linearGradient>
    <radialGradient id="vig" cx="0.5" cy="0.42" r="0.75">
      <stop offset="0.55" stop-color="#000" stop-opacity="0"/>
      <stop offset="1" stop-color="#000" stop-opacity="0.10"/>
    </radialGradient>
  </defs>
  <rect width="1000" height="1250" fill="url(#bg)"/>
  <circle cx="87.35344537339063%" cy="81.39814494280357%" r="0.9" fill="#000" opacity="0.021"/><circle cx="6.427212235778857%" cy="28.27921757038898%" r="0.9" fill="#000" opacity="0.050"/><circle cx="15.535947166203224%" cy="18.663384497324277%" r="0.9" fill="#000" opacity="0.027"/><circle cx="80.75512986022846%" cy="22.51242387512431%" r="0.9" fill="#000" opacity="0.012"/><circle cx="20.479613478981594%" cy="83.39997496314207%" r="0.9" fill="#000" opacity="0.018"/><circle cx="84.84494292934997%" cy="47.21556964239978%" r="0.9" fill="#000" opacity="0.032"/><circle cx="87.96617785650285%" cy="89.37469057381729%" r="0.9" fill="#000" opacity="0.023"/><circle cx="80.6699979208736%" cy="29.31229522617036%" r="0.9" fill="#000" opacity="0.038"/><circle cx="80.22081970044911%" cy="79.65102769042541%" r="0.9" fill="#000" opacity="0.040"/><circle cx="77.6809506950085%" cy="95.69017189725285%" r="0.9" fill="#000" opacity="0.040"/><circle cx="59.727464645637895%" cy="12.945429120308038%" r="0.9" fill="#000" opacity="0.011"/><circle cx="73.79344324332989%" cy="95.10239056193008%" r="0.9" fill="#000" opacity="0.001"/><circle cx="27.646348548211208%" cy="72.22906304451904%" r="0.9" fill="#000" opacity="0.021"/><circle cx="51.430349339663806%" cy="87.21392302811672%" r="0.9" fill="#000" opacity="0.027"/><circle cx="31.540296326692506%" cy="66.06372013674765%" r="0.9" fill="#000" opacity="0.001"/><circle cx="24.90369687624342%" cy="94.29686469538521%" r="0.9" fill="#000" opacity="0.033"/><circle cx="78.151904246567%" cy="15.483577811022197%" r="0.9" fill="#000" opacity="0.040"/><circle cx="17.6884839642243%" cy="13.145379811516978%" r="0.9" fill="#000" opacity="0.050"/><circle cx="5.6457000464619655%" cy="89.4342196818189%" r="0.9" fill="#000" opacity="0.039"/><circle cx="62.97366912899759%" cy="11.212523235099603%" r="0.9" fill="#000" opacity="0.007"/><circle cx="75.1110359750633%" cy="39.16846231437725%" r="0.9" fill="#000" opacity="0.049"/><circle cx="86.42931031703371%" cy="43.701260444035796%" r="0.9" fill="#000" opacity="0.028"/><circle cx="67.625905397272%" cy="25.796648090431596%" r="0.9" fill="#000" opacity="0.027"/><circle cx="67.64999875403312%" cy="55.649890316329845%" r="0.9" fill="#000" opacity="0.011"/><circle cx="91.92061202667024%" cy="93.28414561347542%" r="0.9" fill="#000" opacity="0.031"/><circle cx="23.82554818172299%" cy="77.86245656298782%" r="0.9" fill="#000" opacity="0.029"/><circle cx="47.01967202605141%" cy="21.68986396812794%" r="0.9" fill="#000" opacity="0.006"/><circle cx="58.85416946205243%" cy="28.381331239818262%" r="0.9" fill="#000" opacity="0.011"/><circle cx="97.43596846635153%" cy="6.711082277734404%" r="0.9" fill="#000" opacity="0.046"/><circle cx="66.46808985414843%" cy="86.21198915259164%" r="0.9" fill="#000" opacity="0.046"/><circle cx="98.63195698995973%" cy="98.21552121726307%" r="0.9" fill="#000" opacity="0.050"/><circle cx="67.57657657604207%" cy="41.39725568496907%" r="0.9" fill="#000" opacity="0.044"/><circle cx="26.864331886141247%" cy="38.03200313009588%" r="0.9" fill="#000" opacity="0.033"/><circle cx="20.75785264838138%" cy="15.753849472008486%" r="0.9" fill="#000" opacity="0.016"/><circle cx="89.11811441552143%" cy="94.16323027259058%" r="0.9" fill="#000" opacity="0.049"/><circle cx="65.40890720805999%" cy="33.294882363020065%" r="0.9" fill="#000" opacity="0.016"/><circle cx="85.58020729089797%" cy="44.998686104154196%" r="0.9" fill="#000" opacity="0.042"/><circle cx="64.05687669887183%" cy="47.637119692862285%" r="0.9" fill="#000" opacity="0.041"/><circle cx="11.097950360112762%" cy="9.454910250882376%" r="0.9" fill="#000" opacity="0.048"/><circle cx="9.726438125181058%" cy="99.44694663247463%" r="0.9" fill="#000" opacity="0.041"/><circle cx="98.84866538656215%" cy="29.042243060180105%" r="0.9" fill="#000" opacity="0.002"/><circle cx="3.3654593936853994%" cy="16.817551296899712%" r="0.9" fill="#000" opacity="0.025"/><circle cx="75.9297030023632%" cy="63.61504743287018%" r="0.9" fill="#000" opacity="0.027"/><circle cx="37.701024355758825%" cy="8.491814802454423%" r="0.9" fill="#000" opacity="0.020"/><circle cx="88.70734986605501%" cy="18.244045695189616%" r="0.9" fill="#000" opacity="0.025"/><circle cx="14.442583142945665%" cy="4.583759959255385%" r="0.9" fill="#000" opacity="0.046"/><circle cx="84.61446045888141%" cy="52.65238053557925%" r="0.9" fill="#000" opacity="0.043"/><circle cx="62.52271536836778%" cy="16.13098556791662%" r="0.9" fill="#000" opacity="0.024"/><circle cx="37.39226880287264%" cy="43.24069556164469%" r="0.9" fill="#000" opacity="0.018"/><circle cx="74.221908951165%" cy="82.45175917673623%" r="0.9" fill="#000" opacity="0.005"/><circle cx="74.55261882124066%" cy="96.36133776587127%" r="0.9" fill="#000" opacity="0.020"/><circle cx="96.40484511894552%" cy="89.16949793060388%" r="0.9" fill="#000" opacity="0.022"/><circle cx="92.82881042587574%" cy="91.05983625348532%" r="0.9" fill="#000" opacity="0.019"/><circle cx="48.12781014778879%" cy="21.421504133981973%" r="0.9" fill="#000" opacity="0.031"/><circle cx="25.85549336687164%" cy="0.9539853382935726%" r="0.9" fill="#000" opacity="0.011"/><circle cx="50.24552892331816%" cy="64.22713351480229%" r="0.9" fill="#000" opacity="0.004"/><circle cx="95.38884048406072%" cy="23.662320185297304%" r="0.9" fill="#000" opacity="0.031"/><circle cx="37.991450562571686%" cy="1.4146109610867708%" r="0.9" fill="#000" opacity="0.036"/><circle cx="56.422090721127205%" cy="21.83027976453985%" r="0.9" fill="#000" opacity="0.013"/><circle cx="75.8669878472061%" cy="3.9220782550137834%" r="0.9" fill="#000" opacity="0.026"/><circle cx="70.66416759015243%" cy="50.39985582090952%" r="0.9" fill="#000" opacity="0.018"/><circle cx="55.85952151593789%" cy="33.546326721581806%" r="0.9" fill="#000" opacity="0.025"/><circle cx="7.866976585953989%" cy="12.667757635885579%" r="0.9" fill="#000" opacity="0.017"/><circle cx="25.97015216657632%" cy="15.132740418261081%" r="0.9" fill="#000" opacity="0.042"/><circle cx="75.59967999715941%" cy="39.419782905352854%" r="0.9" fill="#000" opacity="0.022"/><circle cx="15.701520037286853%" cy="91.39735042718655%" r="0.9" fill="#000" opacity="0.036"/><circle cx="53.10093434432579%" cy="37.543430189595874%" r="0.9" fill="#000" opacity="0.019"/><circle cx="89.43786264472347%" cy="94.58161413629239%" r="0.9" fill="#000" opacity="0.001"/><circle cx="12.099697180405943%" cy="63.170107130745336%" r="0.9" fill="#000" opacity="0.000"/><circle cx="29.058553768661334%" cy="27.494321100154085%" r="0.9" fill="#000" opacity="0.038"/><circle cx="72.61224668034801%" cy="43.96935526386101%" r="0.9" fill="#000" opacity="0.004"/><circle cx="89.96964791660103%" cy="29.315763065395807%" r="0.9" fill="#000" opacity="0.050"/><circle cx="26.485708766809747%" cy="65.25119671933014%" r="0.9" fill="#000" opacity="0.038"/><circle cx="85.00513771201356%" cy="10.290332264846347%" r="0.9" fill="#000" opacity="0.020"/><circle cx="22.057705162247988%" cy="71.67157682043928%" r="0.9" fill="#000" opacity="0.033"/><circle cx="47.87391318890424%" cy="84.10425764236183%" r="0.9" fill="#000" opacity="0.014"/><circle cx="13.739390351810554%" cy="89.00967433122759%" r="0.9" fill="#000" opacity="0.013"/><circle cx="6.303642055650194%" cy="79.57980179510479%" r="0.9" fill="#000" opacity="0.049"/><circle cx="31.076128652406464%" cy="53.25607464307806%" r="0.9" fill="#000" opacity="0.012"/><circle cx="88.7765460348678%" cy="74.01375257436649%" r="0.9" fill="#000" opacity="0.015"/><circle cx="28.654399810850308%" cy="20.509544082725473%" r="0.9" fill="#000" opacity="0.015"/><circle cx="51.64264525360041%" cy="18.22221276290804%" r="0.9" fill="#000" opacity="0.045"/><circle cx="58.02614073156393%" cy="13.499548611997625%" r="0.9" fill="#000" opacity="0.049"/><circle cx="88.97643515734144%" cy="29.897828722299945%" r="0.9" fill="#000" opacity="0.049"/><circle cx="79.32522989653576%" cy="17.341576808900438%" r="0.9" fill="#000" opacity="0.020"/><circle cx="66.69105747270602%" cy="66.72508483568065%" r="0.9" fill="#000" opacity="0.035"/><circle cx="15.35857758114403%" cy="11.591267468996314%" r="0.9" fill="#000" opacity="0.036"/><circle cx="37.122612567161895%" cy="15.293986237907465%" r="0.9" fill="#000" opacity="0.031"/><circle cx="62.51717328520204%" cy="89.8369883910201%" r="0.9" fill="#000" opacity="0.017"/><circle cx="83.50496663214906%" cy="90.52365275616324%" r="0.9" fill="#000" opacity="0.030"/>
  
    <g transform="translate(500.0,575.0)" opacity="0.9">
      <path d="M -74.39999999999999 -285.2
               C -74.39999999999999 -341.0 74.39999999999999 -341.0 74.39999999999999 -285.2
               L 62.0 -248.0
               C 210.8 -186.0 248.0 31.0 210.8 173.60000000000002
               C 173.60000000000002 297.59999999999997 -173.60000000000002 297.59999999999997 -210.8 173.60000000000002
               C -248.0 31.0 -210.8 -186.0 -62.0 -248.0
               Z"
            fill="#c7ccd1" stroke="#7d858d" stroke-width="7.44"/>
      <rect x="-99.2" y="-359.59999999999997" width="198.4" height="62.0" rx="18.599999999999998"
            fill="#7d858d" opacity="0.55"/>
      <ellipse cx="0" cy="37.199999999999996" rx="99.2" ry="124.0" fill="#7d858d" opacity="0.18"/>
    </g>
  <rect width="1000" height="1250" fill="url(#vig)"/>
  <text x="50%" y="1162" text-anchor="middle"
        font-family="Georgia, 'Times New Roman', serif" font-size="30"
        letter-spacing="3" fill="#7d858d" opacity="0.85">MOON SNUFF</text>
</svg>