<svg xmlns="http://www.w3.org/2000/svg" width="1000" height="1250" viewBox="0 0 1000 1250" role="img" aria-label="MOON SNUFF · III placeholder">
  <defs>
    <linearGradient id="bg" x1="0" y1="0" x2="0.4" y2="1">
      <stop offset="0" stop-color="#e4e6e8"/>
      <stop offset="1" stop-color="#c7ccd1"/>
    </linearGradient>
    <radialGradient id="vig" cx="0.5" cy="0.42" r="0.75">
      <stop offset="0.55" stop-color="#000" stop-opacity="0"/>
      <stop offset="1" stop-color="#000" stop-opacity="0.10"/>
    </radialGradient>
  </defs>
  <rect width="1000" height="1250" fill="url(#bg)"/>
  <circle cx="11.871763461482132%" cy="82.75972806705205%" r="0.9" fill="#000" opacity="0.007"/><circle cx="10.316205349639684%" cy="6.169911458578136%" r="0.9" fill="#000" opacity="0.018"/><circle cx="1.3229182798757289%" cy="74.90511855757725%" r="0.9" fill="#000" opacity="0.013"/><circle cx="83.88961163327629%" cy="14.449919595487703%" r="0.9" fill="#000" opacity="0.028"/><circle cx="2.433777263021475%" cy="87.20558590162072%" r="0.9" fill="#000" opacity="0.006"/><circle cx="24.0015925972502%" cy="83.57800943407896%" r="0.9" fill="#000" opacity="0.024"/><circle cx="60.812461139868255%" cy="98.21904800615313%" r="0.9" fill="#000" opacity="0.048"/><circle cx="75.77707829311416%" cy="75.93418467967172%" r="0.9" fill="#000" opacity="0.038"/><circle cx="48.48674229876009%" cy="98.7673863282908%" r="0.9" fill="#000" opacity="0.005"/><circle cx="95.12535904330815%" cy="56.257476208056936%" r="0.9" fill="#000" opacity="0.022"/><circle cx="21.459266279141254%" cy="23.726201917290624%" r="0.9" fill="#000" opacity="0.016"/><circle cx="7.33033569727225%" cy="59.31733809209037%" r="0.9" fill="#000" opacity="0.030"/><circle cx="20.58087170488364%" cy="78.64266011753223%" r="0.9" fill="#000" opacity="0.041"/><circle cx="95.94653135412676%" cy="75.74065856892953%" r="0.9" fill="#000" opacity="0.022"/><circle cx="27.645298102641803%" cy="57.75231532438906%" r="0.9" fill="#000" opacity="0.047"/><circle cx="25.26605003153103%" cy="83.96768328817494%" r="0.9" fill="#000" opacity="0.042"/><circle cx="47.60973510466041%" cy="33.91608532693303%" r="0.9" fill="#000" opacity="0.014"/><circle cx="51.830879892088035%" cy="75.96387147901292%" r="0.9" fill="#000" opacity="0.024"/><circle cx="7.056674407570163%" cy="11.297878939046536%" r="0.9" fill="#000" opacity="0.025"/><circle cx="26.06660528501793%" cy="50.0599747102974%" r="0.9" fill="#000" opacity="0.043"/><circle cx="22.947517545319695%" cy="31.512296320437493%" r="0.9" fill="#000" opacity="0.003"/><circle cx="86.66257931466724%" cy="22.63852455579127%" r="0.9" fill="#000" opacity="0.041"/><circle cx="87.13379228153666%" cy="2.56913385478873%" r="0.9" fill="#000" opacity="0.019"/><circle cx="44.32948927052125%" cy="61.611479846469706%" r="0.9" fill="#000" opacity="0.042"/><circle cx="31.451940702215396%" cy="95.70407971897741%" r="0.9" fill="#000" opacity="0.049"/><circle cx="4.7186504041430215%" cy="95.83367486578621%" r="0.9" fill="#000" opacity="0.029"/><circle cx="70.74335453804605%" cy="19.540296096634513%" r="0.9" fill="#000" opacity="0.041"/><circle cx="20.561054878174268%" cy="30.388424309337424%" r="0.9" fill="#000" opacity="0.001"/><circle cx="53.31024687054%" cy="36.01242266449272%" r="0.9" fill="#000" opacity="0.047"/><circle cx="23.846915540385826%" cy="51.851104589454245%" r="0.9" fill="#000" opacity="0.040"/><circle cx="64.49107231446786%" cy="29.543758993211565%" r="0.9" fill="#000" opacity="0.023"/><circle cx="86.80232471274809%" cy="58.20056579128033%" r="0.9" fill="#000" opacity="0.035"/><circle cx="39.936387987945686%" cy="76.74016392222525%" r="0.9" fill="#000" opacity="0.006"/><circle cx="14.407342745090101%" cy="75.50368496722317%" r="0.9" fill="#000" opacity="0.031"/><circle cx="51.93491290647161%" cy="55.94921733421432%" r="0.9" fill="#000" opacity="0.030"/><circle cx="35.61525343924051%" cy="89.5337662421042%" r="0.9" fill="#000" opacity="0.022"/><circle cx="76.09118560268136%" cy="45.47755282459192%" r="0.9" fill="#000" opacity="0.017"/><circle cx="53.085767553571564%" cy="92.24520280340617%" r="0.9" fill="#000" opacity="0.024"/><circle cx="25.49581903090442%" cy="0.43683613717081515%" r="0.9" fill="#000" opacity="0.025"/><circle cx="50.31895712055153%" cy="65.30839203498624%" r="0.9" fill="#000" opacity="0.005"/><circle cx="7.37928877027395%" cy="31.682211043856245%" r="0.9" fill="#000" opacity="0.044"/><circle cx="28.270043079213792%" cy="98.94642566843255%" r="0.9" fill="#000" opacity="0.044"/><circle cx="0.5321664127071579%" cy="31.459525140252843%" r="0.9" fill="#000" opacity="0.022"/><circle cx="55.89084366842303%" cy="29.946433925040616%" r="0.9" fill="#000" opacity="0.026"/><circle cx="57.360928601578465%" cy="74.20064164285908%" r="0.9" fill="#000" opacity="0.039"/><circle cx="83.47976264478227%" cy="32.76696877842126%" r="0.9" fill="#000" opacity="0.025"/><circle cx="42.96667147226433%" cy="79.54824870796178%" r="0.9" fill="#000" opacity="0.001"/><circle cx="80.01999202047327%" cy="20.202016132372446%" r="0.9" fill="#000" opacity="0.045"/><circle cx="92.7367461930963%" cy="39.99635216525906%" r="0.9" fill="#000" opacity="0.006"/><circle cx="26.11570321956236%" cy="12.195068198197612%" r="0.9" fill="#000" opacity="0.042"/><circle cx="32.02913227446762%" cy="38.81271444776302%" r="0.9" fill="#000" opacity="0.046"/><circle cx="77.76085891998524%" cy="75.74962633312826%" r="0.9" fill="#000" opacity="0.050"/><circle cx="62.28054828920626%" cy="44.67546954243045%" r="0.9" fill="#000" opacity="0.023"/><circle cx="78.6122070884171%" cy="94.12042418821314%" r="0.9" fill="#000" opacity="0.013"/><circle cx="31.88074847768495%" cy="88.39538050493117%" r="0.9" fill="#000" opacity="0.047"/><circle cx="39.42419212017483%" cy="12.759649323565847%" r="0.9" fill="#000" opacity="0.008"/><circle cx="85.14630721000155%" cy="86.82088925740348%" r="0.9" fill="#000" opacity="0.039"/><circle cx="48.91505804919897%" cy="92.41774935473384%" r="0.9" fill="#000" opacity="0.034"/><circle cx="50.61974384240852%" cy="99.61140073331157%" r="0.9" fill="#000" opacity="0.009"/><circle cx="10.566094879886778%" cy="20.78645598877117%" r="0.9" fill="#000" opacity="0.048"/><circle cx="34.55042379933381%" cy="37.90962212517436%" r="0.9" fill="#000" opacity="0.049"/><circle cx="89.55407869878658%" cy="60.222778166249455%" r="0.9" fill="#000" opacity="0.048"/><circle cx="13.907219540101712%" cy="34.749021756168105%" r="0.9" fill="#000" opacity="0.029"/><circle cx="67.49881155829173%" cy="48.076971527141865%" r="0.9" fill="#000" opacity="0.027"/><circle cx="61.26290769070641%" cy="68.20502457743828%" r="0.9" fill="#000" opacity="0.039"/><circle cx="19.03673111848424%" cy="9.233308695988429%" r="0.9" fill="#000" opacity="0.008"/><circle cx="30.047551568710105%" cy="24.871174978098264%" r="0.9" fill="#000" opacity="0.003"/><circle cx="99.98683935441238%" cy="95.53146927878305%" r="0.9" fill="#000" opacity="0.022"/><circle cx="82.95079898294382%" cy="92.58735426040742%" r="0.9" fill="#000" opacity="0.003"/><circle cx="83.2699570141358%" cy="57.06974889569515%" r="0.9" fill="#000" opacity="0.019"/><circle cx="0.867171539579592%" cy="11.526557327220955%" r="0.9" fill="#000" opacity="0.044"/><circle cx="39.98836186041913%" cy="76.47805862136269%" r="0.9" fill="#000" opacity="0.049"/><circle cx="76.2762990511325%" cy="47.22561943132888%" r="0.9" fill="#000" opacity="0.033"/><circle cx="7.440684443535128%" cy="13.001244176707027%" r="0.9" fill="#000" opacity="0.012"/><circle cx="42.00523318352687%" cy="28.226028687098204%" r="0.9" fill="#000" opacity="0.026"/><circle cx="85.57010361625103%" cy="5.817873972550158%" r="0.9" fill="#000" opacity="0.037"/><circle cx="51.154940178052556%" cy="93.44728427448216%" r="0.9" fill="#000" opacity="0.024"/><circle cx="30.04654079595199%" cy="16.4408589847561%" r="0.9" fill="#000" opacity="0.005"/><circle cx="85.02182024406892%" cy="14.900186324009768%" r="0.9" fill="#000" opacity="0.002"/><circle cx="23.45555796316299%" cy="95.8680035865849%" r="0.9" fill="#000" opacity="0.049"/><circle cx="70.67665879765055%" cy="66.78034747733909%" r="0.9" fill="#000" opacity="0.011"/><circle cx="57.148532330987464%" cy="49.98732140452521%" r="0.9" fill="#000" opacity="0.021"/><circle cx="85.62048089906368%" cy="13.254004330497327%" r="0.9" fill="#000" opacity="0.021"/><circle cx="0.9152767453107113%" cy="4.121304700874873%" r="0.9" fill="#000" opacity="0.048"/><circle cx="86.45225982108359%" cy="59.87318619505984%" r="0.9" fill="#000" opacity="0.037"/><circle cx="82.28992862383281%" cy="6.501076706459974%" r="0.9" fill="#000" opacity="0.021"/><circle cx="96.07749510806993%" cy="87.97902781422812%" r="0.9" fill="#000" opacity="0.028"/><circle cx="13.926318582342878%" cy="97.38722687834237%" r="0.9" fill="#000" opacity="0.001"/><circle cx="66.35793145044788%" cy="64.48477936475078%" r="0.9" fill="#000" opacity="0.013"/><circle cx="1.930791825485223%" cy="92.06609576688298%" r="0.9" fill="#000" opacity="0.037"/>
  
    <g transform="translate(500.0,575.0)" opacity="0.9">
      <path d="M -74.39999999999999 -285.2
               C -74.39999999999999 -341.0 74.39999999999999 -341.0 74.39999999999999 -285.2
               L 62.0 -248.0
               C 210.8 -186.0 248.0 31.0 210.8 173.60000000000002
               C 173.60000000000002 297.59999999999997 -173.60000000000002 297.59999999999997 -210.8 173.60000000000002
               C -248.0 31.0 -210.8 -186.0 -62.0 -248.0
               Z"
            fill="#c7ccd1" stroke="#7d858d" stroke-width="7.44"/>
      <rect x="-99.2" y="-359.59999999999997" width="198.4" height="62.0" rx="18.599999999999998"
            fill="#7d858d" opacity="0.55"/>
      <ellipse cx="0" cy="37.199999999999996" rx="99.2" ry="124.0" fill="#7d858d" opacity="0.18"/>
    </g>
  <rect width="1000" height="1250" fill="url(#vig)"/>
  <text x="50%" y="1162" text-anchor="middle"
        font-family="Georgia, 'Times New Roman', serif" font-size="30"
        letter-spacing="3" fill="#7d858d" opacity="0.85">MOON SNUFF · III</text>
</svg>