<svg xmlns="http://www.w3.org/2000/svg" width="1000" height="1250" viewBox="0 0 1000 1250" role="img" aria-label="NOMADIC SILVER · II placeholder">
  <defs>
    <linearGradient id="bg" x1="0" y1="0" x2="0.4" y2="1">
      <stop offset="0" stop-color="#e9e2d6"/>
      <stop offset="1" stop-color="#cdbfa9"/>
    </linearGradient>
    <radialGradient id="vig" cx="0.5" cy="0.42" r="0.75">
      <stop offset="0.55" stop-color="#000" stop-opacity="0"/>
      <stop offset="1" stop-color="#000" stop-opacity="0.10"/>
    </radialGradient>
  </defs>
  <rect width="1000" height="1250" fill="url(#bg)"/>
  <circle cx="91.7617962490551%" cy="14.146999432980433%" r="0.9" fill="#000" opacity="0.012"/><circle cx="9.750270858161391%" cy="66.08812349441993%" r="0.9" fill="#000" opacity="0.034"/><circle cx="33.590339851281115%" cy="76.37363081340351%" r="0.9" fill="#000" opacity="0.014"/><circle cx="50.381487363419254%" cy="63.19035263299039%" r="0.9" fill="#000" opacity="0.017"/><circle cx="31.7717075088785%" cy="46.058146059639235%" r="0.9" fill="#000" opacity="0.000"/><circle cx="91.952603394394%" cy="3.4918991368532937%" r="0.9" fill="#000" opacity="0.027"/><circle cx="45.703914243472134%" cy="23.61675365895127%" r="0.9" fill="#000" opacity="0.026"/><circle cx="36.32427326359221%" cy="33.52692204234239%" r="0.9" fill="#000" opacity="0.008"/><circle cx="77.53277243611362%" cy="57.5708853884628%" r="0.9" fill="#000" opacity="0.011"/><circle cx="57.03550269944139%" cy="24.22906053062629%" r="0.9" fill="#000" opacity="0.045"/><circle cx="68.99820077663679%" cy="16.007492442531735%" r="0.9" fill="#000" opacity="0.014"/><circle cx="87.82457730292967%" cy="91.38763328332085%" r="0.9" fill="#000" opacity="0.037"/><circle cx="76.39791609280233%" cy="85.08551658628414%" r="0.9" fill="#000" opacity="0.021"/><circle cx="21.149593813774114%" cy="92.09701947483218%" r="0.9" fill="#000" opacity="0.006"/><circle cx="1.8460603706921486%" cy="10.070801802116701%" r="0.9" fill="#000" opacity="0.001"/><circle cx="83.82594318264955%" cy="3.5410250229139573%" r="0.9" fill="#000" opacity="0.000"/><circle cx="79.81041199814456%" cy="34.941450242533776%" r="0.9" fill="#000" opacity="0.047"/><circle cx="23.2670057807853%" cy="93.49245079763257%" r="0.9" fill="#000" opacity="0.023"/><circle cx="88.30060417420408%" cy="8.54905462117934%" r="0.9" fill="#000" opacity="0.025"/><circle cx="56.623194682512526%" cy="94.2055814194007%" r="0.9" fill="#000" opacity="0.002"/><circle cx="82.17264219780918%" cy="17.51639270043762%" r="0.9" fill="#000" opacity="0.004"/><circle cx="39.6372983578151%" cy="10.221637318256317%" r="0.9" fill="#000" opacity="0.020"/><circle cx="32.18325163132961%" cy="71.47152317547449%" r="0.9" fill="#000" opacity="0.035"/><circle cx="65.36080477066932%" cy="64.48938807451697%" r="0.9" fill="#000" opacity="0.041"/><circle cx="80.22963667007177%" cy="34.685150650223164%" r="0.9" fill="#000" opacity="0.045"/><circle cx="77.52266468089658%" cy="74.44969919644198%" r="0.9" fill="#000" opacity="0.013"/><circle cx="40.32128020488154%" cy="60.21257186434143%" r="0.9" fill="#000" opacity="0.041"/><circle cx="18.416456012840975%" cy="18.75572881781743%" r="0.9" fill="#000" opacity="0.012"/><circle cx="33.35618359946534%" cy="98.86936639460036%" r="0.9" fill="#000" opacity="0.005"/><circle cx="52.54207544380597%" cy="51.71160411532738%" r="0.9" fill="#000" opacity="0.044"/><circle cx="32.71179445580286%" cy="13.423410679881364%" r="0.9" fill="#000" opacity="0.036"/><circle cx="70.8078964917116%" cy="49.133390744422776%" r="0.9" fill="#000" opacity="0.041"/><circle cx="3.0032034056642787%" cy="85.4947614183666%" r="0.9" fill="#000" opacity="0.018"/><circle cx="27.87493904506607%" cy="38.20179789743746%" r="0.9" fill="#000" opacity="0.003"/><circle cx="90.99411028107586%" cy="79.5517096383902%" r="0.9" fill="#000" opacity="0.009"/><circle cx="32.127132614764605%" cy="23.600603810639953%" r="0.9" fill="#000" opacity="0.004"/><circle cx="12.460239232559312%" cy="90.38205617616516%" r="0.9" fill="#000" opacity="0.005"/><circle cx="11.826250440443841%" cy="88.93265553323985%" r="0.9" fill="#000" opacity="0.031"/><circle cx="89.7277392449889%" cy="54.51608498630321%" r="0.9" fill="#000" opacity="0.020"/><circle cx="11.3798213540095%" cy="33.17432308609399%" r="0.9" fill="#000" opacity="0.023"/><circle cx="46.54410272873905%" cy="83.0208890649047%" r="0.9" fill="#000" opacity="0.003"/><circle cx="34.764473345769744%" cy="75.23934659655144%" r="0.9" fill="#000" opacity="0.018"/><circle cx="9.14399554833335%" cy="80.4959489923621%" r="0.9" fill="#000" opacity="0.022"/><circle cx="20.179689950739398%" cy="73.04134165831312%" r="0.9" fill="#000" opacity="0.001"/><circle cx="48.05595899696028%" cy="26.6006869500376%" r="0.9" fill="#000" opacity="0.012"/><circle cx="14.742422543690592%" cy="14.350216703013741%" r="0.9" fill="#000" opacity="0.049"/><circle cx="69.31348843455076%" cy="37.507438567246965%" r="0.9" fill="#000" opacity="0.043"/><circle cx="94.3423863565414%" cy="16.518941486453574%" r="0.9" fill="#000" opacity="0.037"/><circle cx="53.31682637146403%" cy="59.788933240285516%" r="0.9" fill="#000" opacity="0.040"/><circle cx="9.017649737220768%" cy="16.721089456374592%" r="0.9" fill="#000" opacity="0.023"/><circle cx="47.193317956000804%" cy="21.546497820708943%" r="0.9" fill="#000" opacity="0.040"/><circle cx="54.557117037690574%" cy="23.132792128793824%" r="0.9" fill="#000" opacity="0.014"/><circle cx="10.229864675346256%" cy="32.85843178506296%" r="0.9" fill="#000" opacity="0.032"/><circle cx="58.927030850366734%" cy="59.421943212986996%" r="0.9" fill="#000" opacity="0.005"/><circle cx="61.250310865555576%" cy="24.598502290718216%" r="0.9" fill="#000" opacity="0.015"/><circle cx="57.74262521169633%" cy="53.536879339639796%" r="0.9" fill="#000" opacity="0.043"/><circle cx="75.55513512583846%" cy="63.799811542681915%" r="0.9" fill="#000" opacity="0.041"/><circle cx="13.393510402641995%" cy="10.536116906650017%" r="0.9" fill="#000" opacity="0.037"/><circle cx="33.76553546006694%" cy="9.918022782247604%" r="0.9" fill="#000" opacity="0.000"/><circle cx="33.20453117211094%" cy="78.4381768957967%" r="0.9" fill="#000" opacity="0.026"/><circle cx="76.60388765134702%" cy="83.01452915500785%" r="0.9" fill="#000" opacity="0.006"/><circle cx="70.7087452856346%" cy="36.16596212525975%" r="0.9" fill="#000" opacity="0.009"/><circle cx="61.90850124300047%" cy="21.701484132595507%" r="0.9" fill="#000" opacity="0.018"/><circle cx="16.930859422564094%" cy="37.84031901147681%" r="0.9" fill="#000" opacity="0.010"/><circle cx="36.03649326841395%" cy="49.72537311578692%" r="0.9" fill="#000" opacity="0.012"/><circle cx="57.752190345283005%" cy="96.09698321776484%" r="0.9" fill="#000" opacity="0.006"/><circle cx="92.88027515925252%" cy="48.69785341822885%" r="0.9" fill="#000" opacity="0.003"/><circle cx="24.529440264057676%" cy="4.603357577211642%" r="0.9" fill="#000" opacity="0.017"/><circle cx="43.876002922409505%" cy="28.71261221385405%" r="0.9" fill="#000" opacity="0.046"/><circle cx="55.34432875878833%" cy="49.35872820602953%" r="0.9" fill="#000" opacity="0.010"/><circle cx="19.617859266085034%" cy="99.52044680940053%" r="0.9" fill="#000" opacity="0.010"/><circle cx="30.197867889005757%" cy="80.50724991590957%" r="0.9" fill="#000" opacity="0.015"/><circle cx="18.47125179367952%" cy="29.46281305232814%" r="0.9" fill="#000" opacity="0.014"/><circle cx="54.58611614532646%" cy="95.20222727661226%" r="0.9" fill="#000" opacity="0.013"/><circle cx="87.32842566997164%" cy="90.99143520593684%" r="0.9" fill="#000" opacity="0.048"/><circle cx="93.32043355174777%" cy="54.708493857850684%" r="0.9" fill="#000" opacity="0.035"/><circle cx="18.263867186216054%" cy="86.35081071718733%" r="0.9" fill="#000" opacity="0.023"/><circle cx="10.747887574118565%" cy="72.65678912692344%" r="0.9" fill="#000" opacity="0.041"/><circle cx="29.454598268606404%" cy="71.30285366534378%" r="0.9" fill="#000" opacity="0.050"/><circle cx="81.85675951444406%" cy="99.5651911666771%" r="0.9" fill="#000" opacity="0.002"/><circle cx="85.62223206432937%" cy="19.94102626817894%" r="0.9" fill="#000" opacity="0.006"/><circle cx="81.84573942292826%" cy="66.47733756449594%" r="0.9" fill="#000" opacity="0.016"/><circle cx="31.084174566502163%" cy="3.2555697795665806%" r="0.9" fill="#000" opacity="0.006"/><circle cx="26.63152101534215%" cy="45.04782020616634%" r="0.9" fill="#000" opacity="0.010"/><circle cx="59.900863601750075%" cy="47.686625524477385%" r="0.9" fill="#000" opacity="0.029"/><circle cx="86.88331858099664%" cy="44.84557810269302%" r="0.9" fill="#000" opacity="0.024"/><circle cx="97.0187914262173%" cy="47.06483181429013%" r="0.9" fill="#000" opacity="0.022"/><circle cx="99.77652769715839%" cy="33.90259767330761%" r="0.9" fill="#000" opacity="0.049"/><circle cx="83.21346360122523%" cy="92.78517350174226%" r="0.9" fill="#000" opacity="0.015"/><circle cx="22.36491983020915%" cy="38.81997296638636%" r="0.9" fill="#000" opacity="0.002"/>
  
    <g transform="translate(500.0,575.0)" opacity="0.9">
      <path d="M -74.39999999999999 -285.2
               C -74.39999999999999 -341.0 74.39999999999999 -341.0 74.39999999999999 -285.2
               L 62.0 -248.0
               C 210.8 -186.0 248.0 31.0 210.8 173.60000000000002
               C 173.60000000000002 297.59999999999997 -173.60000000000002 297.59999999999997 -210.8 173.60000000000002
               C -248.0 31.0 -210.8 -186.0 -62.0 -248.0
               Z"
            fill="#cdbfa9" stroke="#7c6f59" stroke-width="7.44"/>
      <rect x="-99.2" y="-359.59999999999997" width="198.4" height="62.0" rx="18.599999999999998"
            fill="#7c6f59" opacity="0.55"/>
      <ellipse cx="0" cy="37.199999999999996" rx="99.2" ry="124.0" fill="#7c6f59" opacity="0.18"/>
    </g>
  <rect width="1000" height="1250" fill="url(#vig)"/>
  <text x="50%" y="1162" text-anchor="middle"
        font-family="Georgia, 'Times New Roman', serif" font-size="30"
        letter-spacing="3" fill="#7c6f59" opacity="0.85">NOMADIC SILVER · II</text>
</svg>