<svg xmlns="http://www.w3.org/2000/svg" width="1000" height="1250" viewBox="0 0 1000 1250" role="img" aria-label="BLUE STONE · II placeholder">
  <defs>
    <linearGradient id="bg" x1="0" y1="0" x2="0.4" y2="1">
      <stop offset="0" stop-color="#dde6ea"/>
      <stop offset="1" stop-color="#b9ccd6"/>
    </linearGradient>
    <radialGradient id="vig" cx="0.5" cy="0.42" r="0.75">
      <stop offset="0.55" stop-color="#000" stop-opacity="0"/>
      <stop offset="1" stop-color="#000" stop-opacity="0.10"/>
    </radialGradient>
  </defs>
  <rect width="1000" height="1250" fill="url(#bg)"/>
  <circle cx="42.98400351158232%" cy="52.481882116147446%" r="0.9" fill="#000" opacity="0.009"/><circle cx="76.35437892676484%" cy="20.87128118532261%" r="0.9" fill="#000" opacity="0.036"/><circle cx="37.89420923026307%" cy="67.3972806556101%" r="0.9" fill="#000" opacity="0.039"/><circle cx="3.600961414337911%" cy="94.32908341465497%" r="0.9" fill="#000" opacity="0.003"/><circle cx="90.07184159570816%" cy="7.394990952478519%" r="0.9" fill="#000" opacity="0.043"/><circle cx="57.68605519499145%" cy="59.86981803675213%" r="0.9" fill="#000" opacity="0.033"/><circle cx="97.45811766548339%" cy="41.474680749048254%" r="0.9" fill="#000" opacity="0.046"/><circle cx="6.206593318927589%" cy="26.51214371091045%" r="0.9" fill="#000" opacity="0.030"/><circle cx="61.125531729861116%" cy="82.36130985530066%" r="0.9" fill="#000" opacity="0.038"/><circle cx="28.24557711903295%" cy="33.01346471734301%" r="0.9" fill="#000" opacity="0.020"/><circle cx="22.380220476030065%" cy="88.14483924491749%" r="0.9" fill="#000" opacity="0.044"/><circle cx="53.78330969721621%" cy="52.63672319237694%" r="0.9" fill="#000" opacity="0.000"/><circle cx="83.68636165739144%" cy="51.789759315731764%" r="0.9" fill="#000" opacity="0.010"/><circle cx="80.33599255036961%" cy="54.709216168984064%" r="0.9" fill="#000" opacity="0.003"/><circle cx="50.416698914410304%" cy="19.48385157742276%" r="0.9" fill="#000" opacity="0.002"/><circle cx="27.35550274413898%" cy="57.71711903673603%" r="0.9" fill="#000" opacity="0.042"/><circle cx="16.341280932131006%" cy="38.59589891625064%" r="0.9" fill="#000" opacity="0.036"/><circle cx="18.4735914655195%" cy="90.74851747165764%" r="0.9" fill="#000" opacity="0.025"/><circle cx="66.77175917534089%" cy="3.611089878214757%" r="0.9" fill="#000" opacity="0.027"/><circle cx="22.082508524283117%" cy="14.591083104017756%" r="0.9" fill="#000" opacity="0.025"/><circle cx="81.31501378134828%" cy="12.233837490110345%" r="0.9" fill="#000" opacity="0.032"/><circle cx="50.93801089140564%" cy="59.13076324087453%" r="0.9" fill="#000" opacity="0.011"/><circle cx="58.86418065986404%" cy="5.121640358417134%" r="0.9" fill="#000" opacity="0.011"/><circle cx="28.22083632452721%" cy="66.09969862369512%" r="0.9" fill="#000" opacity="0.031"/><circle cx="80.0850840990083%" cy="29.46478937198632%" r="0.9" fill="#000" opacity="0.049"/><circle cx="18.106474877236668%" cy="40.22265011071225%" r="0.9" fill="#000" opacity="0.043"/><circle cx="27.5960867663125%" cy="81.01752183427953%" r="0.9" fill="#000" opacity="0.013"/><circle cx="9.762964668322404%" cy="56.811641677589854%" r="0.9" fill="#000" opacity="0.043"/><circle cx="67.92262546121857%" cy="54.15479570871046%" r="0.9" fill="#000" opacity="0.046"/><circle cx="35.974899392373416%" cy="96.92174411067974%" r="0.9" fill="#000" opacity="0.041"/><circle cx="27.75683808009408%" cy="7.111011846817805%" r="0.9" fill="#000" opacity="0.046"/><circle cx="87.28420280238173%" cy="48.10753656025001%" r="0.9" fill="#000" opacity="0.028"/><circle cx="36.973106114088836%" cy="80.095865827718%" r="0.9" fill="#000" opacity="0.023"/><circle cx="40.344052086211036%" cy="45.498601243647244%" r="0.9" fill="#000" opacity="0.035"/><circle cx="63.61863652853047%" cy="8.988225677383088%" r="0.9" fill="#000" opacity="0.013"/><circle cx="56.70078574144451%" cy="11.962369435126273%" r="0.9" fill="#000" opacity="0.038"/><circle cx="29.709811855239632%" cy="7.089711937031118%" r="0.9" fill="#000" opacity="0.019"/><circle cx="94.63316541147765%" cy="58.15980777027693%" r="0.9" fill="#000" opacity="0.005"/><circle cx="49.716169631858406%" cy="55.26690085093273%" r="0.9" fill="#000" opacity="0.002"/><circle cx="48.472198232839325%" cy="51.37822134278897%" r="0.9" fill="#000" opacity="0.013"/><circle cx="44.69468419075531%" cy="93.35294451364396%" r="0.9" fill="#000" opacity="0.031"/><circle cx="54.56179874167029%" cy="62.577237255709186%" r="0.9" fill="#000" opacity="0.022"/><circle cx="48.291634635300575%" cy="85.00599447417775%" r="0.9" fill="#000" opacity="0.041"/><circle cx="20.76752515318323%" cy="85.1790218430218%" r="0.9" fill="#000" opacity="0.002"/><circle cx="63.21580948524517%" cy="98.37962600945337%" r="0.9" fill="#000" opacity="0.034"/><circle cx="47.41167244817951%" cy="72.94796721116215%" r="0.9" fill="#000" opacity="0.016"/><circle cx="44.56710628183016%" cy="73.80410763666609%" r="0.9" fill="#000" opacity="0.019"/><circle cx="42.65716203395923%" cy="71.1849735171243%" r="0.9" fill="#000" opacity="0.037"/><circle cx="23.627512847494803%" cy="50.38323922445893%" r="0.9" fill="#000" opacity="0.013"/><circle cx="84.04317556608962%" cy="4.318546277231472%" r="0.9" fill="#000" opacity="0.007"/><circle cx="60.81062742820188%" cy="5.792573185555616%" r="0.9" fill="#000" opacity="0.015"/><circle cx="82.79542917657221%" cy="40.201952243043024%" r="0.9" fill="#000" opacity="0.047"/><circle cx="34.15766860940366%" cy="76.67328034595803%" r="0.9" fill="#000" opacity="0.028"/><circle cx="87.66850760174327%" cy="47.568865268531624%" r="0.9" fill="#000" opacity="0.047"/><circle cx="6.073295325366212%" cy="43.04433359042679%" r="0.9" fill="#000" opacity="0.006"/><circle cx="55.99647447657621%" cy="20.168813274597884%" r="0.9" fill="#000" opacity="0.002"/><circle cx="91.8340292529652%" cy="35.92948253121985%" r="0.9" fill="#000" opacity="0.014"/><circle cx="22.90803422518174%" cy="95.50196585033648%" r="0.9" fill="#000" opacity="0.009"/><circle cx="7.8742958543093655%" cy="58.72376176569806%" r="0.9" fill="#000" opacity="0.050"/><circle cx="83.66839476155882%" cy="48.096052774158935%" r="0.9" fill="#000" opacity="0.003"/><circle cx="16.46012318827148%" cy="82.55025770989258%" r="0.9" fill="#000" opacity="0.027"/><circle cx="1.206407820830957%" cy="77.15259933915151%" r="0.9" fill="#000" opacity="0.041"/><circle cx="65.6216971146405%" cy="50.385305094741575%" r="0.9" fill="#000" opacity="0.012"/><circle cx="59.090874109559046%" cy="24.200083344880053%" r="0.9" fill="#000" opacity="0.014"/><circle cx="30.683539741159116%" cy="15.925665555565672%" r="0.9" fill="#000" opacity="0.044"/><circle cx="96.96553356372961%" cy="50.92140919799073%" r="0.9" fill="#000" opacity="0.048"/><circle cx="2.2500436859610784%" cy="9.449938113730138%" r="0.9" fill="#000" opacity="0.045"/><circle cx="3.312939739236054%" cy="90.1942581170032%" r="0.9" fill="#000" opacity="0.024"/><circle cx="90.87943615369551%" cy="16.708419935758346%" r="0.9" fill="#000" opacity="0.025"/><circle cx="27.97850906327509%" cy="67.10488947711568%" r="0.9" fill="#000" opacity="0.048"/><circle cx="75.71140653627549%" cy="97.72776196167088%" r="0.9" fill="#000" opacity="0.027"/><circle cx="43.93881718780316%" cy="30.502275122869605%" r="0.9" fill="#000" opacity="0.023"/><circle cx="83.28586457197022%" cy="46.65403743372396%" r="0.9" fill="#000" opacity="0.002"/><circle cx="20.0399479778539%" cy="59.30767654991737%" r="0.9" fill="#000" opacity="0.043"/><circle cx="66.35666941849311%" cy="23.391286076708294%" r="0.9" fill="#000" opacity="0.021"/><circle cx="80.17608133257322%" cy="88.77780696226964%" r="0.9" fill="#000" opacity="0.036"/><circle cx="73.99476414219266%" cy="71.38733629252808%" r="0.9" fill="#000" opacity="0.020"/><circle cx="50.530804601270894%" cy="5.020319506367265%" r="0.9" fill="#000" opacity="0.002"/><circle cx="16.774593722409648%" cy="64.09647710984233%" r="0.9" fill="#000" opacity="0.005"/><circle cx="83.1240181700394%" cy="80.86369689577492%" r="0.9" fill="#000" opacity="0.043"/><circle cx="95.08107670055634%" cy="65.93445284740112%" r="0.9" fill="#000" opacity="0.048"/><circle cx="96.89135289592058%" cy="29.19924557860033%" r="0.9" fill="#000" opacity="0.034"/><circle cx="57.55637731737744%" cy="2.9158659146738986%" r="0.9" fill="#000" opacity="0.040"/><circle cx="88.14332005944922%" cy="93.88442894563515%" r="0.9" fill="#000" opacity="0.013"/><circle cx="21.089837943522028%" cy="33.924619728286196%" r="0.9" fill="#000" opacity="0.016"/><circle cx="15.466898515743722%" cy="90.06244078114634%" r="0.9" fill="#000" opacity="0.019"/><circle cx="88.98729322311726%" cy="47.556529804627765%" r="0.9" fill="#000" opacity="0.011"/><circle cx="9.681202208693973%" cy="57.599170762954756%" r="0.9" fill="#000" opacity="0.027"/><circle cx="22.092996837157596%" cy="46.89806666046287%" r="0.9" fill="#000" opacity="0.029"/><circle cx="77.72286323779444%" cy="19.088116193826554%" r="0.9" fill="#000" opacity="0.043"/>
  
    <g transform="translate(500.0,575.0)" opacity="0.9">
      <path d="M -74.39999999999999 -285.2
               C -74.39999999999999 -341.0 74.39999999999999 -341.0 74.39999999999999 -285.2
               L 62.0 -248.0
               C 210.8 -186.0 248.0 31.0 210.8 173.60000000000002
               C 173.60000000000002 297.59999999999997 -173.60000000000002 297.59999999999997 -210.8 173.60000000000002
               C -248.0 31.0 -210.8 -186.0 -62.0 -248.0
               Z"
            fill="#b9ccd6" stroke="#5b7c8c" stroke-width="7.44"/>
      <rect x="-99.2" y="-359.59999999999997" width="198.4" height="62.0" rx="18.599999999999998"
            fill="#5b7c8c" opacity="0.55"/>
      <ellipse cx="0" cy="37.199999999999996" rx="99.2" ry="124.0" fill="#5b7c8c" opacity="0.18"/>
    </g>
  <rect width="1000" height="1250" fill="url(#vig)"/>
  <text x="50%" y="1162" text-anchor="middle"
        font-family="Georgia, 'Times New Roman', serif" font-size="30"
        letter-spacing="3" fill="#5b7c8c" opacity="0.85">BLUE STONE · II</text>
</svg>