<svg xmlns="http://www.w3.org/2000/svg" width="1200" height="1400" viewBox="0 0 1200 1400" role="img" aria-label="OUR STORY placeholder">
  <defs>
    <linearGradient id="bg" x1="0" y1="0" x2="0.4" y2="1">
      <stop offset="0" stop-color="#e9e2d6"/>
      <stop offset="1" stop-color="#cdbfa9"/>
    </linearGradient>
    <radialGradient id="vig" cx="0.5" cy="0.42" r="0.75">
      <stop offset="0.55" stop-color="#000" stop-opacity="0"/>
      <stop offset="1" stop-color="#000" stop-opacity="0.10"/>
    </radialGradient>
  </defs>
  <rect width="1200" height="1400" fill="url(#bg)"/>
  <circle cx="44.55298893939469%" cy="62.937020576747024%" r="0.9" fill="#000" opacity="0.022"/><circle cx="32.221017854005176%" cy="41.8723398981596%" r="0.9" fill="#000" opacity="0.005"/><circle cx="51.2261202246994%" cy="78.68139353465692%" r="0.9" fill="#000" opacity="0.018"/><circle cx="62.36893924772794%" cy="55.855845478204614%" r="0.9" fill="#000" opacity="0.024"/><circle cx="17.164343220437317%" cy="48.057279913884166%" r="0.9" fill="#000" opacity="0.025"/><circle cx="2.3648310258253646%" cy="85.74710096650844%" r="0.9" fill="#000" opacity="0.037"/><circle cx="62.77447208958677%" cy="25.411699378537854%" r="0.9" fill="#000" opacity="0.032"/><circle cx="85.60336259378461%" cy="45.21982441807805%" r="0.9" fill="#000" opacity="0.045"/><circle cx="83.288418532921%" cy="16.830732766829883%" r="0.9" fill="#000" opacity="0.021"/><circle cx="8.466558897948806%" cy="56.27450752387648%" r="0.9" fill="#000" opacity="0.031"/><circle cx="47.99221004067452%" cy="38.018462451376664%" r="0.9" fill="#000" opacity="0.023"/><circle cx="19.481893511381553%" cy="95.89621478017274%" r="0.9" fill="#000" opacity="0.031"/><circle cx="89.97751485394359%" cy="37.766063224127386%" r="0.9" fill="#000" opacity="0.020"/><circle cx="17.223508237154327%" cy="32.27459535859748%" r="0.9" fill="#000" opacity="0.006"/><circle cx="24.629565434007063%" cy="42.175997812401874%" r="0.9" fill="#000" opacity="0.038"/><circle cx="42.76899134775589%" cy="51.85413710504576%" r="0.9" fill="#000" opacity="0.022"/><circle cx="95.92933282499749%" cy="77.31328251277534%" r="0.9" fill="#000" opacity="0.034"/><circle cx="86.61569922756054%" cy="25.0372093763063%" r="0.9" fill="#000" opacity="0.044"/><circle cx="34.06709337217775%" cy="11.697800780526368%" r="0.9" fill="#000" opacity="0.029"/><circle cx="21.831756976657335%" cy="83.78760935271275%" r="0.9" fill="#000" opacity="0.034"/><circle cx="87.02590363502473%" cy="20.5129232520061%" r="0.9" fill="#000" opacity="0.007"/><circle cx="10.749131150057401%" cy="78.95198725756678%" r="0.9" fill="#000" opacity="0.020"/><circle cx="74.42826370776761%" cy="30.36512636688945%" r="0.9" fill="#000" opacity="0.033"/><circle cx="63.72155130843187%" cy="38.39162044491778%" r="0.9" fill="#000" opacity="0.009"/><circle cx="94.16517137884097%" cy="42.9019959410961%" r="0.9" fill="#000" opacity="0.032"/><circle cx="61.68353034453201%" cy="3.179250495099528%" r="0.9" fill="#000" opacity="0.030"/><circle cx="69.13739121148022%" cy="56.70283797441411%" r="0.9" fill="#000" opacity="0.011"/><circle cx="85.84544171514705%" cy="3.0380541436583752%" r="0.9" fill="#000" opacity="0.003"/><circle cx="8.389321210987111%" cy="38.74706460751965%" r="0.9" fill="#000" opacity="0.029"/><circle cx="89.79382762464111%" cy="3.9513488687660137%" r="0.9" fill="#000" opacity="0.042"/><circle cx="59.93060839274001%" cy="19.829168163940192%" r="0.9" fill="#000" opacity="0.018"/><circle cx="60.35567239515969%" cy="33.03732606476688%" r="0.9" fill="#000" opacity="0.032"/><circle cx="3.113596058754131%" cy="64.56374926601384%" r="0.9" fill="#000" opacity="0.023"/><circle cx="7.107508812405483%" cy="1.5458751768947843%" r="0.9" fill="#000" opacity="0.001"/><circle cx="44.655924240396885%" cy="51.66152632312095%" r="0.9" fill="#000" opacity="0.040"/><circle cx="98.50536812765523%" cy="64.50400719149471%" r="0.9" fill="#000" opacity="0.011"/><circle cx="4.570370201793706%" cy="34.169020931742125%" r="0.9" fill="#000" opacity="0.015"/><circle cx="43.81760785367178%" cy="35.61232743605514%" r="0.9" fill="#000" opacity="0.002"/><circle cx="89.92513251477187%" cy="42.37374481943451%" r="0.9" fill="#000" opacity="0.039"/><circle cx="38.78293789074767%" cy="83.63365298797815%" r="0.9" fill="#000" opacity="0.019"/><circle cx="96.72425539431137%" cy="38.189889188559704%" r="0.9" fill="#000" opacity="0.000"/><circle cx="20.13904135711947%" cy="78.07053191960718%" r="0.9" fill="#000" opacity="0.018"/><circle cx="4.829930622788192%" cy="72.92950156036618%" r="0.9" fill="#000" opacity="0.006"/><circle cx="62.940693861363215%" cy="80.17639035334784%" r="0.9" fill="#000" opacity="0.039"/><circle cx="58.42028836939287%" cy="4.4202805587640785%" r="0.9" fill="#000" opacity="0.020"/><circle cx="55.90427311859697%" cy="75.81820669832062%" r="0.9" fill="#000" opacity="0.003"/><circle cx="80.95137502239066%" cy="44.08489573829091%" r="0.9" fill="#000" opacity="0.048"/><circle cx="66.80596944858202%" cy="83.35742090050073%" r="0.9" fill="#000" opacity="0.027"/><circle cx="15.770650440270174%" cy="55.65178209469913%" r="0.9" fill="#000" opacity="0.048"/><circle cx="84.2001465098054%" cy="27.259228209979437%" r="0.9" fill="#000" opacity="0.014"/><circle cx="96.84332300215989%" cy="19.549582595843297%" r="0.9" fill="#000" opacity="0.030"/><circle cx="96.76440109158195%" cy="34.869646685759704%" r="0.9" fill="#000" opacity="0.006"/><circle cx="67.36426756779942%" cy="19.466681117014417%" r="0.9" fill="#000" opacity="0.017"/><circle cx="92.65774618022465%" cy="45.000665820979144%" r="0.9" fill="#000" opacity="0.016"/><circle cx="54.51896008638016%" cy="20.97921459740011%" r="0.9" fill="#000" opacity="0.026"/><circle cx="36.53751630781494%" cy="88.64481283746773%" r="0.9" fill="#000" opacity="0.023"/><circle cx="27.516501896934777%" cy="97.83114405525774%" r="0.9" fill="#000" opacity="0.029"/><circle cx="80.09467967361927%" cy="88.30526253043408%" r="0.9" fill="#000" opacity="0.012"/><circle cx="94.11183959665772%" cy="64.96238401791858%" r="0.9" fill="#000" opacity="0.024"/><circle cx="24.041452113801753%" cy="18.32467511448188%" r="0.9" fill="#000" opacity="0.038"/><circle cx="78.7117418023163%" cy="82.84551646041692%" r="0.9" fill="#000" opacity="0.048"/><circle cx="95.2272771411663%" cy="69.91037389353322%" r="0.9" fill="#000" opacity="0.030"/><circle cx="45.463288757897345%" cy="88.96392036385404%" r="0.9" fill="#000" opacity="0.013"/><circle cx="24.457998888752364%" cy="44.23516346355921%" r="0.9" fill="#000" opacity="0.042"/><circle cx="91.65814699503152%" cy="50.20563635369024%" r="0.9" fill="#000" opacity="0.033"/><circle cx="94.57898080684892%" cy="40.36458473119669%" r="0.9" fill="#000" opacity="0.041"/><circle cx="16.64292961893%" cy="21.903919600243405%" r="0.9" fill="#000" opacity="0.047"/><circle cx="10.816659305930576%" cy="24.37952596683418%" r="0.9" fill="#000" opacity="0.030"/><circle cx="77.32920127294251%" cy="34.90600117283611%" r="0.9" fill="#000" opacity="0.030"/><circle cx="38.64249054452012%" cy="88.54227774469537%" r="0.9" fill="#000" opacity="0.042"/><circle cx="77.88823433771762%" cy="49.16189353843426%" r="0.9" fill="#000" opacity="0.000"/><circle cx="11.161796054910479%" cy="63.193177423032644%" r="0.9" fill="#000" opacity="0.016"/><circle cx="84.83290578776838%" cy="66.95745340710116%" r="0.9" fill="#000" opacity="0.021"/><circle cx="29.110769952570525%" cy="50.43096060157163%" r="0.9" fill="#000" opacity="0.030"/><circle cx="7.044668313657687%" cy="4.990988138610286%" r="0.9" fill="#000" opacity="0.033"/><circle cx="31.70036503302588%" cy="4.476566447674202%" r="0.9" fill="#000" opacity="0.029"/><circle cx="7.909798794537403%" cy="16.023283077358876%" r="0.9" fill="#000" opacity="0.019"/><circle cx="34.32299034902053%" cy="37.97298720696307%" r="0.9" fill="#000" opacity="0.030"/><circle cx="15.16263773037797%" cy="58.7175925937779%" r="0.9" fill="#000" opacity="0.034"/><circle cx="30.562207421102805%" cy="5.7025728267064535%" r="0.9" fill="#000" opacity="0.023"/><circle cx="27.96310703365631%" cy="6.994153016325733%" r="0.9" fill="#000" opacity="0.025"/><circle cx="36.50967577997687%" cy="12.8917585614454%" r="0.9" fill="#000" opacity="0.009"/><circle cx="33.13129766843891%" cy="88.83380333240976%" r="0.9" fill="#000" opacity="0.030"/><circle cx="25.840314990954628%" cy="56.061793898024405%" r="0.9" fill="#000" opacity="0.035"/><circle cx="9.265115984287654%" cy="71.98250455731112%" r="0.9" fill="#000" opacity="0.034"/><circle cx="37.98345832753734%" cy="24.016829664289517%" r="0.9" fill="#000" opacity="0.020"/><circle cx="11.358866920642807%" cy="9.353680315710344%" r="0.9" fill="#000" opacity="0.045"/><circle cx="73.48120530468292%" cy="70.16820699002506%" r="0.9" fill="#000" opacity="0.012"/><circle cx="4.441349545842444%" cy="36.99562452760633%" r="0.9" fill="#000" opacity="0.046"/><circle cx="40.5334406460244%" cy="78.54071064008382%" r="0.9" fill="#000" opacity="0.011"/>
  
    <g transform="translate(600.0,644.0)" opacity="0.9">
      <path d="M -89.28 -342.24
               C -89.28 -409.20000000000005 89.28 -409.20000000000005 89.28 -342.24
               L 74.4 -297.6
               C 252.96 -223.2 297.6 37.2 252.96 208.32000000000002
               C 208.32000000000002 357.12 -208.32000000000002 357.12 -252.96 208.32000000000002
               C -297.6 37.2 -252.96 -223.2 -74.4 -297.6
               Z"
            fill="#cdbfa9" stroke="#7c6f59" stroke-width="8.928"/>
      <rect x="-119.04" y="-431.52" width="238.08" height="74.4" rx="22.32"
            fill="#7c6f59" opacity="0.55"/>
      <ellipse cx="0" cy="44.64" rx="119.04" ry="148.8" fill="#7c6f59" opacity="0.18"/>
    </g>
  <rect width="1200" height="1400" fill="url(#vig)"/>
  <text x="50%" y="1302" text-anchor="middle"
        font-family="Georgia, 'Times New Roman', serif" font-size="36"
        letter-spacing="3" fill="#7c6f59" opacity="0.85">OUR STORY</text>
</svg>