<svg xmlns="http://www.w3.org/2000/svg" viewBox="0 0 248 300" role="img" aria-label="Oddpeel sock">
<defs><clipPath id="s2"><path d="M150 28 L214 28 L214 180 C214 214 208 236 194 248 C182 258 158 262 120 262 L70 262 C44 262 34 252 34 234 C34 218 44 210 66 207 L128 199 C144 197 150 192 150 170 Z"/></clipPath></defs>
<path d="M150 28 L214 28 L214 180 C214 214 208 236 194 248 C182 258 158 262 120 262 L70 262 C44 262 34 252 34 234 C34 218 44 210 66 207 L128 199 C144 197 150 192 150 170 Z" fill="#FF6FB5"/>
<g clip-path="url(#s2)">
<circle cx="20" cy="78" r="7" fill="#FFD23F"/>
<circle cx="46" cy="78" r="7" fill="#FFFFFF"/>
<circle cx="72" cy="78" r="7" fill="#FFD23F"/>
<circle cx="98" cy="78" r="7" fill="#FFFFFF"/>
<circle cx="124" cy="78" r="7" fill="#FFD23F"/>
<circle cx="150" cy="78" r="7" fill="#FFFFFF"/>
<circle cx="176" cy="78" r="7" fill="#FFD23F"/>
<circle cx="202" cy="78" r="7" fill="#FFFFFF"/>
<circle cx="228" cy="78" r="7" fill="#FFD23F"/>
<circle cx="33" cy="104" r="7" fill="#FFFFFF"/>
<circle cx="59" cy="104" r="7" fill="#FFD23F"/>
<circle cx="85" cy="104" r="7" fill="#FFFFFF"/>
<circle cx="111" cy="104" r="7" fill="#FFD23F"/>
<circle cx="137" cy="104" r="7" fill="#FFFFFF"/>
<circle cx="163" cy="104" r="7" fill="#FFD23F"/>
<circle cx="189" cy="104" r="7" fill="#FFFFFF"/>
<circle cx="215" cy="104" r="7" fill="#FFD23F"/>
<circle cx="241" cy="104" r="7" fill="#FFFFFF"/>
<circle cx="20" cy="130" r="7" fill="#FFD23F"/>
<circle cx="46" cy="130" r="7" fill="#FFFFFF"/>
<circle cx="72" cy="130" r="7" fill="#FFD23F"/>
<circle cx="98" cy="130" r="7" fill="#FFFFFF"/>
<circle cx="124" cy="130" r="7" fill="#FFD23F"/>
<circle cx="150" cy="130" r="7" fill="#FFFFFF"/>
<circle cx="176" cy="130" r="7" fill="#FFD23F"/>
<circle cx="202" cy="130" r="7" fill="#FFFFFF"/>
<circle cx="228" cy="130" r="7" fill="#FFD23F"/>
<circle cx="33" cy="156" r="7" fill="#FFFFFF"/>
<circle cx="59" cy="156" r="7" fill="#FFD23F"/>
<circle cx="85" cy="156" r="7" fill="#FFFFFF"/>
<circle cx="111" cy="156" r="7" fill="#FFD23F"/>
<circle cx="137" cy="156" r="7" fill="#FFFFFF"/>
<circle cx="163" cy="156" r="7" fill="#FFD23F"/>
<circle cx="189" cy="156" r="7" fill="#FFFFFF"/>
<circle cx="215" cy="156" r="7" fill="#FFD23F"/>
<circle cx="241" cy="156" r="7" fill="#FFFFFF"/>
<circle cx="20" cy="182" r="7" fill="#FFD23F"/>
<circle cx="46" cy="182" r="7" fill="#FFFFFF"/>
<circle cx="72" cy="182" r="7" fill="#FFD23F"/>
<circle cx="98" cy="182" r="7" fill="#FFFFFF"/>
<circle cx="124" cy="182" r="7" fill="#FFD23F"/>
<circle cx="150" cy="182" r="7" fill="#FFFFFF"/>
<circle cx="176" cy="182" r="7" fill="#FFD23F"/>
<circle cx="202" cy="182" r="7" fill="#FFFFFF"/>
<circle cx="228" cy="182" r="7" fill="#FFD23F"/>
<circle cx="33" cy="208" r="7" fill="#FFFFFF"/>
<circle cx="59" cy="208" r="7" fill="#FFD23F"/>
<circle cx="85" cy="208" r="7" fill="#FFFFFF"/>
<circle cx="111" cy="208" r="7" fill="#FFD23F"/>
<circle cx="137" cy="208" r="7" fill="#FFFFFF"/>
<circle cx="163" cy="208" r="7" fill="#FFD23F"/>
<circle cx="189" cy="208" r="7" fill="#FFFFFF"/>
<circle cx="215" cy="208" r="7" fill="#FFD23F"/>
<circle cx="241" cy="208" r="7" fill="#FFFFFF"/>
<circle cx="20" cy="234" r="7" fill="#FFD23F"/>
<circle cx="46" cy="234" r="7" fill="#FFFFFF"/>
<circle cx="72" cy="234" r="7" fill="#FFD23F"/>
<circle cx="98" cy="234" r="7" fill="#FFFFFF"/>
<circle cx="124" cy="234" r="7" fill="#FFD23F"/>
<circle cx="150" cy="234" r="7" fill="#FFFFFF"/>
<circle cx="176" cy="234" r="7" fill="#FFD23F"/>
<circle cx="202" cy="234" r="7" fill="#FFFFFF"/>
<circle cx="228" cy="234" r="7" fill="#FFD23F"/>
<circle cx="33" cy="260" r="7" fill="#FFFFFF"/>
<circle cx="59" cy="260" r="7" fill="#FFD23F"/>
<circle cx="85" cy="260" r="7" fill="#FFFFFF"/>
<circle cx="111" cy="260" r="7" fill="#FFD23F"/>
<circle cx="137" cy="260" r="7" fill="#FFFFFF"/>
<circle cx="163" cy="260" r="7" fill="#FFD23F"/>
<circle cx="189" cy="260" r="7" fill="#FFFFFF"/>
<circle cx="215" cy="260" r="7" fill="#FFD23F"/>
<circle cx="241" cy="260" r="7" fill="#FFFFFF"/>
<rect x="140" y="22" width="84" height="42" fill="#FFD23F"/>
<line x1="150" y1="24" x2="150" y2="62" stroke="rgba(0,0,0,.12)" stroke-width="2"/>
<line x1="158" y1="24" x2="158" y2="62" stroke="rgba(0,0,0,.12)" stroke-width="2"/>
<line x1="166" y1="24" x2="166" y2="62" stroke="rgba(0,0,0,.12)" stroke-width="2"/>
<line x1="174" y1="24" x2="174" y2="62" stroke="rgba(0,0,0,.12)" stroke-width="2"/>
<line x1="182" y1="24" x2="182" y2="62" stroke="rgba(0,0,0,.12)" stroke-width="2"/>
<line x1="190" y1="24" x2="190" y2="62" stroke="rgba(0,0,0,.12)" stroke-width="2"/>
<line x1="198" y1="24" x2="198" y2="62" stroke="rgba(0,0,0,.12)" stroke-width="2"/>
<line x1="206" y1="24" x2="206" y2="62" stroke="rgba(0,0,0,.12)" stroke-width="2"/>
<line x1="214" y1="24" x2="214" y2="62" stroke="rgba(0,0,0,.12)" stroke-width="2"/>
<path d="M214 188 C214 220 206 240 192 250 C176 246 168 232 168 214 C168 198 182 188 214 188 Z" fill="#2FB6E8"/>
<path d="M70 262 C44 262 34 252 34 234 C34 220 42 212 58 208 C66 224 70 244 70 262 Z" fill="#2FB6E8"/>
</g>
<path d="M150 28 L214 28 L214 180 C214 214 208 236 194 248 C182 258 158 262 120 262 L70 262 C44 262 34 252 34 234 C34 218 44 210 66 207 L128 199 C144 197 150 192 150 170 Z" fill="none" stroke="#1b1b1b" stroke-width="6" stroke-linejoin="round"/>
</svg>
