<svg xmlns="http://www.w3.org/2000/svg" width="1200" height="630" viewBox="0 0 1200 630">
  <defs>
    <linearGradient id="bg" x1="0" y1="0" x2="1" y2="1">
      <stop offset="0%" stop-color="#ffffff"/>
      <stop offset="100%" stop-color="#eef2f8"/>
    </linearGradient>
    <radialGradient id="glow" cx="78%" cy="22%" r="62%">
      <stop offset="0%" stop-color="#1d3a63" stop-opacity="0.10"/>
      <stop offset="100%" stop-color="#1d3a63" stop-opacity="0"/>
    </radialGradient>
    <linearGradient id="accent" x1="0" y1="0" x2="1" y2="0">
      <stop offset="0%" stop-color="#16335a"/>
      <stop offset="55%" stop-color="#16335a"/>
      <stop offset="100%" stop-color="#98a2ad"/>
    </linearGradient>
  </defs>

  <rect width="1200" height="630" fill="url(#bg)"/>
  <rect width="1200" height="630" fill="url(#glow)"/>

  <!-- faint global-trade network -->
  <g stroke="#1d3a63" stroke-opacity="0.14" stroke-width="1.5" fill="none">
    <path d="M780,120 C940,80 1040,180 1120,120"/>
    <path d="M820,240 C960,260 1040,200 1140,260"/>
    <path d="M780,120 C860,180 800,230 820,240"/>
    <path d="M1120,120 C1100,180 1160,220 1140,260"/>
  </g>
  <g fill="#1d3a63" fill-opacity="0.45">
    <circle cx="780" cy="120" r="5"/><circle cx="1120" cy="120" r="5"/>
    <circle cx="820" cy="240" r="4"/><circle cx="1140" cy="260" r="4"/>
  </g>

  <!-- ===== Logo mark ===== -->
  <g transform="translate(96,205) scale(2.2)">
    <path d="M14.3 63 A38 38 0 0 1 85.7 37" fill="none" stroke="#16335a" stroke-width="13" stroke-linecap="round"/>
    <path d="M85.7 37 A38 38 0 0 1 14.3 63" fill="none" stroke="#98a2ad" stroke-width="13" stroke-linecap="round"/>
    <path d="M47 43 L86 39 L82 51 L43 53 Z" fill="#16335a"/>
    <path d="M53 57 L14 61 L18 49 L57 47 Z" fill="#98a2ad"/>
  </g>

  <!-- ===== Text block ===== -->
  <text x="372" y="232" font-family="Outfit" font-weight="700" font-size="24" letter-spacing="3" fill="#1d3a63">INTERNATIONAL SOURCING &amp; TRADE PARTNER</text>

  <text x="370" y="330" font-family="Outfit" font-weight="700" font-size="92" letter-spacing="2" fill="#16335a">CONCORD TRADE</text>

  <text x="372" y="398" font-family="Outfit" font-weight="400" font-size="33" fill="#56657a">Global Trade · Reliable Supply · Strategic Connections</text>

  <!-- category chips -->
  <g font-family="Outfit" font-weight="600" font-size="22" fill="#16335a">
    <g>
      <rect x="372" y="448" width="186" height="48" rx="24" fill="#ffffff" stroke="#d6deea"/>
      <text x="465" y="479" text-anchor="middle">Pet Care</text>
    </g>
    <g>
      <rect x="572" y="448" width="246" height="48" rx="24" fill="#ffffff" stroke="#d6deea"/>
      <text x="695" y="479" text-anchor="middle">Home Hygiene</text>
    </g>
    <g>
      <rect x="832" y="448" width="262" height="48" rx="24" fill="#ffffff" stroke="#d6deea"/>
      <text x="963" y="479" text-anchor="middle">Medical &amp; PPE</text>
    </g>
  </g>

  <text x="372" y="552" font-family="Outfit" font-weight="600" font-size="26" letter-spacing="1" fill="#56657a">www.concord-trade.com</text>

  <!-- bottom accent -->
  <rect x="0" y="618" width="1200" height="12" fill="url(#accent)"/>
</svg>
